<svg xmlns="http://www.w3.org/2000/svg" width="82" height="82" fill="none" style="">
<rect id="backgroundrect" width="100%" height="100%" x="0" y="0" fill="none" stroke="none"/>   <!-- Generator: Sketch 51.3 (57544) - http://www.bohemiancoding.com/sketch -->
    <title>write amount icon</title>
    <desc>Created with Sketch.</desc>
    <defs>
        <filter id="filter0_d" x="0.5" y="0.5" width="81" height="81" filterUnits="userSpaceOnUse" color-interpolation-filters="sRGB">
        <feFlood flood-opacity="0" result="BackgroundImageFix"/>
        <feColorMatrix in="SourceAlpha" type="matrix" values="0 0 0 0 0 0 0 0 0 0 0 0 0 0 0 0 0 0 127 0"/>
        <feOffset/>
        <feGaussianBlur stdDeviation="4"/>
        <feColorMatrix type="matrix" values="0 0 0 0 0.12549 0 0 0 0 0.435294 0 0 0 0 0.541176 0 0 0 0.5 0"/>
        <feBlend mode="normal" in2="BackgroundImageFix" result="effect1_dropShadow"/>
        <feBlend mode="normal" in="SourceGraphic" in2="effect1_dropShadow" result="shape"/>
        </filter>
    </defs>
    <g class="currentLayer" style=""><title>Layer 1</title><g filter="url(#filter0_d)" id="svg_1" class="">
<path fill-rule="evenodd" clip-rule="evenodd" d="M41.502042174339294,71.8852961063385 C59.17514217433929,71.8852961063385 73.5020421743393,57.5583961063385 73.5020421743393,39.8852961063385 C73.5020421743393,36.467996106338504 72.96634217433929,33.1757961063385 71.97444217433929,30.0880961063385 C67.8363421743393,17.2072961063385 55.757842174339295,7.885296106338501 41.502042174339294,7.885296106338501 C23.828942174339293,7.885296106338501 9.502042174339294,22.2121961063385 9.502042174339294,39.8852961063385 C9.502042174339294,57.5583961063385 23.828942174339293,71.8852961063385 41.502042174339294,71.8852961063385 z" fill="white" id="svg_2"/>
<path fill-rule="evenodd" clip-rule="evenodd" d="M41.502042174339294,71.8852961063385 C59.17514217433929,71.8852961063385 73.5020421743393,57.5583961063385 73.5020421743393,39.8852961063385 C73.5020421743393,36.467996106338504 72.96634217433929,33.1757961063385 71.97444217433929,30.0880961063385 C67.8363421743393,17.2072961063385 55.757842174339295,7.885296106338501 41.502042174339294,7.885296106338501 C23.828942174339293,7.885296106338501 9.502042174339294,22.2121961063385 9.502042174339294,39.8852961063385 C9.502042174339294,57.5583961063385 23.828942174339293,71.8852961063385 41.502042174339294,71.8852961063385 z" stroke="#206F8A" id="svg_3"/>
</g>
    <g id="Mobile---Investment" stroke="none" stroke-width="1" fill="none" fill-rule="evenodd" stroke-linecap="round" stroke-linejoin="round" class="">
        <g id="05-(a)---Invest---Enter-Amount---Bank" stroke="#206F8A" stroke-width="2">
            <g id="write-amount-icon">
                <path d="M45.36369955317383,37.58249188712159 L65.57099135317384,37.58249188712159 C66.19442995317382,37.58249188712159 66.69911575317383,37.97141518712158 66.69911575317383,38.44260958712158 L66.69911575317383,54.30617718712159 C66.69911575317383,54.77737308712159 66.19442995317382,55.15881828712159 65.57099135317384,55.15881828712159 L20.33713668317384,55.15881828712159 C19.703803453173833,55.15881828712159 19.199115753173828,54.77737308712159 19.199115753173828,54.30617718712159 L19.199115753173828,38.44260958712158 C19.199115753173828,37.971415087121585 19.703803453173833,37.58249188712159 20.33713668317384,37.58249188712159 L35.79442915317382,37.58249188712159 " id="Shape"/>
                <path d="M25.010058353173832,48.74735738712158 C25.010058353173832,50.079186487121575 26.089688253173833,51.15881828712159 27.42151635317383,51.15881828712159 C28.75330915317383,51.15881828712159 29.832975353173822,50.079186487121575 29.832975353173822,48.74735738712158 C29.832975353173822,47.415566487121566 28.753309253173825,46.335900287121575 27.42151635317383,46.335900287121575 C26.089688253173833,46.335900287121575 25.010058353173832,45.25627228712159 25.010058353173832,43.9244431871216 C25.010058353173832,42.59264848712158 26.089688253173833,41.51298228712159 27.42151635317383,41.51298228712159 C28.75330915317383,41.51298228712159 29.832975353173822,42.592648387121585 29.832975353173822,43.9244431871216 " id="Shape"/>
                <path d="M27.421516453173822,41.51298238712158 L27.421516453173822,40.61689088712157 " id="Shape"/>
                <path d="M27.421516453173822,52.05490968712158 L27.421516453173822,51.15881828712159 " id="Shape"/>
                <path d="M35.66411595317382,50.273400287121575 L63.03911595317382,50.273400287121575 " id="Shape"/>
                <path d="M35.66411595317382,45.085900287121575 L48.50268175317383,45.085900287121575 " id="Shape"/>
                <path d="M48.50268175317383,45.085900287121575 L45.40112305317382,36.95654198712157 L26.693810453173825,18.249229387121602 C26.062725053173835,17.618144487121583 25.039534553173837,17.618144487121583 24.40844915317382,18.249229387121602 L21.66601605317382,20.991662987121572 C21.03493065317383,21.622747387121592 21.03493065317383,22.645938887121588 21.66601605317382,23.277024287121606 L40.37332955317383,41.984335887121574 L48.50268175317383,45.085900287121575 z" id="Shape"/>
                <path d="M25.48583415317384,27.096841787121605 L32.619424853173825,19.963250087121594 C33.07921605317382,19.503459887121608 33.824684153173834,19.503459887121608 34.28447345317383,19.963250087121594 L43.785045653173825,29.46382228712156 " id="Shape"/>
                <path d="M39.932580953173826,41.54358768712157 L44.96037485317383,36.515793787121595 " id="Shape" transform=""/>
            </g>
        </g>
    </g>
    </g>
</svg>