<?xml version="1.0" encoding="UTF-8"?>
<svg width="82px" height="90px" viewBox="0 0 82 90" version="1.1" xmlns="http://www.w3.org/2000/svg" xmlns:xlink="http://www.w3.org/1999/xlink">
    <!-- Generator: Sketch 51.1 (57501) - http://www.bohemiancoding.com/sketch -->
    <title>application-form</title>
    <desc>Created with Sketch.</desc>
    <defs></defs>
    <g id="Page-1" stroke="none" stroke-width="1" fill="none" fill-rule="evenodd">
        <g id="application-form" fill="#000000" fill-rule="nonzero">
            <path d="M42.718,78.376 C42.718,77.462 43.452,76.724 44.368,76.724 L50.044,76.724 C52.429,78.327 55.124,79.436 57.987,79.953 C57.868,79.979 57.759,80.023 57.634,80.023 L44.366,80.023 C43.452,80.026 42.718,79.285 42.718,78.376 Z M38.683,65.165 L41.625,65.165 C41.311,64.08 41.082,62.981 40.951,61.862 L38.683,61.862 C37.771,61.862 37.032,62.602 37.032,63.514 C37.032,64.426 37.771,65.165 38.683,65.165 Z M26.532,23.459 C24.506,22.098 23.111,19.401 23.111,16.978 C23.111,13.557 25.882,10.78 29.306,10.78 C32.73,10.78 35.501,13.557 35.501,16.978 C35.501,19.401 34.104,22.098 32.074,23.459 C36.93,24.69 40.526,28.909 40.526,32.03 C40.526,35.721 18.088,35.721 18.088,32.03 C18.085,28.909 21.685,24.692 26.532,23.459 Z M26.158,31.659 L29.303,34.8 L32.452,31.659 L29.805,25.26 L29.83,25.26 L30.858,24.085 C30.357,24.26 29.849,24.369 29.303,24.369 C28.764,24.369 28.25,24.26 27.75,24.079 L28.775,25.26 L28.802,25.26 L26.158,31.659 Z M67.624,86.398 L67.629,86.391 L67.551,86.253 C67.509,86.253 67.475,86.266 67.436,86.266 L9.928,86.266 C6.954,86.266 4.536,83.847 4.536,80.874 L4.536,8.982 C4.536,6.011 6.953,3.592 9.928,3.592 L67.435,3.592 C70.408,3.592 72.827,6.011 72.827,8.982 L72.827,41.886 C74.116,42.7 75.335,43.625 76.424,44.709 L76.424,8.982 C76.424,4.027 72.393,0 67.436,0 L9.928,0 C4.97,0 0.94,4.027 0.94,8.982 L0.94,80.875 C0.94,85.828 4.97,89.857 9.928,89.857 L67.435,89.857 C68.136,89.857 68.815,89.755 69.473,89.601 L67.624,86.398 Z M19.734,57.641 L40.911,57.641 C41.012,56.535 41.196,55.434 41.474,54.337 L19.736,54.337 C18.824,54.337 18.088,55.074 18.088,55.986 C18.085,56.903 18.822,57.641 19.734,57.641 Z M19.734,42.589 L49.409,42.589 C49.995,42.163 50.606,41.76 51.244,41.391 C52.862,40.457 54.6,39.755 56.392,39.284 L19.734,39.284 C18.822,39.284 18.085,40.024 18.085,40.938 C18.085,41.853 18.822,42.589 19.734,42.589 Z M19.734,50.113 L43.031,50.113 C43.611,48.944 44.296,47.841 45.077,46.809 L19.734,46.809 C18.822,46.809 18.085,47.551 18.085,48.462 C18.085,49.373 18.822,50.113 19.734,50.113 Z M76.144,51.116 C80.748,59.09 78.006,69.328 70.027,73.927 C62.057,78.528 51.821,75.8 47.218,67.814 C42.613,59.843 45.356,49.609 53.323,45.003 C61.304,40.399 71.541,43.139 76.144,51.116 Z M73.753,52.501 C69.906,45.847 61.365,43.559 54.712,47.394 C48.055,51.243 45.761,59.774 49.616,66.438 C53.453,73.094 61.99,75.387 68.649,71.542 C75.305,67.69 77.59,59.156 73.753,52.501 Z M74.228,72.901 L67.048,77.047 L72.577,86.617 L79.755,82.475 L74.228,72.901 Z M80.502,83.78 L73.318,87.924 C74.468,89.912 77.004,90.586 78.985,89.446 C80.969,88.301 81.65,85.761 80.502,83.78 Z" id="Shape"></path>
        </g>
    </g>
</svg>