<svg xmlns="http://www.w3.org/2000/svg" xmlns:xlink="http://www.w3.org/1999/xlink" version="1.1" x="0px" y="0px" viewBox="0 0 100 125" enable-background="new 0 0 100 100" xml:space="preserve"><path d="M51.718,83.376c0-0.914,0.734-1.652,1.65-1.652h5.676c2.385,1.603,5.08,2.712,7.943,3.229  c-0.119,0.026-0.228,0.07-0.353,0.07H53.366C52.452,85.026,51.718,84.285,51.718,83.376z M47.683,70.165h2.942  c-0.314-1.085-0.543-2.184-0.674-3.303h-2.268c-0.912,0-1.651,0.74-1.651,1.652S46.771,70.165,47.683,70.165z M35.532,28.459  c-2.026-1.361-3.421-4.058-3.421-6.481c0-3.421,2.771-6.198,6.195-6.198s6.195,2.777,6.195,6.198c0,2.423-1.397,5.12-3.427,6.481  c4.856,1.231,8.452,5.45,8.452,8.571c0,3.691-22.438,3.691-22.438,0C27.085,33.909,30.685,29.692,35.532,28.459z M35.158,36.659  l3.145,3.141l3.149-3.141l-2.647-6.399h0.025l1.028-1.175c-0.501,0.175-1.009,0.284-1.555,0.284c-0.539,0-1.053-0.109-1.553-0.29  l1.025,1.181h0.027L35.158,36.659z M76.624,91.398l0.005-0.007l-0.078-0.138c-0.042,0-0.076,0.013-0.115,0.013H18.928  c-2.974,0-5.392-2.419-5.392-5.392V13.982c0-2.971,2.417-5.39,5.392-5.39h57.507c2.973,0,5.392,2.419,5.392,5.39v32.904  c1.289,0.814,2.508,1.739,3.597,2.823V13.982C85.424,9.027,81.393,5,76.436,5H18.928C13.97,5,9.94,9.027,9.94,13.982v71.893  c0,4.953,4.03,8.982,8.988,8.982h57.507c0.701,0,1.38-0.102,2.038-0.256L76.624,91.398z M28.734,62.641h21.177  c0.101-1.106,0.285-2.207,0.563-3.304H28.736c-0.912,0-1.648,0.737-1.648,1.649C27.085,61.903,27.822,62.641,28.734,62.641z   M28.734,47.589h29.675c0.586-0.426,1.197-0.829,1.835-1.198c1.618-0.934,3.356-1.636,5.148-2.107H28.734  c-0.912,0-1.649,0.74-1.649,1.654C27.085,46.853,27.822,47.589,28.734,47.589z M28.734,55.113h23.297  c0.58-1.169,1.265-2.272,2.046-3.304H28.734c-0.912,0-1.649,0.742-1.649,1.653C27.085,54.373,27.822,55.113,28.734,55.113z   M85.144,56.116c4.604,7.974,1.862,18.212-6.117,22.811c-7.97,4.601-18.206,1.873-22.809-6.113  c-4.605-7.971-1.862-18.205,6.105-22.811C70.304,45.399,80.541,48.139,85.144,56.116z M82.753,57.501  c-3.847-6.654-12.388-8.942-19.041-5.107c-6.657,3.849-8.951,12.38-5.096,19.044c3.837,6.656,12.374,8.949,19.033,5.104  C84.305,72.69,86.59,64.156,82.753,57.501z M83.228,77.901l-7.18,4.146l5.529,9.57l7.178-4.142L83.228,77.901z M89.502,88.78  l-7.184,4.144c1.15,1.988,3.686,2.662,5.667,1.522C89.969,93.301,90.65,90.761,89.502,88.78z"/></svg>