<svg xmlns="http://www.w3.org/2000/svg" width="82" height="82" fill="none" style="">
<rect id="backgroundrect" width="100%" height="100%" x="0" y="0" fill="none" stroke="none"/>  <!-- Generator: Sketch 51.3 (57544) - http://www.bohemiancoding.com/sketch -->
    <title>bank-icon</title>
    <desc>Created with Sketch.</desc>
    <defs>
<filter id="filter0_d" x="0.5" y="0.5" width="81" height="81" filterUnits="userSpaceOnUse" color-interpolation-filters="sRGB">
<feFlood flood-opacity="0" result="BackgroundImageFix"/>
<feColorMatrix in="SourceAlpha" type="matrix" values="0 0 0 0 0 0 0 0 0 0 0 0 0 0 0 0 0 0 127 0"/>
<feOffset/>
<feGaussianBlur stdDeviation="4"/>
<feColorMatrix type="matrix" values="0 0 0 0 0.12549 0 0 0 0 0.435294 0 0 0 0 0.541176 0 0 0 0.5 0"/>
<feBlend mode="normal" in2="BackgroundImageFix" result="effect1_dropShadow"/>
<feBlend mode="normal" in="SourceGraphic" in2="effect1_dropShadow" result="shape"/>
</filter>
    </defs>
    
    
<g class="currentLayer" style=""><title>Layer 1</title><g filter="url(#filter0_d)" id="svg_1" class="">
<path fill-rule="evenodd" clip-rule="evenodd" d="M41.502042174339294,71.8852961063385 C59.17514217433929,71.8852961063385 73.5020421743393,57.5583961063385 73.5020421743393,39.8852961063385 C73.5020421743393,36.467996106338504 72.96634217433929,33.1757961063385 71.97444217433929,30.0880961063385 C67.8363421743393,17.2072961063385 55.757842174339295,7.885296106338501 41.502042174339294,7.885296106338501 C23.828942174339293,7.885296106338501 9.502042174339294,22.2121961063385 9.502042174339294,39.8852961063385 C9.502042174339294,57.5583961063385 23.828942174339293,71.8852961063385 41.502042174339294,71.8852961063385 z" fill="white" id="svg_2"/>
<path fill-rule="evenodd" clip-rule="evenodd" d="M41.502042174339294,71.8852961063385 C59.17514217433929,71.8852961063385 73.5020421743393,57.5583961063385 73.5020421743393,39.8852961063385 C73.5020421743393,36.467996106338504 72.96634217433929,33.1757961063385 71.97444217433929,30.0880961063385 C67.8363421743393,17.2072961063385 55.757842174339295,7.885296106338501 41.502042174339294,7.885296106338501 C23.828942174339293,7.885296106338501 9.502042174339294,22.2121961063385 9.502042174339294,39.8852961063385 C9.502042174339294,57.5583961063385 23.828942174339293,71.8852961063385 41.502042174339294,71.8852961063385 z" stroke="#206F8A" id="svg_3"/>
</g><g id="Mobile---Investment" stroke="none" stroke-width="1" fill="none" fill-rule="evenodd" class="">
        <g id="04-(a)---Invest---Payment-Type---Bank-Wire" fill="#206F8A" fill-rule="nonzero">
            <g id="instructions">
                <g id="icon-group">
                    <g id="bank-icon">
                        <path d="M44.81742782592774,24.001022338867188 L38.41742782592773,24.001022338867188 C37.937427825927735,24.001022338867188 37.617427825927734,24.401022338867186 37.617427825927734,25.001022338867188 C37.617427825927734,25.60102233886719 37.937427825927735,26.001022338867188 38.41742782592773,26.001022338867188 L44.81742782592774,26.001022338867188 C45.297427825927734,26.001022338867188 45.617427825927734,25.60102233886719 45.617427825927734,25.001022338867188 C45.617427825927734,24.401022338867186 45.297427825927734,24.001022338867188 44.81742782592774,24.001022338867188 z" id="Shape"/>
                        <path d="M59.80601762592774,55.419336638867186 L58.223524425927735,55.419336638867186 L58.223524425927735,53.04680793886719 C58.223524425927735,52.57230223886719 57.90702572592773,52.25596513886719 57.432277825927734,52.25596513886719 L55.53328602592774,52.25596513886719 L55.53328602592774,33.27573613886719 L57.432277825927734,33.27573613886719 C57.90702572592773,33.27573613886719 58.223524425927735,32.95939903886719 58.223524425927735,32.48489333886719 L58.223524425927735,30.112364738867186 L59.80601762592774,30.112364738867186 C60.201640925927734,30.112364738867186 60.51813952592774,29.875111838867188 60.59726412592774,29.479690438867188 C60.67638882592773,29.163353238867188 60.51813952592774,28.76793180886719 60.201640925927734,28.609763228867187 L42.00296932592774,19.119648769867187 C41.765595325927734,18.96148019526719 41.52822132592773,18.96148019526719 41.290847325927736,19.119648769867187 L23.092175779927736,28.609763228867187 C22.775677143927734,28.76793180886719 22.617427825927734,29.163353238867188 22.696552485027734,29.479690438867188 C22.696552485027734,29.875111838867188 23.013051120927734,30.112364738867186 23.408674416927735,30.112364738867186 L24.991167595927735,30.112364738867186 L24.991167595927735,32.48489333886719 C24.991167595927735,32.95939903886719 25.307666235927734,33.27573613886719 25.782414185927735,33.27573613886719 L27.681406005927734,33.27573613886719 L27.681406005927734,52.25596513886719 L25.782414185927735,52.25596513886719 C25.307666235927734,52.25596513886719 24.991167595927735,52.57230223886719 24.991167595927735,53.04680793886719 L24.991167595927735,55.419336638867186 L23.408674416927735,55.419336638867186 C22.933926461927733,55.419336638867186 22.617427825927734,55.735673738867185 22.617427825927734,56.210179438867186 C22.617427825927734,56.68468523886719 22.933926461927733,57.00102233886719 23.408674416927735,57.00102233886719 L59.80601762592774,57.00102233886719 C60.280765525927734,57.00102233886719 60.59726412592774,56.68468523886719 60.59726412592774,56.210179438867186 C60.59726412592774,55.735673738867185 60.280765525927734,55.419336638867186 59.80601762592774,55.419336638867186 zM41.60734602592773,20.701334508867188 L56.56190652592773,28.530678948867187 L26.652785435927733,28.530678948867187 L41.60734602592773,20.701334508867188 zM26.573660775927735,31.694050438867187 L26.573660775927735,30.112364738867186 L56.64103122592773,30.112364738867186 L56.64103122592773,31.694050438867187 L26.573660775927735,31.694050438867187 zM53.950792825927735,33.27573613886719 L53.950792825927735,52.25596513886719 L50.78580642592773,52.25596513886719 L50.78580642592773,33.27573613886719 L53.950792825927735,33.27573613886719 zM49.20331322592773,33.27573613886719 L49.20331322592773,52.25596513886719 L44.772332325927735,52.25596513886719 L44.772332325927735,33.27573613886719 L49.20331322592773,33.27573613886719 zM43.189839225927734,33.27573613886719 L43.189839225927734,52.25596513886719 L40.02485282592774,52.25596513886719 L40.02485282592774,33.27573613886719 L43.189839225927734,33.27573613886719 zM38.442359625927736,33.27573613886719 L38.442359625927736,52.25596513886719 L34.011378725927734,52.25596513886719 L34.011378725927734,33.27573613886719 L38.442359625927736,33.27573613886719 zM32.428885545927734,33.27573613886719 L32.428885545927734,52.25596513886719 L29.263899185927734,52.25596513886719 L29.263899185927734,33.27573613886719 L32.428885545927734,33.27573613886719 zM56.64103122592773,55.419336638867186 L26.573660775927735,55.419336638867186 L26.573660775927735,53.83765083886719 L28.472652595927734,53.83765083886719 L33.220132125927734,53.83765083886719 L39.23360622592773,53.83765083886719 L43.981085725927734,53.83765083886719 L49.99455982592774,53.83765083886719 L54.742039425927736,53.83765083886719 L56.64103122592773,53.83765083886719 L56.64103122592773,55.419336638867186 z" id="Shape" transform=""/>
                    </g>
                </g>
            </g>
        </g>
    </g></g></svg>