<svg
  xmlns="http://www.w3.org/2000/svg"
  xmlns:xlink="http://www.w3.org/1999/xlink"
  version="1.1"
  x="0px"
  y="0px"
  viewBox="0 0 32 40"
  enable-background="new 0 0 32 32"
  xml:space="preserve">
  <g><path
    d="M3.852,5.582L1.914,3.645H15.5v1.281l-9.63,7.172h20.26L16.5,4.925V2.645H1.914l1.938-1.938L3.145,0L0,3.145l3.145,3.144   L3.852,5.582z M8.888,11.097L15.731,6h0.538l6.844,5.097H8.888z"/><path
    d="M28.148,26.419l1.937,1.937H16.5v-1.871h9.268V23.59H24.09V22.5H7.91v1.09H6.232v2.895H15.5v2.871h14.586l-1.938,1.938   L28.855,32L32,28.855l-3.145-3.144L28.148,26.419z M7.232,24.59H8.91V23.5h14.18v1.09h1.678v0.895H7.232V24.59z"/><path d="M23.261,21.342v-8.084h-3.644v8.084H23.261z M20.617,14.257h1.644v6.084h-1.644V14.257z"/><path d="M17.822,21.342v-8.084h-3.645v8.084H17.822z M15.178,14.257h1.645v6.084h-1.645V14.257z"/><path d="M12.383,21.342v-8.084H8.739v8.084H12.383z M9.739,14.257h1.644v6.084H9.739V14.257z"/><path
    d="M16,7.585c-0.736,0-1.335,0.599-1.335,1.334c0,0.736,0.599,1.335,1.335,1.335s1.335-0.599,1.335-1.335   C17.335,8.184,16.736,7.585,16,7.585z M16,9.254c-0.185,0-0.335-0.15-0.335-0.335S15.815,8.585,16,8.585s0.335,0.15,0.335,0.334   S16.185,9.254,16,9.254z"/></g>
</svg>