<svg xmlns:dc="http://purl.org/dc/elements/1.1/" xmlns:cc="http://creativecommons.org/ns#" xmlns:rdf="http://www.w3.org/1999/02/22-rdf-syntax-ns#" xmlns:svg="http://www.w3.org/2000/svg" xmlns="http://www.w3.org/2000/svg" xmlns:sodipodi="http://sodipodi.sourceforge.net/DTD/sodipodi-0.dtd" xmlns:inkscape="http://www.inkscape.org/namespaces/inkscape" version="1.1" x="0px" y="0px" viewBox="0 0 100 125"><g transform="translate(0,-952.36218)"><path d="m 28.501892,1043.3628 c 0,0.2618 0.107692,0.5221 0.292877,0.7072 0.185185,0.1852 0.445464,0.293 0.707342,0.293 l 40.996079,0 c 0.261779,0 0.521958,-0.1079 0.707043,-0.2931 0.185085,-0.1851 0.292876,-0.4454 0.292876,-0.7071 l 0,-71.68985 c 0,-0.26177 -0.107791,-0.52205 -0.292876,-0.70724 -0.185085,-0.18508 -0.445264,-0.29297 -0.707043,-0.29297 l -10.12168,0 0,-9.31115 c 0,-0.26178 -0.107791,-0.52206 -0.292876,-0.70724 -0.185085,-0.18509 -0.445264,-0.29298 -0.707043,-0.29298 l -18.76288,0 c -0.261779,0 -0.522058,0.10789 -0.707143,0.29298 -0.185085,0.18518 -0.292776,0.44546 -0.292776,0.70724 l 0,9.31115 -10.111681,0 c -0.261878,0 -0.522157,0.10779 -0.707342,0.29287 -0.185185,0.18519 -0.292977,0.44547 -0.292877,0.70734 z m 2.000138,-1 0,-69.68993 38.996241,0 0,69.68993 z m 11.1116,-71.69006 0,-8.31123 16.762742,0 0,8.31123 z" style="text-indent:0;text-transform:none;direction:ltr;block-progression:tb;baseline-shift:baseline;color:#000000;enable-background:accumulate;" fill="#000000" fill-opacity="1" fill-rule="evenodd" stroke="none" marker="none" visibility="visible" display="inline" overflow="visible"/><path d="m 36.493145,1033.5018 c 0,1.0585 0.879129,1.9498 1.950142,1.9498 l 23.113427,0 c 1.071314,0 1.950142,-0.8785 1.950142,-1.9498 l 0,-10.1618 c 0,-1.0713 -0.878828,-1.9502 -1.950142,-1.9502 l -23.113427,0 c -1.071013,0 -1.950142,0.8917 -1.950142,1.9502 z m 2.000138,-0.05 0,-10.0618 23.013735,0 0,10.0618 z" style="text-indent:0;text-transform:none;direction:ltr;block-progression:tb;baseline-shift:baseline;color:#000000;enable-background:accumulate;" fill="#000000" fill-opacity="1" fill-rule="evenodd" stroke="none" marker="none" visibility="visible" display="inline" overflow="visible"/><path d="m 36.493145,1012.8587 c 0,1.0713 0.878729,1.9502 1.950142,1.9502 l 23.113427,0 c 1.071314,0 1.950142,-0.8789 1.950142,-1.9502 l 0,-10.1614 c 0,-1.0714 -0.878828,-1.9501 -1.950142,-1.9501 l -23.113427,0 c -1.071413,0 -1.950142,0.8787 -1.950142,1.9501 z m 2.000138,-0.05 0,-10.0617 23.013735,0 0,10.0617 z" style="text-indent:0;text-transform:none;direction:ltr;block-progression:tb;baseline-shift:baseline;color:#000000;enable-background:accumulate;" fill="#000000" fill-opacity="1" fill-rule="evenodd" stroke="none" marker="none" visibility="visible" display="inline" overflow="visible"/><path d="m 36.493145,992.21569 c 0,1.07091 0.891528,1.95014 1.950142,1.95014 l 23.113427,0 c 1.058515,0 1.950142,-0.87923 1.950142,-1.95014 l 0,-10.16138 c 0,-1.07141 -0.878928,-1.95014 -1.950142,-1.95014 l -23.113427,0 c -1.071313,0 -1.950142,0.87873 -1.950142,1.95014 z m 2.000138,-0.0497 0,-10.06168 23.013735,0 0,10.06168 z" style="text-indent:0;text-transform:none;direction:ltr;block-progression:tb;baseline-shift:baseline;color:#000000;enable-background:accumulate;" fill="#000000" fill-opacity="1" fill-rule="evenodd" stroke="none" marker="none" visibility="visible" display="inline" overflow="visible"/></g><text x="0" y="115" fill="#000000" font-size="5px" font-weight="bold" font-family="'Helvetica Neue', Helvetica, Arial-Unicode, Arial, Sans-serif">Created by iconesia</text><text x="0" y="120" fill="#000000" font-size="5px" font-weight="bold" font-family="'Helvetica Neue', Helvetica, Arial-Unicode, Arial, Sans-serif">from the Noun Project</text></svg>