<svg
   xmlns:dc="http://purl.org/dc/elements/1.1/"
   xmlns:cc="http://creativecommons.org/ns#"
   xmlns:rdf="http://www.w3.org/1999/02/22-rdf-syntax-ns#"
   xmlns:svg="http://www.w3.org/2000/svg"
   xmlns="http://www.w3.org/2000/svg"
   xmlns:sodipodi="http://sodipodi.sourceforge.net/DTD/sodipodi-0.dtd"
   xmlns:inkscape="http://www.inkscape.org/namespaces/inkscape"
   version="1.1"
   x="0px"
   y="0px"
   viewBox="0 0 948 948"
   enable-background="new 0 0 2221 816.3"
   xml:space="preserve"
   id="svg2"
   inkscape:version="0.48.2 r9819"
   width="100%"
   height="100%"
   sodipodi:docname="blossom-square_blue.svg"
   inkscape:export-filename="/Users/matthewmartin/Dropbox/Branding/logo/blossom-square_blue.png"
   inkscape:export-xdpi="19.01"
   inkscape:export-ydpi="19.01"><metadata
   id="metadata42"><rdf:RDF><cc:Work
       rdf:about=""><dc:format>image/svg+xml</dc:format><dc:type
         rdf:resource="http://purl.org/dc/dcmitype/StillImage" /><dc:title></dc:title></cc:Work></rdf:RDF></metadata><defs
   id="defs40" /><sodipodi:namedview
   pagecolor="#58cfee"
   bordercolor="#666666"
   borderopacity="1"
   objecttolerance="10"
   gridtolerance="10"
   guidetolerance="10"
   id="namedview38"
   showgrid="false"
   fit-margin-top="0"
   fit-margin-left="0"
   fit-margin-right="0"
   fit-margin-bottom="0"
   showborder="true"
   borderlayer="true" />
<style
   id="style4">
	.style0{
		fill:	#307EBC;
	}
</style><g
   id="g6"
   transform="translate(160.87406,-459.90876)">
	<g
   id="g8"
   transform="matrix(0.75408465,0,0,0.75408465,-810.36717,966.0177)"
   >
		<path
   d="m 861.4,291.6 h 32.2 v 76.8 c 0,8.3 -0.7,14.3 -0.7,14.3 h 0.7 c 0,0 14.3,-28.6 53.9,-28.6 45.2,0 73.8,35.9 73.8,88.1 0,53.5 -32.2,88.1 -76.5,88.1 -37.6,0 -52.9,-28.9 -52.9,-28.9 h -0.7 c 0,0 0.7,5.3 0.7,12.6 v 12.3 H 861.3 V 291.6 z m 78.8,211.1 c 26.6,0 48.5,-21.9 48.5,-60.2 0,-36.6 -19.6,-60.2 -47.5,-60.2 -25.3,0 -48.5,17.6 -48.5,60.5 0,30 15.6,59.9 47.5,59.9 z"
   class="style0"
   id="path10"
   inkscape:connector-curvature="0"
    />
		<path
   d="m 1058.9,291.6 h 32.2 v 183.2 c 0,20.3 8,23.9 18,23.9 3,0 5.7,-0.3 5.7,-0.3 V 527 c 0,0 -5,0.7 -10.6,0.7 -18.3,0 -45.2,-5 -45.2,-47.2 V 291.6 z"
   class="style0"
   id="path12"
   inkscape:connector-curvature="0"
    />
		<path
   d="m 1227.4,354.1 c 50.2,0 90.8,36.9 90.8,87.8 0,51.2 -40.6,88.4 -90.8,88.4 -50.2,0 -90.8,-37.2 -90.8,-88.4 0.1,-50.9 40.6,-87.8 90.8,-87.8 z m 0,148.3 c 31.9,0 57.8,-25.3 57.8,-60.5 0,-34.9 -25.9,-59.8 -57.8,-59.8 -31.6,0 -57.8,24.9 -57.8,59.8 0,35.2 26.2,60.5 57.8,60.5 z"
   class="style0"
   id="path14"
   inkscape:connector-curvature="0"
    />
		<path
   d="m 1358.4,482.8 c 0,0 18.9,19.6 48.2,19.6 14,0 27.9,-7.3 27.9,-20.9 0,-30.9 -86.4,-24.6 -86.4,-79.5 0,-30.6 27.3,-47.9 60.8,-47.9 36.9,0 54.2,18.6 54.2,18.6 l -13,24.3 c 0,0 -15,-15 -41.6,-15 -14,0 -27.6,6 -27.6,20.6 0,30.3 86.4,23.6 86.4,78.8 0,27.9 -23.9,48.9 -60.8,48.9 -41.2,0 -63.8,-24.6 -63.8,-24.6 l 15.7,-22.9 z"
   class="style0"
   id="path16"
   inkscape:connector-curvature="0"
    />
		<path
   d="m 1507.3,482.8 c 0,0 18.9,19.6 48.2,19.6 14,0 27.9,-7.3 27.9,-20.9 0,-30.9 -86.4,-24.6 -86.4,-79.5 0,-30.6 27.3,-47.9 60.8,-47.9 36.9,0 54.2,18.6 54.2,18.6 l -13,24.3 c 0,0 -15,-15 -41.6,-15 -14,0 -27.6,6 -27.6,20.6 0,30.3 86.4,23.6 86.4,78.8 0,27.9 -23.9,48.9 -60.8,48.9 -41.2,0 -63.8,-24.6 -63.8,-24.6 l 15.7,-22.9 z"
   class="style0"
   id="path18"
   inkscape:connector-curvature="0"
    />
		<path
   d="m 1732.7,354.1 c 50.2,0 90.8,36.9 90.8,87.8 0,51.2 -40.6,88.4 -90.8,88.4 -50.2,0 -90.8,-37.2 -90.8,-88.4 0.1,-50.9 40.6,-87.8 90.8,-87.8 z m 0,148.3 c 31.9,0 57.8,-25.3 57.8,-60.5 0,-34.9 -25.9,-59.8 -57.8,-59.8 -31.6,0 -57.8,24.9 -57.8,59.8 0,35.2 26.2,60.5 57.8,60.5 z"
   class="style0"
   id="path20"
   inkscape:connector-curvature="0"
    />
		<path
   d="m 1861.7,358.1 h 31.2 v 22.3 c 0,6.6 -0.7,12.3 -0.7,12.3 h 0.7 c 8,-19.6 31.6,-38.6 57.8,-38.6 28.3,0 44.9,13 50.5,38.2 h 0.7 c 9.3,-20.3 32.6,-38.2 59.8,-38.2 37.9,0 55.5,21.6 55.5,64.5 V 526.3 H 2085 V 425.6 c 0,-23.6 -4.7,-42.2 -29.9,-42.2 -23.6,0 -41.2,19.9 -47.2,42.9 -1.7,7 -2.3,14.6 -2.3,23.3 v 76.8 h -32.2 V 425.6 c 0,-21.9 -3.3,-42.2 -29.3,-42.2 -24.6,0 -41.9,20.3 -48.2,44.2 -1.7,6.6 -2,14.3 -2,21.9 v 76.8 h -32.2 V 358.1 z"
   class="style0"
   id="path22"
   inkscape:connector-curvature="0"
    />
	</g>
	<g
   id="g24"
   transform="matrix(0.96111952,0,0,1.0011662,-63.277419,416.21658)"
   >
		<path
   d="m 514.5,489.1 c 47,15.7 96.9,14 141.6,-2.7 37.5,-21.2 63.9,-64.5 59.3,-110.8 -6,-61.2 -59.6,-106.2 -120.6,-102.1 -18.9,43.6 -51.2,81.9 -95.3,107.8 -28.7,16.9 -59.4,26.8 -90.5,30.5 6.4,8.9 13.6,17.4 21.5,25.3 18.2,17.8 46,39.1 84,52 z"
   class="style0"
   id="path26"
   inkscape:connector-curvature="0"
    />
		<path
   d="m 379.9,553.8 c 10,48.5 36.4,90.9 73.2,121.3 37.1,21.8 87.9,23 125.6,-4.1 50,-35.9 62.1,-104.8 28,-155.5 -47.2,5.5 -96.5,-3.3 -141,-28.5 -28.9,-16.3 -53,-38 -71.7,-63 -4.5,10 -8.2,20.5 -11.1,31.2 -6.3,24.5 -10.8,59.2 -3,98.6 z"
   class="style0"
   id="path28"
   inkscape:connector-curvature="0"
    />
		<path
   d="m 256.6,469.8 c -37,32.9 -60.5,77.1 -68.3,124.1 -0.3,43.1 24.1,87.5 66.5,106.7 56.1,25.3 121.8,1.3 148.6,-53.7 -28.4,-38.1 -45.4,-85.2 -46,-136.3 -0.3,-33.2 6.4,-64.9 18.7,-93.6 -10.9,1.1 -21.8,3.1 -32.6,6 -24.5,6.8 -56.7,20.2 -86.9,46.8 z"
   class="style0"
   id="path30"
   inkscape:connector-curvature="0"
    />
		<path
   d="m 525.9,340.3 c 37.1,-32.8 60.7,-76.9 68.6,-123.9 0.4,-43 -23.9,-87.6 -66.2,-106.8 -56,-25.5 -121.8,-1.6 -148.8,53.2 28.3,38.2 45.2,85.3 45.6,136.4 0.2,33.3 -6.6,64.9 -18.9,93.6 10.9,-1.1 21.8,-3.1 32.6,-5.9 24.5,-6.8 56.9,-20.2 87.1,-46.6 z"
   class="style0"
   id="path32"
   inkscape:connector-curvature="0"
    />
		<path
   d="m 267.5,320.9 c -47,-15.5 -97,-13.7 -141.6,3.1 -37.4,21.3 -63.7,64.7 -59,111 6.2,61.2 59.9,106 120.9,101.8 18.7,-43.7 50.9,-82 94.9,-108.1 28.6,-17 59.4,-27 90.4,-30.7 -6.5,-8.9 -13.6,-17.3 -21.5,-25.2 -18.2,-17.9 -46,-39.1 -84.1,-51.9 z"
   class="style0"
   id="path34"
   inkscape:connector-curvature="0"
    />
		<path
   d="m 401.9,255.8 c -10.1,-48.4 -36.7,-90.8 -73.6,-121 -37.2,-21.7 -87.9,-22.7 -125.6,4.5 -49.9,36 -61.8,105 -27.5,155.6 47.2,-5.6 96.5,3 141.1,28.1 29,16.3 53.1,37.9 71.8,62.8 4.5,-10 8.2,-20.5 11.1,-31.3 6.2,-24.6 10.7,-59.3 2.7,-98.7 z"
   class="style0"
   id="path36"
   inkscape:connector-curvature="0"
    />
	</g>
</g>
</svg>