<svg xmlns="http://www.w3.org/2000/svg" xmlns:xlink="http://www.w3.org/1999/xlink" version="1.1" x="0px" y="0px" viewBox="0 0 100 100" enable-background="new 0 0 100 100" xml:space="preserve">
<g>
	<path d="M65 60.2c5.7 1.9 11.8 1.7 17.2-0.3c4.6-2.6 7.8-7.8 7.2-13.5C88.7 39 82.2 33.5 74.8 34 c-2.3 5.3-6.2 10-11.6 13.1c-3.5 2.1-7.2 3.3-11 3.7c0.8 1.1 1.7 2.1 2.6 3.1C57 56.1 60.4 58.7 65 60.2z" />
	<path d="M48.6 68.1c1.2 5.9 4.4 11.1 8.9 14.7c4.5 2.7 10.7 2.8 15.3-0.5c6.1-4.4 7.5-12.7 3.4-18.9 C70.5 64.1 64.5 63 59.1 60c-3.5-2-6.4-4.6-8.7-7.7c-0.5 1.2-1 2.5-1.4 3.8C48.2 59.1 47.7 63.3 48.6 68.1z" />
	<path d="M33.6 57.9c-4.5 4-7.4 9.4-8.3 15.1c0 5.2 2.9 10.6 8.1 13c6.8 3.1 14.8 0.2 18.1-6.5 C48 74.8 46 69.1 45.9 62.8c0-4 0.8-7.9 2.3-11.4c-1.3 0.1-2.7 0.4-4 0.7C41.2 53 37.3 54.7 33.6 57.9z" />
	<path d="M66.4 42.1c4.5-4 7.4-9.3 8.3-15.1c0.1-5.2-2.9-10.7-8-13c-6.8-3.1-14.8-0.2-18.1 6.5 c3.4 4.6 5.5 10.4 5.5 16.6c0 4-0.8 7.9-2.3 11.4c1.3-0.1 2.7-0.4 4-0.7C58.8 47 62.7 45.4 66.4 42.1z" />
	<path d="M35 39.8c-5.7-1.9-11.8-1.7-17.2 0.4c-4.6 2.6-7.7 7.9-7.2 13.5c0.8 7.4 7.3 12.9 14.7 12.4 c2.3-5.3 6.2-10 11.5-13.1c3.5-2.1 7.2-3.3 11-3.7c-0.8-1.1-1.7-2.1-2.6-3.1C43 43.9 39.6 41.3 35 39.8z" />
	<path d="M51.3 31.9c-1.2-5.9-4.5-11-8.9-14.7c-4.5-2.6-10.7-2.8-15.3 0.5c-6.1 4.4-7.5 12.8-3.3 18.9 c5.7-0.7 11.7 0.4 17.2 3.4c3.5 2 6.5 4.6 8.7 7.6c0.5-1.2 1-2.5 1.3-3.8C51.7 40.9 52.3 36.7 51.3 31.9z" />
</g>
</svg>
