<svg xmlns="http://www.w3.org/2000/svg" xmlns:xlink="http://www.w3.org/1999/xlink" version="1.1" x="0px" y="0px" viewBox="0 0 2221 816.3" enable-background="new 0 0 2221 816.3" xml:space="preserve">
<g>
	<g>
		<path d="M861.4 291.6h32.2v76.8c0 8.3-0.7 14.3-0.7 14.3h0.7c0 0 14.3-28.6 53.9-28.6c45.2 0 73.8 35.9 73.8 88.1 c0 53.5-32.2 88.1-76.5 88.1c-37.6 0-52.9-28.9-52.9-28.9h-0.7c0 0 0.7 5.3 0.7 12.6v12.3h-30.6V291.6z M940.2 502.7 c26.6 0 48.5-21.9 48.5-60.2c0-36.6-19.6-60.2-47.5-60.2c-25.3 0-48.5 17.6-48.5 60.5C892.7 472.8 908.3 502.7 940.2 502.7z" />
		<path d="M1058.9 291.6h32.2v183.2c0 20.3 8 23.9 18 23.9c3 0 5.7-0.3 5.7-0.3V527c0 0-5 0.7-10.6 0.7 c-18.3 0-45.2-5-45.2-47.2V291.6z" />
		<path d="M1227.4 354.1c50.2 0 90.8 36.9 90.8 87.8c0 51.2-40.6 88.4-90.8 88.4c-50.2 0-90.8-37.2-90.8-88.4 C1136.7 391 1177.2 354.1 1227.4 354.1z M1227.4 502.4c31.9 0 57.8-25.3 57.8-60.5c0-34.9-25.9-59.8-57.8-59.8 c-31.6 0-57.8 24.9-57.8 59.8C1169.6 477.1 1195.8 502.4 1227.4 502.4z" />
		<path d="M1358.4 482.8c0 0 18.9 19.6 48.2 19.6c14 0 27.9-7.3 27.9-20.9c0-30.9-86.4-24.6-86.4-79.5 c0-30.6 27.3-47.9 60.8-47.9c36.9 0 54.2 18.6 54.2 18.6l-13 24.3c0 0-15-15-41.6-15c-14 0-27.6 6-27.6 20.6 c0 30.3 86.4 23.6 86.4 78.8c0 27.9-23.9 48.9-60.8 48.9c-41.2 0-63.8-24.6-63.8-24.6L1358.4 482.8z" />
		<path d="M1507.3 482.8c0 0 18.9 19.6 48.2 19.6c14 0 27.9-7.3 27.9-20.9c0-30.9-86.4-24.6-86.4-79.5 c0-30.6 27.3-47.9 60.8-47.9c36.9 0 54.2 18.6 54.2 18.6l-13 24.3c0 0-15-15-41.6-15c-14 0-27.6 6-27.6 20.6 c0 30.3 86.4 23.6 86.4 78.8c0 27.9-23.9 48.9-60.8 48.9c-41.2 0-63.8-24.6-63.8-24.6L1507.3 482.8z" />
		<path d="M1732.7 354.1c50.2 0 90.8 36.9 90.8 87.8c0 51.2-40.6 88.4-90.8 88.4c-50.2 0-90.8-37.2-90.8-88.4 C1642 391 1682.5 354.1 1732.7 354.1z M1732.7 502.4c31.9 0 57.8-25.3 57.8-60.5c0-34.9-25.9-59.8-57.8-59.8 c-31.6 0-57.8 24.9-57.8 59.8C1674.9 477.1 1701.1 502.4 1732.7 502.4z" />
		<path d="M1861.7 358.1h31.2v22.3c0 6.6-0.7 12.3-0.7 12.3h0.7c8-19.6 31.6-38.6 57.8-38.6 c28.3 0 44.9 13 50.5 38.2h0.7c9.3-20.3 32.6-38.2 59.8-38.2c37.9 0 55.5 21.6 55.5 64.5v107.7h-32.2V425.6 c0-23.6-4.7-42.2-29.9-42.2c-23.6 0-41.2 19.9-47.2 42.9c-1.7 7-2.3 14.6-2.3 23.3v76.8h-32.2V425.6c0-21.9-3.3-42.2-29.3-42.2 c-24.6 0-41.9 20.3-48.2 44.2c-1.7 6.6-2 14.3-2 21.9v76.8h-32.2V358.1z" />
	</g>
	<g>
		<path d="M514.5 489.1c47 15.7 96.9 14 141.6-2.7c37.5-21.2 63.9-64.5 59.3-110.8c-6-61.2-59.6-106.2-120.6-102.1 c-18.9 43.6-51.2 81.9-95.3 107.8c-28.7 16.9-59.4 26.8-90.5 30.5c6.4 8.9 13.6 17.4 21.5 25.3 C448.7 454.9 476.5 476.2 514.5 489.1z" />
		<path d="M379.9 553.8c10 48.5 36.4 90.9 73.2 121.3c37.1 21.8 87.9 23 125.6-4.1c50-35.9 62.1-104.8 28-155.5 c-47.2 5.5-96.5-3.3-141-28.5c-28.9-16.3-53-38-71.7-63c-4.5 10-8.2 20.5-11.1 31.2C376.6 479.7 372.1 514.4 379.9 553.8z" />
		<path d="M256.6 469.8c-37 32.9-60.5 77.1-68.3 124.1c-0.3 43.1 24.1 87.5 66.5 106.7 c56.1 25.3 121.8 1.3 148.6-53.7c-28.4-38.1-45.4-85.2-46-136.3c-0.3-33.2 6.4-64.9 18.7-93.6c-10.9 1.1-21.8 3.1-32.6 6 C319 429.8 286.8 443.2 256.6 469.8z" />
		<path d="M525.9 340.3c37.1-32.8 60.7-76.9 68.6-123.9c0.4-43-23.9-87.6-66.2-106.8c-56-25.5-121.8-1.6-148.8 53.2 c28.3 38.2 45.2 85.3 45.6 136.4c0.2 33.3-6.6 64.9-18.9 93.6c10.9-1.1 21.8-3.1 32.6-5.9C463.3 380.1 495.7 366.7 525.9 340.3z" />
		<path d="M267.5 320.9c-47-15.5-97-13.7-141.6 3.1c-37.4 21.3-63.7 64.7-59 111c6.2 61.2 59.9 106 120.9 101.8 c18.7-43.7 50.9-82 94.9-108.1c28.6-17 59.4-27 90.4-30.7c-6.5-8.9-13.6-17.3-21.5-25.2C333.4 354.9 305.6 333.7 267.5 320.9z" />
		<path d="M401.9 255.8c-10.1-48.4-36.7-90.8-73.6-121c-37.2-21.7-87.9-22.7-125.6 4.5c-49.9 36-61.8 105-27.5 155.6 c47.2-5.6 96.5 3 141.1 28.1c29 16.3 53.1 37.9 71.8 62.8c4.5-10 8.2-20.5 11.1-31.3C405.4 329.9 409.9 295.2 401.9 255.8z" />
	</g>
</g>
</svg>
