<svg width="50" height="40" viewBox="0 0 50 40" fill="none" xmlns="http://www.w3.org/2000/svg">
<path fill-rule="evenodd" clip-rule="evenodd" d="M3.9975 39.75H45.9975C47.6518 39.75 48.9975 38.4043 48.9975 36.75V9.67725C48.9975 8.02295 47.6518 6.67725 45.9975 6.67725H3.9975C2.3432 6.67725 0.997498 8.02295 0.997498 9.67725V36.75C0.997498 38.4043 2.3432 39.75 3.9975 39.75ZM2.9975 9.67725C2.9975 9.12598 3.44623 8.67725 3.9975 8.67725H45.9975C46.5488 8.67725 46.9975 9.12598 46.9975 9.67725V36.75C46.9975 37.3013 46.5488 37.75 45.9975 37.75H3.9975C3.44623 37.75 2.9975 37.3013 2.9975 36.75V9.67725Z" fill="#636264"/>
<path fill-rule="evenodd" clip-rule="evenodd" d="M16.7626 8.67725H33.2324V3.25C33.2324 1.5957 31.8867 0.25 30.2324 0.25H19.7626C18.1083 0.25 16.7626 1.5957 16.7626 3.25V8.67725ZM31.2324 6.67725H18.7626V3.25C18.7626 2.69873 19.2114 2.25 19.7626 2.25H30.2324C30.7836 2.25 31.2324 2.69873 31.2324 3.25V6.67725Z" fill="#636264"/>
<path d="M13.0023 24.917H7.85244C7.53945 24.917 7.24502 24.7705 7.05557 24.5215L1.20596 16.8115C0.871974 16.3716 0.957912 15.7441 1.39785 15.4106C1.83779 15.0766 2.46572 15.1621 2.79873 15.6025L8.34903 22.917H13.0023C13.5546 22.917 14.0023 23.3647 14.0023 23.917C14.0023 24.4692 13.5546 24.917 13.0023 24.917Z" fill="#636264"/>
<path d="M42.1425 24.917H37.0024C36.4501 24.917 36.0024 24.4692 36.0024 23.917C36.0024 23.3647 36.4501 22.917 37.0024 22.917H41.6464L47.206 15.602C47.5395 15.1636 48.1679 15.0771 48.6074 15.4106C49.0473 15.7451 49.1328 16.3725 48.7988 16.812L42.9389 24.522C42.7495 24.771 42.455 24.917 42.1425 24.917Z" fill="#636264"/>
<path d="M32.0024 24.917H18.0024C17.4501 24.917 17.0024 24.4692 17.0024 23.917C17.0024 23.3647 17.4501 22.917 18.0024 22.917H32.0024C32.5546 22.917 33.0024 23.3647 33.0024 23.917C33.0024 24.4692 32.5546 24.917 32.0024 24.917Z" fill="#636264"/>
<path fill-rule="evenodd" clip-rule="evenodd" d="M17.0024 27.917H14.0024C12.8994 27.917 12.0024 27.02 12.0024 25.917V21.917C12.0024 20.814 12.8994 19.917 14.0024 19.917H17.0024C18.1054 19.917 19.0024 20.814 19.0024 21.917V25.917C19.0024 27.02 18.1054 27.917 17.0024 27.917ZM14.0024 21.917V25.917H17.0024V21.9199L14.0024 21.917Z" fill="#636264"/>
<path fill-rule="evenodd" clip-rule="evenodd" d="M36.0024 27.917H33.0024C31.8994 27.917 31.0024 27.02 31.0024 25.917V21.917C31.0024 20.814 31.8994 19.917 33.0024 19.917H36.0024C37.1054 19.917 38.0024 20.814 38.0024 21.917V25.917C38.0024 27.02 37.1054 27.917 36.0024 27.917ZM33.0024 21.917V25.917H36.0024V21.9199L33.0024 21.917Z" fill="#636264"/>
</svg>
