<?xml version="1.0" encoding="UTF-8"?>
<svg viewBox="0 0 70 76" version="1.1" xmlns="http://www.w3.org/2000/svg" xmlns:xlink="http://www.w3.org/1999/xlink">
  <g id="calendar" fill="#206F8A" fill-rule="nonzero">
      <path d="M62.964,6.06 L62.964,3.19 C62.964,1.738 61.782,0.556 60.33,0.556 L58.151,0.556 C56.699,0.556 55.517,1.738 55.517,3.19 L55.517,6.003 L38.547,6.003 L38.547,3.19 C38.547,1.738 37.365,0.556 35.913,0.556 L33.734,0.556 C32.282,0.556 31.1,1.738 31.1,3.19 L31.1,6.003 L14.13,6.003 L14.13,3.19 C14.13,1.738 12.948,0.556 11.496,0.556 L9.318,0.556 C7.866,0.556 6.684,1.738 6.684,3.19 L6.684,6.11 C3.024,6.705 0.279,9.849 0.279,13.658 L0.279,67.788 C0.279,72.009 3.714,75.444 7.934,75.444 L62.064,75.444 C66.286,75.444 69.72,72.009 69.72,67.788 L69.72,13.658 C69.721,9.741 66.762,6.507 62.964,6.06 Z M57.518,3.19 C57.518,2.84 57.802,2.556 58.152,2.556 L60.331,2.556 C60.681,2.556 60.965,2.84 60.965,3.19 L60.965,10.815 C60.965,11.165 60.681,11.449 60.331,11.449 L58.152,11.449 C57.802,11.449 57.518,11.165 57.518,10.815 L57.518,3.19 Z M33.101,3.19 C33.101,2.84 33.385,2.556 33.735,2.556 L35.914,2.556 C36.264,2.556 36.548,2.84 36.548,3.19 L36.548,10.815 C36.548,11.165 36.264,11.449 35.914,11.449 L33.735,11.449 C33.385,11.449 33.101,11.165 33.101,10.815 L33.101,3.19 Z M8.685,3.19 C8.685,2.84 8.969,2.556 9.319,2.556 L11.497,2.556 C11.847,2.556 12.131,2.84 12.131,3.19 L12.131,10.815 C12.131,11.165 11.847,11.449 11.497,11.449 L9.319,11.449 C8.969,11.449 8.685,11.165 8.685,10.815 L8.685,3.19 Z M6.685,8.146 L6.685,10.814 C6.685,12.266 7.867,13.448 9.319,13.448 L11.497,13.448 C12.949,13.448 14.131,12.266 14.131,10.814 L14.131,8.002 L31.102,8.002 L31.102,10.814 C31.102,12.266 32.284,13.448 33.736,13.448 L35.915,13.448 C37.367,13.448 38.549,12.266 38.549,10.814 L38.549,8.002 L55.52,8.002 L55.52,10.814 C55.52,12.266 56.702,13.448 58.154,13.448 L60.333,13.448 C61.785,13.448 62.967,12.266 62.967,10.814 L62.967,8.08 C65.659,8.513 67.724,10.845 67.724,13.657 L67.724,23.389 L2.279,23.389 L2.279,13.657 C2.279,10.958 4.146,8.712 6.685,8.146 Z M62.064,73.444 L7.934,73.444 C4.816,73.444 2.279,70.907 2.279,67.788 L2.279,25.39 L67.7200003,25.39 L67.72,67.788 C67.721,70.907 65.184,73.444 62.064,73.444 Z" id="Shape"></path>
      <path d="M9.135,41.763 L20.355,41.763 L20.355,30.544 L9.135,30.544 L9.135,41.763 Z M11.135,32.544 L18.355,32.544 L18.355,39.763 L11.135,39.763 L11.135,32.544 Z" id="Shape"></path>
      <path d="M22.521,41.763 L33.74,41.763 L33.74,30.544 L22.521,30.544 L22.521,41.763 Z M24.521,32.544 L31.74,32.544 L31.74,39.763 L24.521,39.763 L24.521,32.544 Z" id="Shape"></path>
      <path d="M35.907,41.763 L47.127,41.763 L47.127,30.544 L35.907,30.544 L35.907,41.763 Z M37.907,32.544 L45.127,32.544 L45.127,39.763 L37.907,39.763 L37.907,32.544 Z" id="Shape"></path>
      <path d="M9.135,55.405 L20.355,55.405 L20.355,44.185 L9.135,44.185 L9.135,55.405 Z M11.135,46.185 L18.355,46.185 L18.355,53.405 L11.135,53.405 L11.135,46.185 Z" id="Shape"></path>
      <path d="M22.521,55.405 L33.74,55.405 L33.74,44.185 L22.521,44.185 L22.521,55.405 Z M24.521,46.185 L31.74,46.185 L31.74,53.405 L24.521,53.405 L24.521,46.185 Z" id="Shape"></path>
      <path d="M35.907,55.405 L47.127,55.405 L47.127,44.185 L35.907,44.185 L35.907,55.405 Z M37.907,46.185 L45.127,46.185 L45.127,53.405 L37.907,53.405 L37.907,46.185 Z" id="Shape"></path>
      <path d="M35.907,69.046 L47.127,69.046 L47.127,57.827 L35.907,57.827 L35.907,69.046 Z M37.907,59.827 L45.127,59.827 L45.127,67.046 L37.907,67.046 L37.907,59.827 Z" id="Shape"></path>
      <path d="M49.293,41.763 L60.513,41.763 L60.513,30.544 L49.293,30.544 L49.293,41.763 Z M51.293,32.544 L58.513,32.544 L58.513,39.763 L51.293,39.763 L51.293,32.544 Z" id="Shape"></path>
      <path d="M49.293,55.405 L60.513,55.405 L60.513,44.185 L49.293,44.185 L49.293,55.405 Z M51.293,46.185 L58.513,46.185 L58.513,53.405 L51.293,53.405 L51.293,46.185 Z" id="Shape"></path>
      <path d="M49.293,69.046 L60.513,69.046 L60.513,57.827 L49.293,57.827 L49.293,69.046 Z M51.293,59.827 L58.513,59.827 L58.513,67.046 L51.293,67.046 L51.293,59.827 Z" id="Shape"></path>
      <path d="M9.135,69.046 L20.355,69.046 L20.355,57.827 L9.135,57.827 L9.135,69.046 Z M11.135,59.827 L18.355,59.827 L18.355,67.046 L11.135,67.046 L11.135,59.827 Z" id="Shape"></path>
      <path d="M22.521,69.046 L33.74,69.046 L33.74,57.827 L22.521,57.827 L22.521,69.046 Z M24.521,59.827 L31.74,59.827 L31.74,67.046 L24.521,67.046 L24.521,59.827 Z" id="Shape"></path>
  </g>
</svg>
