<?xml version="1.0" encoding="UTF-8"?>
<svg width="35px" height="37px" viewBox="0 0 35 37" version="1.1" xmlns="http://www.w3.org/2000/svg" xmlns:xlink="http://www.w3.org/1999/xlink">
    <!-- Generator: Sketch 51.2 (57519) - http://www.bohemiancoding.com/sketch -->
    <title>icon - calendar</title>
    <desc>Created with Sketch.</desc>
    <defs></defs>
    <g id="Page-1" stroke="none" stroke-width="1" fill="none" fill-rule="evenodd">
        <g id="Campaign" transform="translate(-937.000000, -1084.000000)" fill="#206F8A" fill-rule="nonzero">
            <g id="OVERVIEW" transform="translate(-9.000000, 678.000000)">
                <g id="sidebar" transform="translate(696.000000, 97.000000)">
                    <g id="term-length" transform="translate(1.000000, 301.000000)">
                        <g id="icon---calendar" transform="translate(249.000000, 8.000000)">
                            <path d="M31.594807,2.71936759 L31.594807,1.3013834 C31.594807,0.583992095 30.9990494,0 30.2672051,0 L29.1689347,0 C28.4370904,0 27.8413328,0.583992095 27.8413328,1.3013834 L27.8413328,2.69120553 L19.2880286,2.69120553 L19.2880286,1.3013834 C19.2880286,0.583992095 18.6922711,8.7764666e-16 17.9604268,8.7764666e-16 L16.8621563,8.7764666e-16 C16.130312,8.7764666e-16 15.5345545,0.583992095 15.5345545,1.3013834 L15.5345545,2.69120553 L6.98125024,2.69120553 L6.98125024,1.3013834 C6.98125024,0.583992095 6.3854927,8.7764666e-16 5.6536484,8.7764666e-16 L4.55588196,8.7764666e-16 C3.82403766,8.7764666e-16 3.22828011,0.583992095 3.22828011,1.3013834 L3.22828011,2.74407115 C1.38354862,3.03804348 0,4.59140316 0,6.47332016 L0,33.2173913 C0,35.3028656 1.73132587,37 3.85831136,37 L31.1411845,37 C33.269178,37 34.9999999,35.3028656 34.9999999,33.2173913 L34.9999999,6.47332016 C35.0005039,4.53804348 33.5090939,2.94021739 31.594807,2.71936759 Z M28.8498868,1.3013834 C28.8498868,1.1284585 28.9930299,0.988142292 29.1694387,0.988142292 L30.2677092,0.988142292 C30.4441179,0.988142292 30.587261,1.1284585 30.587261,1.3013834 L30.587261,5.06867589 C30.587261,5.24160079 30.4441179,5.381917 30.2677092,5.381917 L29.1694387,5.381917 C28.9930299,5.381917 28.8498868,5.24160079 28.8498868,5.06867589 L28.8498868,1.3013834 Z M16.5431085,1.3013834 C16.5431085,1.1284585 16.6862516,0.988142292 16.8626603,0.988142292 L17.9609308,0.988142292 C18.1373395,0.988142292 18.2804826,1.1284585 18.2804826,1.3013834 L18.2804826,5.06867589 C18.2804826,5.24160079 18.1373395,5.381917 17.9609308,5.381917 L16.8626603,5.381917 C16.6862516,5.381917 16.5431085,5.24160079 16.5431085,5.06867589 L16.5431085,1.3013834 Z M4.23683413,1.3013834 C4.23683413,1.1284585 4.37997723,0.988142292 4.55638598,0.988142292 L5.65415243,0.988142292 C5.83056117,0.988142292 5.97370427,1.1284585 5.97370427,1.3013834 L5.97370427,5.06867589 C5.97370427,5.24160079 5.83056117,5.381917 5.65415243,5.381917 L4.55638598,5.381917 C4.37997723,5.381917 4.23683413,5.24160079 4.23683413,5.06867589 L4.23683413,1.3013834 Z M3.22878414,3.75 L3.22878414,5.06818182 C3.22878414,5.78557312 3.82454168,6.36956522 4.55638598,6.36956522 L5.65415243,6.36956522 C6.38599672,6.36956522 6.98175427,5.78557312 6.98175427,5.06818182 L6.98175427,3.67885375 L15.5355625,3.67885375 L15.5355625,5.06818182 C15.5355625,5.78557312 16.1313201,6.36956522 16.8631644,6.36956522 L17.9614348,6.36956522 C18.6932791,6.36956522 19.2890367,5.78557312 19.2890367,5.06818182 L19.2890367,3.67885375 L27.8428449,3.67885375 L27.8428449,5.06818182 C27.8428449,5.78557312 28.4386025,6.36956522 29.1704467,6.36956522 L30.2687172,6.36956522 C31.0005615,6.36956522 31.5963191,5.78557312 31.5963191,5.06818182 L31.5963191,3.7173913 C32.9531544,3.93132411 33.993966,5.08349802 33.993966,6.47282609 L33.993966,11.2811265 L1.00805,11.2811265 L1.00805,6.47282609 C1.00805,5.13932806 1.94906467,4.02964427 3.22878414,3.75 Z M31.1411845,36.0118577 L3.85831136,36.0118577 C2.28676142,36.0118577 1.00805,34.7583992 1.00805,33.2173913 L1.00805,12.2697628 L33.99195,12.2697628 L33.9919499,33.2173913 C33.9924539,34.7583992 32.7137425,36.0118577 31.1411845,36.0118577 Z" id="Shape"></path>
                            <path d="M4,21 L9,21 L9,16 L4,16 L4,21 Z M4.8912656,16.891345 L8.1087344,16.891345 L8.1087344,20.108655 L4.8912656,20.108655 L4.8912656,16.891345 Z" id="Shape"></path>
                            <path d="M11,21 L16,21 L16,16 L11,16 L11,21 Z M11.891345,16.891345 L15.108655,16.891345 L15.108655,20.108655 L11.891345,20.108655 L11.891345,16.891345 Z" id="Shape"></path>
                            <path d="M18,21 L23,21 L23,16 L18,16 L18,21 Z M18.8912656,16.891345 L22.1087344,16.891345 L22.1087344,20.108655 L18.8912656,20.108655 L18.8912656,16.891345 Z" id="Shape"></path>
                            <path d="M4,28 L9,28 L9,23 L4,23 L4,28 Z M4.8912656,23.8912656 L8.1087344,23.8912656 L8.1087344,27.1087344 L4.8912656,27.1087344 L4.8912656,23.8912656 Z" id="Shape"></path>
                            <path d="M11,28 L16,28 L16,23 L11,23 L11,28 Z M11.891345,23.8912656 L15.108655,23.8912656 L15.108655,27.1087344 L11.891345,27.1087344 L11.891345,23.8912656 Z" id="Shape"></path>
                            <path d="M18,28 L23,28 L23,23 L18,23 L18,28 Z M18.8912656,23.8912656 L22.1087344,23.8912656 L22.1087344,27.1087344 L18.8912656,27.1087344 L18.8912656,23.8912656 Z" id="Shape"></path>
                            <path d="M18,34 L23,34 L23,29 L18,29 L18,34 Z M18.8912656,29.891345 L22.1087344,29.891345 L22.1087344,33.108655 L18.8912656,33.108655 L18.8912656,29.891345 Z" id="Shape"></path>
                            <path d="M24,21 L29,21 L29,16 L24,16 L24,21 Z M24.8912656,16.891345 L28.1087344,16.891345 L28.1087344,20.108655 L24.8912656,20.108655 L24.8912656,16.891345 Z" id="Shape"></path>
                            <path d="M24,28 L29,28 L29,23 L24,23 L24,28 Z M24.8912656,23.8912656 L28.1087344,23.8912656 L28.1087344,27.1087344 L24.8912656,27.1087344 L24.8912656,23.8912656 Z" id="Shape"></path>
                            <path d="M24,34 L29,34 L29,29 L24,29 L24,34 Z M24.8912656,29.891345 L28.1087344,29.891345 L28.1087344,33.108655 L24.8912656,33.108655 L24.8912656,29.891345 Z" id="Shape"></path>
                            <path d="M4,34 L9,34 L9,29 L4,29 L4,34 Z M4.8912656,29.891345 L8.1087344,29.891345 L8.1087344,33.108655 L4.8912656,33.108655 L4.8912656,29.891345 Z" id="Shape"></path>
                            <path d="M11,34 L16,34 L16,29 L11,29 L11,34 Z M11.891345,29.891345 L15.108655,29.891345 L15.108655,33.108655 L11.891345,33.108655 L11.891345,29.891345 Z" id="Shape"></path>
                        </g>
                    </g>
                </g>
            </g>
        </g>
    </g>
</svg>