<?xml version="1.0" encoding="UTF-8"?>
<svg width="82px" height="71px" viewBox="0 0 82 71" version="1.1" xmlns="http://www.w3.org/2000/svg" xmlns:xlink="http://www.w3.org/1999/xlink">
    <title>checked</title>
    <g id="Page-1" stroke="none" stroke-width="1" fill="none" fill-rule="evenodd">
        <g id="checked" fill="#000000" fill-rule="nonzero">
            <g id="Group">
                <path d="M76.81858,0.33378 C75.78258,0.38278 74.77248,0.85318 74.06858,1.61508 C63.53718,12.63368 46.69088,31.17178 35.50608,42.9901 L21.41238,32.20878 C19.75348,30.91138 17.05918,31.25248 15.77588,32.92228 C14.49268,34.5921 14.85668,37.2835 16.53738,38.5525 L33.53738,51.5525 C35.08608,52.7497 37.53128,52.5639 38.88108,51.1463 C50.07968,39.4299 68.85738,18.67998 79.88108,7.14628 C81.01238,6.00668 81.34918,4.15228 80.69078,2.68768 C80.03238,1.22308 78.42188,0.24408 76.81858,0.33378 L76.81858,0.33378 Z M0.9748799,10.39628 L0.9748799,66.3963 C0.9748799,68.4906 2.88058,70.3963 4.9748799,70.3963 L60.9748799,70.3963 C63.06918,70.3963 64.9752276,68.4906 64.9752276,66.3963 L64.9752276,40.3963 C65.00488,38.283 63.08838,36.3393 60.9748799,36.3393 C58.86138,36.3393 56.94498,38.283 56.9748799,40.3963 L56.9748799,62.3963 L8.9748799,62.3963 L8.9748799,14.39628 L50.9748799,14.39628 C53.08808,14.42628 55.03188,12.50978 55.03188,10.39628 C55.03188,8.28278 53.08808,6.36638 50.9748799,6.3959347 L4.9748799,6.3959347 C2.77048,6.43128 1.01928,8.71048 0.9748799,10.39628 L0.9748799,10.39628 Z" id="Shape"></path>
            </g>
        </g>
    </g>
</svg>