<svg xmlns="http://www.w3.org/2000/svg" xmlns:xlink="http://www.w3.org/1999/xlink" version="1.1" x="0px" y="0px" viewBox="0 0 100 125" enable-background="new 0 0 100 100" xml:space="preserve"><path d="M11.775,60.586c0-3.338,1.299-6.477,3.659-8.84c4.876-4.873,12.806-4.873,17.68,0l4.387,4.387V13.689  c0.001-6.893,5.607-12.5,12.5-12.5c6.892,0,12.499,5.607,12.5,12.5L62.5,56.133l4.388-4.387c4.873-4.873,12.803-4.873,17.678,0  c2.361,2.363,3.66,5.502,3.659,8.838c0.001,3.34-1.3,6.479-3.659,8.84L58.839,95.15c-2.362,2.361-5.5,3.66-8.839,3.66  c-3.34,0-6.479-1.299-8.839-3.66L15.436,69.424C13.075,67.062,11.775,63.922,11.775,60.586z M57.5,13.689  c0.001-4.137-3.364-7.5-7.499-7.5c-4.137,0-7.501,3.363-7.5,7.5l0.001,54.514L29.58,55.281c-2.927-2.924-7.685-2.924-10.609,0  c-1.415,1.418-2.196,3.301-2.196,5.305c0.002,2.002,0.78,3.887,2.198,5.303l25.723,25.727c1.419,1.416,3.301,2.195,5.305,2.195  c2.002,0,3.887-0.779,5.304-2.197l25.726-25.725c1.416-1.416,2.195-3.299,2.195-5.303s-0.779-3.887-2.196-5.305  c-2.923-2.922-7.681-2.924-10.604,0L57.5,68.203V13.689z"/><text x="0" y="115" fill="#000000" font-size="5px" font-weight="bold" font-family="'Helvetica Neue', Helvetica, Arial-Unicode, Arial, Sans-serif">Created by Julia Holmberg</text><text x="0" y="120" fill="#000000" font-size="5px" font-weight="bold" font-family="'Helvetica Neue', Helvetica, Arial-Unicode, Arial, Sans-serif">from the Noun Project</text></svg>