<svg height="480pt" viewBox="0 -72 480.00018 480" width="480pt" xmlns="http://www.w3.org/2000/svg"><g fill="#9bc9ff"><path d="m468.960938 321.359375c1.984374-2.714844 3.050781-5.996094 3.039062-9.359375v-275.679688l-186 143.679688zm0 0"/><path d="m194 180-186-143.679688v275.679688c-.011719 3.363281 1.054688 6.644531 3.039062 9.359375zm0 0"/><path d="m230.222656 208c5.761719 4.445312 13.792969 4.445312 19.554688 0l36.222656-28 186-143.679688v-12.320312c0-8.835938-7.164062-16-16-16h-432c-8.835938 0-16 7.164062-16 16v12.320312l186 143.679688zm0 0"/><path d="m249.777344 208c-5.761719 4.445312-13.792969 4.445312-19.554688 0l-36.222656-28-182.960938 141.359375c3.011719 4.160156 7.828126 6.625 12.960938 6.640625h432c5.132812-.015625 9.949219-2.480469 12.960938-6.640625l-182.960938-141.359375zm0 0"/></g><path d="m456 0h-432c-13.253906 0-24 10.746094-24 24v288c-.015625 5.042969 1.578125 9.957031 4.550781 14.03125 4.507813 6.253906 11.742188 9.960938 19.449219 9.96875h432c7.695312-.003906 14.921875-3.699219 19.433594-9.9375 2.980468-4.082031 4.578125-9.007812 4.566406-14.0625v-288c0-13.253906-10.746094-24-24-24zm-156.917969 180 164.917969-127.390625v254.808594zm-275.082031-164h432c4.417969 0 8 3.582031 8 8v8.390625l-219.113281 169.25c-2.878907 2.222656-6.894531 2.222656-9.773438 0l-219.113281-169.25v-8.390625c0-4.417969 3.582031-8 8-8zm156.921875 164-164.921875 127.417969v-254.808594zm-155.042969 140 168.121094-129.886719 31.335938 24.191407c8.640624 6.667968 20.6875 6.667968 29.328124 0l31.335938-24.191407 168.121094 129.886719zm0 0" fill="#1e81ce"/></svg>