<svg width="15" height="12" viewBox="0 0 15 12" fill="none" xmlns="http://www.w3.org/2000/svg">
<path d="M11.5 7.25C11.5 7.10937 11.3906 7 11.25 7H10.75C10.6094 7 10.5 7.10937 10.5 7.25V9.75C10.5 10.4375 9.9375 11 9.25 11H2.75C2.0625 11 1.5 10.4375 1.5 9.75V3.25C1.5 2.5625 2.0625 2 2.75 2H8.25C8.39063 2 8.5 1.89062 8.5 1.75V1.25C8.5 1.10937 8.39063 0.999999 8.25 0.999999H2.75C1.50781 0.999999 0.5 2.00781 0.5 3.25V9.75C0.5 10.9922 1.50781 12 2.75 12H9.25C10.4922 12 11.5 10.9922 11.5 9.75V7.25ZM14.5 0.5C14.5 0.226562 14.2734 -9.53674e-07 14 -9.53674e-07H10C9.72656 -9.53674e-07 9.5 0.226562 9.5 0.5C9.5 0.632812 9.55469 0.757812 9.64844 0.851562L11.0234 2.22656L5.92969 7.32031C5.88281 7.36719 5.85156 7.4375 5.85156 7.5C5.85156 7.5625 5.88281 7.63281 5.92969 7.67969L6.82031 8.57031C6.86719 8.61719 6.9375 8.64844 7 8.64844C7.0625 8.64844 7.13281 8.61719 7.17969 8.57031L12.2734 3.47656L13.6484 4.85156C13.7422 4.94531 13.8672 5 14 5C14.2734 5 14.5 4.77344 14.5 4.5V0.5Z" fill="white"/>
</svg>
