<svg xmlns="http://www.w3.org/2000/svg" xmlns:xlink="http://www.w3.org/1999/xlink" version="1.1" x="0px" y="0px" viewBox="0 0 32 40" style="enable-background:new 0 0 32 32;" xml:space="preserve"><g><g><path d="M4.2821889,30.8992615H1.7991263c-0.3855772,0-0.698404-0.3128281-0.698404-0.6984043V1.7990927    c0-0.3855772,0.3128268-0.698404,0.698404-0.698404h2.4830627c0.3855772,0,0.6984043,0.3128268,0.6984043,0.698404v28.4017639    C4.9805932,30.5864334,4.6677661,30.8992615,4.2821889,30.8992615z M2.4975302,29.5024529h1.0862548V2.4974968H2.4975302    V29.5024529z"/></g><g><path d="M30.2008896,21.6390419H4.2821889c-0.385577,0-0.6984038-0.3128262-0.6984038-0.6984043V3.6615036    c0-0.3855772,0.3128269-0.6984041,0.6984038-0.6984041h25.9187012c0.3855782,0,0.6984043,0.3128269,0.6984043,0.6984041    v17.2791348C30.8992939,21.3262157,30.5864677,21.6390419,30.2008896,21.6390419z M4.9805932,20.2422333h24.5218945V4.3599076    H4.9805932V20.2422333z"/></g><g><rect x="4.2823405" y="3.6615036" width="4.3197584" height="4.3197584"/></g><g><rect x="12.9218569" y="3.6615036" width="4.3197584" height="4.3197584"/></g><g><rect x="21.5613747" y="3.6615036" width="4.3197584" height="4.3197584"/></g><g><rect x="4.2823405" y="12.3010197" width="4.3197584" height="4.3197584"/></g><g><rect x="12.9218569" y="12.3010197" width="4.3197584" height="4.3197584"/></g><g><rect x="21.5613747" y="12.3010197" width="4.3197584" height="4.3197584"/></g><g><rect x="8.6020994" y="7.9812617" width="4.3197584" height="4.3197584"/></g><g><rect x="17.2416153" y="7.9812617" width="4.3197584" height="4.3197584"/></g><g><rect x="25.8811321" y="7.9812617" width="4.3197584" height="4.3197584"/></g><g><rect x="8.6020994" y="16.620779" width="4.3197584" height="4.3197584"/></g><g><rect x="17.2416153" y="16.620779" width="4.3197584" height="4.3197584"/></g><g><rect x="25.8811321" y="16.620779" width="4.3197584" height="4.3197584"/></g></g><text x="0" y="47" fill="#000000" font-size="5px" font-weight="bold" font-family="'Helvetica Neue', Helvetica, Arial-Unicode, Arial, Sans-serif">Created by Royyan Wijaya</text><text x="0" y="52" fill="#000000" font-size="5px" font-weight="bold" font-family="'Helvetica Neue', Helvetica, Arial-Unicode, Arial, Sans-serif">from the Noun Project</text></svg>