<svg xmlns="http://www.w3.org/2000/svg" xmlns:xlink="http://www.w3.org/1999/xlink" version="1.1" x="0px" y="0px" viewBox="0 0 100 125" style="enable-background:new 0 0 100 100;" xml:space="preserve"><path d="M50.125,10c-22.056,0-40,17.944-40,40s17.944,40,40,40c0,0,0,0,0.001,0c0,0,0,0,0,0s0,0,0,0  c22.055-0.001,39.999-17.944,39.999-40C90.125,27.944,72.181,10,50.125,10z M82.675,30.413H67.494  c-3.713-9.021-9.13-15.207-11.946-18.02C67.05,14.045,76.905,20.86,82.675,30.413z M84.286,66.628  C84.286,66.628,84.285,66.628,84.286,66.628l-16.103,0c1.823-4.616,3.057-9.853,3.188-15.628H88.1  C87.954,56.59,86.604,61.885,84.286,66.628z M12.15,51h16.729c0.131,5.775,1.365,11.012,3.188,15.628H15.964  C13.646,61.885,12.296,56.59,12.15,51z M16.456,32.413h15.517C30.217,37.235,28.996,42.788,28.875,49H12.15  C12.306,43.029,13.842,37.398,16.456,32.413z M47.771,12.214c0.05-0.041,0.077-0.096,0.117-0.143  c0.41-0.024,0.823-0.035,1.237-0.046v18.388H34.907C39.875,18.821,47.656,12.309,47.771,12.214z M52.433,12.215  c0.116,0.094,7.925,6.595,12.906,18.198H51.125V12.025c0.396,0.01,0.793,0.02,1.186,0.042  C52.352,12.117,52.381,12.173,52.433,12.215z M66.154,32.413C67.971,37.19,69.248,42.75,69.375,49h-18.25V32.413H66.154z   M49.125,32.413V49h-18.25c0.126-6.247,1.403-11.807,3.218-16.587H49.125z M30.875,51h18.25v15.628H34.216  C32.321,62.046,31.012,56.809,30.875,51z M49.125,68.628v18.287c-3.008-2.563-9.633-8.912-14.024-18.287H49.125z M51.125,68.628  h14.014C60.744,78.001,54.128,84.35,51.125,86.91V68.628z M51.125,66.628V51h18.246c-0.138,5.808-1.45,11.043-3.349,15.628H51.125z   M71.374,49c-0.121-6.212-1.345-11.765-3.106-16.587h15.526C86.408,37.398,87.944,43.029,88.1,49H71.374z M44.652,12.4  c-2.809,2.815-8.207,8.999-11.907,18.013h-15.17C23.337,20.874,33.172,14.063,44.652,12.4z M17.023,68.628h15.89  c4.263,9.536,10.809,16.176,14.28,19.248C34.244,86.882,23.095,79.375,17.023,68.628z M53.057,87.876  c3.471-3.071,10.017-9.712,14.28-19.248h15.89C77.155,79.375,66.006,86.882,53.057,87.876z"/></svg>
