<?xml version="1.0" encoding="UTF-8"?>
<svg width="42px" height="37px" viewBox="0 0 42 37" version="1.1" xmlns="http://www.w3.org/2000/svg" xmlns:xlink="http://www.w3.org/1999/xlink">
    <!-- Generator: Sketch 51.2 (57519) - http://www.bohemiancoding.com/sketch -->
    <title>Group</title>
    <desc>Created with Sketch.</desc>
    <defs></defs>
    <g id="Page-1" stroke="none" stroke-width="1" fill="none" fill-rule="evenodd">
        <g id="Campaign" transform="translate(-931.000000, -1026.000000)" fill="#206F8A" fill-rule="nonzero">
            <g id="PROJECT" transform="translate(-9.000000, 678.000000)">
                <g id="sidebar" transform="translate(619.000000, 99.000000)">
                    <g id="team" transform="translate(78.000000, 240.000000)">
                        <g id="group-of-people" transform="translate(243.000000, 9.000000)">
                            <g id="Group">
                                <path d="M20.4420073,0.0342321024 C16.9710417,0.206643985 14.2079566,3.11537159 14.2079566,6.6673513 C14.2079566,8.97623923 15.3702598,10.9933615 17.1425796,12.1771924 C17.7153646,12.5592056 17.6682952,13.434144 17.0290993,13.677627 C13.0320436,15.1972921 10.1789327,19.0760487 10.1789327,23.6560264 C17.2350264,25.8263842 24.2973531,25.8263842 31.3617331,23.6560264 C31.3617331,19.0718482 28.5086289,15.2014926 24.5115799,13.677627 C23.8765305,13.4425451 23.8092837,12.5672211 24.373769,12.1936023 C26.4449442,10.8166815 27.7044493,8.28634143 27.2354337,5.50308238 C26.7871639,2.81639536 24.6183321,0.607001572 21.9660655,0.132630457 C21.4472452,0.0397719561 20.9378815,0.00963758684 20.4420073,0.0342321024 Z M7.43885408,3.51888804 C4.9271872,3.64154947 2.92343274,5.74498256 2.92343274,8.32357817 C2.92343274,9.98597397 3.7648372,11.456193 5.04738879,12.3083699 C5.45414675,12.5980319 5.4230614,13.2267546 4.95819229,13.3988756 C2.06104166,14.507144 0.00498783439,17.3141182 0.00498783439,20.6305155 C2.9726958,21.5414798 5.94200885,21.9251299 8.93047605,21.7865997 C9.35383338,19.0789032 10.6923761,16.6150347 12.6514687,14.7763241 C11.9873671,14.1760041 11.2160585,13.7221284 10.3734837,13.3988756 C9.92105408,13.2267546 9.87756268,12.5934661 10.2843206,12.3247866 C11.7785576,11.3298721 12.6999894,9.50648238 12.3596356,7.48726318 C12.0234417,5.54780029 10.4547885,3.9369204 8.54134739,3.59269188 C8.16625662,3.52500962 7.79767318,3.50138238 7.43885408,3.51888804 Z M34.0855869,3.51888804 C31.5679343,3.64154947 29.5701522,5.74498256 29.5701522,8.32357817 C29.5701522,9.98597397 30.4155225,11.456193 31.7022139,12.3083699 C32.1048187,12.5980319 32.0737802,13.2267546 31.6130643,13.3988756 C30.6708598,13.751512 29.8099468,14.2884314 29.0918805,14.9894901 C30.9389108,16.7778211 32.1949315,19.1594577 32.6182955,21.7538138 C35.7478706,21.9469038 38.8723028,21.587652 41.9977382,20.6305155 C41.9977382,17.3141182 39.9254862,14.5029434 37.0283423,13.3988756 C36.5717729,13.2267546 36.5157818,12.5934661 36.9391458,12.3247866 C38.4292229,11.3298721 39.3344834,9.50648238 38.9982359,7.48726318 C38.6744882,5.54780029 37.1096604,3.9369204 35.1962127,3.59269188 C34.8195503,3.52500962 34.4452487,3.50138238 34.0855869,3.51888804 Z M3.40983688,23.246057 L2.60726904,25.7467835 L0.00498783439,25.7467835 L2.11276586,27.2964273 L1.31019803,29.7971877 L3.40983688,28.255742 L5.51756809,29.7971877 L4.71500025,27.2964273 L6.81463911,25.7467835 L4.21239803,25.7467835 L3.40983688,23.246057 Z M38.5929225,23.246057 L37.7822557,25.7467835 L35.1799811,25.7467835 L37.2877592,27.2964273 L36.4851913,29.7971877 L38.5929225,28.255742 L40.6925681,29.7971877 L39.8900069,27.2964273 L41.9977382,25.7467835 L39.3954904,25.7467835 L38.5929225,23.246057 Z M12.0677624,25.2548661 L11.0382407,28.4525454 L7.70636331,28.4525454 L10.3978009,30.436706 L9.37637828,33.6343988 L12.0677624,31.6584027 L14.7592066,33.6343988 L13.7296448,30.436706 L16.4291748,28.4525454 L13.0973308,28.4525454 L12.0677624,25.2548661 Z M29.9349569,25.2548661 L28.9053952,28.4525454 L25.5735512,28.4525454 L28.2730811,30.436706 L27.2435194,33.6343988 L29.9349569,31.6584027 L32.6264012,33.6343988 L31.5968261,30.436706 L34.2882636,28.4525454 L30.9645187,28.4525454 L29.9349569,25.2548661 Z M20.7662901,26.5175334 L19.4854038,30.5105098 L15.3347738,30.5105098 L18.6990741,32.9784571 L17.4100888,36.9714336 L20.7662901,34.503493 L24.1305436,36.9714336 L22.8416117,32.9784571 L26.2058585,30.5105098 L22.0552286,30.5105098 L20.7662901,26.5175334 Z" id="Shape"></path>
                            </g>
                        </g>
                    </g>
                </g>
            </g>
        </g>
    </g>
</svg>