<svg width="38" height="34" viewBox="0 0 38 34" fill="none" xmlns="http://www.w3.org/2000/svg">
<path fill-rule="evenodd" clip-rule="evenodd" d="M15.9589 8.35254L18.7964 10.7203C19.4176 11.243 20.3422 11.2311 20.949 10.6927L27.8199 4.61542L25.7728 2.62256C25.5604 2.41803 25.4808 2.11639 25.5656 1.83759C25.6504 1.55872 25.8857 1.34784 26.1782 1.2887L33.037 0.0140381C33.3009 -0.0350342 33.5726 0.0462646 33.7626 0.231201C33.9525 0.416077 34.036 0.680603 33.9856 0.9375L32.6843 7.63037C32.6237 7.9151 32.407 8.14423 32.1205 8.22675C31.8341 8.3092 31.5243 8.23169 31.3142 8.02496L28.9509 5.7243L22.0394 11.8529C20.8247 12.9286 18.9757 12.9506 17.7344 11.9042L14.8969 9.53644C14.2874 9.02209 13.3822 9.02209 12.7727 9.53644L5.28552 15.8505C4.94604 16.0892 4.47559 16.037 4.20007 15.7299C3.92456 15.4228 3.93469 14.9619 4.22351 14.6666L11.7106 8.35254C12.9296 7.32391 14.7399 7.32391 15.9589 8.35254ZM31.3708 5.86243L32.1816 1.77802L27.9861 2.56726L31.3708 5.86243Z" fill="#206F8A"/>
<path d="M38 33.1894C38 32.7417 37.6398 32.3788 37.1954 32.3788H34.2869V17.269C34.2869 16.8213 33.9267 16.4584 33.4823 16.4584C33.038 16.4584 32.6777 16.8213 32.6777 17.269V32.3788H29.4595V12.8106C29.4595 12.3629 29.0992 12 28.6549 12C28.2105 12 27.8503 12.3629 27.8503 12.8106V32.3788H24.632V21.322C24.632 20.8743 24.2718 20.5114 23.8274 20.5114C23.3831 20.5114 23.0229 20.8743 23.0229 21.322V32.3788H19.8046V24.5645C19.8046 24.1168 19.4444 23.7539 19 23.7539C18.5556 23.7539 18.1954 24.1168 18.1954 24.5645V32.3788H14.9771V17.269C14.9771 16.8213 14.6169 16.4584 14.1726 16.4584C13.7282 16.4584 13.368 16.8213 13.368 17.269V32.3788H10.1497V27.8069C10.1497 27.3592 9.78947 26.9963 9.34512 26.9963C8.90077 26.9963 8.54055 27.3592 8.54055 27.8069V32.3788H5.32225V24.1592C5.32225 23.7115 4.96203 23.3486 4.51768 23.3486C4.07333 23.3486 3.71311 23.7115 3.71311 24.1592V32.3788H0.804573C0.36022 32.3788 0 32.7417 0 33.1894C0 33.6371 0.36022 34 0.804573 34H37.1954C37.6398 34 38 33.6371 38 33.1894Z" fill="#206F8A"/>
</svg>
