<svg xmlns="http://www.w3.org/2000/svg" xmlns:xlink="http://www.w3.org/1999/xlink" version="1.1" x="0px" y="0px" viewBox="0 0 512 640" enable-background="new 0 0 512 512" xml:space="preserve"><g><polygon points="182.3,169.3 264.2,251.2 485.4,30 485.4,83.9 501.8,83.9 501.8,2 419.9,2 419.9,18.4 473.8,18.4 264.2,228    182.3,146.1 12.6,315.8 24.2,327.3  "/><path d="M493.6,493.6V116.7h-81.9v376.9h-16.4V215h-81.9v278.6H297V297H215v196.6h-16.4V264.2h-81.9v229.4h-16.4V346.1H18.4v147.5   H2V510h508v-16.4H493.6z M34.8,493.6V362.5h49.2v131.1H34.8z M133.1,493.6v-213h49.2v213H133.1z M231.4,493.6V313.4h49.2v180.3   H231.4z M329.7,493.6V231.4h49.2v262.2H329.7z M428.1,493.6V133.1h49.2v360.5H428.1z"/></g></svg>