<svg xmlns="http://www.w3.org/2000/svg" data-name="Layer 2" viewBox="0 0 100 125" x="0px" y="0px">
<path d="M80.09,40.16A11.82,11.82,0,0,0,91.9,28.36v-2.5a1.5,1.5,0,0,0-1.5-1.5H82.82a11.81,11.81,0,0,0-10.31,6.06,11.81,11.81,0,0,0-10.31-6.06H54.62a1.5,1.5,0,0,0-1.5,1.5v2.5A11.82,11.82,0,0,0,64.93,40.16h6V72.11l-2.46-2.46a1,1,0,0,0-1.41,1.41l3.87,3.87v12.5H50.58V73.81l3.5-3.5a1,1,0,0,0-1.41-1.41L50.58,71V57.47h2.67A11.82,11.82,0,0,0,65.06,45.66a1.5,1.5,0,0,0-1.5-1.5H59.46a11.81,11.81,0,0,0-10.31,6.06,11.81,11.81,0,0,0-10.31-6.06H34.76a1.5,1.5,0,0,0-1.5,1.5A11.82,11.82,0,0,0,45.06,57.47h2.52v30H27.23V78.08H29.9A11.82,11.82,0,0,0,41.7,66.27a1.5,1.5,0,0,0-1.5-1.5H36.11A11.81,11.81,0,0,0,25.8,70.84,11.81,11.81,0,0,0,15.5,64.77H11.4a1.5,1.5,0,0,0-1.5,1.5A11.82,11.82,0,0,0,21.71,78.08h2.52v9.37H10a1.5,1.5,0,1,0,0,3H88.32a1.5,1.5,0,0,0,0-3H73.94V51.84L77,48.76a1,1,0,0,0-1.41-1.41L73.94,49V40.16h6.16ZM88.9,28.36a8.82,8.82,0,0,1-8.81,8.81H76.33l2.23-1.59,4.31,0.94,0.21,0a1,1,0,0,0,.21-2L80.75,34l8.15-5.83v0.19ZM74,36.17a8.82,8.82,0,0,1,8.81-8.81h3.77l-3.84,2.74L83,29a1,1,0,1,0-1.94-.47l-0.82,3.4L74,36.36V36.17Zm-14.55,11h2.47a8.82,8.82,0,0,1-8.68,7.31H52.92l4.27-3.11A1,1,0,0,0,56,49.74l-4.95,3.6A8.81,8.81,0,0,1,59.46,47.16Zm-18.34,4.2,4.27,3.11H45.06a8.82,8.82,0,0,1-8.68-7.31h2.47a8.81,8.81,0,0,1,8.4,6.18l-4.94-3.6A1,1,0,0,0,41.13,51.36Zm-5,16.41h2.47a8.82,8.82,0,0,1-8.68,7.31H27.43A8.82,8.82,0,0,1,36.11,67.77Zm-14.4,7.31A8.82,8.82,0,0,1,13,67.77H15.5a8.82,8.82,0,0,1,8.68,7.31H21.71ZM64.93,37.16a8.82,8.82,0,0,1-8.81-8.81V28.17L64.27,34l-2.54.55a1,1,0,0,0,.21,2l0.21,0,4.31-.94,2.23,1.59H64.93Zm6.08-.8-6.25-4.47-0.82-3.4A1,1,0,1,0,62,29l0.28,1.14-3.83-2.74h3.77A8.82,8.82,0,0,1,71,36.17v0.19Z"/><path d="M9.6,56a1.49,1.49,0,0,0,.9-0.3L65,14.5l1.26,1.67L69,9.55l-7.12.89,1.26,1.67L8.7,53.35A1.5,1.5,0,0,0,9.6,56Z"/>
</svg>
