<svg xmlns="http://www.w3.org/2000/svg" xmlns:xlink="http://www.w3.org/1999/xlink" xml:space="preserve" version="1.1" style="shape-rendering:geometricPrecision;text-rendering:geometricPrecision;image-rendering:optimizeQuality;" viewBox="0 0 10000 12500" x="0px" y="0px" fill-rule="evenodd" clip-rule="evenodd"><defs><style type="text/css">
   
    .fil0 {fill:black}
   
  </style></defs><g><path class="fil0" d="M5931 3307l781 4107 -736 0 0 1674c0,228 -184,412 -412,412 -227,0 -412,-184 -412,-412l0 -1674 -304 0 0 1674c0,228 -185,412 -413,412 -227,0 -411,-184 -411,-412l0 -1674 -726 0 781 -4107 -170 0 -584 2040c-45,156 -220,242 -390,193 -171,-49 -279,-198 -222,-394l601 -2092c107,-371 304,-573 491,-682 189,-656 438,-1872 1195,-1872 757,0 1006,1216 1195,1872 187,109 385,310 491,682l601 2092c57,196 -51,345 -222,394 -170,49 -345,-37 -390,-193l-584 -2040 -160 0zm-931 -1214c334,0 606,-269 606,-600 0,-332 -272,-601 -606,-601 -334,0 -605,269 -605,601 0,331 271,600 605,600z"/></g><text x="0" y="10015" fill="#000000" font-size="5px" font-weight="bold" font-family="'Helvetica Neue', Helvetica, Arial-Unicode, Arial, Sans-serif">Created by Hadi Davodpour</text><text x="0" y="10020" fill="#000000" font-size="5px" font-weight="bold" font-family="'Helvetica Neue', Helvetica, Arial-Unicode, Arial, Sans-serif">from the Noun Project</text></svg>