<svg width="42" height="42" viewBox="0 0 42 42" fill="none" xmlns="http://www.w3.org/2000/svg">
<path fill-rule="evenodd" clip-rule="evenodd" d="M11.7935 32.2876H2.32312C1.04333 32.2876 0.00158691 31.2466 0 29.9672V28.3302C0 28.0399 0.234863 27.8052 0.525391 27.8052H1.80518L6.32178 7.83447C4.75769 8.39621 3.47949 8.55896 2.52649 8.55896C1.29138 8.55896 0.600464 8.28754 0.539551 8.26236C0.271118 8.15158 0.143433 7.84445 0.253784 7.57669C0.364624 7.30844 0.672974 7.18243 0.939941 7.29111C0.961914 7.30005 3.11646 8.0975 6.84497 6.48944C6.8634 6.48105 6.88074 6.47211 6.90015 6.46582C7.5437 6.18549 8.22827 5.84161 8.96228 5.40112C14.1907 2.26376 18.8429 2.20602 20.4594 2.30209V0.524994C20.4594 0.23468 20.6942 0 20.9847 0C21.2753 0 21.5101 0.23468 21.5101 0.524994V2.30209C23.1272 2.20602 27.7788 2.26376 33.0078 5.40112C38.0339 8.41776 41.005 7.30109 41.0333 7.29007C41.3018 7.18402 41.6075 7.31317 41.7158 7.5809C41.824 7.84866 41.6979 8.1521 41.4305 8.26236C41.3695 8.28702 40.6792 8.55896 39.4436 8.55896C38.4838 8.55896 37.1949 8.39465 35.6162 7.82346L40.1349 27.8052H41.4746C41.7651 27.8052 42 28.0399 42 28.3302V29.9672C42 31.2466 40.9592 32.2871 39.679 32.2871H30.2086C28.9283 32.2871 27.8871 31.2466 27.8871 29.9672V28.3302C27.8871 28.0399 28.1218 27.8052 28.4124 27.8052H29.6312L34.2766 7.26538C33.7034 6.99817 33.1008 6.68158 32.4678 6.30148C27.4547 3.29276 22.9197 3.27542 21.5112 3.35785V34.8732H26.4302C27.8976 34.8732 29.0891 36.0471 29.1301 37.5034H29.9617C30.2522 37.5034 30.4871 37.7381 30.4871 38.0284V41.475C30.4871 41.7653 30.2522 42 29.9617 42H12.0104C11.7198 42 11.4851 41.7653 11.4851 41.475V38.0284C11.4851 37.7381 11.7198 37.5034 12.0104 37.5034H13.0417C13.0828 36.0471 14.2743 34.8732 15.7411 34.8732H20.4604V3.35837C19.0519 3.27542 14.5175 3.29327 9.50439 6.30203C8.86084 6.6879 8.24988 7.00815 7.66821 7.2785L12.3099 27.8058H13.5897C13.8802 27.8058 14.1151 28.0404 14.1151 28.3307V29.9677C14.1151 31.2471 13.0737 32.2876 11.7935 32.2876ZM12.5364 40.95H29.4369V38.5534H12.5364V40.95ZM26.4308 35.9227C27.3181 35.9227 28.0394 36.6256 28.0798 37.5029H14.093C14.1334 36.6256 14.8542 35.9227 15.7416 35.9227H26.4308ZM34.8844 9.34595L30.7098 27.8058H39.0585L34.8844 9.34595ZM7.05884 9.3454L11.2329 27.8052H2.88428L7.05884 9.3454ZM13.0643 28.8557H1.05237V29.9677C1.05237 30.668 1.62244 31.2376 2.32324 31.2376H11.7935C12.4944 31.2376 13.0643 30.668 13.0643 29.9677V28.8557Z" fill="#206F8A"/>
</svg>
