<svg xmlns="http://www.w3.org/2000/svg" xmlns:xlink="http://www.w3.org/1999/xlink" version="1.1" x="0px" y="0px" viewBox="0 0 100 125" enable-background="new 0 0 100 100" xml:space="preserve"><path fill="#000000" d="M72.5,90v1h-14l7.5-8h2l1-2l-1-1H55l-2-61h2l1-2l-1-1h-1.5l0.5-1h-2L50,5l-2,10h-2  l0.5,1H45l-1,1l1,2h2l-2,61H32l-1,1l1,2h2l7.5,8h-14v-1h-15v5h75v-5H72.5z M51,91h-2v-2c0-0.553,0.447-1,1-1s1,0.447,1,1V91z"/><text x="0" y="115" fill="#000000" font-size="5px" font-weight="bold" font-family="'Helvetica Neue', Helvetica, Arial-Unicode, Arial, Sans-serif">Created by József Balázs-Hegedüs</text><text x="0" y="120" fill="#000000" font-size="5px" font-weight="bold" font-family="'Helvetica Neue', Helvetica, Arial-Unicode, Arial, Sans-serif">from the Noun Project</text></svg>