<?xml version="1.0" encoding="UTF-8" standalone="no"?>
<svg width="1035px" height="537px" viewBox="0 0 1035 537" version="1.1" xmlns="http://www.w3.org/2000/svg" xmlns:xlink="http://www.w3.org/1999/xlink">
    <!-- Generator: Sketch 40 (33762) - http://www.bohemiancoding.com/sketch -->
    <title>indonesia underwriters</title>
    <desc>Created with Sketch.</desc>
    <defs></defs>
    <g id="Page-1" stroke="none" stroke-width="1" fill="none" fill-rule="evenodd">
        <g id="indonesia-underwriters" fill="#000000">
            <g id="decision" transform="translate(339.000000, 70.000000)">
                <path d="M0.454736842,300.6 C0.454736842,299.812371 0.454736842,299.812371 0.454736842,300.6 L0.454736842,300.6 L0.454736842,300.6 Z M283.907368,300.6 C283.907368,299.812371 283.907368,299.812371 283.907368,300.6 L283.907368,300.6 L283.907368,300.6 Z M283.12,184.818557 C279.183158,184.818557 276.033684,186.393814 272.884211,188.756701 C270.522105,191.119588 268.947368,195.057732 268.947368,198.995876 C268.947368,202.934021 270.522105,206.084536 272.884211,209.235052 C275.246316,211.597938 279.183158,213.173196 283.12,213.173196 C287.056842,213.173196 290.206316,211.597938 293.355789,209.235052 C295.717895,206.872165 297.292632,202.934021 297.292632,198.995876 C297.292632,195.057732 295.717895,191.907216 293.355789,188.756701 C290.206316,186.393814 286.269474,184.818557 283.12,184.818557 L283.12,184.818557 Z M365.006316,184.818557 C357.132632,184.818557 350.833684,191.119588 350.833684,198.995876 C350.833684,206.872165 357.132632,213.173196 365.006316,213.173196 C372.88,213.173196 379.178947,206.872165 379.178947,198.995876 C379.178947,191.119588 372.88,184.818557 365.006316,184.818557 L365.006316,184.818557 Z M324.063158,184.818557 C316.189474,184.818557 309.890526,191.119588 309.890526,198.995876 C309.890526,206.872165 316.189474,213.173196 324.063158,213.173196 C331.936842,213.173196 338.235789,206.872165 338.235789,198.995876 C338.235789,191.119588 331.936842,184.818557 324.063158,184.818557 L324.063158,184.818557 Z M405.949474,184.818557 C398.075789,184.818557 391.776842,191.119588 391.776842,198.995876 C391.776842,206.872165 398.075789,213.173196 405.949474,213.173196 C413.823158,213.173196 420.122105,206.872165 420.122105,198.995876 C420.122105,191.119588 413.823158,184.818557 405.949474,184.818557 L405.949474,184.818557 Z M446.892632,184.818557 C439.018947,184.818557 432.72,191.119588 432.72,198.995876 C432.72,206.872165 439.018947,213.173196 446.892632,213.173196 C454.766316,213.173196 461.065263,206.872165 461.065263,198.995876 C461.065263,191.119588 454.766316,184.818557 446.892632,184.818557 L446.892632,184.818557 Z M446.892632,143.861856 C439.018947,143.861856 432.72,150.162887 432.72,158.039175 C432.72,165.915464 439.018947,172.216495 446.892632,172.216495 C454.766316,172.216495 461.065263,165.915464 461.065263,158.039175 C461.065263,150.162887 454.766316,143.861856 446.892632,143.861856 L446.892632,143.861856 Z M446.892632,102.905155 C439.018947,102.905155 432.72,109.206186 432.72,117.082474 C432.72,124.958763 439.018947,131.259794 446.892632,131.259794 C454.766316,131.259794 461.065263,124.958763 461.065263,117.082474 C461.065263,109.206186 454.766316,102.905155 446.892632,102.905155 L446.892632,102.905155 Z M446.892632,61.9484536 C439.018947,61.9484536 432.72,68.2494845 432.72,76.1257732 C432.72,84.0020619 439.018947,90.3030928 446.892632,90.3030928 C454.766316,90.3030928 461.065263,84.0020619 461.065263,76.1257732 C461.065263,67.4618557 454.766316,61.9484536 446.892632,61.9484536 L446.892632,61.9484536 Z M446.892632,20.2041237 C442.955789,20.2041237 439.806316,21.7793814 436.656842,24.142268 C434.294737,26.5051546 432.72,30.443299 432.72,34.3814433 C432.72,38.3195876 434.294737,41.4701031 436.656842,44.6206186 C439.018947,46.9835052 442.955789,48.5587629 446.892632,48.5587629 C450.829474,48.5587629 453.978947,46.9835052 457.128421,44.6206186 C459.490526,42.257732 461.065263,38.3195876 461.065263,34.3814433 C461.065263,30.443299 459.490526,27.2927835 457.128421,24.142268 C453.978947,21.7793814 450.829474,20.2041237 446.892632,20.2041237 L446.892632,20.2041237 Z M446.892632,348.645361 C439.018947,348.645361 432.72,354.946392 432.72,362.82268 C432.72,370.698969 439.018947,377 446.892632,377 C454.766316,377 461.065263,370.698969 461.065263,362.82268 C461.065263,354.946392 454.766316,348.645361 446.892632,348.645361 L446.892632,348.645361 Z M446.892632,225.775258 C439.018947,225.775258 432.72,232.076289 432.72,239.952577 C432.72,247.828866 439.018947,254.129897 446.892632,254.129897 C454.766316,254.129897 461.065263,247.828866 461.065263,239.952577 C461.065263,232.076289 454.766316,225.775258 446.892632,225.775258 L446.892632,225.775258 Z M446.892632,307.68866 C439.018947,307.68866 432.72,313.989691 432.72,321.865979 C432.72,329.742268 439.018947,336.043299 446.892632,336.043299 C454.766316,336.043299 461.065263,329.742268 461.065263,321.865979 C461.065263,313.989691 454.766316,307.68866 446.892632,307.68866 L446.892632,307.68866 Z M446.892632,266.731959 C439.018947,266.731959 432.72,273.03299 432.72,280.909278 C432.72,288.785567 439.018947,295.086598 446.892632,295.086598 C454.766316,295.086598 461.065263,288.785567 461.065263,280.909278 C461.065263,273.03299 454.766316,266.731959 446.892632,266.731959 L446.892632,266.731959 Z M569.722105,348.645361 C561.848421,348.645361 555.549474,354.946392 555.549474,362.82268 C555.549474,370.698969 561.848421,377 569.722105,377 C577.595789,377 583.894737,370.698969 583.894737,362.82268 C583.894737,354.946392 577.595789,348.645361 569.722105,348.645361 L569.722105,348.645361 Z M528.778947,348.645361 C520.905263,348.645361 514.606316,354.946392 514.606316,362.82268 C514.606316,370.698969 520.905263,377 528.778947,377 C536.652632,377 542.951579,370.698969 542.951579,362.82268 C542.951579,354.946392 536.652632,348.645361 528.778947,348.645361 L528.778947,348.645361 Z M487.835789,348.645361 C479.962105,348.645361 473.663158,354.946392 473.663158,362.82268 C473.663158,370.698969 479.962105,377 487.835789,377 C495.709474,377 502.008421,370.698969 502.008421,362.82268 C502.008421,354.946392 495.709474,348.645361 487.835789,348.645361 L487.835789,348.645361 Z M569.722105,184.818557 C561.848421,184.818557 555.549474,191.119588 555.549474,198.995876 C555.549474,206.872165 561.848421,213.173196 569.722105,213.173196 C577.595789,213.173196 583.894737,206.872165 583.894737,198.995876 C583.894737,191.119588 577.595789,184.818557 569.722105,184.818557 L569.722105,184.818557 Z M528.778947,184.818557 C520.905263,184.818557 514.606316,191.119588 514.606316,198.995876 C514.606316,206.872165 520.905263,213.173196 528.778947,213.173196 C536.652632,213.173196 542.951579,206.872165 542.951579,198.995876 C542.951579,191.119588 536.652632,184.818557 528.778947,184.818557 L528.778947,184.818557 Z M487.835789,184.818557 C479.962105,184.818557 473.663158,191.119588 473.663158,198.995876 C473.663158,206.872165 479.962105,213.173196 487.835789,213.173196 C495.709474,213.173196 502.008421,206.872165 502.008421,198.995876 C502.008421,191.119588 495.709474,184.818557 487.835789,184.818557 L487.835789,184.818557 Z M569.722105,20.2041237 C561.848421,20.2041237 555.549474,26.5051546 555.549474,34.3814433 C555.549474,42.257732 561.848421,48.5587629 569.722105,48.5587629 C577.595789,48.5587629 583.894737,42.257732 583.894737,34.3814433 C583.894737,26.5051546 577.595789,20.2041237 569.722105,20.2041237 L569.722105,20.2041237 Z M528.778947,20.2041237 C520.905263,20.2041237 514.606316,26.5051546 514.606316,34.3814433 C514.606316,42.257732 520.905263,48.5587629 528.778947,48.5587629 C536.652632,48.5587629 542.951579,42.257732 542.951579,34.3814433 C542.951579,26.5051546 536.652632,20.2041237 528.778947,20.2041237 L528.778947,20.2041237 Z M487.835789,20.2041237 C479.962105,20.2041237 473.663158,26.5051546 473.663158,34.3814433 C473.663158,42.257732 479.962105,48.5587629 487.835789,48.5587629 C495.709474,48.5587629 502.008421,42.257732 502.008421,34.3814433 C502.008421,26.5051546 495.709474,20.2041237 487.835789,20.2041237 L487.835789,20.2041237 Z M679.166316,3.66391753 L637.435789,45.4082474 L622.475789,30.443299 C618.538947,26.5051546 613.027368,26.5051546 609.090526,30.443299 C605.153684,34.3814433 605.153684,39.8948454 609.090526,43.8329897 L631.136842,65.8865979 C632.711579,67.4618557 635.073684,68.2494845 637.435789,68.2494845 C639.797895,68.2494845 642.16,67.4618557 643.734737,65.8865979 L692.551579,17.0536082 C696.488421,13.1154639 696.488421,7.60206186 692.551579,3.66391753 C689.402105,-0.274226804 683.103158,-0.274226804 679.166316,3.66391753 L679.166316,3.66391753 Z M679.166316,165.127835 C675.229474,161.189691 669.717895,161.189691 665.781053,165.127835 L646.096842,184.818557 L626.412632,165.127835 C622.475789,161.189691 616.964211,161.189691 613.027368,165.127835 C609.090526,169.065979 609.090526,174.579381 613.027368,178.517526 L632.711579,198.208247 L613.027368,217.898969 C609.090526,221.837113 609.090526,227.350515 613.027368,231.28866 C614.602105,232.863918 616.964211,233.651546 619.326316,233.651546 C621.688421,233.651546 624.050526,232.863918 625.625263,231.28866 L645.309474,211.597938 L664.993684,231.28866 C666.568421,232.863918 668.930526,233.651546 671.292632,233.651546 C673.654737,233.651546 676.016842,232.863918 677.591579,231.28866 C681.528421,227.350515 681.528421,221.837113 677.591579,217.898969 L657.907368,198.208247 L677.591579,178.517526 C683.103158,174.579381 683.103158,169.065979 679.166316,165.127835 L679.166316,165.127835 Z M679.166316,328.954639 C675.229474,325.016495 669.717895,325.016495 665.781053,328.954639 L646.096842,348.645361 L626.412632,328.954639 C622.475789,325.016495 616.964211,325.016495 613.027368,328.954639 C609.090526,332.892784 609.090526,338.406186 613.027368,342.34433 L632.711579,362.035052 L613.027368,381.725773 C609.090526,385.663918 609.090526,391.17732 613.027368,395.115464 C614.602105,396.690722 616.964211,397.478351 619.326316,397.478351 C621.688421,397.478351 624.050526,396.690722 625.625263,395.115464 L645.309474,375.424742 L664.993684,395.115464 C666.568421,396.690722 668.930526,397.478351 671.292632,397.478351 C673.654737,397.478351 676.016842,396.690722 677.591579,395.115464 C681.528421,391.17732 681.528421,385.663918 677.591579,381.725773 L657.907368,362.035052 L677.591579,342.34433 C683.103158,339.193814 683.103158,332.892784 679.166316,328.954639 L679.166316,328.954639 Z" id="Shape"></path>
            </g>
            <g id="indonesia-managers">
                <g id="hijabi" transform="translate(389.420505, 173.584395)">
                    <g id="Group">
                        <path d="M130.718087,113.169691 L162.234119,278.751423 L132.533992,278.751423 L132.533992,346.242004 C132.533992,355.43427 125.10896,362.852589 115.908377,362.852589 C106.748148,362.852589 99.2827623,355.43427 99.2827623,346.242004 L99.2827623,278.751423 L87.0153185,278.751423 L87.0153185,346.242004 C87.0153185,355.43427 79.5499333,362.852589 70.3493504,362.852589 C61.189121,362.852589 53.7640892,355.43427 53.7640892,346.242004 L53.7640892,278.751423 L24.4674964,278.751423 L55.983528,113.169691 L49.1234443,113.169691 L25.5570391,195.416278 C23.7411346,201.705723 16.6792837,205.172981 9.81919996,203.19745 C2.91876281,201.221919 -1.43940803,195.214693 0.860737691,187.31257 L25.1131513,102.969501 C29.4309687,88.0119114 37.3805951,79.8678866 44.9266872,75.4733386 C52.5534862,49.0254165 62.6014912,0 93.1490404,0 C123.69659,0 133.744595,49.0254165 141.371394,75.4733386 C148.917486,79.8678866 156.907466,87.9715944 161.18493,102.969501 L185.437343,187.31257 C187.737489,195.214693 183.379318,201.221919 176.478881,203.19745 C169.618797,205.172981 162.556946,201.705723 160.741042,195.416278 L137.174637,113.169691 L130.718087,113.169691 L130.718087,113.169691 Z M93.1490404,64.2249083 C106.627087,64.2249083 117.603221,53.3796476 117.603221,40.0347357 C117.603221,26.6495068 106.627087,15.8042461 93.1490404,15.8042461 C79.6709936,15.8042461 68.7352131,26.6495068 68.7352131,40.0347357 C68.7352131,53.3796476 79.6709936,64.2249083 93.1490404,64.2249083 L93.1490404,64.2249083 Z" id="Shape"></path>
                    </g>
                </g>
                <g id="mans-clothing" transform="translate(0.000000, 165.033439)">
                    <g id="Group">
                        <g>
                            <path d="M133.765251,212.968397 C134.033693,219.569157 139.474622,224.732371 146.026133,224.733904 C146.191799,224.733904 146.359,224.729306 146.524667,224.723176 C153.298601,224.444249 158.564659,218.738507 158.290082,211.970697 C156.861972,177.843523 153.542499,152.790672 149.178405,134.117891 L125.642973,141.336275 C129.35974,157.88492 132.473663,181.045053 133.765251,212.968397 L133.765251,212.968397 Z" id="Shape"></path>
                            <path d="M37.6646672,123.514069 L37.6646672,185.41593 C40.1757473,185.917079 44.9187281,186.824358 50.7109324,187.734702 C59.3440165,189.097153 70.2688254,190.450409 79.1519438,190.447344 C88.0350621,190.450409 98.9583372,189.097153 107.592955,187.734702 C113.383626,186.824358 118.126606,185.918612 120.63922,185.417463 L120.63922,123.581502 C120.735859,123.857363 120.834032,124.108704 120.930671,124.390696 C122.127154,127.843567 123.314433,131.81751 124.458762,136.355437 L147.949709,129.149313 C144.848057,117.199898 141.296957,108.09186 137.563317,101.000678 C132.688416,91.8129468 127.293506,85.9570132 121.972225,82.4382424 C118.928863,80.4045277 115.972937,79.2688965 113.460323,78.6620004 C112.024544,78.045909 110.444573,77.7010817 108.783302,77.7010817 L100.544444,77.7010817 C99.1500812,91.4190775 79.1519438,111.742431 79.1519438,111.742431 C79.1519438,111.742431 59.1538064,91.4190775 57.7579097,77.6995492 L49.5190513,77.6995492 C47.8608488,77.6995492 46.2824118,78.0428439 44.8497002,78.6574027 C42.3324843,79.2627662 39.3719562,80.3983974 36.3224589,82.4351772 C28.3014218,87.782299 20.3049279,98.0750104 13.7488154,117.610626 C12.5722739,121.129396 11.4356151,124.966941 10.3526447,129.14778 L33.8481936,136.355437 C35.0891611,131.431303 36.3746132,127.167705 37.6646672,123.514069 L37.6646672,123.514069 Z" id="Shape"></path>
                            <path d="M11.7746186,224.720111 C11.9433534,224.726241 12.11669,224.730839 12.2854248,224.730839 C18.8323336,224.730839 24.2686609,219.566092 24.5386365,212.971462 C25.8056812,181.035858 28.9472157,157.886453 32.6655163,141.337808 L9.12701677,134.117891 C4.7629222,152.790672 1.41430411,177.841991 0.0107376668,211.970697 C-0.266907717,218.735442 4.99761692,224.441184 11.7746186,224.720111 L11.7746186,224.720111 Z" id="Shape"></path>
                            <path d="M100.918728,194.894849 C100.917194,194.983738 100.91566,195.063432 100.91566,195.169179 C100.91566,195.633546 100.932534,196.237377 100.984688,196.948487 L97.9259872,197.166112 C97.8738328,196.425883 97.8554254,195.797531 97.8523575,195.282589 C91.6122391,196.027415 85.0484568,196.573009 79.1519438,196.579139 C73.2538968,196.573009 66.6916484,196.028948 60.4515301,195.282589 C60.4484622,195.799063 60.4300548,196.425883 60.3779004,197.166112 L57.3191993,196.948487 C57.3713537,196.237377 57.3882271,195.633546 57.3882271,195.169179 C57.3882271,195.064964 57.3866932,194.983738 57.3851592,194.894849 C49.0926126,193.805195 41.698962,192.448875 37.6662012,191.662668 L37.6662012,203.409784 L36.6491907,219.087932 C37.0664258,219.017434 37.5082041,218.965326 37.9085656,218.882568 L38.5267484,221.881799 C37.8610131,222.018197 37.1492592,222.117814 36.445175,222.226626 L28.6097462,343.139931 C27.9317392,353.584366 35.8592052,362.595853 46.306955,363.271714 C56.7593067,363.947576 65.7820147,356.036471 66.4600216,345.588971 L74.3291974,224.225092 L83.9762241,224.225092 L91.8453999,345.588971 C92.5218729,356.036471 101.544581,363.949108 111.998466,363.271714 C122.44775,362.597385 130.373682,353.585899 129.695675,343.139931 L121.860246,222.226626 C121.157696,222.119347 120.444408,222.018197 119.780207,221.881799 L120.39839,218.882568 C120.798751,218.965326 121.24053,219.017434 121.657765,219.087932 L120.640754,203.409784 L120.640754,191.662668 C116.604926,192.448875 109.211275,193.805195 100.918728,194.894849 L100.918728,194.894849 Z M56.9633223,199.838906 L59.9821407,200.372239 C59.810338,201.356146 59.5756433,202.413617 59.2550472,203.518597 L56.3098586,202.671088 C56.5921058,201.68105 56.8022573,200.73086 56.9633223,199.838906 L56.9633223,199.838906 Z M55.3542063,205.394457 L55.3542063,205.400587 L58.1843484,206.580663 C57.7763171,207.547712 57.3023258,208.527021 56.7455011,209.498668 L54.0825597,207.97683 C54.5749584,207.118594 54.9937274,206.252694 55.3542063,205.394457 L55.3542063,205.394457 Z M52.5010548,210.356905 L54.9369712,212.222037 C54.2942452,213.057286 53.5717536,213.881806 52.7771662,214.67261 L50.6173613,212.497899 C51.3153096,211.803647 51.9396282,211.089471 52.5010548,210.356905 L52.5010548,210.356905 Z M48.4575563,214.355369 L50.2952313,216.805941 C49.4530914,217.435826 48.5480595,218.036592 47.5693978,218.59138 L46.0584547,215.918586 C46.9220699,215.432763 47.7181912,214.907092 48.4575563,214.355369 L48.4575563,214.355369 Z M43.4676091,217.184485 L44.6594901,220.010536 C43.7023038,220.412069 42.6944971,220.778352 41.6284002,221.098658 L40.7402418,218.168392 C41.7050978,217.869542 42.6147316,217.543106 43.4676091,217.184485 L43.4676091,217.184485 Z M114.834744,217.184485 C115.687622,217.543106 116.597256,217.869542 117.560578,218.168392 L116.672419,221.098658 C115.607856,220.778352 114.598516,220.412069 113.64133,220.010536 L114.834744,217.184485 L114.834744,217.184485 Z M109.844797,214.355369 C110.584162,214.90556 111.380284,215.432763 112.245433,215.918586 L110.73449,218.59138 C109.754294,218.036592 108.849262,217.435826 108.008656,216.805941 L109.844797,214.355369 L109.844797,214.355369 Z M107.686526,212.496367 L105.526721,214.671077 C104.7306,213.880273 104.009642,213.055753 103.366916,212.220505 L105.802833,210.355372 C106.362725,211.089471 106.987044,211.803647 107.686526,212.496367 L107.686526,212.496367 Z M102.948147,205.394457 C103.308626,206.254226 103.727395,207.118594 104.219794,207.97683 L101.556853,209.498668 C101.001562,208.525489 100.526037,207.547712 100.118005,206.580663 L102.948147,205.400587 L102.948147,205.394457 L102.948147,205.394457 Z M101.339031,199.838906 C101.498562,200.73086 101.710248,201.68105 101.992495,202.671088 L99.0473064,203.518597 C98.7267103,202.413617 98.4935496,201.356146 98.320213,200.372239 L101.339031,199.838906 L101.339031,199.838906 Z" id="Shape"></path>
                            <ellipse id="Oval" cx="79.1519438" cy="34.4827286" rx="34.513929" ry="34.4827286"></ellipse>
                        </g>
                    </g>
                </g>
                <g id="indonesia-national-monument" transform="translate(95.001486, 0.000000)">
                    <g id="Group">
                        <path d="M291.793057,412.972279 L291.793057,417.830776 L223.712549,417.830776 L260.18425,378.962797 L269.910036,378.962797 L274.77293,369.245802 L269.910036,364.387305 L206.692422,364.387305 L196.966635,68.0189635 L206.692422,68.0189635 L211.555315,58.3019687 L206.692422,53.4434713 L199.398082,53.4434713 L201.829529,48.5849739 L192.103742,48.5849739 L182.377955,0 L172.652168,48.5849739 L162.926381,48.5849739 L165.357828,53.4434713 L158.063488,53.4434713 L153.200594,58.3019687 L158.063488,68.0189635 L167.789275,68.0189635 L158.063488,364.387305 L94.8458733,364.387305 L89.9829799,369.245802 L94.8458733,378.962797 L104.57166,378.962797 L141.043361,417.830776 L72.9628529,417.830776 L72.9628529,412.972279 L0.0194515737,412.972279 L0.0194515737,437.264765 L364.736458,437.264765 L364.736458,412.972279 L291.793057,412.972279 L291.793057,412.972279 Z M187.240848,417.830776 L177.515061,417.830776 L177.515061,408.113781 C177.515061,405.427032 179.688775,403.255284 182.377955,403.255284 C185.067135,403.255284 187.240848,405.427032 187.240848,408.113781 L187.240848,417.830776 L187.240848,417.830776 Z" id="Shape"></path>
                    </g>
                </g>
            </g>
        </g>
    </g>
</svg>