<?xml version="1.0" encoding="UTF-8"?>
<svg width="53px" height="57px" viewBox="0 0 53 57" version="1.1" xmlns="http://www.w3.org/2000/svg" xmlns:xlink="http://www.w3.org/1999/xlink">
    <!-- Generator: Sketch 51.3 (57544) - http://www.bohemiancoding.com/sketch -->
    <title>Group</title>
    <desc>Created with Sketch.</desc>
    <defs></defs>
    <g id="Mobile---Verification" stroke="none" stroke-width="1" fill="none" fill-rule="evenodd">
        <g id="Verify---Type" transform="translate(-204.000000, -347.000000)" fill="#000000" fill-rule="nonzero">
            <g id="institution" transform="translate(166.000000, 314.000000)">
                <g id="person-in-front-of-building-with-suit" transform="translate(38.000000, 33.000000)">
                    <g id="Group">
                        <path d="M52.4321429,51.11 C51.7380952,45.5366667 46.4380952,42.6233333 42.9678571,41.23 L37.352381,50.73 L36.847619,44.2066667 L38.172619,41.1666667 L33.125,41.1666667 L34.3869048,44.2066667 L33.8821429,50.73 L28.3297619,41.23 C24.7964286,42.56 19.5595238,45.4733333 18.8654762,51.11 C18.7392857,51.9333333 19.1178571,52.6933333 19.7488095,53.1366667 C21.6416667,54.4666667 26.4369048,57 35.6488095,57 C44.8607143,57 49.6559524,54.4666667 51.5488095,53.1366667 C52.1797619,52.6933333 52.4952381,51.9333333 52.4321429,51.11 Z M45.9964286,52.3766667 L41.075,52.3766667 L41.075,51.0466667 L45.9964286,51.0466667 L45.9964286,52.3766667 Z" id="Shape" fill="#206F8A"></path>
                        <ellipse id="Oval" cx="35.6488095" cy="30.2733333" rx="8.39166667" ry="8.86666667" fill="#206F8A"></ellipse>
                        <path d="M21.0738095,43.0033333 L14.6380952,43.0033333 L14.6380952,40.66 L24.3547619,40.66 C25.0488095,40.28 25.7428571,39.9633333 26.4369048,39.6466667 L28.6452381,38.6333333 C26.3738095,36.6066667 24.9857143,33.63 24.9857143,30.2733333 C24.9857143,24.1933333 29.7178571,19.2533333 35.5857143,19.2533333 C36.5321429,19.2533333 37.4154762,19.38 38.2988095,19.6333333 L38.2988095,5.44666667 C38.2988095,4.87666667 37.7940476,4.37 37.2261905,4.37 L27.7619048,4.37 L27.7619048,1.39333333 C27.7619048,0.633333333 27.1309524,0 26.3738095,0 L12.4297619,0 C11.672619,0 11.0416667,0.633333333 11.0416667,1.39333333 L11.0416667,4.43333333 L1.57738095,4.43333333 C1.00952381,4.43333333 0.504761905,4.94 0.504761905,5.51 L0.504761905,53.8966667 C0.504761905,54.72 1.19880952,55.3533333 1.95595238,55.3533333 L15.5845238,55.3533333 L15.5845238,44.2066667 L19.6857143,44.2066667 C20.1904762,43.7633333 20.6321429,43.3833333 21.0738095,43.0033333 Z M31.7369048,12.2866667 L34.45,12.2866667 L34.45,18.4933333 L31.7369048,18.4933333 L31.7369048,12.2866667 Z M28.2035714,12.2866667 L30.9166667,12.2866667 L30.9166667,18.4933333 L28.2035714,18.4933333 L28.2035714,12.2866667 Z M19.3071429,31.4133333 L16.5940476,31.4133333 L16.5940476,25.2066667 L19.3071429,25.2066667 L19.3071429,31.4133333 Z M19.3071429,18.5566667 L16.5940476,18.5566667 L16.5940476,12.35 L19.3071429,12.35 L19.3071429,18.5566667 Z M22.8404762,31.4133333 L20.127381,31.4133333 L20.127381,25.2066667 L22.8404762,25.2066667 L22.8404762,31.4133333 Z M22.8404762,18.5566667 L20.127381,18.5566667 L20.127381,12.35 L22.8404762,12.35 L22.8404762,18.5566667 Z M7.69761905,45.2833333 L5.04761905,45.2833333 L5.04761905,39.0766667 L7.76071429,39.0766667 L7.76071429,45.2833333 L7.69761905,45.2833333 Z M7.69761905,31.4133333 L5.04761905,31.4133333 L5.04761905,25.2066667 L7.76071429,25.2066667 L7.76071429,31.4133333 L7.69761905,31.4133333 Z M7.69761905,18.5566667 L5.04761905,18.5566667 L5.04761905,12.35 L7.76071429,12.35 L7.76071429,18.5566667 L7.69761905,18.5566667 Z M11.2309524,45.2833333 L8.51785714,45.2833333 L8.51785714,39.0766667 L11.2309524,39.0766667 L11.2309524,45.2833333 Z M11.2309524,31.4133333 L8.51785714,31.4133333 L8.51785714,25.2066667 L11.2309524,25.2066667 L11.2309524,31.4133333 Z M11.2309524,18.5566667 L8.51785714,18.5566667 L8.51785714,12.35 L11.2309524,12.35 L11.2309524,18.5566667 Z" id="Shape" fill="#206F8A"></path>
                    </g>
                </g>
            </g>
        </g>
    </g>
</svg>