<svg xmlns="http://www.w3.org/2000/svg" xmlns:xlink="http://www.w3.org/1999/xlink" version="1.1" x="0px" y="0px" viewBox="0 0 24 30" style="enable-background:new 0 0 24 24;" xml:space="preserve"><g><path d="M5.5,5.943V13.5c0,1.782,3.441,5.998,6.5,7.451c3.059-1.453,6.5-5.668,6.5-7.451V5.943C16.209,5.63,13.88,4.79,12,3.597   C10.12,4.79,7.791,5.63,5.5,5.943z M12.499,6.5v0.533c1.628,0.161,2.884,1.087,2.998,2.291c0.026,0.275-0.175,0.519-0.45,0.545   c-0.282,0.032-0.519-0.176-0.545-0.45c-0.065-0.681-0.922-1.25-2.002-1.387v3.046c0.98,0.176,3,0.669,3,2.423   c0,1.278-1.285,2.294-3,2.464V16.5c0,0.276-0.224,0.5-0.5,0.5s-0.5-0.224-0.5-0.5v-0.533c-1.628-0.161-2.884-1.087-2.998-2.292   c-0.026-0.275,0.175-0.519,0.45-0.545c0.275-0.033,0.519,0.176,0.545,0.45c0.065,0.681,0.922,1.251,2.002,1.388v-3.045   c-0.983-0.176-3-0.671-3-2.422c0-1.279,1.285-2.294,3-2.465V6.5c0-0.276,0.224-0.5,0.5-0.5S12.499,6.224,12.499,6.5z"/><path d="M9.499,9.5c0,0.889,1.224,1.247,2,1.402v-2.87C10.373,8.176,9.499,8.79,9.499,9.5z"/><path d="M14.499,13.5c0-0.89-1.226-1.248-2-1.403v2.87C13.624,14.824,14.499,14.211,14.499,13.5z"/><path d="M21,3c-2.672,0-6.54-0.748-8.646-2.854c-0.195-0.195-0.512-0.195-0.707,0C9.54,2.252,5.672,3,3,3   C2.724,3,2.5,3.224,2.5,3.5v10c0,3.755,5.351,9.172,9.345,10.475C11.896,23.992,11.948,24,12,24s0.104-0.008,0.155-0.025   c3.994-1.303,9.345-6.72,9.345-10.475v-10C21.5,3.224,21.276,3,21,3z M19.5,13.5c0,2.412-3.957,6.997-7.3,8.458   C12.136,21.986,12.068,22,12,22s-0.136-0.014-0.2-0.042c-3.343-1.461-7.3-6.046-7.3-8.458v-8c0-0.256,0.193-0.47,0.447-0.497   c2.356-0.251,4.889-1.155,6.775-2.418c0.169-0.112,0.388-0.112,0.557,0c1.886,1.263,4.419,2.167,6.775,2.418   C19.307,5.03,19.5,5.244,19.5,5.5V13.5z"/></g><text x="0" y="39" fill="#000000" font-size="5px" font-weight="bold" font-family="'Helvetica Neue', Helvetica, Arial-Unicode, Arial, Sans-serif">Created by icon 54</text><text x="0" y="44" fill="#000000" font-size="5px" font-weight="bold" font-family="'Helvetica Neue', Helvetica, Arial-Unicode, Arial, Sans-serif">from the Noun Project</text></svg>