<svg xmlns:dc="http://purl.org/dc/elements/1.1/" xmlns:cc="http://creativecommons.org/ns#" xmlns:rdf="http://www.w3.org/1999/02/22-rdf-syntax-ns#" xmlns:svg="http://www.w3.org/2000/svg" xmlns="http://www.w3.org/2000/svg" version="1.1" viewBox="0 0 100 125" xml:space="preserve" x="0px" y="0px"><path d="m 47.875,5 c -0.857001,0 -1.692435,0.5531831 -2.03125,1.34375 -0.338815,0.7905671 -0.153764,1.7505184 0.4375,2.375 l 7.5,7.84375 c 0.411892,0.431823 1.002486,0.6875 1.59375,0.6875 l 12.625,0 c 0.591264,0 1.181856,-0.255677 1.59375,-0.6875 l 7.5,-7.84375 c 0.591264,-0.6244816 0.769671,-1.5844329 0.4375,-2.375 C 77.192435,5.5531831 76.357,5 75.5,5 L 47.875,5 z m 3.21875,14.46875 c -0.365389,0 -0.743616,0.10188 -1.0625,0.28125 -7.453918,4.092346 -12.5,12.030157 -12.5,21.125 0,5.494109 1.859628,10.590477 4.96875,14.65625 0.903505,0.152798 1.797282,0.336625 2.6875,0.5625 3.680455,0.790568 6.879819,2.759906 10.28125,4.28125 3.726958,1.162597 7.740565,0.939986 11.59375,1.53125 1.574489,0.292311 3.193472,0.567435 4.78125,0.90625 8.264415,-3.839898 14,-12.238107 14,-21.9375 0,-9.094843 -5.014832,-17.032654 -12.46875,-21.125 -0.325528,-0.179372 -0.690469,-0.28125 -1.0625,-0.28125 l -21.21875,0 z m 10.59375,5.0625 c 0.916791,0 1.65625,0.732815 1.65625,1.65625 l 0,1.03125 c 1.089523,0.179374 2.161706,0.537671 3.125,1.0625 1.720647,0.936722 3.158252,2.337921 3.96875,4.125 0.265736,0.591265 0.549215,1.338368 0.5625,2.0625 0.02658,1.43498 -1.15877,2.59375 -2.59375,2.59375 -1.056302,0 -1.884611,-0.448113 -2.25,-1.21875 -0.471681,-0.996513 -0.473945,-2.114457 -1.125,-3.03125 -0.558047,-0.783923 -1.400383,-1.374518 -2.34375,-1.59375 -1.574491,-0.372032 -3.224203,0.3315 -4.1875,1.59375 -1.029729,1.335328 -1.04647,3.152127 -0.15625,4.59375 1.268892,2.05946 3.058897,2.126261 5.125,2.84375 1.02973,0.358745 2.133164,0.601394 3.15625,1 1.49477,0.591264 2.931635,1.634164 3.875,3.0625 0.77728,1.155954 1.15625,2.655096 1.15625,4.46875 0,2.365057 -0.773193,4.304445 -2.28125,5.8125 -1.601064,1.607709 -3.765843,2.490906 -6.03125,2.75 l 0,0.96875 c 0,0.930079 -0.739459,1.65625 -1.65625,1.65625 -0.923436,0 -1.65625,-0.726171 -1.65625,-1.65625 l 0,-1.03125 c -1.248963,-0.159441 -2.459692,-0.497068 -3.5625,-0.96875 -1.714002,-0.737421 -3.310568,-2.398453 -4.1875,-4.21875 -0.285667,-0.591265 -0.549213,-1.313761 -0.5625,-2.03125 -0.01993,-1.43498 1.190022,-2.625 2.625,-2.625 1.056304,0 1.860006,0.486005 2.21875,1.25 0.770637,1.647568 1.222793,3.646932 3.6875,4.4375 1.448266,0.458395 3.565282,0.578907 5.3125,-1.28125 0.484971,-0.451753 0.96875,-1.388583 0.96875,-2.53125 0,-1.082877 -0.301699,-1.910702 -0.90625,-2.46875 -0.597906,-0.558047 -1.487751,-1.165862 -2.75,-1.53125 -3.308424,-0.956654 -7.147971,-2.084281 -9.1875,-5.09375 -0.777281,-1.149312 -1.15625,-2.623846 -1.15625,-4.4375 0,-2.365057 0.741943,-4.329051 2.25,-5.84375 1.461552,-1.461552 3.217114,-2.419795 5.25,-2.71875 l 0,-1.03125 c 0,-0.923435 0.732814,-1.65625 1.65625,-1.65625 z m -54.375,31.375 c -0.4650394,0 -0.917829,0.19908 -1.25,0.53125 -0.332171,0.325528 -0.53125,0.784961 -0.53125,1.25 l 0,26.5 c 0,0.471683 0.199079,0.949078 0.53125,1.28125 0.332171,0.33217 0.7849606,0.524607 1.25,0.53125 l 6.625,0 c 0.46504,0 0.917829,-0.19908 1.25,-0.53125 0.332171,-0.332172 0.53125,-0.809567 0.53125,-1.28125 l 0,-26.5 c 0,-0.465039 -0.199079,-0.955722 -0.53125,-1.28125 -0.332171,-0.332172 -0.78496,-0.5 -1.25,-0.5 l -6.625,0 z M 36.03125,57.5 c -8.264415,0.09301 -16.5,2.78125 -16.5,2.78125 -0.717489,0.225876 -1.25,0.936793 -1.25,1.6875 l 0,17.75 c 0.03322,1.20246 0.82534,2.025348 1.875,2.125 0.564691,0.05315 1.451601,0.160442 3.21875,0.40625 0.07308,0.01329 0.797281,0.210397 1.6875,0.5625 0.890218,0.352101 2.03032,0.846236 3.3125,1.4375 2.571004,1.175886 5.735372,2.71537 8.9375,4.25 3.202129,1.541273 6.432447,3.092078 9.15625,4.28125 2.7238,1.189172 4.663707,2.047989 6.4375,2.1875 2.683942,0.205947 7.29646,-0.537185 12,-1.28125 4.703543,-0.744062 9.481106,-1.56521 10.75,-1.625 3.780107,-0.179373 6.891328,-3.015066 8.9375,-4.34375 2.664013,-1.727289 5.718857,-3.557187 8.25,-5.96875 l 0.03125,0 c 0.916793,-0.870287 1.613681,-2.011875 1.59375,-3.5 -0.166084,-1.22239 -1.283476,-0.901349 -1.5625,-1.40625 0.365389,-0.398605 1.482781,-1.416862 1.5625,-2.1875 0.259094,-2.278692 -2.075376,-3.440952 -3.96875,-3.59375 -3.51437,-0.179372 -6.7016,1.950859 -8.46875,3.625 -2.717158,2.590934 -5.661588,3.441211 -9.6875,3.90625 -4.816478,0.558047 -9.31342,0.955651 -13.625,-0.40625 C 58.080981,77.981555 56.605258,77.321336 55.25,76.75 54.572371,76.464334 53.897121,76.21259 53.3125,76 c -0.44511,-0.159444 -0.720494,-0.339816 -1.21875,-0.40625 1.468196,-0.192659 3.850239,-0.509093 6.0625,-0.25 2.670654,0.318885 10.960282,0.313019 14.375,0.9375 1.308755,0.239163 2.59256,-0.06301 3.5625,-0.6875 0.96994,-0.624481 1.604104,-1.507421 2.0625,-2.4375 0.916793,-1.853514 1.315394,-2.835951 0,-4.65625 -1.202424,-1.647568 -3.047578,-2.203272 -5.09375,-2.78125 -2.046175,-0.577978 -4.360077,-0.986972 -6.40625,-1.3125 -4.238502,-0.67763 -7.4022,-0.527091 -10.53125,-1.125 -1.122738,-0.21259 -3.090666,-1.349464 -5.78125,-2.625 -2.690586,-1.275537 -6.215254,-2.60607 -10.8125,-3.03125 -1.155956,-0.106294 -2.317472,-0.138288 -3.5,-0.125 z" style="" fill="#000000" fill-opacity="1" fill-rule="nonzero" stroke="none"/></svg>