<?xml version="1.0" encoding="UTF-8" standalone="no"?>
<svg width="1764px" height="999px" viewBox="0 0 1764 999" version="1.1" xmlns="http://www.w3.org/2000/svg" xmlns:xlink="http://www.w3.org/1999/xlink">
    <!-- Generator: Sketch 40 (33762) - http://www.bohemiancoding.com/sketch -->
    <title>Invest In Indonesia</title>
    <desc>Created with Sketch.</desc>
    <defs></defs>
    <g id="Page-1" stroke="none" stroke-width="1" fill="none" fill-rule="evenodd">
        <g id="Invest-In-Indonesia" fill="#879099">
            <g id="investment">
                <g id="Group">
                    <path d="M233.97619,0 C229.24228,0 224.627502,3.05683597 222.755952,7.42543171 C220.884403,11.7940286 221.906589,17.098626 225.172619,20.5494505 L266.60119,63.8932496 C268.876403,66.2794615 272.138732,67.6923077 275.404762,67.6923077 L345.142857,67.6923077 C348.408887,67.6923077 351.671205,66.2794615 353.946429,63.8932496 L395.375,20.5494505 C398.64103,17.098626 399.626516,11.7940286 397.791667,7.42543171 C395.920117,3.05683597 391.305333,0 386.571429,0 L233.97619,0 L233.97619,0 Z M251.755952,79.9529042 C249.737613,79.9529042 247.648359,80.5158832 245.886905,81.5070644 C204.712882,104.12097 176.839286,147.984541 176.839286,198.241758 C176.839286,228.60167 187.111517,256.763703 204.285714,279.230769 C209.276504,280.075116 214.213558,281.090926 219.130952,282.339089 C239.461085,286.707691 257.133762,297.590061 275.922619,305.99686 C296.509625,312.421258 318.680026,311.191131 339.964286,314.458399 C348.661463,316.073681 357.604417,317.593989 366.375,319.466248 C412.026054,298.247345 443.708333,251.83966 443.708333,198.241758 C443.708333,147.984541 416.007357,104.12097 374.833333,81.5070644 C373.035179,80.5158722 371.019314,79.9529042 368.964286,79.9529042 L251.755952,79.9529042 L251.755952,79.9529042 Z M310.27381,107.927786 C315.337988,107.927786 319.422619,111.977251 319.422619,117.080063 L319.422619,122.77865 C325.440937,123.769853 331.363471,125.749768 336.684524,128.649922 C346.18905,133.826156 354.130106,141.569045 358.607143,151.44427 C360.075018,154.711543 361.640902,158.839961 361.714286,162.841444 C361.861109,170.771004 355.313461,177.174254 347.386905,177.174254 C341.552094,177.174254 336.976673,174.698025 334.958333,170.43956 C332.352857,164.932927 332.340351,158.755277 328.744048,153.689168 C325.661502,149.357286 321.008599,146.093715 315.797619,144.882261 C307.100431,142.826448 297.987736,146.714097 292.666667,153.689168 C286.97864,161.068061 286.886166,171.107515 291.803571,179.073783 C298.812689,190.454159 308.700336,190.823295 320.113095,194.788069 C325.801128,196.770459 331.896287,198.111314 337.547619,200.313972 C345.804444,203.581239 353.741412,209.344203 358.952381,217.237049 C363.245928,223.624738 365.339286,231.908851 365.339286,241.930926 C365.339286,255.000001 361.068315,265.71687 352.738095,274.050235 C343.894123,282.934279 331.936296,287.81474 319.422619,289.246468 L319.422619,294.599686 C319.422619,299.739212 315.337988,303.751962 310.27381,303.751962 C305.172925,303.751962 301.125,299.739212 301.125,294.599686 L301.125,288.901099 C294.225966,288.020043 287.53813,286.15435 281.446429,283.547881 C271.978608,279.472964 263.159482,270.294263 258.315476,260.235479 C256.737506,256.968206 255.281728,252.975763 255.208333,249.010989 C255.098244,241.081429 261.781788,234.505495 269.708333,234.505495 C275.543155,234.505495 279.982652,237.191111 281.964286,241.412873 C286.221138,250.517173 288.718761,261.565464 302.333333,265.934066 C310.333279,268.467112 322.027272,269.13305 331.678571,258.854003 C334.357459,256.35766 337.029762,251.180829 337.029762,244.866562 C337.029762,238.882689 335.363234,234.308209 332.02381,231.22449 C328.721091,228.140776 323.805756,224.78205 316.833333,222.762951 C298.558229,217.476574 277.349303,211.245417 266.083333,194.615385 C261.789781,188.264398 259.696429,180.116267 259.696429,170.094192 C259.696429,157.025117 263.79478,146.172277 272.125,137.802198 C280.198335,129.725804 289.895725,124.430646 301.125,122.77865 L301.125,117.080063 C301.125,111.977251 305.172925,107.927786 310.27381,107.927786 L310.27381,107.927786 Z M9.91666667,281.302983 C7.3478776,281.302983 4.8467541,282.403079 3.01190476,284.238619 C1.17705543,286.037455 0.0773809524,288.576237 0.0773809524,291.145997 L0.0773809524,437.582418 C0.0773809524,440.188892 1.17705543,442.82693 3.01190476,444.66248 C4.8467541,446.498019 7.3478776,447.561408 9.91666667,447.598116 L46.5119048,447.598116 C49.0806971,447.598116 51.5818173,446.498019 53.4166667,444.66248 C55.251516,442.82693 56.3511905,440.188892 56.3511905,437.582418 L56.3511905,291.145997 C56.3511905,288.576237 55.251516,285.86477 53.4166667,284.065934 C51.5818173,282.230384 49.0806971,281.302983 46.5119048,281.302983 L9.91666667,281.302983 L9.91666667,281.302983 Z M168.553571,290.10989 C122.902517,290.623854 77.4107143,305.478807 77.4107143,305.478807 C73.4474417,306.726976 70.5059524,310.655434 70.5059524,314.803768 L70.5059524,412.88854 C70.6894533,419.533217 75.0649733,424.080416 80.8630952,424.631083 C83.9823408,424.924785 88.8814627,425.51767 98.6428571,426.875981 C99.0465371,426.94942 103.046886,428.038615 107.964286,429.984301 C112.88168,431.929977 119.179387,434.660519 126.261905,437.927786 C140.463641,444.425618 157.943007,452.932657 175.630952,461.412873 C193.318903,469.929797 211.162564,478.499395 226.208333,485.070644 C241.254086,491.641892 251.969762,496.387632 261.767857,497.158556 C276.593442,498.296599 302.072112,494.190124 328.053571,490.078493 C354.035047,485.966879 380.425395,481.429295 387.434524,481.098901 C408.315115,480.107703 425.500907,464.43794 436.803571,457.095761 C451.519072,447.55093 468.393448,437.439092 482.375,424.11303 L482.547619,424.11303 C487.611809,419.303909 491.461286,412.995604 491.35119,404.77237 C490.433774,398.017562 484.261514,399.791604 482.720238,397.00157 C484.738577,394.798917 490.910838,389.172128 491.35119,384.913658 C492.782376,372.321828 479.887209,365.899292 469.428571,365.054945 C450.015861,364.063753 432.41021,375.835202 422.64881,385.086342 C407.639746,399.403591 391.375276,404.102139 369.136905,406.6719 C342.531598,409.755613 317.691347,411.952734 293.875,404.427002 C290.352086,403.28897 282.200473,399.640664 274.714286,396.483516 C270.971192,394.904954 267.24124,393.513841 264.011905,392.339089 C261.553202,391.458017 260.032033,390.461299 257.279762,390.094192 C265.389797,389.029577 278.547749,387.280993 290.767857,388.712716 C305.520041,390.474843 351.310367,390.442428 370.172619,393.89325 C377.401932,395.214841 384.493427,393.545062 389.85119,390.094192 C395.208954,386.64337 398.711955,381.76433 401.244048,376.624804 C406.308238,366.382466 408.510034,360.953615 401.244048,350.894819 C394.602086,341.790519 384.409807,338.719753 373.107143,335.525903 C361.804462,332.332052 349.022908,330.071991 337.720238,328.273155 C314.30756,324.528638 296.831895,325.360502 279.547619,322.056515 C273.345828,320.881763 262.475369,314.599508 247.613095,307.55102 C232.750811,300.502527 213.281216,293.150131 187.886905,290.800628 C181.501624,290.213258 175.085631,290.036462 168.553571,290.10989 L168.553571,290.10989 Z" id="Shape"></path>
                </g>
            </g>
            <g id="bank-transaction" transform="translate(521.000000, 250.000000)">
                <g id="Group">
                    <path d="M60.1875,87.21875 L29.90625,56.953125 L242.1875,56.953125 L242.1875,76.96875 L91.71875,189.03125 L408.28125,189.03125 L257.8125,76.953125 L257.8125,41.328125 L29.90625,41.328125 L60.1875,11.046875 L49.140625,0 L0,49.140625 L49.140625,98.265625 L60.1875,87.21875 L60.1875,87.21875 Z M138.875,173.390625 L245.796875,93.75 L254.203125,93.75 L361.140625,173.390625 L138.875,173.390625 L138.875,173.390625 Z" id="Shape"></path>
                    <path d="M439.8125,412.796875 L470.078125,443.0625 L257.8125,443.0625 L257.8125,413.828125 L402.625,413.828125 L402.625,368.59375 L376.40625,368.59375 L376.40625,351.5625 L123.59375,351.5625 L123.59375,368.59375 L97.375,368.59375 L97.375,413.828125 L242.1875,413.828125 L242.1875,458.6875 L470.09375,458.6875 L439.8125,488.96875 L450.859375,500 L500,450.859375 L450.859375,401.734375 L439.8125,412.796875 L439.8125,412.796875 Z M113,384.21875 L139.21875,384.21875 L139.21875,367.1875 L360.78125,367.1875 L360.78125,384.21875 L387,384.21875 L387,398.203125 L113,398.203125 L113,384.21875 L113,384.21875 Z" id="Shape"></path>
                    <path d="M363.453125,333.46875 L363.453125,207.15625 L306.515625,207.15625 L306.515625,333.46875 L363.453125,333.46875 L363.453125,333.46875 Z M322.140625,222.765625 L347.828125,222.765625 L347.828125,317.828125 L322.140625,317.828125 L322.140625,222.765625 L322.140625,222.765625 Z" id="Shape"></path>
                    <path d="M278.46875,333.46875 L278.46875,207.15625 L221.515625,207.15625 L221.515625,333.46875 L278.46875,333.46875 L278.46875,333.46875 Z M237.15625,222.765625 L262.859375,222.765625 L262.859375,317.828125 L237.15625,317.828125 L237.15625,222.765625 L237.15625,222.765625 Z" id="Shape"></path>
                    <path d="M193.484375,333.46875 L193.484375,207.15625 L136.546875,207.15625 L136.546875,333.46875 L193.484375,333.46875 L193.484375,333.46875 Z M152.171875,222.765625 L177.859375,222.765625 L177.859375,317.828125 L152.171875,317.828125 L152.171875,222.765625 L152.171875,222.765625 Z" id="Shape"></path>
                    <path d="M250,118.515625 C238.5,118.515625 229.140625,127.875 229.140625,139.359375 C229.140625,150.859375 238.5,160.21875 250,160.21875 C261.5,160.21875 270.859375,150.859375 270.859375,139.359375 C270.859375,127.875 261.5,118.515625 250,118.515625 L250,118.515625 Z M250,144.59375 C247.109375,144.59375 244.765625,142.25 244.765625,139.359375 C244.765625,136.46875 247.109375,134.140625 250,134.140625 C252.890625,134.140625 255.234375,136.484375 255.234375,139.359375 C255.234375,142.234375 252.890625,144.59375 250,144.59375 L250,144.59375 Z" id="Shape"></path>
                </g>
            </g>
            <g id="indonesia" transform="translate(1091.000000, 371.000000)">
                <g id="hijabi" transform="translate(455.000000, 203.000000)">
                    <g id="Group">
                        <path d="M152.731376,132.347423 L189.554795,325.988628 L154.853084,325.988628 L154.853084,404.916161 C154.853084,415.666148 146.177656,424.341576 135.42767,424.341576 C124.724832,424.341576 116.002255,415.666148 116.002255,404.916161 L116.002255,325.988628 L101.66894,325.988628 L101.66894,404.916161 C101.66894,415.666148 92.946363,424.341576 82.1963765,424.341576 C71.4935389,424.341576 62.8181112,415.666148 62.8181112,404.916161 L62.8181112,325.988628 L28.5878907,325.988628 L65.4113097,132.347423 L57.3959688,132.347423 L29.8609155,228.531513 C27.7392076,235.886767 19.4881214,239.941587 11.4727805,237.631282 C3.41029057,235.320978 -1.68180834,228.295768 1.00568831,219.054551 L29.3422758,120.418709 C34.3872256,102.926407 43.6755912,93.4022957 52.4924662,88.2630477 C61.4036392,57.3332618 73.1437562,0 108.835598,0 C144.527439,0 156.267556,57.3332618 165.178729,88.2630477 C173.995604,93.4022957 183.331119,102.879258 188.328919,120.418709 L216.665507,219.054551 C219.353004,228.295768 214.260905,235.320978 206.198415,237.631282 C198.183074,239.941587 189.931988,235.886767 187.81028,228.531513 L160.275226,132.347423 L152.731376,132.347423 L152.731376,132.347423 Z M108.835598,75.1084589 C124.583385,75.1084589 137.40793,62.4253607 137.40793,46.8190205 C137.40793,31.1655313 124.583385,18.4824331 108.835598,18.4824331 C93.0878102,18.4824331 80.3104139,31.1655313 80.3104139,46.8190205 C80.3104139,62.4253607 93.0878102,75.1084589 108.835598,75.1084589 L108.835598,75.1084589 Z" id="Shape"></path>
                    </g>
                </g>
                <g id="mans-clothing" transform="translate(0.000000, 193.000000)">
                    <g id="Group">
                        <g>
                            <path d="M156.291691,249.058013 C156.605339,256.777339 162.962536,262.815511 170.617339,262.817303 C170.810905,262.817303 171.006262,262.811926 171.199828,262.804757 C179.114511,262.478563 185.267389,255.805926 184.946571,247.891243 C183.277964,207.98088 179.399483,178.682573 174.300462,156.845504 L146.801599,165.287115 C151.144279,184.640093 154.782596,211.724941 156.291691,249.058013 L156.291691,249.058013 Z" id="Shape"></path>
                            <path d="M44.0075018,144.444758 L44.0075018,216.836507 C46.9414547,217.422581 52.4831667,218.483607 59.2507942,219.548218 C69.3377137,221.14155 82.1022908,222.724128 92.481351,222.720543 C102.860411,222.724128 115.623196,221.14155 125.711908,219.548218 C132.477743,218.483607 138.019455,217.424373 140.9552,216.838299 L140.9552,144.523618 C141.068113,144.846228 141.182819,145.140161 141.295732,145.469939 C142.693706,149.507933 144.080926,154.1553 145.417963,159.462224 L172.864851,151.034951 C169.240872,137.060588 165.091757,126.409102 160.729362,118.116249 C155.033514,107.371565 148.730086,100.523286 142.512686,96.4082238 C138.956814,94.0298759 135.503102,92.7018007 132.567357,91.9920601 C130.889788,91.2715659 129.043746,90.8683042 127.102713,90.8683042 L117.476408,90.8683042 C115.84723,106.910951 92.481351,130.6783 92.481351,130.6783 C92.481351,130.6783 69.1154717,106.910951 67.4845021,90.8665119 L57.8581971,90.8665119 C55.9207487,90.8665119 54.0764985,91.2679813 52.4025143,91.9866833 C49.4613923,92.6946316 46.002303,94.0227068 42.4392618,96.4046393 C33.0674598,102.657884 23.7243342,114.694798 16.064154,137.540918 C14.6894797,141.655979 13.3614045,146.143834 12.0960589,151.033158 L39.5483235,159.462224 C40.9982733,153.703647 42.5001991,148.71754 44.0075018,144.444758 L44.0075018,144.444758 Z" id="Shape"></path>
                            <path d="M13.7574971,262.801172 C13.9546473,262.808341 14.1571743,262.813718 14.3543244,262.813718 C22.0037509,262.813718 28.3555708,256.773754 28.6710111,249.061598 C30.1514296,211.714187 33.8220073,184.641885 38.16648,165.288908 L10.6640318,156.845504 C5.56501153,178.682573 1.65247685,207.979088 0.0125459197,247.891243 C-0.311855718,255.802341 5.83922949,262.474978 13.7574971,262.801172 L13.7574971,262.801172 Z" id="Shape"></path>
                            <path d="M117.913722,227.921723 C117.91193,228.025675 117.910138,228.118873 117.910138,228.24254 C117.910138,228.785599 117.929853,229.491756 117.99079,230.323371 L114.416995,230.577874 C114.356058,229.712205 114.334551,228.977373 114.330966,228.375169 C107.039995,229.246214 99.3708532,229.884264 92.481351,229.891433 C85.5900565,229.884264 77.9227073,229.248006 70.6317357,228.375169 C70.6281511,228.979165 70.6066438,229.712205 70.5457065,230.577874 L66.9719117,230.323371 C67.032849,229.491756 67.052564,228.785599 67.052564,228.24254 C67.052564,228.120666 67.0507717,228.025675 67.0489795,227.921723 C57.3599449,226.647416 48.721183,225.061254 44.0092941,224.141817 L44.0092941,237.879599 L42.8210162,256.214565 C43.3085148,256.13212 43.8246898,256.071183 44.2924734,255.9744 L45.0147599,259.48188 C44.2369129,259.641393 43.4052976,259.757891 42.5826438,259.885142 L33.4277069,401.288411 C32.6355217,413.50276 41.897995,424.041332 54.1051749,424.831725 C66.3177316,425.622118 76.8598887,416.370399 77.6520739,404.152465 L86.8464408,262.222268 L98.1180535,262.222268 L107.31242,404.152465 C108.102813,416.370399 118.64497,425.623911 130.859319,424.831725 C143.068292,424.043125 152.328973,413.504552 151.536787,401.288411 L142.38185,259.885142 C141.560989,259.759683 140.727581,259.641393 139.951527,259.48188 L140.673813,255.9744 C141.141597,256.071183 141.657772,256.13212 142.14527,256.214565 L140.956992,237.879599 L140.956992,224.141817 C136.241519,225.061254 127.602757,226.647416 117.913722,227.921723 L117.913722,227.921723 Z M66.556104,233.7036 L70.0832998,234.327311 C69.882565,235.477952 69.6083471,236.714621 69.2337618,238.00685 L65.7925952,237.015723 C66.1223737,235.857914 66.3679152,234.746704 66.556104,233.7036 L66.556104,233.7036 Z M64.6760084,240.200594 L64.6760084,240.207763 L67.9827543,241.587814 C67.5060094,242.718739 66.9521966,243.864003 66.3016011,245.000305 L63.190213,243.220576 C63.765533,242.216903 64.2548239,241.204268 64.6760084,240.200594 L64.6760084,240.200594 Z M61.3423783,246.003978 L64.1885098,248.185176 C63.4375469,249.161965 62.5933857,250.126209 61.6649876,251.051022 L59.1414655,248.507785 C59.9569503,247.695885 60.6864059,246.860685 61.3423783,246.003978 L61.3423783,246.003978 Z M56.6179434,250.680022 L58.7650879,253.545868 C57.7811293,254.282493 56.7236875,254.985064 55.5802166,255.633868 L53.8148264,252.508141 C54.8238768,251.93999 55.7540672,251.32524 56.6179434,250.680022 L56.6179434,250.680022 Z M50.7876752,253.98856 L52.1802723,257.293514 C51.0618932,257.763089 49.884369,258.191443 48.6387384,258.566028 L47.6010116,255.1392 C48.7283521,254.789706 49.7911708,254.407952 50.7876752,253.98856 L50.7876752,253.98856 Z M134.173234,253.98856 C135.169739,254.407952 136.232558,254.789706 137.358106,255.1392 L136.320379,258.566028 C135.076541,258.191443 133.897224,257.763089 132.778845,257.293514 L134.173234,253.98856 L134.173234,253.98856 Z M128.342966,250.680022 C129.206843,251.323448 130.137033,251.93999 131.147876,252.508141 L129.382485,255.633868 C128.237222,254.985064 127.17978,254.282493 126.197614,253.545868 L128.342966,250.680022 L128.342966,250.680022 Z M125.821236,248.505993 L123.297714,251.04923 C122.367524,250.124417 121.525155,249.160173 120.774192,248.183384 L123.620324,246.002186 C124.274504,246.860685 125.003959,247.695885 125.821236,248.505993 L125.821236,248.505993 Z M120.284901,240.200594 C120.706086,241.20606 121.195377,242.216903 121.770697,243.220576 L118.659309,245.000305 C118.010505,243.86221 117.4549,242.718739 116.978155,241.587814 L120.284901,240.207763 L120.284901,240.200594 L120.284901,240.200594 Z M118.404806,233.7036 C118.591202,234.746704 118.838536,235.857914 119.168314,237.015723 L115.727148,238.00685 C115.352563,236.714621 115.080137,235.477952 114.87761,234.327311 L118.404806,233.7036 L118.404806,233.7036 Z" id="Shape"></path>
                            <ellipse id="Oval" cx="92.481351" cy="40.3261705" rx="40.3261705" ry="40.3261705"></ellipse>
                        </g>
                    </g>
                </g>
                <g id="indonesia-national-monument" transform="translate(111.000000, 0.000000)">
                    <g id="Group">
                        <path d="M340.931818,482.954545 L340.931818,488.636364 L261.386364,488.636364 L304,443.181818 L315.363636,443.181818 L321.045455,431.818182 L315.363636,426.136364 L241.5,426.136364 L230.136364,79.5454545 L241.5,79.5454545 L247.181818,68.1818182 L241.5,62.5 L232.977273,62.5 L235.818182,56.8181818 L224.454545,56.8181818 L213.090909,0 L201.727273,56.8181818 L190.363636,56.8181818 L193.204545,62.5 L184.681818,62.5 L179,68.1818182 L184.681818,79.5454545 L196.045455,79.5454545 L184.681818,426.136364 L110.818182,426.136364 L105.136364,431.818182 L110.818182,443.181818 L122.181818,443.181818 L164.795455,488.636364 L85.25,488.636364 L85.25,482.954545 L0.0227272727,482.954545 L0.0227272727,511.363636 L426.159091,511.363636 L426.159091,482.954545 L340.931818,482.954545 L340.931818,482.954545 Z M218.772727,488.636364 L207.409091,488.636364 L207.409091,477.272727 C207.409091,474.130682 209.948864,471.590909 213.090909,471.590909 C216.232955,471.590909 218.772727,474.130682 218.772727,477.272727 L218.772727,488.636364 L218.772727,488.636364 Z" id="Shape"></path>
                    </g>
                </g>
            </g>
        </g>
    </g>
</svg>