<?xml version="1.0" encoding="UTF-8" standalone="no"?>
<svg width="576px" height="537px" viewBox="0 0 576 537" version="1.1" xmlns="http://www.w3.org/2000/svg" xmlns:xlink="http://www.w3.org/1999/xlink">
    <!-- Generator: Sketch 40 (33762) - http://www.bohemiancoding.com/sketch -->
    <title>indonesia people</title>
    <desc>Created with Sketch.</desc>
    <defs></defs>
    <g id="Page-1" stroke="none" stroke-width="1" fill="none" fill-rule="evenodd">
        <g id="indonesia-people" fill="#000000">
            <g id="hijabi" transform="translate(389.420505, 173.584395)">
                <g id="Group">
                    <path d="M130.718087,113.169691 L162.234119,278.751423 L132.533992,278.751423 L132.533992,346.242004 C132.533992,355.43427 125.10896,362.852589 115.908377,362.852589 C106.748148,362.852589 99.2827623,355.43427 99.2827623,346.242004 L99.2827623,278.751423 L87.0153185,278.751423 L87.0153185,346.242004 C87.0153185,355.43427 79.5499333,362.852589 70.3493504,362.852589 C61.189121,362.852589 53.7640892,355.43427 53.7640892,346.242004 L53.7640892,278.751423 L24.4674964,278.751423 L55.983528,113.169691 L49.1234443,113.169691 L25.5570391,195.416278 C23.7411346,201.705723 16.6792837,205.172981 9.81919996,203.19745 C2.91876281,201.221919 -1.43940803,195.214693 0.860737691,187.31257 L25.1131513,102.969501 C29.4309687,88.0119114 37.3805951,79.8678866 44.9266872,75.4733386 C52.5534862,49.0254165 62.6014912,0 93.1490404,0 C123.69659,0 133.744595,49.0254165 141.371394,75.4733386 C148.917486,79.8678866 156.907466,87.9715944 161.18493,102.969501 L185.437343,187.31257 C187.737489,195.214693 183.379318,201.221919 176.478881,203.19745 C169.618797,205.172981 162.556946,201.705723 160.741042,195.416278 L137.174637,113.169691 L130.718087,113.169691 L130.718087,113.169691 Z M93.1490404,64.2249083 C106.627087,64.2249083 117.603221,53.3796476 117.603221,40.0347357 C117.603221,26.6495068 106.627087,15.8042461 93.1490404,15.8042461 C79.6709936,15.8042461 68.7352131,26.6495068 68.7352131,40.0347357 C68.7352131,53.3796476 79.6709936,64.2249083 93.1490404,64.2249083 L93.1490404,64.2249083 Z" id="Shape"></path>
                </g>
            </g>
            <g id="mans-clothing" transform="translate(0.000000, 165.033439)">
                <g id="Group">
                    <g>
                        <path d="M133.765251,212.968397 C134.033693,219.569157 139.474622,224.732371 146.026133,224.733904 C146.191799,224.733904 146.359,224.729306 146.524667,224.723176 C153.298601,224.444249 158.564659,218.738507 158.290082,211.970697 C156.861972,177.843523 153.542499,152.790672 149.178405,134.117891 L125.642973,141.336275 C129.35974,157.88492 132.473663,181.045053 133.765251,212.968397 L133.765251,212.968397 Z" id="Shape"></path>
                        <path d="M37.6646672,123.514069 L37.6646672,185.41593 C40.1757473,185.917079 44.9187281,186.824358 50.7109324,187.734702 C59.3440165,189.097153 70.2688254,190.450409 79.1519438,190.447344 C88.0350621,190.450409 98.9583372,189.097153 107.592955,187.734702 C113.383626,186.824358 118.126606,185.918612 120.63922,185.417463 L120.63922,123.581502 C120.735859,123.857363 120.834032,124.108704 120.930671,124.390696 C122.127154,127.843567 123.314433,131.81751 124.458762,136.355437 L147.949709,129.149313 C144.848057,117.199898 141.296957,108.09186 137.563317,101.000678 C132.688416,91.8129468 127.293506,85.9570132 121.972225,82.4382424 C118.928863,80.4045277 115.972937,79.2688965 113.460323,78.6620004 C112.024544,78.045909 110.444573,77.7010817 108.783302,77.7010817 L100.544444,77.7010817 C99.1500812,91.4190775 79.1519438,111.742431 79.1519438,111.742431 C79.1519438,111.742431 59.1538064,91.4190775 57.7579097,77.6995492 L49.5190513,77.6995492 C47.8608488,77.6995492 46.2824118,78.0428439 44.8497002,78.6574027 C42.3324843,79.2627662 39.3719562,80.3983974 36.3224589,82.4351772 C28.3014218,87.782299 20.3049279,98.0750104 13.7488154,117.610626 C12.5722739,121.129396 11.4356151,124.966941 10.3526447,129.14778 L33.8481936,136.355437 C35.0891611,131.431303 36.3746132,127.167705 37.6646672,123.514069 L37.6646672,123.514069 Z" id="Shape"></path>
                        <path d="M11.7746186,224.720111 C11.9433534,224.726241 12.11669,224.730839 12.2854248,224.730839 C18.8323336,224.730839 24.2686609,219.566092 24.5386365,212.971462 C25.8056812,181.035858 28.9472157,157.886453 32.6655163,141.337808 L9.12701677,134.117891 C4.7629222,152.790672 1.41430411,177.841991 0.0107376668,211.970697 C-0.266907717,218.735442 4.99761692,224.441184 11.7746186,224.720111 L11.7746186,224.720111 Z" id="Shape"></path>
                        <path d="M100.918728,194.894849 C100.917194,194.983738 100.91566,195.063432 100.91566,195.169179 C100.91566,195.633546 100.932534,196.237377 100.984688,196.948487 L97.9259872,197.166112 C97.8738328,196.425883 97.8554254,195.797531 97.8523575,195.282589 C91.6122391,196.027415 85.0484568,196.573009 79.1519438,196.579139 C73.2538968,196.573009 66.6916484,196.028948 60.4515301,195.282589 C60.4484622,195.799063 60.4300548,196.425883 60.3779004,197.166112 L57.3191993,196.948487 C57.3713537,196.237377 57.3882271,195.633546 57.3882271,195.169179 C57.3882271,195.064964 57.3866932,194.983738 57.3851592,194.894849 C49.0926126,193.805195 41.698962,192.448875 37.6662012,191.662668 L37.6662012,203.409784 L36.6491907,219.087932 C37.0664258,219.017434 37.5082041,218.965326 37.9085656,218.882568 L38.5267484,221.881799 C37.8610131,222.018197 37.1492592,222.117814 36.445175,222.226626 L28.6097462,343.139931 C27.9317392,353.584366 35.8592052,362.595853 46.306955,363.271714 C56.7593067,363.947576 65.7820147,356.036471 66.4600216,345.588971 L74.3291974,224.225092 L83.9762241,224.225092 L91.8453999,345.588971 C92.5218729,356.036471 101.544581,363.949108 111.998466,363.271714 C122.44775,362.597385 130.373682,353.585899 129.695675,343.139931 L121.860246,222.226626 C121.157696,222.119347 120.444408,222.018197 119.780207,221.881799 L120.39839,218.882568 C120.798751,218.965326 121.24053,219.017434 121.657765,219.087932 L120.640754,203.409784 L120.640754,191.662668 C116.604926,192.448875 109.211275,193.805195 100.918728,194.894849 L100.918728,194.894849 Z M56.9633223,199.838906 L59.9821407,200.372239 C59.810338,201.356146 59.5756433,202.413617 59.2550472,203.518597 L56.3098586,202.671088 C56.5921058,201.68105 56.8022573,200.73086 56.9633223,199.838906 L56.9633223,199.838906 Z M55.3542063,205.394457 L55.3542063,205.400587 L58.1843484,206.580663 C57.7763171,207.547712 57.3023258,208.527021 56.7455011,209.498668 L54.0825597,207.97683 C54.5749584,207.118594 54.9937274,206.252694 55.3542063,205.394457 L55.3542063,205.394457 Z M52.5010548,210.356905 L54.9369712,212.222037 C54.2942452,213.057286 53.5717536,213.881806 52.7771662,214.67261 L50.6173613,212.497899 C51.3153096,211.803647 51.9396282,211.089471 52.5010548,210.356905 L52.5010548,210.356905 Z M48.4575563,214.355369 L50.2952313,216.805941 C49.4530914,217.435826 48.5480595,218.036592 47.5693978,218.59138 L46.0584547,215.918586 C46.9220699,215.432763 47.7181912,214.907092 48.4575563,214.355369 L48.4575563,214.355369 Z M43.4676091,217.184485 L44.6594901,220.010536 C43.7023038,220.412069 42.6944971,220.778352 41.6284002,221.098658 L40.7402418,218.168392 C41.7050978,217.869542 42.6147316,217.543106 43.4676091,217.184485 L43.4676091,217.184485 Z M114.834744,217.184485 C115.687622,217.543106 116.597256,217.869542 117.560578,218.168392 L116.672419,221.098658 C115.607856,220.778352 114.598516,220.412069 113.64133,220.010536 L114.834744,217.184485 L114.834744,217.184485 Z M109.844797,214.355369 C110.584162,214.90556 111.380284,215.432763 112.245433,215.918586 L110.73449,218.59138 C109.754294,218.036592 108.849262,217.435826 108.008656,216.805941 L109.844797,214.355369 L109.844797,214.355369 Z M107.686526,212.496367 L105.526721,214.671077 C104.7306,213.880273 104.009642,213.055753 103.366916,212.220505 L105.802833,210.355372 C106.362725,211.089471 106.987044,211.803647 107.686526,212.496367 L107.686526,212.496367 Z M102.948147,205.394457 C103.308626,206.254226 103.727395,207.118594 104.219794,207.97683 L101.556853,209.498668 C101.001562,208.525489 100.526037,207.547712 100.118005,206.580663 L102.948147,205.400587 L102.948147,205.394457 L102.948147,205.394457 Z M101.339031,199.838906 C101.498562,200.73086 101.710248,201.68105 101.992495,202.671088 L99.0473064,203.518597 C98.7267103,202.413617 98.4935496,201.356146 98.320213,200.372239 L101.339031,199.838906 L101.339031,199.838906 Z" id="Shape"></path>
                        <ellipse id="Oval" cx="79.1519438" cy="34.4827286" rx="34.513929" ry="34.4827286"></ellipse>
                    </g>
                </g>
            </g>
            <g id="indonesia-national-monument" transform="translate(95.001486, 0.000000)">
                <g id="Group">
                    <path d="M291.793057,412.972279 L291.793057,417.830776 L223.712549,417.830776 L260.18425,378.962797 L269.910036,378.962797 L274.77293,369.245802 L269.910036,364.387305 L206.692422,364.387305 L196.966635,68.0189635 L206.692422,68.0189635 L211.555315,58.3019687 L206.692422,53.4434713 L199.398082,53.4434713 L201.829529,48.5849739 L192.103742,48.5849739 L182.377955,0 L172.652168,48.5849739 L162.926381,48.5849739 L165.357828,53.4434713 L158.063488,53.4434713 L153.200594,58.3019687 L158.063488,68.0189635 L167.789275,68.0189635 L158.063488,364.387305 L94.8458733,364.387305 L89.9829799,369.245802 L94.8458733,378.962797 L104.57166,378.962797 L141.043361,417.830776 L72.9628529,417.830776 L72.9628529,412.972279 L0.0194515737,412.972279 L0.0194515737,437.264765 L364.736458,437.264765 L364.736458,412.972279 L291.793057,412.972279 L291.793057,412.972279 Z M187.240848,417.830776 L177.515061,417.830776 L177.515061,408.113781 C177.515061,405.427032 179.688775,403.255284 182.377955,403.255284 C185.067135,403.255284 187.240848,405.427032 187.240848,408.113781 L187.240848,417.830776 L187.240848,417.830776 Z" id="Shape"></path>
                </g>
            </g>
        </g>
    </g>
</svg>