<svg width="82" height="82" viewBox="0 0 82 82" fill="none" xmlns="http://www.w3.org/2000/svg">
<g filter="url(#filter0_d)">
<path fill-rule="evenodd" clip-rule="evenodd" d="M41 73C58.6731 73 73 58.6731 73 41C73 37.5827 72.4643 34.2905 71.4724 31.2028C67.3343 18.322 55.2558 9 41 9C23.3269 9 9 23.3269 9 41C9 58.6731 23.3269 73 41 73Z" fill="white"/>
<path fill-rule="evenodd" clip-rule="evenodd" d="M41 73C58.6731 73 73 58.6731 73 41C73 37.5827 72.4643 34.2905 71.4724 31.2028C67.3343 18.322 55.2558 9 41 9C23.3269 9 9 23.3269 9 41C9 58.6731 23.3269 73 41 73Z" stroke="#206F8A"/>
</g>
<path d="M49 34.7708L47.5097 28.2467C47.4645 28.0576 47.1935 27.9158 47.0129 28.0576L42 32.1706L44.7097 36L49 34.7708Z" fill="#206F8A"/>
<path fill-rule="evenodd" clip-rule="evenodd" d="M56.9612 43.5679V43.6971L56.9626 43.8339L56.9648 43.9966L56.9661 44.0811L56.9668 44.1163C56.9839 45.4053 57.0352 49.2217 56.9612 49.9869C56.8738 50.7624 56.043 51.064 55.3435 51.1501V52.658C55.3435 54.1227 54.4253 55.4151 53.0698 55.9752C52.4578 57.1815 51.2334 58 49.7905 58H28.6289C26.6177 58 25 56.406 25 54.4243V41.5431C25 40.0352 25.9182 38.7428 27.2737 38.2259C27.8857 36.9765 29.1536 36.201 30.5527 36.201H35.4497C35.3186 35.5548 35.231 34.8655 35.231 34.2193C35.231 29.1358 39.4285 25 44.5876 25C49.7468 25 53.9443 29.1358 53.9443 34.2193C53.9443 35.0379 53.8132 35.8995 53.5945 36.6749C54.6875 37.3211 55.3872 38.4843 55.3872 39.7337V42.7063C55.6931 42.7063 56.1741 42.7063 56.5239 42.9217C56.7424 43.094 56.9175 43.3094 56.9612 43.5679ZM56.1743 43.6971L56.0867 43.611C55.9119 43.4817 55.562 43.4817 55.3872 43.5248V44.4295C55.9556 44.3002 56.1304 43.8694 56.1743 43.6971ZM53.2886 37.4504C54.0754 37.9673 54.5127 38.829 54.5127 39.7337V44.4726H53.376V41.5431V41.1984C53.376 41.1122 53.376 41.0692 53.3323 40.983V40.8969C53.3323 40.8338 53.3088 40.7707 53.2791 40.6907L53.2754 40.6806L53.2681 40.6603C53.2605 40.6398 53.2527 40.6182 53.2449 40.5953V40.5522C53.0698 40.0352 52.8076 39.5182 52.4141 39.1305C52.4417 39.0763 52.4692 39.0221 52.4968 38.9786C52.5129 38.953 52.5291 38.9311 52.5452 38.9151C52.5889 38.872 52.5889 38.829 52.6326 38.7859L52.895 38.2689C52.9387 38.2258 52.9387 38.1827 52.9824 38.1397C53.0203 38.0838 53.05 38.0199 53.075 37.9549C53.0967 37.8985 53.1147 37.8412 53.1318 37.7877L53.1384 37.7665L53.1572 37.7089L53.1611 37.7049C53.175 37.6905 53.1843 37.6759 53.1921 37.6596C53.1982 37.6472 53.2034 37.6337 53.2092 37.6185C53.218 37.5959 53.2283 37.5693 53.2449 37.5365C53.2651 37.5166 53.2761 37.4966 53.282 37.4809C53.2886 37.4628 53.2886 37.4504 53.2886 37.4504ZM53.0698 34.2193C53.0698 29.6097 49.2661 25.8185 44.5439 25.8185C39.8657 25.8185 36.0181 29.5666 35.9744 34.2193C35.9744 34.9948 36.1055 35.8133 36.3242 36.5457L36.3296 36.5567C36.3328 36.5627 36.3354 36.5686 36.3379 36.5742L36.3452 36.5911L36.3513 36.6067C36.3577 36.623 36.3628 36.6382 36.3679 36.6534L36.3687 36.6564C36.3794 36.6877 36.3904 36.7194 36.4116 36.7611C36.4553 36.8042 36.4553 36.8904 36.499 36.9765L36.5105 37.0005C36.5146 37.0092 36.5183 37.0175 36.5215 37.0255C36.53 37.0465 36.5364 37.0654 36.5427 37.0842L36.5435 37.0873C36.5542 37.1186 36.5652 37.1502 36.5864 37.1919C36.6028 37.224 36.613 37.2561 36.624 37.2904C36.6423 37.3482 36.6626 37.4124 36.7175 37.4935C36.7395 37.5367 36.7505 37.5691 36.7615 37.6016C36.7668 37.6176 36.7722 37.6337 36.7791 37.6511C36.7822 37.6594 36.7859 37.6681 36.79 37.6771C36.7944 37.6871 36.7993 37.6976 36.8052 37.7089C36.8052 37.752 36.8489 37.8381 36.8926 37.9243C36.8926 37.9674 36.9363 37.9674 36.9363 38.0104H42.0955L40.8276 32.8838C40.7839 32.8407 40.7839 32.7546 40.8276 32.7115L43.5383 36.3303C43.5569 36.3486 43.5754 36.3669 43.594 36.382C43.6191 36.4022 43.6443 36.4164 43.6694 36.4164H43.8445L48.1292 35.2533L48.0417 35.3394L44.6313 37.9674H49.8345H50.1404H50.2717C50.3154 38.0104 50.4028 38.0104 50.4465 38.0104C50.4902 38.0535 50.5339 38.0535 50.5776 38.0535H50.665L51.321 38.312C51.4958 38.3982 51.6707 38.4843 51.802 38.5705C51.802 38.5648 51.8027 38.5598 51.8042 38.5554C51.8054 38.5514 51.8071 38.5479 51.8091 38.5446C51.8132 38.538 51.8186 38.5327 51.824 38.5274C51.835 38.5166 51.8457 38.5059 51.8457 38.4843C51.865 38.4653 51.8843 38.4378 51.9036 38.4057C51.9202 38.378 51.9368 38.3467 51.9534 38.3144L51.9768 38.2689C52.03 38.2164 52.0671 38.1479 52.0977 38.083L52.1206 38.0335C52.1311 38.0098 52.1414 37.9874 52.1516 37.9674C52.1948 37.9247 52.238 37.8399 52.2815 37.7546L52.283 37.752C52.3267 37.6658 52.3704 37.5797 52.4141 37.4504C52.4268 37.4254 52.4358 37.4041 52.4434 37.3842L52.457 37.3458L52.4578 37.3427C52.4688 37.3104 52.4795 37.2781 52.5015 37.235L52.5154 37.1952L52.5308 37.154C52.543 37.1224 52.5549 37.0925 52.5669 37.0627C52.5889 37.0088 52.6108 36.955 52.6326 36.8904C52.9387 36.0287 53.0698 35.124 53.0698 34.2193ZM28.4104 37.9674C28.9351 37.3211 29.7222 36.9765 30.5527 36.9765H35.6245C35.6245 37.0156 35.6335 37.0458 35.6475 37.0752C35.656 37.0931 35.6665 37.1108 35.6777 37.13L35.6909 37.1525L35.6975 37.164L35.7122 37.1919C35.7258 37.2188 35.7395 37.25 35.7532 37.2827C35.7705 37.324 35.7878 37.3679 35.8052 37.4089C35.8179 37.4393 35.8306 37.4683 35.8433 37.4935C35.8555 37.5175 35.8643 37.5383 35.8716 37.5575C35.8774 37.5728 35.8823 37.5872 35.887 37.6015C35.8921 37.6167 35.8972 37.6318 35.9036 37.6481C35.9106 37.6664 35.9192 37.6861 35.9307 37.7089C35.9744 37.795 36.0181 37.8812 36.0181 37.9674H28.6289H28.4104ZM28.6292 57.1815H49.7908C50.8401 57.1815 51.7146 56.6645 52.0642 55.8029H51.5835C51.4521 55.8029 51.321 55.6736 51.321 55.5444C51.321 55.4151 51.4521 55.2859 51.5835 55.2859H52.3267C52.3486 55.2213 52.3594 55.1674 52.3704 55.1136L52.3711 55.1094C52.3818 55.0569 52.3926 55.0042 52.4141 54.9413V54.8982C52.4348 54.8575 52.4456 54.8264 52.4514 54.7958C52.4578 54.7617 52.4578 54.7282 52.4578 54.6828V54.4243V51.1501H50.1406C48.2605 51.1501 46.7302 49.6423 46.7302 47.7898C46.7302 45.9373 48.2605 44.4295 50.1406 44.4295H52.4578V41.5C52.4578 41.1123 52.3704 40.6815 52.1956 40.3368H51.5835C51.4521 40.3368 51.321 40.2076 51.321 40.0783C51.321 39.9491 51.4521 39.8198 51.5835 39.8198H51.8894C51.8411 39.7482 51.7793 39.6766 51.7114 39.605C51.6567 39.5474 51.5981 39.4897 51.5396 39.4321C51.2336 39.1305 50.8401 38.9582 50.4465 38.829H50.4028C50.3931 38.829 50.384 38.8285 50.3755 38.8275C50.3684 38.8268 50.3616 38.8257 50.355 38.8245C50.3376 38.8213 50.3218 38.8166 50.3062 38.8116L50.2937 38.8075C50.2812 38.8034 50.2688 38.7993 50.2556 38.7958C50.2344 38.79 50.2114 38.7859 50.1843 38.7859H50.0969H49.9656H49.7034H37.2424H36.3242H28.5415H28.2793H28.1482H28.0608C28.0388 38.7859 28.0059 38.7967 27.9729 38.8075C27.9402 38.8182 27.9075 38.829 27.8857 38.829C27.842 38.8505 27.8093 38.8613 27.7766 38.872C27.7439 38.8828 27.7109 38.8936 27.6672 38.9151L27.6235 38.9582C27.0989 39.1305 26.6616 39.4321 26.3555 39.8629H27.0112C27.1426 39.8629 27.2737 39.9922 27.2737 40.1214C27.2737 40.1558 27.2644 40.1902 27.2483 40.2221C27.2288 40.261 27.199 40.2963 27.1636 40.3235C27.1399 40.3419 27.1135 40.3566 27.0862 40.3664C27.0618 40.3751 27.0366 40.3799 27.0112 40.3799H26.0496C25.8745 40.7245 25.7871 41.1123 25.7871 41.5431V54.4243C25.7871 54.7258 25.8308 55.0274 25.9182 55.2859H25.9619H27.0552C27.1863 55.2859 27.3611 55.4151 27.3611 55.5444C27.3611 55.6736 27.23 55.8029 27.0989 55.8029H26.2244C26.7053 56.6214 27.5798 57.1815 28.6292 57.1815ZM53.376 54.8551C53.376 54.6828 53.4197 54.5535 53.4197 54.4243V51.1501H54.5564V52.6149C54.5564 53.5196 54.0754 54.3812 53.376 54.8551ZM54.906 50.3747C55.2996 50.3747 56.1304 50.2454 56.1741 49.9008C56.1958 49.5992 56.1958 48.7592 56.1958 47.7952C56.1958 46.8313 56.1958 45.7435 56.2178 44.9465C55.9116 45.1619 55.562 45.2911 55.0811 45.2911H50.3152C48.916 45.2911 47.7356 46.4112 47.7356 47.8329C47.7356 49.2115 48.8723 50.3747 50.3152 50.3747H54.906Z" fill="#206F8A"/>
<path fill-rule="evenodd" clip-rule="evenodd" d="M48 48C48 47.4333 48.4666 47 49 47C49.5334 47 50 47.4333 50 48C50 48.5667 49.5667 49 49 49C48.4333 49 48 48.5667 48 48ZM48.6333 47.9667C48.6333 48.1667 48.8 48.3333 49 48.3333C49.2 48.3333 49.3667 48.1667 49.3667 47.9667C49.3667 47.7667 49.2 47.6 49 47.6C48.8 47.6 48.6333 47.7667 48.6333 47.9667Z" fill="#206F8A"/>
<path d="M33 40.254C33 40.377 33.0811 40.5 33.1622 40.5H33.8378C33.9189 40.5 34 40.377 34 40.254C34 40.131 33.9189 40.0079 33.8378 40.0079H33.1622C33.0541 39.9669 33 40.09 33 40.254Z" fill="#206F8A"/>
<path d="M28.1892 40.5H28.8378C28.9189 40.5 29 40.375 29 40.25C29 40.125 28.9189 40 28.8378 40H28.1622C28.0811 40 28 40.125 28 40.25C28 40.375 28.0811 40.5 28.1892 40.5Z" fill="#206F8A"/>
<path d="M31 40.254C31 40.377 31.0811 40.5 31.1622 40.5H31.8378C31.9189 40.5 32 40.377 32 40.254C32 40.131 31.9189 40.0079 31.8378 40.0079H31.1622C31.0811 39.9669 31 40.09 31 40.254Z" fill="#206F8A"/>
<path d="M35 40.254C35 40.377 35.0811 40.5 35.1622 40.5H35.8378C35.9189 40.5 36 40.377 36 40.254C36 40.131 35.9189 40.0079 35.8378 40.0079H35.1622C35.0541 39.9669 35 40.09 35 40.254Z" fill="#206F8A"/>
<path d="M36 40.254C36 40.377 36.0811 40.5 36.1622 40.5H36.8378C36.9189 40.5 37 40.377 37 40.254C37 40.131 36.9189 40.0079 36.8378 40.0079H36.1622C36.0541 39.9669 36 40.09 36 40.254Z" fill="#206F8A"/>
<path d="M38 40.254C38 40.377 38.0811 40.5 38.1622 40.5H38.8378C38.9189 40.5 39 40.377 39 40.254C39 40.131 38.9189 40.0079 38.8378 40.0079H38.1622C38.0541 39.9669 38 40.09 38 40.254Z" fill="#206F8A"/>
<path d="M40 40.254C40 40.377 40.0811 40.5 40.1622 40.5H40.8378C40.9189 40.5 41 40.377 41 40.254C41 40.131 40.9189 40.0079 40.8378 40.0079H40.1622C40.0541 39.9669 40 40.09 40 40.254Z" fill="#206F8A"/>
<path d="M49 40.254C49 40.377 49.0811 40.5 49.1622 40.5H49.8378C49.9189 40.5 50 40.377 50 40.254C50 40.131 49.9189 40.0079 49.8378 40.0079H49.1622C49.0811 39.9669 49 40.09 49 40.254Z" fill="#206F8A"/>
<path d="M47 40.254C47 40.377 47.0811 40.5 47.1622 40.5H47.8378C47.9189 40.5 48 40.377 48 40.254C48 40.131 47.9189 40.0079 47.8378 40.0079H47.1622C47.0811 39.9669 47 40.09 47 40.254Z" fill="#206F8A"/>
<path d="M43 40.254C43 40.377 43.0811 40.5 43.1622 40.5H43.8378C43.9189 40.5 44 40.377 44 40.254C44 40.131 43.9189 40.0079 43.8378 40.0079H43.1622C43.0811 39.9669 43 40.09 43 40.254Z" fill="#206F8A"/>
<path d="M45 40.254C45 40.377 45.0811 40.5 45.1622 40.5H45.8378C45.9189 40.5 46 40.377 46 40.254C46 40.131 45.9189 40.0079 45.8378 40.0079H45.1622C45.0811 39.9669 45 40.09 45 40.254Z" fill="#206F8A"/>
<path d="M37 56.25C37 56.125 36.9189 56 36.8378 56H36.1622C36.0811 56 36 56.125 36 56.25C36 56.375 36.0811 56.5 36.1622 56.5H36.8378C36.9459 56.5 37 56.4167 37 56.25Z" fill="#206F8A"/>
<path d="M44 56.25C44 56.125 43.9189 56 43.8378 56H43.1622C43.0811 56 43 56.125 43 56.25C43 56.375 43.0811 56.5 43.1622 56.5H43.8378C43.9189 56.5 44 56.4167 44 56.25Z" fill="#206F8A"/>
<path d="M41 56.25C41 56.125 40.9189 56 40.8378 56H40.1622C40.0811 56 40 56.125 40 56.25C40 56.375 40.0811 56.5 40.1622 56.5H40.8378C40.9189 56.5 41 56.4167 41 56.25Z" fill="#206F8A"/>
<path d="M46 56.25C46 56.125 45.9189 56 45.8378 56H45.1622C45.0811 56 45 56.125 45 56.25C45 56.375 45.0811 56.5 45.1622 56.5H45.8378C45.9189 56.5 46 56.4167 46 56.25Z" fill="#206F8A"/>
<path d="M48 56.25C48 56.125 47.9189 56 47.8378 56H47.1622C47.0811 56 47 56.125 47 56.25C47 56.375 47.0811 56.5 47.1622 56.5H47.8378C47.9189 56.5 48 56.4167 48 56.25Z" fill="#206F8A"/>
<path d="M29 56.25C29 56.125 28.9189 56 28.8378 56H28.1622C28.0811 56 28 56.125 28 56.25C28 56.375 28.0811 56.5 28.1622 56.5H28.8378C28.9189 56.5 29 56.4167 29 56.25Z" fill="#206F8A"/>
<path d="M50 56.25C50 56.125 49.9189 56 49.8378 56H49.1622C49.0811 56 49 56.125 49 56.25C49 56.375 49.0811 56.5 49.1622 56.5H49.8378C49.9189 56.5 50 56.4167 50 56.25Z" fill="#206F8A"/>
<path d="M39 56.25C39 56.125 38.9189 56 38.8378 56H38.1622C38.0811 56 38 56.125 38 56.25C38 56.375 38.0811 56.5 38.1622 56.5H38.8378C38.9459 56.5 39 56.4167 39 56.25Z" fill="#206F8A"/>
<path d="M34 56.25C34 56.125 33.9189 56 33.8378 56H33.1622C33.0811 56 33 56.125 33 56.25C33 56.375 33.0811 56.5 33.1622 56.5H33.8378C33.9459 56.5 34 56.4167 34 56.25Z" fill="#206F8A"/>
<path d="M32 56.25C32 56.125 31.9189 56 31.8378 56H31.1622C31.0811 56 31 56.125 31 56.25C31 56.375 31.0811 56.5 31.1622 56.5H31.8378C31.9459 56.5 32 56.4167 32 56.25Z" fill="#206F8A"/>
<path d="M35 56.25C35 56.125 34.9189 56 34.8378 56H34.1622C34.0811 56 34 56.125 34 56.25C34 56.375 34.0811 56.5 34.1622 56.5H34.8378C34.9459 56.5 35 56.4167 35 56.25Z" fill="#206F8A"/>
<defs>
<filter id="filter0_d" x="0.5" y="0.5" width="81" height="81" filterUnits="userSpaceOnUse" color-interpolation-filters="sRGB">
<feFlood flood-opacity="0" result="BackgroundImageFix"/>
<feColorMatrix in="SourceAlpha" type="matrix" values="0 0 0 0 0 0 0 0 0 0 0 0 0 0 0 0 0 0 127 0"/>
<feOffset/>
<feGaussianBlur stdDeviation="4"/>
<feColorMatrix type="matrix" values="0 0 0 0 0.12549 0 0 0 0 0.435294 0 0 0 0 0.541176 0 0 0 0.5 0"/>
<feBlend mode="normal" in2="BackgroundImageFix" result="effect1_dropShadow"/>
<feBlend mode="normal" in="SourceGraphic" in2="effect1_dropShadow" result="shape"/>
</filter>
</defs>
</svg>
