<svg xmlns="http://www.w3.org/2000/svg" xmlns:xlink="http://www.w3.org/1999/xlink" version="1.1" x="0px" y="0px" viewBox="0 0 100 125" enable-background="new 0 0 100 100" xml:space="preserve">
  <g>
    <path
      d="M49.994,38.443c3.757,0,6.813-3.056,6.813-6.813c0-3.756-3.056-6.813-6.813-6.813c-3.756,0-6.813,3.057-6.813,6.813   C43.182,35.388,46.238,38.443,49.994,38.443z M49.994,27.818c2.103,0,3.813,1.711,3.813,3.813c0,2.103-1.71,3.813-3.813,3.813   c-2.102,0-3.813-1.71-3.813-3.813C46.182,29.529,47.893,27.818,49.994,27.818z"/><path d="M78.369,55.746c2.813,0,5.1-2.287,5.1-5.1s-2.287-5.1-5.1-5.1s-5.1,2.287-5.1,5.1S75.557,55.746,78.369,55.746z    M78.369,48.547c1.158,0,2.1,0.941,2.1,2.1s-0.941,2.1-2.1,2.1s-2.1-0.941-2.1-2.1S77.211,48.547,78.369,48.547z"/>
    <path d="M27.219,51.521c0-2.813-2.287-5.1-5.1-5.1s-5.1,2.287-5.1,5.1s2.287,5.1,5.1,5.1S27.219,54.334,27.219,51.521z    M20.02,51.521c0-1.158,0.941-2.1,2.1-2.1s2.1,0.941,2.1,2.1s-0.941,2.1-2.1,2.1S20.02,52.68,20.02,51.521z"/>
    <path
      d="M89.881,82.314l-7.187-19.257l0.626-2.082c3.973-1.899,6.501-5.876,6.501-10.329c0-6.314-5.138-11.452-11.452-11.452   c-3.559,0-6.742,1.632-8.845,4.186c-0.302-0.134-0.605-0.267-0.903-0.401c-1.807-0.82-3.545-1.646-5.12-2.407   c1.713-2.589,2.681-5.673,2.681-8.94c0-8.926-7.262-16.188-16.188-16.188s-16.188,7.262-16.188,16.188   c0,3.219,0.937,6.262,2.602,8.826c-2.021,0.979-4.102,1.958-6.232,2.937c-2.07-2.053-4.918-3.324-8.057-3.324   c-6.314,0-11.453,5.138-11.453,11.452c0,4.453,2.529,8.43,6.502,10.329l0.254,0.845l-2.625,7.033   c-1.592,4.268-3.184,8.537-4.779,12.803c-0.199,0.533-0.079,1.135,0.311,1.551c0.287,0.307,0.686,0.475,1.095,0.475   c0.145,0,0.29-0.021,0.433-0.064c6.67-2.006,13.321-4.084,19.779-6.178c2.668,0.976,5.516,2.006,8.395,2.998   c2.72,0.938,5.737,1.944,9.496,3.17c0.309,0.1,0.641,0.1,0.946-0.006c5.915-2.004,11.777-4.076,17.432-6.162   c3.493,1.124,6.486,2.075,9.563,3.015c3.107,0.948,6.498,1.954,10.672,3.167c0.139,0.041,0.279,0.061,0.418,0.061   c0.006,0,0.014-0.002,0.021,0c0.829,0,1.5-0.672,1.5-1.5C90.077,82.787,90.006,82.533,89.881,82.314z M78.369,42.194   c4.66,0,8.452,3.792,8.452,8.452c0,3.47-2.079,6.549-5.298,7.844c-0.422,0.17-0.745,0.523-0.877,0.959l-2.277,7.569l-2.277-7.569   c-0.132-0.436-0.455-0.789-0.877-0.959c-3.219-1.295-5.299-4.374-5.299-7.844C69.916,45.986,73.709,42.194,78.369,42.194z    M49.994,18.443c7.271,0,13.188,5.916,13.188,13.188c0,5.413-3.244,10.217-8.266,12.238c-0.424,0.17-0.746,0.523-0.877,0.959   L49.994,58.27l-4.045-13.441c-0.131-0.436-0.454-0.789-0.877-0.959c-5.021-2.021-8.266-6.825-8.266-12.238   C36.807,24.359,42.723,18.443,49.994,18.443z M13.666,51.521c0-4.66,3.793-8.452,8.453-8.452s8.452,3.792,8.452,8.452   c0,3.47-2.079,6.549-5.298,7.844c-0.423,0.17-0.746,0.523-0.877,0.959l-2.277,7.57l-2.277-7.57   c-0.132-0.436-0.455-0.789-0.877-0.959C15.746,58.07,13.666,54.991,13.666,51.521z M78.343,78.46   c-2.949-0.9-5.846-1.82-9.166-2.888l-3.711-22.602l-2.96,0.486l3.66,22.297c-5.002,1.839-10.156,3.664-15.367,5.441V69.008h-3   V80.76c-2.556-0.842-4.762-1.584-6.793-2.283c-2.67-0.92-5.31-1.873-7.813-2.787l4.535-22.675l-2.941-0.588l-4.643,23.216   c-5.324,1.723-10.773,3.434-16.256,5.102c1.24-3.322,2.48-6.646,3.719-9.968l1.244-3.331l1.831,6.086   c0.19,0.633,0.774,1.067,1.437,1.067s1.246-0.435,1.437-1.067l3.515-11.681c3.973-1.899,6.501-5.876,6.501-10.329   c0-2.07-0.56-4.008-1.524-5.685c2.135-0.985,4.236-1.972,6.258-2.956c0.029,0.018,0.061,0.036,0.09,0.054   c1.377,1.408,3.02,2.58,4.884,3.429l5.279,17.544c0.19,0.634,0.774,1.067,1.437,1.067s1.246-0.434,1.437-1.067l5.28-17.544   c1.85-0.842,3.482-2.002,4.853-3.396c1.752,0.85,3.74,1.801,5.817,2.742c0.183,0.083,0.368,0.164,0.552,0.246   c-0.647,1.434-1.017,3.02-1.017,4.691c0,4.453,2.528,8.43,6.502,10.329l3.515,11.681c0.19,0.633,0.774,1.067,1.437,1.067   s1.246-0.435,1.437-1.067l1.459-4.849l4.841,12.971C83.209,79.928,80.693,79.178,78.343,78.46z"/>
  </g>
</svg>
