<svg width="82" height="82" viewBox="0 0 82 82" fill="none" xmlns="http://www.w3.org/2000/svg">
<g filter="url(#filter0_d)">
<path fill-rule="evenodd" clip-rule="evenodd" d="M41 73C58.6731 73 73 58.6731 73 41C73 37.5827 72.4643 34.2905 71.4724 31.2028C67.3343 18.322 55.2558 9 41 9C23.3269 9 9 23.3269 9 41C9 58.6731 23.3269 73 41 73Z" fill="#206F8A"/>
<path fill-rule="evenodd" clip-rule="evenodd" d="M41 73C58.6731 73 73 58.6731 73 41C73 37.5827 72.4643 34.2905 71.4724 31.2028C67.3343 18.322 55.2558 9 41 9C23.3269 9 9 23.3269 9 41C9 58.6731 23.3269 73 41 73Z" stroke="#206F8A"/>
</g>
<path d="M37.2185 40.1429V36.9286C37.2185 34.5681 39.1437 32.6429 41.5042 32.6429C43.8647 32.6429 45.7899 34.5681 45.7899 36.9286V40.1429H37.2185ZM51.147 41.75C51.147 40.8627 50.4272 40.1429 49.5399 40.1429H49.0042V36.9286C49.0042 32.8103 45.6225 29.4286 41.5042 29.4286C37.3859 29.4286 34.0042 32.8103 34.0042 36.9286V40.1429H33.4685C32.5812 40.1429 31.8613 40.8627 31.8613 41.75V51.3929C31.8613 52.2801 32.5812 53 33.4685 53H49.5399C50.4272 53 51.147 52.2801 51.147 51.3929V41.75Z" fill="white"/>
<defs>
<filter id="filter0_d" x="0.5" y="0.5" width="81" height="81" filterUnits="userSpaceOnUse" color-interpolation-filters="sRGB">
<feFlood flood-opacity="0" result="BackgroundImageFix"/>
<feColorMatrix in="SourceAlpha" type="matrix" values="0 0 0 0 0 0 0 0 0 0 0 0 0 0 0 0 0 0 127 0"/>
<feOffset/>
<feGaussianBlur stdDeviation="4"/>
<feColorMatrix type="matrix" values="0 0 0 0 0.12549 0 0 0 0 0.435294 0 0 0 0 0.541176 0 0 0 0.5 0"/>
<feBlend mode="normal" in2="BackgroundImageFix" result="effect1_dropShadow"/>
<feBlend mode="normal" in="SourceGraphic" in2="effect1_dropShadow" result="shape"/>
</filter>
</defs>
</svg>
