<svg xmlns="http://www.w3.org/2000/svg" xmlns:xlink="http://www.w3.org/1999/xlink" version="1.1" x="0px" y="0px" viewBox="0 0 103.198 296.32625" style="enable-background:new 0 0 103.198 237.061;" xml:space="preserve"><g><path d="M87.203,138.962c0.175,4.307,3.722,7.676,7.993,7.677c0.108,0,0.217-0.003,0.325-0.007c4.416-0.182,7.849-3.905,7.67-8.321   c-0.931-22.268-3.095-38.615-5.94-50.799l-15.343,4.71C84.331,103.02,86.361,118.132,87.203,138.962z"/><path d="M24.554,80.593v40.391c1.637,0.327,4.729,0.919,8.505,1.513c5.628,0.889,12.75,1.772,18.541,1.77   c5.791,0.002,12.912-0.881,18.541-1.77c3.775-0.594,6.867-1.185,8.505-1.512V80.637c0.063,0.18,0.127,0.344,0.19,0.528   c0.78,2.253,1.554,4.846,2.3,7.807L96.45,84.27c-2.022-7.797-4.337-13.74-6.771-18.367c-3.178-5.995-6.695-9.816-10.164-12.112   c-1.984-1.327-3.911-2.068-5.549-2.464c-0.936-0.402-1.966-0.627-3.049-0.627h-5.371C64.637,59.651,51.6,72.912,51.6,72.912   S38.563,59.651,37.653,50.699h-5.371c-1.081,0-2.11,0.224-3.044,0.625c-1.641,0.395-3.571,1.136-5.559,2.465   c-5.229,3.489-10.442,10.205-14.716,22.952c-0.767,2.296-1.508,4.8-2.214,7.528l15.317,4.703   C22.875,85.759,23.713,82.977,24.554,80.593z"/><path d="M7.676,146.63c0.11,0.004,0.223,0.007,0.333,0.007c4.268,0,7.812-3.37,7.988-7.673c0.826-20.838,2.874-35.943,5.298-46.741   L5.95,87.512c-2.845,12.184-5.028,28.53-5.943,50.799C-0.174,142.725,3.258,146.448,7.676,146.63z"/><path d="M65.79,127.169c-0.001,0.058-0.002,0.11-0.002,0.179c0,0.303,0.011,0.697,0.045,1.161l-1.994,0.142   c-0.034-0.483-0.046-0.893-0.048-1.229c-4.068,0.486-8.347,0.842-12.191,0.846c-3.845-0.004-8.123-0.359-12.191-0.846   c-0.002,0.337-0.014,0.746-0.048,1.229l-1.994-0.142c0.034-0.464,0.045-0.858,0.045-1.161c0-0.068-0.001-0.121-0.002-0.179   c-5.406-0.711-10.226-1.596-12.855-2.109v7.665l-0.663,10.23c0.272-0.046,0.56-0.08,0.821-0.134l0.403,1.957   c-0.434,0.089-0.898,0.154-1.357,0.225l-5.108,78.896c-0.442,6.815,4.726,12.695,11.537,13.136   c6.814,0.441,12.696-4.721,13.138-11.538l5.13-79.19h6.289l5.13,79.19c0.441,6.817,6.323,11.98,13.138,11.538   c6.812-0.44,11.979-6.32,11.537-13.136l-5.108-78.896c-0.458-0.07-0.923-0.136-1.356-0.225l0.403-1.957   c0.261,0.054,0.549,0.088,0.821,0.134l-0.663-10.23v-7.665C76.016,125.573,71.196,126.458,65.79,127.169z M37.135,130.395   l1.968,0.348c-0.112,0.642-0.265,1.332-0.474,2.053l-1.92-0.553C36.893,131.597,37.03,130.977,37.135,130.395z M36.086,134.02   v0.004l1.845,0.77c-0.266,0.631-0.575,1.27-0.938,1.904l-1.736-0.993C35.578,135.145,35.851,134.58,36.086,134.02z M34.226,137.258   l1.588,1.217c-0.419,0.545-0.89,1.083-1.408,1.599l-1.408-1.419C33.453,138.202,33.86,137.736,34.226,137.258z M31.59,139.867   l1.198,1.599c-0.549,0.411-1.139,0.803-1.777,1.165l-0.985-1.744C30.589,140.57,31.108,140.227,31.59,139.867z M28.337,141.713   l0.777,1.844c-0.624,0.262-1.281,0.501-1.976,0.71l-0.579-1.912C27.188,142.16,27.781,141.947,28.337,141.713z M74.862,141.713   c0.556,0.234,1.149,0.447,1.777,0.642l-0.579,1.912c-0.694-0.209-1.352-0.448-1.976-0.71L74.862,141.713z M71.609,139.867   c0.482,0.359,1.001,0.703,1.565,1.02l-0.985,1.744c-0.639-0.362-1.229-0.754-1.777-1.165L71.609,139.867z M70.202,138.654   l-1.408,1.419c-0.519-0.516-0.989-1.054-1.408-1.599l1.588-1.217C69.339,137.736,69.746,138.202,70.202,138.654z M67.113,134.02   c0.235,0.561,0.508,1.125,0.829,1.685l-1.736,0.993c-0.362-0.635-0.672-1.273-0.938-1.904l1.845-0.77V134.02z M66.064,130.395   c0.104,0.582,0.242,1.202,0.426,1.848l-1.92,0.553c-0.209-0.721-0.361-1.411-0.474-2.053L66.064,130.395z"/><circle cx="51.6" cy="22.5" r="22.5"/></g></svg>