<svg width="43" height="39" viewBox="0 0 43 39" fill="none" xmlns="http://www.w3.org/2000/svg">
<path fill-rule="evenodd" clip-rule="evenodd" d="M18.5534 9.91864L21.7693 12.7303C22.4733 13.351 23.5211 13.3369 24.2088 12.6976L31.9959 5.48077L29.6759 3.11426C29.4352 2.8714 29.345 2.51324 29.441 2.18213C29.537 1.85095 29.8038 1.60052 30.1353 1.53033L37.9086 0.0166626C38.2076 -0.041626 38.5156 0.0549316 38.7309 0.274536C38.9461 0.494141 39.0408 0.808228 38.9836 1.11328L37.5089 9.06104C37.4401 9.39917 37.1946 9.67126 36.8699 9.76923C36.5453 9.86719 36.1942 9.77515 35.9561 9.52966L33.2777 6.79761L25.4446 14.0753C24.068 15.3527 21.9725 15.3788 20.5656 14.1362L17.3497 11.3245C16.659 10.7137 15.6331 10.7137 14.9424 11.3245L6.45697 18.8224C6.0722 19.106 5.539 19.0439 5.22678 18.6793C4.91452 18.3146 4.92603 17.7673 5.2533 17.4166L13.7387 9.91864C15.1202 8.69714 17.1719 8.69714 18.5534 9.91864ZM36.0204 6.96167L36.9392 2.11145L32.1843 3.04871L36.0204 6.96167Z" fill="#58CFEE"/>
<path d="M43 38.0788C43 37.5701 42.5924 37.1577 42.0896 37.1577H38.7983V19.9875C38.7983 19.4787 38.3907 19.0663 37.8879 19.0663C37.3851 19.0663 36.9775 19.4787 36.9775 19.9875V37.1577H33.3357V14.9211C33.3357 14.4124 32.9281 14 32.4253 14C31.9224 14 31.5148 14.4124 31.5148 14.9211V37.1577H27.8731V24.5932C27.8731 24.0845 27.4655 23.6721 26.9626 23.6721C26.4598 23.6721 26.0522 24.0845 26.0522 24.5932V37.1577H22.4104V28.2778C22.4104 27.7691 22.0028 27.3567 21.5 27.3567C20.9972 27.3567 20.5896 27.7691 20.5896 28.2778V37.1577H16.9478V19.9875C16.9478 19.4787 16.5402 19.0663 16.0374 19.0663C15.5345 19.0663 15.1269 19.4787 15.1269 19.9875V37.1577H11.4852V31.9624C11.4852 31.4537 11.0776 31.0413 10.5747 31.0413C10.0719 31.0413 9.6643 31.4537 9.6643 31.9624V37.1577H6.02255V27.8172C6.02255 27.3085 5.61493 26.8961 5.11211 26.8961C4.60929 26.8961 4.20167 27.3085 4.20167 27.8172V37.1577H0.910438C0.407617 37.1577 0 37.5701 0 38.0788C0 38.5876 0.407617 39 0.910438 39H42.0896C42.5924 39 43 38.5876 43 38.0788Z" fill="#58CFEE"/>
</svg>
