<svg width="82" height="82" viewBox="0 0 82 82" fill="none" xmlns="http://www.w3.org/2000/svg">
<g filter="url(#filter0_d)">
<path fill-rule="evenodd" clip-rule="evenodd" d="M41 73C58.6731 73 73 58.6731 73 41C73 37.5827 72.4643 34.2905 71.4724 31.2028C67.3343 18.322 55.2558 9 41 9C23.3269 9 9 23.3269 9 41C9 58.6731 23.3269 73 41 73Z" fill="white"/>
<path fill-rule="evenodd" clip-rule="evenodd" d="M41 73C58.6731 73 73 58.6731 73 41C73 37.5827 72.4643 34.2905 71.4724 31.2028C67.3343 18.322 55.2558 9 41 9C23.3269 9 9 23.3269 9 41C9 58.6731 23.3269 73 41 73Z" stroke="#206F8A"/>
</g>
<path fill-rule="evenodd" clip-rule="evenodd" d="M62 28.4605C62 29.4737 61.2942 30.4145 60.196 30.7763H60.2744V37H54V35.3355H58.4707V30.7763C57.3726 30.4868 56.6667 29.5461 56.6667 28.4605C56.6667 27.0855 57.843 26 59.3333 26C60.8235 26 62 27.0855 62 28.4605ZM59.3333 27.6645C58.7842 27.6645 58.3921 28.0263 58.3921 28.4605C58.3921 28.8947 58.7842 29.2566 59.3333 29.2566C59.804 29.2566 60.196 28.8947 60.196 28.4605C60.196 28.0263 59.804 27.6645 59.3333 27.6645Z" fill="#206F8A"/>
<path fill-rule="evenodd" clip-rule="evenodd" d="M60.2698 44V50.2237C61.3672 50.5855 62.0725 51.5263 61.9941 52.5395C61.9941 53.9145 60.8184 55 59.3293 55C57.8403 55 56.6648 53.9145 56.6648 52.5395C56.6648 51.5263 57.3701 50.5855 58.4673 50.2237V45.6645H54V44H60.2698ZM60.2698 52.5395C60.2698 52.1053 59.8779 51.7434 59.4077 51.7434C58.8591 51.7434 58.4673 52.1053 58.4673 52.5395C58.4673 52.9737 58.9375 53.3355 59.4077 53.3355C59.8779 53.3355 60.2698 52.9737 60.2698 52.5395Z" fill="#206F8A"/>
<path fill-rule="evenodd" clip-rule="evenodd" d="M60.136 39.6667C60.4353 38.6522 61.4082 38 62.5305 38C63.9524 38 65 39.1594 65 40.5362C65 41.9131 63.8774 43 62.4558 43C61.4082 43 60.4353 42.3478 60.0613 41.3333H54V39.6667H60.136ZM62.4558 41.2609C62.9797 41.2609 63.3538 40.8986 63.3538 40.4638C63.3538 40.029 62.9797 39.5942 62.4558 39.5942C61.9321 39.5942 61.5579 40.029 61.5579 40.4638C61.5579 40.8986 61.9321 41.2609 62.4558 41.2609Z" fill="#206F8A"/>
<path fill-rule="evenodd" clip-rule="evenodd" d="M25.2815 28.4605C25.2815 29.4737 24.5825 30.4145 23.4951 30.7763H23.5728V35.3355H28V37H21.7864V30.7763C20.699 30.4868 20 29.5461 20 28.4605C20 27.0855 21.165 26 22.6409 26C24.1165 26 25.2815 27.0855 25.2815 28.4605ZM22.563 27.6645C22.0972 27.6645 21.7087 28.0263 21.7087 28.4605C21.7087 28.8947 22.0972 29.2566 22.563 29.2566C23.1067 29.2566 23.4951 28.8947 23.4951 28.4605C23.4951 28.0263 23.0291 27.6645 22.563 27.6645Z" fill="#206F8A"/>
<path fill-rule="evenodd" clip-rule="evenodd" d="M20 52.5395C20 51.5263 20.7058 50.5855 21.804 50.2237H21.7256V44H28V45.6645H23.5293V50.2237C24.6274 50.5132 25.3333 51.4539 25.3333 52.5395C25.3333 53.9145 24.157 55 22.6667 55C21.1765 55 20 53.9145 20 52.5395ZM22.6667 53.3355C23.2158 53.3355 23.6079 52.9737 23.6079 52.5395C23.6079 52.1053 23.2158 51.7434 22.6667 51.7434C22.196 51.7434 21.804 52.1053 21.804 52.5395C21.804 52.9737 22.196 53.3355 22.6667 53.3355Z" fill="#206F8A"/>
<path fill-rule="evenodd" clip-rule="evenodd" d="M17 40.5C17 39.1029 18.1147 38 19.5271 38C20.6418 38 21.6082 38.6618 21.9055 39.6176H28V41.3088H21.9055C21.6082 42.3382 20.6418 43 19.5271 43C18.1147 43 17 41.8971 17 40.5ZM19.5271 41.3088C20.0474 41.3088 20.4189 40.9412 20.4189 40.5C20.4189 40.0588 20.0474 39.6176 19.5271 39.6176C19.0068 39.6176 18.6353 40.0588 18.6353 40.5C18.6353 40.9412 19.0068 41.3088 19.5271 41.3088Z" fill="#206F8A"/>
<path d="M49.9999 39.8373L41.4743 26.3307C41.1993 25.8898 40.4921 25.8898 40.2171 26.3307L31.7307 39.7572L40.9243 46.25L49.9999 39.8373Z" fill="#206F8A"/>
<path d="M41.012 47.5921C40.8982 47.6711 40.7465 47.7105 40.5948 47.7105C40.4431 47.7105 40.2914 47.6711 40.1776 47.5921L31 41C31 41.1579 31.0379 41.3158 31.1138 41.4342L39.8743 55.6447C40.0259 55.8421 40.2535 56 40.481 56C40.7086 56 40.9741 55.8816 41.0878 55.6447L49.8862 41.4342C49.9621 41.3553 49.9621 41.2368 50 41.1184L41.012 47.5921Z" fill="#206F8A"/>
<defs>
<filter id="filter0_d" x="0.5" y="0.5" width="81" height="81" filterUnits="userSpaceOnUse" color-interpolation-filters="sRGB">
<feFlood flood-opacity="0" result="BackgroundImageFix"/>
<feColorMatrix in="SourceAlpha" type="matrix" values="0 0 0 0 0 0 0 0 0 0 0 0 0 0 0 0 0 0 127 0"/>
<feOffset/>
<feGaussianBlur stdDeviation="4"/>
<feColorMatrix type="matrix" values="0 0 0 0 0.12549 0 0 0 0 0.435294 0 0 0 0 0.541176 0 0 0 0.5 0"/>
<feBlend mode="normal" in2="BackgroundImageFix" result="effect1_dropShadow"/>
<feBlend mode="normal" in="SourceGraphic" in2="effect1_dropShadow" result="shape"/>
</filter>
</defs>
</svg>
