<?xml version="1.0" encoding="UTF-8"?>
<svg viewBox="0 0 53 62" version="1.1" xmlns="http://www.w3.org/2000/svg" xmlns:xlink="http://www.w3.org/1999/xlink">
  <g id="microfinance" fill="#206F8A" fill-rule="nonzero">
      <path d="M10.605,35.121 L7.07,31.586 L7.07,19.5 C7.07,17.57 5.5,16 3.57,16 C1.64,16 0.07,17.57 0.07,19.5 L0.07,41.5 C0.07,41.724 0.145,41.94 0.282,42.116 L9.07,53.345 L9.07,62 L11.07,62 L11.07,53 C11.07,52.776 10.995,52.56 10.858,52.384 L2.07,41.155 L2.07,19.5 C2.07,18.673 2.743,18 3.57,18 C4.397,18 5.07,18.673 5.07,19.5 L5.07,32 C5.07,32.266 5.176,32.52 5.363,32.707 L6.827,34.171 C5.239,34.638 4.07,36.092 4.07,37.828 C4.07,38.852 4.468,39.812 5.192,40.535 L11.363,46.707 L12.777,45.293 L6.605,39.121 C6.265,38.78 6.07,38.309 6.07,37.828 C6.07,36.82 6.89,36 7.899,36 C8.386,36 8.845,36.19 9.19,36.533 L9.364,36.707 L18.071,45.414 L18.071,62 L20.071,62 L20.071,45 C20.071,44.734 19.966,44.48 19.778,44.293 L10.605,35.121 Z" id="Shape"></path>
      <path d="M48.57,16 C46.64,16 45.07,17.57 45.07,19.5 L45.07,31.586 L41.537,35.119 C41.536,35.12 41.535,35.12 41.534,35.121 L32.363,44.293 C32.176,44.48 32.07,44.734 32.07,45 L32.07,62 L34.07,62 L34.07,45.414 L42.777,36.706 L42.953,36.53 C43.298,36.189 43.755,36 44.241,36 C45.249,36 46.07,36.82 46.07,37.828 C46.07,38.31 45.875,38.78 45.534,39.121 L39.363,45.293 L40.777,46.707 L46.948,40.535 C47.672,39.812 48.07,38.851 48.07,37.828 C48.07,36.092 46.9,34.638 45.313,34.171 L46.777,32.707 C46.965,32.52 47.07,32.266 47.07,32 L47.07,19.5 C47.07,18.673 47.743,18 48.57,18 C49.397,18 50.07,18.673 50.07,19.5 L50.07,41.155 L41.282,52.384 C41.145,52.56 41.07,52.776 41.07,53 L41.07,62 L43.07,62 L43.07,53.345 L51.858,42.116 C51.996,41.94 52.07,41.723 52.07,41.5 L52.07,19.5 C52.07,17.57 50.5,16 48.57,16 Z" id="Shape"></path>
      <path d="M34.274,36.204 C37.313,33.165 37.074,28.163 37.062,27.952 C37.034,27.442 36.627,27.036 36.119,27.009 C35.909,26.997 30.906,26.757 27.867,29.796 C27.568,30.095 27.309,30.417 27.071,30.747 L27.071,26.983 C28.742,26.9 32.039,26.441 34.275,24.204 C37.314,21.165 37.075,16.163 37.063,15.952 C37.035,15.442 36.628,15.036 36.12,15.009 C35.91,14.995 30.907,14.757 27.868,17.796 C27.569,18.095 27.31,18.417 27.072,18.747 L27.072,15.462 C28.14,14.518 31.072,11.599 31.072,8 C31.072,3.696 26.868,0.353 26.689,0.213 C26.327,-0.07 25.818,-0.07 25.456,0.213 C25.274,0.354 21.07,3.696 21.07,8 C21.07,11.599 24.002,14.518 25.07,15.462 L25.07,18.747 C24.831,18.417 24.573,18.095 24.274,17.796 C21.235,14.757 16.235,14.997 16.022,15.009 C15.513,15.036 15.107,15.443 15.079,15.952 C15.067,16.163 14.828,21.165 17.867,24.204 C20.103,26.44 23.4,26.9 25.071,26.983 L25.071,30.747 C24.832,30.417 24.574,30.095 24.275,29.796 C21.236,26.757 16.236,26.997 16.023,27.009 C15.514,27.036 15.108,27.443 15.08,27.952 C15.068,28.163 14.829,33.165 17.868,36.204 C20.104,38.44 23.401,38.9 25.072,38.983 L25.072,45 L27.072,45 L27.072,38.983 C28.741,38.9 32.038,38.441 34.274,36.204 Z M29.28,31.21 C30.983,29.507 33.636,29.109 35.049,29.023 C34.966,30.432 34.571,33.078 32.86,34.79 C31.157,36.493 28.504,36.891 27.091,36.977 C27.175,35.567 27.569,32.922 29.28,31.21 Z M29.28,19.21 C30.983,17.507 33.636,17.109 35.049,17.023 C34.966,18.432 34.571,21.078 32.86,22.79 C31.157,24.493 28.504,24.891 27.091,24.977 C27.175,23.567 27.569,20.922 29.28,19.21 Z M19.28,22.79 C17.577,21.087 17.179,18.434 17.093,17.02 C18.503,17.104 21.148,17.499 22.859,19.209 C24.562,20.912 24.96,23.565 25.046,24.979 C23.637,24.896 20.992,24.501 19.28,22.79 Z M19.28,34.79 C17.577,33.087 17.179,30.434 17.093,29.02 C18.503,29.104 21.148,29.499 22.859,31.209 C24.562,32.912 24.96,35.565 25.046,36.979 C23.637,36.896 20.992,36.501 19.28,34.79 Z M23.07,8 C23.07,5.538 25.036,3.328 26.07,2.338 C27.104,3.328 29.07,5.538 29.07,8 C29.07,10.462 27.104,12.672 26.07,13.662 C25.036,12.672 23.07,10.462 23.07,8 Z" id="Shape"></path>
  </g>
</svg>
