<svg width="26" height="37" viewBox="0 0 26 37" fill="none" xmlns="http://www.w3.org/2000/svg">
<rect x="0.5" y="35.5" width="25" height="1" rx="0.5" stroke="#206F8A"/>
<path fill-rule="evenodd" clip-rule="evenodd" d="M1.24438 17.0904C0.441772 17.8892 0 18.9503 0 20.0787C0 21.2064 0.442139 22.2678 1.24512 23.0663L9.9939 31.7628C10.7965 32.5609 11.8641 33 13 33C14.1356 33 15.2028 32.5609 16.0061 31.7628L24.7556 23.0663C25.5579 22.2682 26.0004 21.2071 26 20.078C26.0004 18.9503 25.5586 17.8892 24.7556 17.0904C23.0977 15.4431 20.4008 15.4431 18.7434 17.0904L17.2511 18.5734L17.2515 4.22552C17.2511 1.89539 15.3442 0 13.0004 0C10.6561 0 8.74951 1.89539 8.74915 4.22552V18.5734L7.2572 17.0904C5.59961 15.4431 2.90271 15.4431 1.24438 17.0904ZM13.0004 1.69019C14.4066 1.69019 15.551 2.82703 15.5507 4.22552V22.6535L19.9467 18.2853C20.9408 17.2969 22.559 17.2976 23.553 18.2853C24.0349 18.7647 24.2998 19.4012 24.2998 20.0787C24.2998 20.7561 24.0349 21.3926 23.5533 21.8713L14.8042 30.5674C14.3223 31.0468 13.6812 31.3101 13.0004 31.3101C12.3187 31.3101 11.6787 31.0468 11.1962 30.5681L2.448 21.8713C1.9657 21.3926 1.70117 20.7554 1.70044 20.0787C1.70044 19.4012 1.96606 18.7647 2.44727 18.2853C3.44165 17.2969 5.05981 17.2969 6.0553 18.2853L10.45 22.6535L10.4496 4.22552C10.4493 2.82703 11.5934 1.69019 13.0004 1.69019Z" fill="#206F8A"/>
</svg>
