<svg width="36" height="37" viewBox="0 0 36 37" fill="none" xmlns="http://www.w3.org/2000/svg">
<path d="M6.51473 9H3.48527C3.2149 9 3 9.22143 3 9.5C3 9.77857 3.2149 10 3.48527 10H6.51473C6.7851 10 7 9.77857 7 9.5C7 9.22143 6.7851 9 6.51473 9Z" fill="#206F8A"/>
<path d="M14.4853 10H17.5147C17.7851 10 18 9.77857 18 9.5C18 9.22143 17.7851 9 17.5147 9H14.4853C14.2149 9 14 9.22143 14 9.5C14 9.77857 14.2218 10 14.4853 10Z" fill="#206F8A"/>
<path d="M12.5147 9H9.48527C9.2149 9 9 9.22143 9 9.5C9 9.77857 9.2149 10 9.48527 10H12.5147C12.7851 10 13 9.77857 13 9.5C13 9.22143 12.7782 9 12.5147 9Z" fill="#206F8A"/>
<path d="M6.51473 13H3.48527C3.2149 13 3 13.2214 3 13.5C3 13.7786 3.2149 14 3.48527 14H6.51473C6.7851 14 7 13.7786 7 13.5C7 13.2214 6.7851 13 6.51473 13Z" fill="#206F8A"/>
<path d="M14.4853 14H17.5147C17.7851 14 18 13.7786 18 13.5C18 13.2214 17.7851 13 17.5147 13H14.4853C14.2149 13 14 13.2214 14 13.5C14 13.7786 14.2218 14 14.4853 14Z" fill="#206F8A"/>
<path d="M12.5147 13H9.48527C9.2149 13 9 13.2214 9 13.5C9 13.7786 9.2149 14 9.48527 14H12.5147C12.7851 14 13 13.7786 13 13.5C13 13.2214 12.7782 13 12.5147 13Z" fill="#206F8A"/>
<path d="M6.51473 18H3.48527C3.2149 18 3 18.2214 3 18.5C3 18.7786 3.2149 19 3.48527 19H6.51473C6.7851 19 7 18.7786 7 18.5C7 18.2214 6.7851 18 6.51473 18Z" fill="#206F8A"/>
<path d="M14.4853 19H17.5147C17.7851 19 18 18.7786 18 18.5C18 18.2214 17.7851 18 17.5147 18H14.4853C14.2149 18 14 18.2214 14 18.5C14 18.7786 14.2218 19 14.4853 19Z" fill="#206F8A"/>
<path d="M12.5147 18H9.48527C9.2149 18 9 18.2214 9 18.5C9 18.7786 9.2149 19 9.48527 19H12.5147C12.7851 19 13 18.7786 13 18.5C13 18.2214 12.7782 18 12.5147 18Z" fill="#206F8A"/>
<path d="M6.51473 23H3.48527C3.2149 23 3 23.2214 3 23.5C3 23.7786 3.2149 24 3.48527 24H6.51473C6.7851 24 7 23.7786 7 23.5C7 23.2214 6.7851 23 6.51473 23Z" fill="#206F8A"/>
<path d="M12.5147 23H9.48527C9.2149 23 9 23.2214 9 23.5C9 23.7786 9.2149 24 9.48527 24H12.5147C12.7851 24 13 23.7786 13 23.5C13 23.2214 12.7782 23 12.5147 23Z" fill="#206F8A"/>
<path fill-rule="evenodd" clip-rule="evenodd" d="M22.1145 17.9581C23.3256 17.4237 24.6644 17.1302 26.071 17.1302C31.547 17.1302 36 21.5858 36 27.0651C36 32.5443 31.547 37 26.071 37C24.1078 37 22.28 36.428 20.738 35.442H0.526489C0.233154 35.442 0 35.2087 0 34.9152V4.77176C0 4.47824 0.233154 4.2449 0.526489 4.2449H2.87341V0.526855C2.87341 0.233307 3.10657 0 3.3999 0H18.7146C19.0079 0 19.2411 0.233307 19.2411 0.526855V4.2449H21.588C21.8813 4.2449 22.1145 4.47824 22.1145 4.77176V17.9581ZM18.188 1.05371H3.92639V4.24493H18.188V1.05371ZM14.5399 34.3883H7.22864V26.6436H14.5399V34.3883ZM15.593 26.1168V34.3883H19.369C17.3832 32.5669 16.1421 29.9628 16.1421 27.0651C16.1421 25.763 16.3978 24.5136 16.8567 23.3696H14.3519C14.0586 23.3696 13.8253 23.1363 13.8253 22.8427C13.8253 22.5492 14.0586 22.3159 14.3519 22.3159H17.3531C18.2181 20.7278 19.5044 19.4032 21.0614 18.4925V5.29861H1.0531V34.3883H6.16797V26.1168C6.16797 25.8232 6.40125 25.5899 6.69458 25.5899H15.0665C15.3599 25.5899 15.593 25.8232 15.593 26.1168ZM20.5801 34.0421V29.3682C20.5801 28.1715 21.5504 27.2006 22.7463 27.2006H23.288L25.0631 32.0551L24.8225 34.3206C24.7999 34.5163 24.8901 34.7119 25.0557 34.8173L25.8981 35.3743C25.9884 35.4345 26.0862 35.4646 26.184 35.4646C26.2892 35.4646 26.387 35.4345 26.4773 35.3743L27.2971 34.8173C27.4551 34.7044 27.5454 34.5163 27.5228 34.3206L27.2821 32.0551L29.0272 27.2006H29.3958C30.5918 27.2006 31.5621 28.1715 31.5621 29.3682V34.0421C30.0502 35.2388 28.1396 35.9538 26.071 35.9538C24.0026 35.9538 22.092 35.2313 20.5801 34.0421ZM26.1764 34.3055L26.4471 34.1249L26.1688 31.5508L25.8905 34.1174L26.1764 34.3055ZM26.3193 27.8478H25.9583L25.8003 27.3887H26.4697L26.3193 27.8478ZM32.6151 29.3682V33.0637C34.0669 31.4831 34.9469 29.3757 34.9395 27.0651C34.9395 22.1654 30.9603 18.1839 26.0635 18.1839C21.1667 18.1839 17.1876 22.1654 17.1876 27.0651C17.1876 29.3682 18.0752 31.4756 19.5194 33.0562V29.3607C19.5194 27.5844 20.9636 26.1393 22.7388 26.1393H23.6489C23.8746 26.1393 24.0702 26.2748 24.1454 26.4856L25.3113 29.6768L25.4016 28.8564C25.2587 28.8037 25.1383 28.6833 25.0857 28.5327L24.5742 27.02C24.5341 26.9145 24.5341 26.799 24.5675 26.6936C24.5842 26.641 24.6093 26.5909 24.6418 26.5458C24.6952 26.4719 24.7665 26.4136 24.8484 26.376C24.9165 26.3446 24.9919 26.3275 25.0706 26.3275L27.2068 26.3351C27.3799 26.3351 27.5378 26.4178 27.6356 26.5533C27.7334 26.6888 27.756 26.8694 27.7032 27.0275L27.1918 28.5327C27.1467 28.6682 27.0564 28.7736 26.936 28.8338L27.0264 29.6542L28.1621 26.4931C28.2373 26.2899 28.4329 26.1469 28.6586 26.1469H29.3958C31.1709 26.1469 32.6151 27.5919 32.6151 29.3682Z" fill="#206F8A"/>
<path fill-rule="evenodd" clip-rule="evenodd" d="M23 22.4322C23 20.5365 24.343 19 26 19C27.657 19 29 20.5365 29 22.4322V23.5678C29 25.4635 27.657 27 26 27C24.343 27 23 25.4635 23 23.5678V22.4322ZM26 25.8309C27.0875 25.8309 27.978 24.8121 27.978 23.5678V22.4322C27.978 21.1879 27.0875 20.1691 26 20.1691C24.9124 20.1691 24.0219 21.1879 24.0219 22.4322V23.5678C24.0219 24.8121 24.9124 25.8309 26 25.8309Z" fill="#206F8A"/>
</svg>
