<svg xmlns="http://www.w3.org/2000/svg" xmlns:xlink="http://www.w3.org/1999/xlink" version="1.1" x="0px" y="0px" viewBox="0 0 512 640" style="enable-background:new 0 0 512 512;" xml:space="preserve"><g><path d="M109.8,123.9H66.1c-3.9,0-7,3.1-7,7c0,3.9,3.1,7,7,7h43.7c3.9,0,7-3.1,7-7S113.7,123.9,109.8,123.9z"/><path d="M207.5,137.9h43.7c3.9,0,7-3.1,7-7s-3.1-7-7-7h-43.7c-3.9,0-7,3.1-7,7S203.7,137.9,207.5,137.9z"/><path d="M180.6,123.9h-43.7c-3.9,0-7,3.1-7,7c0,3.9,3.1,7,7,7h43.7c3.9,0,7-3.1,7-7S184.4,123.9,180.6,123.9z"/>
<path d="M109.8,184.8H66.1c-3.9,0-7,3.1-7,7s3.1,7,7,7h43.7c3.9,0,7-3.1,7-7S113.7,184.8,109.8,184.8z"/>
<path d="M207.5,198.8h43.7c3.9,0,7-3.1,7-7s-3.1-7-7-7h-43.7c-3.9,0-7,3.1-7,7S203.7,198.8,207.5,198.8z"/>
<path d="M180.6,184.8h-43.7c-3.9,0-7,3.1-7,7s3.1,7,7,7h43.7c3.9,0,7-3.1,7-7S184.4,184.8,180.6,184.8z"/>
<path d="M109.8,245.8H66.1c-3.9,0-7,3.1-7,7s3.1,7,7,7h43.7c3.9,0,7-3.1,7-7S113.7,245.8,109.8,245.8z"/>
<path d="M207.5,259.8h43.7c3.9,0,7-3.1,7-7s-3.1-7-7-7h-43.7c-3.9,0-7,3.1-7,7S203.7,259.8,207.5,259.8z"/>
<path d="M180.6,245.8h-43.7c-3.9,0-7,3.1-7,7s3.1,7,7,7h43.7c3.9,0,7-3.1,7-7S184.4,245.8,180.6,245.8z"/>
<path d="M109.8,306.7H66.1c-3.9,0-7,3.1-7,7s3.1,7,7,7h43.7c3.9,0,7-3.1,7-7S113.7,306.7,109.8,306.7z"/>
<path d="M180.6,306.7h-43.7c-3.9,0-7,3.1-7,7s3.1,7,7,7h43.7c3.9,0,7-3.1,7-7S184.4,306.7,180.6,306.7z"/>
<path d="M363.3,237.8c-18.7,0-36.5,3.9-52.6,11V73.6c0-3.9-3.1-7-7-7h-31.2V17.2c0-3.9-3.1-7-7-7H61.9c-3.9,0-7,3.1-7,7v49.4H23.7   c-3.9,0-7,3.1-7,7v400.5c0,3.9,3.1,7,7,7h268.7c20.5,13.1,44.8,20.7,70.9,20.7c72.8,0,132-59.2,132-132S436.1,237.8,363.3,237.8z    M68.9,24.2h189.6v42.4H68.9V24.2z M210,467.1h-97.2V364.2H210V467.1z M224,467.1V357.2c0-3.9-3.1-7-7-7H105.7c-3.9,0-7,3.1-7,7   v109.9h-68V80.6h266v175.3c-20.7,12.1-37.8,29.7-49.3,50.8h-39.9c-3.9,0-7,3.1-7,7s3.1,7,7,7h33.3c-6.1,15.2-9.5,31.8-9.5,49.1   c0,38.5,16.5,73.1,42.9,97.3H224z M290.3,462.5v-62.1c0-15.9,12.9-28.8,28.8-28.8h7.2l23.6,64.5l-3.2,30.1   c-0.3,2.6,0.9,5.2,3.1,6.6l11.2,7.4c1.2,0.8,2.5,1.2,3.8,1.2c1.4,0,2.7-0.4,3.9-1.2l10.9-7.4c2.1-1.5,3.3-4,3-6.6l-3.2-30.1   l23.2-64.5h4.9c15.9,0,28.8,12.9,28.8,28.8v62.1c-20.1,15.9-45.5,25.4-73,25.4S310.4,478.3,290.3,462.5z M368.3,463.6l-3.6,2.4   l-3.8-2.5l3.7-34.1L368.3,463.6z M366.6,380.2h-4.8l-2.1-6.1l8.9,0L366.6,380.2z M450.3,449.5v-49.1c0-23.6-19.2-42.8-42.8-42.8   h-9.8c-3,0-5.6,1.9-6.6,4.6l-15.1,42l-1.2-10.9c1.6-0.8,2.8-2.2,3.4-4l6.8-20c0.7-2.1,0.4-4.5-0.9-6.3c-1.3-1.8-3.4-2.9-5.7-2.9   l-28.4-0.1c-2.3,0-4.4,1.1-5.7,2.9s-1.7,4.2-0.9,6.3l6.8,20.1c0.7,2,2.3,3.6,4.2,4.3l-1.2,10.9l-15.5-42.4c-1-2.8-3.6-4.6-6.6-4.6   h-12.1c-23.6,0-42.8,19.2-42.8,42.8v49.1c-19.2-21-31-49-31-79.6c0-65.1,52.9-118,118-118s118,52.9,118,118   C481.3,400.5,469.6,428.5,450.3,449.5z"/><path d="M363.3,258.3c-22.7,0-41.1,18.4-41.1,41.1V313c0,22.7,18.4,41.1,41.1,41.1c22.7,0,41.1-18.4,41.1-41.1v-13.6   C404.4,276.7,386,258.3,363.3,258.3z M390.4,313c0,14.9-12.2,27.1-27.1,27.1l0,0c-14.9,0-27.1-12.2-27.1-27.1v-13.6   c0-14.9,12.2-27.1,27.1-27.1s27.1,12.2,27.1,27.1L390.4,313L390.4,313z"/>
</g>
</svg>
