<svg xmlns="http://www.w3.org/2000/svg" width="82" height="82" fill="none"><rect id="backgroundrect" width="100%" height="100%" x="0" y="0" fill="none" stroke="none"/>
 <defs>
<filter id="filter0_d" x="0.5" y="0.5" width="81" height="81" filterUnits="userSpaceOnUse" color-interpolation-filters="sRGB">
<feFlood flood-opacity="0" result="BackgroundImageFix"/>
<feColorMatrix in="SourceAlpha" type="matrix" values="0 0 0 0 0 0 0 0 0 0 0 0 0 0 0 0 0 0 127 0"/>
<feOffset/>
<feGaussianBlur stdDeviation="4"/>
<feColorMatrix type="matrix" values="0 0 0 0 0.12549 0 0 0 0 0.435294 0 0 0 0 0.541176 0 0 0 0.5 0"/>
<feBlend mode="normal" in2="BackgroundImageFix" result="effect1_dropShadow"/>
<feBlend mode="normal" in="SourceGraphic" in2="effect1_dropShadow" result="shape"/>
</filter>
</defs>
<g class="currentLayer" style=""><title>Layer 1</title><g filter="url(#filter0_d)" id="svg_1" class="">
<path fill-rule="evenodd" clip-rule="evenodd" d="M41 73C58.6731 73 73 58.6731 73 41C73 37.5827 72.4643 34.2905 71.4724 31.2028C67.3343 18.322 55.2558 9 41 9C23.3269 9 9 23.3269 9 41C9 58.6731 23.3269 73 41 73Z" fill="white" id="svg_2"/>
<path fill-rule="evenodd" clip-rule="evenodd" d="M41 73C58.6731 73 73 58.6731 73 41C73 37.5827 72.4643 34.2905 71.4724 31.2028C67.3343 18.322 55.2558 9 41 9C23.3269 9 9 23.3269 9 41C9 58.6731 23.3269 73 41 73Z" stroke="#206F8A" id="svg_3"/>
</g>
<g id="Mobile---Verification" stroke="none" stroke-width="1" fill="none" fill-rule="evenodd" class="">
        <g id="Verify---Identity" fill="#206F8A" fill-rule="nonzero">
            <g id="passport">
                <path d="M55.5054945,20 L26.494505489999995,20 C25.406593407000003,20 24.5,20.90973201700001 24.5,22.00141044 L24.5,60.9985896 C24.5,62.09026800000001 25.406593407000003,63 26.494505489999995,63 L55.5054945,63 C56.59340660000001,63 57.5,62.09026800000001 57.5,60.9985896 L57.5,22.00141044 C57.5,20.90973201700001 56.59340660000001,20 55.5054945,20 zM49.824175800000006,58.693935100000004 L32.175824180000006,58.693935100000004 C31.75274725,58.693935100000004 31.45054945000001,58.3300423 31.45054945000001,57.905500700000005 C31.75274725,53.90267979999999 34.532966999999985,50.5669958 38.2197802,49.4753173 C38.401098899999994,49.414668500000005 38.642857100000015,49.4753173 38.824175800000006,49.65726380000001 L40.5769231,51.416078999999996 C40.81868130000001,51.65867420000001 41.18131869999999,51.65867420000001 41.4230769,51.416078999999996 C41.90659339999999,50.9308886 42.752747299999996,50.08180540000001 43.175824199999994,49.65726380000001 C43.296703300000004,49.535966099999996 43.5384615,49.4753173 43.7802198,49.535966099999996 C47.467033,50.627644599999996 50.247252700000004,53.96332860000001 50.549450500000006,57.9661495 C50.549450500000006,58.3300423 50.247252700000004,58.693935100000004 49.824175800000006,58.693935100000004 zM36.7692308,41.46967559999999 C36.7692308,38.6191819 38.642857100000015,36.3145275 41,36.3145275 C43.3571429,36.3145275 45.2307692,38.6191819 45.2307692,41.46967559999999 C45.2307692,44.3201693 43.3571429,46.62482370000001 41,46.62482370000001 C38.642857100000015,46.62482370000001 36.7692308,44.3201693 36.7692308,41.46967559999999 zM50.3076923,32.8575458 L31.692307690000007,32.8575458 C31.02747253000001,32.8575458 30.48351647999999,32.31170660000001 30.48351647999999,31.6445698 C30.48351647999999,30.97743299999999 31.02747253000001,30.4315938 31.692307690000007,30.4315938 L50.36813190000001,30.4315938 C51.032967,30.4315938 51.5769231,30.97743299999999 51.5769231,31.6445698 C51.5769231,32.31170660000001 50.9725275,32.8575458 50.3076923,32.8575458 zM50.3076923,26.79266573000001 L31.692307690000007,26.79266573000001 C31.02747253000001,26.79266573000001 30.48351647999999,26.246826520000013 30.48351647999999,25.57968969999999 C30.48351647999999,24.91255289 31.02747253000001,24.366713680000004 31.692307690000007,24.366713680000004 L50.36813190000001,24.366713680000004 C51.032967,24.366713680000004 51.5769231,24.91255289 51.5769231,25.57968969999999 C51.5769231,26.246826520000013 50.9725275,26.79266573000001 50.3076923,26.79266573000001 z" id="Shape"/>
            </g>
        </g>
    </g>
</g>
</svg>