<svg xmlns="http://www.w3.org/2000/svg" xmlns:xlink="http://www.w3.org/1999/xlink" version="1.1" x="0px" y="0px" viewBox="0 0 64 80" enable-background="new 0 0 64 64" xml:space="preserve"><g><g><path d="M48,35H29V16c0-0.552-0.448-1-1-1C16.42,15,7,24.42,7,36c0,11.579,9.42,21,21,21c11.579,0,21-9.421,21-21    C49,35.447,48.553,35,48,35z M28,55C17.523,55,9,46.477,9,36c0-10.141,7.987-18.452,18-18.974V36c0,0.553,0.448,1,1,1h18.974    C46.452,47.014,38.141,55,28,55z"/><path d="M36,7c-0.553,0-1,0.448-1,1v20c0,0.552,0.447,1,1,1h20c0.553,0,1-0.448,1-1C57,16.42,47.579,7,36,7z M37,27V9.026    C46.682,9.531,54.469,17.318,54.974,27H37z"/><path d="M19,31h3c0.552,0,1-0.448,1-1s-0.448-1-1-1h-1v-1c0-0.552-0.448-1-1-1s-1,0.448-1,1v1c-2.206,0-4,1.794-4,4    c0,2.206,1.794,4,4,4c1.103,0,2,0.897,2,2s-0.897,2-2,2h-3c-0.552,0-1,0.447-1,1s0.448,1,1,1h3v1c0,0.553,0.448,1,1,1s1-0.447,1-1    v-1.557c1.19-0.693,2-1.969,2-3.443c0-2.206-1.794-4-4-4c-1.103,0-2-0.897-2-2C17,31.897,17.897,31,19,31z"/></g></g>
</svg>
