<svg xmlns="http://www.w3.org/2000/svg" xmlns:xlink="http://www.w3.org/1999/xlink" version="1.1" x="0px" y="0px" viewBox="0 0 100 125" enable-background="new 0 0 100 100" xml:space="preserve"><g display="none"><path display="inline" fill="#000000" stroke="#121212" stroke-width="0.2205" d="M100.277,90.38c0,5.176-4.199,9.375-9.377,9.375   H9.648c-5.176,0-9.375-4.199-9.375-9.375V9.126c0-5.176,4.199-9.375,9.375-9.375H90.9c5.178,0,9.377,4.199,9.377,9.375V90.38z"/><g display="inline"><g><path fill="#000000" d="M37.092,93.286c0,0.059-0.018,0.109-0.053,0.154c-0.035,0.043-0.094,0.08-0.176,0.109     s-0.194,0.051-0.338,0.066c-0.144,0.014-0.32,0.021-0.531,0.021c-0.217,0-0.397-0.008-0.541-0.021     c-0.144-0.016-0.256-0.037-0.338-0.066s-0.141-0.066-0.176-0.109c-0.035-0.045-0.053-0.096-0.053-0.154V86.94h-2.91v6.346     c0,0.059-0.018,0.109-0.053,0.154c-0.035,0.043-0.094,0.08-0.176,0.109s-0.194,0.051-0.338,0.066     c-0.144,0.014-0.324,0.021-0.541,0.021c-0.211,0-0.388-0.008-0.531-0.021c-0.144-0.016-0.258-0.037-0.343-0.066     s-0.144-0.066-0.176-0.109c-0.032-0.045-0.048-0.096-0.048-0.154V86.94h-0.984c-0.111,0-0.195-0.068-0.251-0.207     c-0.056-0.137-0.083-0.367-0.083-0.689c0-0.17,0.007-0.313,0.021-0.431s0.035-0.209,0.062-0.276s0.062-0.116,0.105-0.146     s0.095-0.044,0.153-0.044h0.977v-0.694c0-0.533,0.054-0.999,0.162-1.397s0.273-0.73,0.496-0.998     c0.223-0.266,0.504-0.465,0.844-0.598c0.34-0.131,0.742-0.197,1.205-0.197c0.129,0,0.259,0.006,0.391,0.018     s0.256,0.029,0.373,0.053s0.221,0.05,0.309,0.079s0.147,0.061,0.18,0.093s0.059,0.068,0.079,0.109s0.038,0.094,0.053,0.158     s0.024,0.148,0.03,0.25c0.006,0.104,0.01,0.23,0.01,0.383c0,0.281-0.017,0.479-0.049,0.594c-0.032,0.113-0.096,0.171-0.189,0.171     c-0.035,0-0.074-0.006-0.118-0.018s-0.097-0.026-0.158-0.044s-0.134-0.033-0.216-0.049c-0.082-0.014-0.184-0.021-0.307-0.021     c-0.311,0-0.537,0.105-0.678,0.316s-0.211,0.56-0.211,1.046v0.747h4.447c0.223,0,0.391,0.049,0.502,0.145     c0.111,0.098,0.166,0.251,0.166,0.462V93.286z M37.26,82.81c0,0.217-0.02,0.4-0.058,0.549c-0.038,0.15-0.104,0.271-0.198,0.361     s-0.221,0.155-0.382,0.193S36.26,83.97,36.02,83.97s-0.441-0.019-0.605-0.057s-0.295-0.103-0.392-0.193s-0.164-0.211-0.202-0.361     c-0.038-0.148-0.057-0.332-0.057-0.549c0-0.211,0.019-0.39,0.057-0.536s0.105-0.267,0.202-0.36s0.228-0.161,0.392-0.202     s0.365-0.062,0.605-0.062s0.441,0.021,0.603,0.062s0.288,0.108,0.382,0.202s0.16,0.214,0.198,0.36S37.26,82.599,37.26,82.81z"/><path fill="#000000" d="M43.94,92.513c0,0.258-0.017,0.456-0.048,0.594c-0.033,0.138-0.075,0.234-0.128,0.289     c-0.053,0.057-0.13,0.105-0.233,0.15c-0.102,0.043-0.223,0.081-0.359,0.113c-0.139,0.032-0.287,0.058-0.449,0.075     c-0.16,0.018-0.323,0.026-0.487,0.026c-0.439,0-0.82-0.056-1.143-0.167s-0.589-0.282-0.8-0.515     c-0.211-0.23-0.366-0.522-0.466-0.874s-0.149-0.768-0.149-1.248V86.94h-0.94c-0.111,0-0.196-0.068-0.255-0.207     c-0.059-0.137-0.088-0.367-0.088-0.689c0-0.17,0.008-0.313,0.021-0.431c0.016-0.117,0.037-0.209,0.066-0.276     s0.066-0.116,0.109-0.146c0.045-0.029,0.096-0.044,0.154-0.044h0.932v-1.749c0-0.059,0.016-0.111,0.049-0.158     c0.031-0.047,0.09-0.086,0.176-0.118c0.084-0.032,0.199-0.056,0.342-0.07c0.145-0.015,0.321-0.022,0.532-0.022     c0.217,0,0.397,0.008,0.54,0.022c0.145,0.015,0.257,0.038,0.339,0.07s0.141,0.071,0.176,0.118s0.053,0.1,0.053,0.158v1.749h1.705     c0.059,0,0.11,0.015,0.153,0.044c0.045,0.029,0.081,0.078,0.11,0.146s0.052,0.159,0.065,0.276     c0.016,0.117,0.022,0.261,0.022,0.431c0,0.322-0.029,0.553-0.088,0.689c-0.059,0.139-0.144,0.207-0.255,0.207h-1.714v3.683     c0,0.428,0.067,0.749,0.202,0.962c0.135,0.215,0.375,0.321,0.721,0.321c0.117,0,0.223-0.01,0.316-0.03s0.178-0.045,0.25-0.07     c0.074-0.027,0.135-0.05,0.186-0.07c0.049-0.021,0.095-0.031,0.136-0.031c0.035,0,0.069,0.011,0.101,0.031     c0.033,0.021,0.058,0.061,0.075,0.123c0.018,0.061,0.034,0.145,0.048,0.25C43.934,92.214,43.94,92.349,43.94,92.513z"/><path fill="#000000" d="M53.039,93.286c0,0.059-0.018,0.109-0.053,0.154c-0.035,0.043-0.094,0.08-0.176,0.109     s-0.195,0.051-0.338,0.066c-0.145,0.014-0.321,0.021-0.532,0.021c-0.217,0-0.397-0.008-0.54-0.021     c-0.145-0.016-0.257-0.037-0.339-0.066s-0.141-0.066-0.176-0.109c-0.035-0.045-0.053-0.096-0.053-0.154v-4.474     c0-0.381-0.028-0.68-0.083-0.896c-0.057-0.217-0.137-0.402-0.242-0.558s-0.242-0.275-0.408-0.361     c-0.168-0.084-0.362-0.127-0.585-0.127c-0.281,0-0.565,0.103-0.853,0.308s-0.586,0.504-0.896,0.896v5.212     c0,0.059-0.018,0.109-0.053,0.154c-0.035,0.043-0.096,0.08-0.18,0.109c-0.086,0.029-0.198,0.051-0.339,0.066     c-0.141,0.014-0.319,0.021-0.536,0.021s-0.396-0.008-0.536-0.021c-0.141-0.016-0.253-0.037-0.339-0.066     c-0.084-0.029-0.145-0.066-0.18-0.109c-0.035-0.045-0.053-0.096-0.053-0.154v-7.84c0-0.059,0.015-0.109,0.044-0.154     c0.029-0.043,0.082-0.08,0.158-0.109s0.175-0.051,0.294-0.066c0.121-0.014,0.271-0.021,0.453-0.021     c0.188,0,0.343,0.008,0.466,0.021c0.123,0.016,0.218,0.037,0.286,0.066c0.066,0.029,0.115,0.066,0.145,0.109     c0.029,0.045,0.044,0.096,0.044,0.154v0.905c0.434-0.469,0.874-0.82,1.323-1.055c0.447-0.234,0.915-0.352,1.401-0.352     c0.533,0,0.983,0.088,1.349,0.264c0.367,0.176,0.662,0.415,0.889,0.716c0.225,0.303,0.388,0.655,0.487,1.06     s0.149,0.891,0.149,1.459V93.286z"/><path fill="#000000" d="M62.369,89.138c0,0.27-0.061,0.469-0.18,0.598c-0.121,0.129-0.286,0.193-0.497,0.193H56.92     c0,0.334,0.039,0.637,0.119,0.91c0.078,0.271,0.205,0.504,0.377,0.693c0.174,0.191,0.396,0.336,0.668,0.436     c0.273,0.1,0.6,0.149,0.98,0.149c0.387,0,0.727-0.027,1.02-0.083s0.547-0.117,0.76-0.186c0.215-0.066,0.392-0.128,0.532-0.184     s0.255-0.084,0.343-0.084c0.053,0,0.097,0.011,0.132,0.031s0.064,0.057,0.088,0.109s0.04,0.127,0.048,0.225     C61.996,92.042,62,92.164,62,92.311c0,0.129-0.003,0.239-0.009,0.329c-0.006,0.092-0.015,0.169-0.026,0.233     s-0.029,0.118-0.053,0.163c-0.023,0.043-0.055,0.086-0.092,0.127c-0.039,0.041-0.143,0.097-0.312,0.167s-0.387,0.14-0.65,0.206     c-0.264,0.067-0.565,0.126-0.905,0.176s-0.703,0.075-1.09,0.075c-0.697,0-1.308-0.088-1.833-0.264     c-0.523-0.176-0.962-0.442-1.313-0.8s-0.614-0.809-0.786-1.354c-0.174-0.545-0.26-1.184-0.26-1.916     c0-0.697,0.091-1.325,0.272-1.885s0.445-1.034,0.791-1.424s0.767-0.688,1.261-0.893c0.496-0.205,1.054-0.308,1.675-0.308     c0.656,0,1.218,0.097,1.683,0.29c0.467,0.193,0.849,0.461,1.147,0.805c0.299,0.342,0.519,0.748,0.659,1.217     s0.211,0.979,0.211,1.529V89.138z M60.225,88.505c0.018-0.621-0.107-1.108-0.373-1.463c-0.268-0.354-0.679-0.532-1.235-0.532     c-0.281,0-0.526,0.053-0.733,0.158c-0.209,0.105-0.381,0.248-0.52,0.427c-0.137,0.179-0.242,0.39-0.316,0.633     c-0.072,0.243-0.115,0.502-0.127,0.777H60.225z"/><path fill="#000000" d="M69.68,91.071c0,0.445-0.084,0.838-0.251,1.178s-0.403,0.624-0.708,0.853s-0.664,0.399-1.08,0.515     c-0.416,0.113-0.867,0.171-1.354,0.171c-0.293,0-0.573-0.022-0.84-0.065c-0.267-0.045-0.506-0.101-0.717-0.168     c-0.211-0.066-0.387-0.136-0.527-0.206s-0.242-0.136-0.307-0.198c-0.064-0.061-0.115-0.158-0.15-0.289     c-0.035-0.133-0.053-0.327-0.053-0.585c0-0.17,0.006-0.306,0.018-0.409c0.012-0.102,0.029-0.184,0.053-0.246     c0.023-0.061,0.053-0.102,0.088-0.123c0.035-0.02,0.08-0.03,0.133-0.03c0.064,0,0.159,0.037,0.285,0.11s0.283,0.153,0.471,0.241     s0.405,0.17,0.654,0.246s0.531,0.114,0.848,0.114c0.199,0,0.377-0.021,0.532-0.062s0.29-0.1,0.404-0.176s0.2-0.173,0.259-0.29     s0.088-0.252,0.088-0.404c0-0.176-0.054-0.326-0.162-0.453c-0.108-0.125-0.252-0.235-0.431-0.329s-0.381-0.182-0.606-0.264     s-0.457-0.173-0.694-0.272s-0.469-0.214-0.694-0.343s-0.428-0.287-0.606-0.475s-0.322-0.413-0.431-0.677s-0.162-0.58-0.162-0.949     c0-0.375,0.072-0.719,0.219-1.033c0.146-0.312,0.357-0.581,0.633-0.804s0.611-0.396,1.007-0.519s0.839-0.185,1.331-0.185     c0.246,0,0.485,0.018,0.717,0.053s0.441,0.079,0.629,0.132s0.346,0.109,0.475,0.172c0.129,0.061,0.221,0.113,0.276,0.158     c0.056,0.043,0.095,0.088,0.118,0.131c0.023,0.045,0.041,0.098,0.053,0.158c0.012,0.062,0.022,0.139,0.031,0.229     c0.009,0.092,0.014,0.204,0.014,0.339c0,0.158-0.005,0.287-0.014,0.387s-0.023,0.179-0.044,0.237s-0.048,0.099-0.083,0.119     s-0.076,0.03-0.123,0.03c-0.053,0-0.135-0.03-0.246-0.093c-0.111-0.061-0.251-0.127-0.418-0.197s-0.36-0.137-0.58-0.197     c-0.22-0.062-0.471-0.093-0.752-0.093c-0.199,0-0.371,0.021-0.518,0.062s-0.268,0.1-0.361,0.176s-0.164,0.166-0.211,0.268     c-0.047,0.104-0.07,0.213-0.07,0.33c0,0.182,0.057,0.334,0.168,0.457s0.258,0.231,0.439,0.325s0.388,0.182,0.619,0.264     s0.466,0.171,0.703,0.269c0.237,0.096,0.472,0.209,0.703,0.338s0.438,0.287,0.619,0.475s0.328,0.412,0.439,0.672     C69.623,90.405,69.68,90.714,69.68,91.071z"/><path fill="#000000" d="M76.854,91.071c0,0.445-0.084,0.838-0.251,1.178s-0.403,0.624-0.708,0.853s-0.664,0.399-1.08,0.515     c-0.416,0.113-0.867,0.171-1.354,0.171c-0.293,0-0.573-0.022-0.84-0.065c-0.267-0.045-0.506-0.101-0.717-0.168     c-0.211-0.066-0.387-0.136-0.527-0.206s-0.242-0.136-0.307-0.198c-0.064-0.061-0.115-0.158-0.15-0.289     c-0.035-0.133-0.053-0.327-0.053-0.585c0-0.17,0.006-0.306,0.018-0.409c0.012-0.102,0.029-0.184,0.053-0.246     c0.023-0.061,0.053-0.102,0.088-0.123c0.035-0.02,0.08-0.03,0.133-0.03c0.064,0,0.159,0.037,0.285,0.11s0.283,0.153,0.471,0.241     s0.405,0.17,0.654,0.246s0.531,0.114,0.848,0.114c0.199,0,0.377-0.021,0.532-0.062s0.29-0.1,0.404-0.176s0.2-0.173,0.259-0.29     s0.088-0.252,0.088-0.404c0-0.176-0.054-0.326-0.162-0.453c-0.108-0.125-0.252-0.235-0.431-0.329s-0.381-0.182-0.606-0.264     s-0.457-0.173-0.694-0.272s-0.469-0.214-0.694-0.343s-0.428-0.287-0.606-0.475s-0.322-0.413-0.431-0.677s-0.162-0.58-0.162-0.949     c0-0.375,0.072-0.719,0.219-1.033c0.146-0.312,0.357-0.581,0.633-0.804s0.611-0.396,1.007-0.519s0.839-0.185,1.331-0.185     c0.246,0,0.485,0.018,0.717,0.053s0.441,0.079,0.629,0.132s0.346,0.109,0.475,0.172c0.129,0.061,0.221,0.113,0.276,0.158     c0.056,0.043,0.095,0.088,0.118,0.131c0.023,0.045,0.041,0.098,0.053,0.158c0.012,0.062,0.022,0.139,0.031,0.229     c0.009,0.092,0.014,0.204,0.014,0.339c0,0.158-0.005,0.287-0.014,0.387s-0.023,0.179-0.044,0.237s-0.048,0.099-0.083,0.119     s-0.076,0.03-0.123,0.03c-0.053,0-0.135-0.03-0.246-0.093c-0.111-0.061-0.251-0.127-0.418-0.197s-0.36-0.137-0.58-0.197     c-0.22-0.062-0.471-0.093-0.752-0.093c-0.199,0-0.371,0.021-0.518,0.062s-0.268,0.1-0.361,0.176s-0.164,0.166-0.211,0.268     c-0.047,0.104-0.07,0.213-0.07,0.33c0,0.182,0.057,0.334,0.168,0.457s0.258,0.231,0.439,0.325s0.388,0.182,0.619,0.264     s0.466,0.171,0.703,0.269c0.237,0.096,0.472,0.209,0.703,0.338s0.438,0.287,0.619,0.475s0.328,0.412,0.439,0.672     C76.797,90.405,76.854,90.714,76.854,91.071z"/></g></g></g><g><g><path d="M30.194,53.081c0.089,0.062,0.19,0.095,0.293,0.095c0.127,0,0.25-0.047,0.348-0.138c1.354-1.253,2.104-1.566,3.58-1.946    c0.273-0.068,0.44-0.345,0.371-0.617c-0.067-0.273-0.345-0.438-0.617-0.371c-0.887,0.216-1.614,0.464-2.348,0.891    c0.076-0.16,0.15-0.319,0.224-0.481c0.114-0.256,0-0.56-0.256-0.673c-0.258-0.117-0.56-0.003-0.675,0.255    c-0.348,0.77-0.745,1.563-1.095,2.366C29.925,52.685,29.995,52.941,30.194,53.081z"/><path d="M45.94,60.4l-11.617-7.265c-0.239-0.151-0.555-0.077-0.702,0.162c-0.15,0.238-0.078,0.555,0.161,0.702l11.619,7.265    c0.082,0.055,0.177,0.079,0.269,0.079c0.171,0,0.336-0.085,0.433-0.239C46.253,60.867,46.181,60.551,45.94,60.4z"/><ellipse transform="matrix(-0.5295 0.8483 -0.8483 -0.5295 106.7685 38.4761)" cx="42.714" cy="48.848" rx="0.839" ry="0.888"/><path d="M38.42,51.978l2.033-1.376l-1.197,1.738c-0.073,0.105-0.202,0.273-0.288,0.371l1.889,1.181    c0.052-0.118,0.145-0.307,0.21-0.421l1.074-1.904l-0.358,2.514c-0.026,0.182,0.104,0.356,0.291,0.391    c0.188,0.035,0.362-0.082,0.389-0.262l0.498-3.51c0.01-0.035,0.016-0.068,0.015-0.104l0.006-0.036    c-0.002,0.001-0.005,0-0.006,0.002c-0.008-0.074-0.038-0.151-0.087-0.205c0,0-0.362-0.397-0.729-0.623    c-0.36-0.227-0.876-0.38-0.876-0.38c-0.07-0.02-0.148-0.015-0.22,0.012c0-0.003-0.001-0.004-0.001-0.008l-0.03,0.021    c-0.033,0.015-0.062,0.035-0.09,0.06l-2.935,1.982c-0.149,0.104-0.181,0.314-0.068,0.466C38.054,52.039,38.269,52.08,38.42,51.978    z"/><path d="M43.497,64.91l-11.886-7.436c-0.24-0.15-0.554-0.077-0.704,0.162c-0.148,0.237-0.076,0.553,0.163,0.703l11.886,7.435    c0.084,0.054,0.178,0.078,0.271,0.078c0.168,0,0.336-0.085,0.433-0.24C43.809,65.374,43.735,65.061,43.497,64.91z"/><path d="M27.93,57.706c0.302,0.186,0.646,0.286,0.999,0.286c0.657,0,1.254-0.332,1.603-0.887c0.552-0.883,0.282-2.05-0.599-2.602    c-0.301-0.191-0.646-0.289-1-0.289h-0.001c-0.656,0-1.256,0.332-1.601,0.888C26.777,55.984,27.046,57.152,27.93,57.706z     M28.195,55.644c0.165-0.264,0.446-0.408,0.737-0.408c0.155,0,0.313,0.043,0.457,0.133c0.407,0.253,0.531,0.791,0.276,1.196    c-0.165,0.265-0.446,0.407-0.737,0.407c-0.155,0-0.315-0.042-0.458-0.131C28.064,56.586,27.94,56.05,28.195,55.644z"/><path d="M40.763,69.286l-11.886-7.438c-0.24-0.148-0.554-0.076-0.704,0.162c-0.148,0.239-0.077,0.554,0.163,0.703l11.886,7.435    c0.084,0.054,0.177,0.079,0.269,0.079c0.171,0,0.338-0.086,0.436-0.24C41.073,69.749,41.001,69.435,40.763,69.286z"/><path d="M27.797,61.478c0.268-0.426,0.352-0.932,0.237-1.424c-0.112-0.49-0.41-0.909-0.837-1.176    c-0.302-0.188-0.648-0.287-1.001-0.287c-0.654,0-1.252,0.332-1.602,0.884c-0.55,0.883-0.281,2.051,0.599,2.604    c0.303,0.19,0.647,0.288,1.002,0.288C26.852,62.366,27.45,62.036,27.797,61.478z M25.459,60.017    c0.165-0.263,0.448-0.407,0.737-0.407c0.157,0,0.316,0.045,0.46,0.133c0.406,0.255,0.53,0.791,0.274,1.197    c-0.163,0.264-0.446,0.408-0.735,0.408c-0.158,0-0.316-0.043-0.459-0.133C25.329,60.96,25.206,60.424,25.459,60.017z"/><path d="M38.028,73.66l-11.888-7.435c-0.237-0.147-0.552-0.077-0.702,0.164c-0.147,0.237-0.077,0.553,0.163,0.701l11.886,7.434    c0.086,0.054,0.179,0.079,0.27,0.079c0.171,0,0.338-0.086,0.434-0.24C38.34,74.125,38.268,73.811,38.028,73.66z"/><path d="M25.669,34.655c4.365,0,7.904-3.54,7.904-7.906c0-4.364-3.539-7.903-7.904-7.903s-7.903,3.539-7.903,7.903    C17.766,31.115,21.304,34.655,25.669,34.655z M25.669,19.864c3.796,0,6.886,3.09,6.886,6.885c0,3.798-3.09,6.885-6.886,6.885    c-3.797,0-6.884-3.087-6.884-6.885C18.785,22.954,21.872,19.864,25.669,19.864z"/><path d="M47.717,64.154l5.875-9.399c0.28-0.449,0.415-0.949,0.414-1.444c0.002-0.907-0.456-1.801-1.28-2.317l-15.005-9.385    l-0.379-0.853c-0.097-0.362-0.252-0.704-0.458-1.022c-0.011-0.018-0.045-0.077-0.083-0.135c-0.023-0.039-0.044-0.072-0.067-0.107    c-0.012-0.018-0.021-0.032-0.037-0.054c-0.01-0.013-0.019-0.024-0.041-0.049c-0.001-0.001-0.002-0.002-0.003-0.005    c-0.498-0.625-1.178-1.128-1.967-1.347c-0.021-0.005-4.965-1.4-9.144-1.405c-4.175,0.005-9.122,1.4-9.145,1.405    c-0.718,0.206-1.358,0.646-1.847,1.212c-0.087,0.048-0.162,0.121-0.211,0.217l-0.134,0.255c-0.001,0.001-0.004,0.008-0.004,0.008    c-0.15,0.238-0.312,0.506-0.425,0.816L5.956,55.57C5.646,56.187,5.5,56.844,5.5,57.491c-0.001,1.276,0.57,2.525,1.625,3.359    l7.524,5.956c-0.03,2.008-0.062,3.938-0.096,5.542c-0.007,0.362-0.014,0.704-0.021,1.03h1.019    c0.036-1.585,0.073-3.613,0.104-5.773l1.283,1.016c0.044,0.862,0.48,1.691,1.267,2.184l15.914,9.953    c0.449,0.28,0.951,0.415,1.445,0.415c0.907,0.001,1.8-0.455,2.316-1.283l4.983-7.974l1.081,2.439    c0.62,1.405,2.039,2.232,3.522,2.232c0.484,0,0.979-0.089,1.455-0.273c1.465-0.572,2.367-1.929,2.367-3.367    c0-0.468-0.097-0.944-0.295-1.398L47.717,64.154z M7.759,60.052c-0.805-0.639-1.238-1.588-1.238-2.561    c0-0.494,0.111-0.991,0.345-1.458l8.233-15.815c0.014-0.025,0.034-0.058,0.055-0.091c0.014-0.02,0.024-0.037,0.034-0.052    c0.013-0.014,0.028-0.028,0.039-0.043c0.372-0.482,0.91-0.862,1.449-1.015c0,0,0.296-0.082,0.817-0.21    c1.558-0.387,5.078-1.157,8.049-1.155c1.979,0,4.208,0.341,5.931,0.684c0.863,0.172,1.6,0.342,2.12,0.472    c0.521,0.128,0.818,0.211,0.819,0.211c0.554,0.151,1.08,0.533,1.462,1.026c0.005,0.006,0.009,0.011,0.013,0.018    c0.017,0.021,0.043,0.063,0.065,0.1c0.031,0.053,0.058,0.098,0.058,0.098l0.011,0.019c0.11,0.169,0.192,0.346,0.26,0.525    c-0.301-0.107-0.607-0.181-0.916-0.18c-0.907-0.001-1.799,0.455-2.316,1.283L21.116,61l-5.321-4.215    c0.006-0.565,0.011-1.086,0.014-1.551l2.409-4.197c0.14-0.244,0.055-0.556-0.188-0.696c-0.244-0.139-0.556-0.055-0.696,0.189    c0,0-2.538,4.289-2.541,4.427l-0.702,1.228c-0.126,0.218-0.072,0.495,0.127,0.652l8.574,6.788    c0.814,0.646,1.236,1.597,1.236,2.562c0,0.709-0.23,1.421-0.705,2.022c-0.646,0.814-1.596,1.237-2.561,1.238    c-0.711-0.001-1.422-0.229-2.024-0.707L7.759,60.052z M37.015,79.351c-0.323,0.52-0.879,0.801-1.449,0.802    c-0.311,0-0.621-0.082-0.904-0.26l-15.8-9.881c0.603,0.3,1.252,0.457,1.9,0.457h0.002c1.261,0,2.514-0.559,3.36-1.625    c0.62-0.785,0.925-1.728,0.924-2.656c0.001-1.264-0.558-2.518-1.625-3.36l-1.503-1.19l11.994-19.188    c0.324-0.521,0.879-0.803,1.45-0.803c0.311,0,0.622,0.081,0.905,0.259l15.914,9.953c0.519,0.324,0.801,0.881,0.801,1.453    c0,0.309-0.081,0.621-0.259,0.904L37.015,79.351z M48.555,75.363c-0.357,0.14-0.724,0.206-1.086,0.206    c-1.11,0-2.152-0.621-2.591-1.624l-1.36-3.072l3.547-5.675l2.997,6.763c0.144,0.322,0.21,0.657,0.21,0.986    C50.27,73.959,49.64,74.938,48.555,75.363z"/><path d="M71.515,34.197c4.251,0,7.696-3.436,7.696-7.681c0-4.248-3.445-7.689-7.696-7.689c-4.238,0-7.683,3.441-7.683,7.689    C63.832,30.762,67.276,34.197,71.515,34.197z"/><path d="M94.27,69.427L81.83,39.716c-0.081-0.311-0.208-0.618-0.38-0.899c0,0-0.146-0.27-0.158-0.257    c-0.401-0.537-0.954-0.979-1.57-1.155c0,0-4.494-1.328-8.207-1.328c-3.699,0-8.193,1.328-8.193,1.328    c-0.608,0.177-1.162,0.604-1.563,1.143c-0.014-0.012-0.165,0.27-0.165,0.27c-0.173,0.281-0.305,0.589-0.38,0.899l-7.695,30.668    c-0.645,1.534,0.082,3.305,1.625,3.94c1.534,0.638,3.354,0.524,3.939-1.627l3.209-14.836c0,0-0.553,10.219-0.839,15.518h20.081    c-0.253-6.551-1.019-21.197-1.019-21.197l8.188,19.555c0.323,0.781,0.94,1.354,1.67,1.643h2.099v0.048    c0.057-0.021,0.116-0.04,0.173-0.062C94.179,72.724,94.905,70.958,94.27,69.427z"/></g></g><text x="0" y="115" fill="#000000" font-size="5px" font-weight="bold" font-family="'Helvetica Neue', Helvetica, Arial-Unicode, Arial, Sans-serif">Created by Dirk-Pieter van Walsum</text><text x="0" y="120" fill="#000000" font-size="5px" font-weight="bold" font-family="'Helvetica Neue', Helvetica, Arial-Unicode, Arial, Sans-serif">from the Noun Project</text></svg>