<svg xmlns:dc="http://purl.org/dc/elements/1.1/" xmlns:cc="http://creativecommons.org/ns#" xmlns:rdf="http://www.w3.org/1999/02/22-rdf-syntax-ns#" xmlns:svg="http://www.w3.org/2000/svg" xmlns="http://www.w3.org/2000/svg" xmlns:sodipodi="http://sodipodi.sourceforge.net/DTD/sodipodi-0.dtd" xmlns:inkscape="http://www.inkscape.org/namespaces/inkscape" viewBox="0 0 32 40.00000125" version="1.1" x="0px" y="0px"><g transform="translate(0,-1020.3622)"><path style="color:#000000;font-style:normal;font-variant:normal;font-weight:normal;font-stretch:normal;font-size:medium;line-height:normal;font-family:sans-serif;text-indent:0;text-align:start;text-decoration:none;text-decoration-line:none;text-decoration-style:solid;text-decoration-color:#000000;letter-spacing:normal;word-spacing:normal;text-transform:none;direction:ltr;block-progression:tb;writing-mode:lr-tb;baseline-shift:baseline;text-anchor:start;white-space:normal;clip-rule:nonzero;display:inline;overflow:visible;visibility:visible;opacity:1;isolation:auto;mix-blend-mode:normal;color-interpolation:sRGB;color-interpolation-filters:linearRGB;solid-color:#000000;solid-opacity:1;fill:#000000;fill-opacity:1;fill-rule:nonzero;stroke:none;stroke-width:1;stroke-linecap:round;stroke-linejoin:round;stroke-miterlimit:4;stroke-dasharray:none;stroke-dashoffset:1.5;stroke-opacity:1;color-rendering:auto;image-rendering:auto;shape-rendering:auto;text-rendering:auto;enable-background:accumulate" d="M 6.4960938 2 C 6.2199628 2 5.9961213 2.2239 5.9960938 2.5 L 5.9960938 8.4921875 C 5.9865338 9.1683875 7.0056563 9.1683875 6.9960938 8.4921875 L 6.9960938 3 L 20.996094 3 L 20.996094 6.5019531 A 0.50005 0.50005 0 0 0 21.496094 7.0019531 L 24.996094 7.0019531 L 24.996094 9.4941406 L 24.996094 9.5898438 C 24.986494 10.266044 26.005657 10.266044 25.996094 9.5898438 L 25.996094 9.4941406 L 25.996094 6.5332031 C 25.996126 6.5304152 25.994153 6.528168 25.994141 6.5253906 A 0.50005 0.50005 0 0 0 25.849609 6.1484375 L 21.849609 2.1484375 A 0.50005 0.50005 0 0 0 21.488281 2.0019531 A 0.50005 0.50005 0 0 0 21.398438 2.0097656 C 21.377688 2.0079332 21.362053 1.9996847 21.339844 2 L 6.4960938 2 z M 21.996094 3.7089844 L 24.289062 6.0019531 L 21.996094 6.0019531 L 21.996094 3.7089844 z M 9.4453125 5.0019531 A 0.50064427 0.50064427 0 1 0 9.4960938 6.0019531 L 10.496094 6.0019531 A 0.50005 0.50005 0 1 0 10.496094 5.0019531 L 9.4960938 5.0019531 A 0.50005 0.50005 0 0 0 9.4453125 5.0019531 z M 12.460938 5.0019531 A 0.50064426 0.50064426 0 1 0 12.511719 6.0019531 L 16.488281 6.0019531 A 0.50005 0.50005 0 1 0 16.488281 5.0019531 L 12.511719 5.0019531 A 0.50005 0.50005 0 0 0 12.460938 5.0019531 z M 9.4453125 7.0019531 A 0.50064427 0.50064427 0 1 0 9.4960938 8.0019531 L 10.496094 8.0019531 A 0.50005 0.50005 0 1 0 10.496094 7.0019531 L 9.4960938 7.0019531 A 0.50005 0.50005 0 0 0 9.4453125 7.0019531 z M 12.460938 7.0019531 A 0.50064426 0.50064426 0 1 0 12.511719 8.0019531 L 16.488281 8.0019531 A 0.50005 0.50005 0 1 0 16.488281 7.0019531 L 12.511719 7.0019531 A 0.50005 0.50005 0 0 0 12.460938 7.0019531 z M 27.455078 8.4003906 A 0.50005 0.50005 0 0 0 27.505859 9.4003906 L 27.775391 9.4003906 L 24.371094 12.914062 L 20.675781 11.478516 A 0.50005 0.50005 0 0 0 20.203125 11.537109 L 15.207031 15.09375 A 0.50005 0.50005 0 1 0 15.785156 15.908203 L 20.564453 12.509766 L 24.318359 13.966797 A 0.50005 0.50005 0 0 0 24.859375 13.849609 L 28.5 10.091797 L 28.5 10.394531 A 0.50005 0.50005 0 1 0 29.5 10.394531 L 29.5 8.9003906 A 0.50005 0.50005 0 0 0 29 8.4003906 L 27.505859 8.4003906 A 0.50005 0.50005 0 0 0 27.455078 8.4003906 z M 13.488281 8.9941406 A 0.50004997 0.50004997 0 0 0 12.996094 9.5 L 12.996094 22.5 A 0.50004997 0.50004997 0 0 0 13.341797 22.974609 A 0.50004997 0.50004997 0 0 0 13.390625 22.988281 A 0.50004997 0.50004997 0 0 0 13.490234 23 A 0.50004997 0.50004997 0 0 0 13.496094 23 L 30.496094 23 A 0.50004997 0.50004997 0 1 0 30.496094 22 L 29.996094 22 L 29.996094 12.5 A 0.50005 0.50005 0 0 0 29.496094 12 L 27.496094 12 A 0.50005 0.50005 0 0 0 26.996094 12.5 L 26.996094 22 L 25.996094 22 L 25.996094 15.5 A 0.50004997 0.50004997 0 0 0 25.496094 15 L 23.496094 15 A 0.50004997 0.50004997 0 0 0 22.996094 15.5 L 22.996094 22 L 21.996094 22 L 21.996094 14.498047 A 0.50005 0.50005 0 0 0 21.496094 13.998047 L 19.496094 13.998047 A 0.50005 0.50005 0 0 0 18.996094 14.498047 L 18.996094 22 L 17.996094 22 L 17.996094 17.5 A 0.50005 0.50005 0 0 0 17.496094 17 L 15.496094 17 A 0.50005 0.50005 0 0 0 14.996094 17.5 L 14.996094 22 L 13.996094 22 L 13.996094 9.5 A 0.50004997 0.50004997 0 0 0 13.488281 8.9941406 z M 6.9160156 9.9316406 L 6.8867188 10.396484 C 6.8869545 10.396484 6.9046186 10.37725 6.8691406 10.40625 C 6.8347856 10.43025 6.7531752 10.458844 6.6894531 10.464844 L 5.609375 10.464844 C 4.7209809 10.464844 3.9960937 11.20395 3.9960938 12.09375 L 3.9960938 13.097656 C 3.9960937 13.097656 3.9980069 13.107375 3.9980469 13.109375 C 3.9978552 13.109375 3.9960938 13.121094 3.9960938 13.121094 L 3.9960938 13.519531 A 0.50005 0.50005 0 0 0 3.9960938 13.632812 L 3.9960938 14.474609 C 3.9960937 15.038379 4.1869123 15.555859 4.4980469 15.978516 L 4.4980469 16.947266 L 2.1582031 18.287109 C 1.4399466 18.698909 0.99804688 19.466322 0.99804688 20.294922 L 0.99804688 23.001953 L 12 23.001953 L 12 20.248047 C 12 19.449447 11.571274 18.7094 10.878906 18.3125 L 8.4980469 16.947266 L 8.4980469 15.980469 C 8.8093141 15.557807 9 15.040465 9 14.476562 L 9 13.123047 C 9 13.123047 8.9980869 13.111375 8.9980469 13.109375 C 8.9982997 13.109375 9 13.095703 9 13.095703 L 9 11.59375 L 8.9960938 11.560547 C 8.9425578 11.147947 8.8165161 10.754553 8.546875 10.439453 C 8.2772339 10.124253 7.8478879 9.9293406 7.3828125 9.9316406 L 6.9160156 9.9316406 z M 7.5722656 10.996094 L 7.5722656 11.003906 C 7.6401626 11.029906 7.7370882 11.031844 7.7871094 11.089844 C 7.8779874 11.196044 7.9616325 11.399634 8 11.677734 L 8 12.824219 C 7.9916376 12.822515 7.9829199 12.81794 7.9746094 12.816406 C 7.6311244 12.753406 7.3127096 12.782922 7.0273438 12.794922 C 6.7419778 12.806922 6.4927402 12.804813 6.3222656 12.757812 C 6.1517911 12.710812 6.0544758 12.654978 5.9394531 12.455078 A 0.50005 0.50005 0 0 0 5.4804688 12.205078 L 5.4804688 12.203125 A 0.50005 0.50005 0 0 0 5.0234375 12.572266 C 5.0505053 12.470857 5.0334086 12.52202 4.9960938 12.580078 L 4.9960938 12.083984 C 4.9960938 11.722384 5.2661877 11.455078 5.609375 11.455078 L 6.734375 11.455078 L 6.75 11.455078 C 6.9904554 11.439078 7.2300399 11.365037 7.4472656 11.210938 C 7.5090896 11.166937 7.5170996 11.057694 7.5722656 10.996094 z M 27.996094 13 L 28.996094 13 L 28.996094 21.986328 L 27.996094 21.986328 L 27.996094 13 z M 4.0078125 13.021484 C 4.0060725 13.031484 4.0002069 13.077563 3.9980469 13.101562 C 3.9981482 13.090563 3.9995363 13.071969 4.0039062 13.042969 C 4.0063062 13.026969 4.0100125 13.010484 4.0078125 13.021484 z M 8.9980469 13.123047 C 8.9978022 13.134047 8.997878 13.148828 8.9941406 13.173828 C 8.9918406 13.188828 8.9880844 13.206312 8.9902344 13.195312 C 8.9917944 13.185313 8.9957569 13.149047 8.9980469 13.123047 z M 5.6191406 13.376953 C 5.7731162 13.482153 5.8926069 13.671797 6.0546875 13.716797 C 6.4204624 13.818197 6.7668735 13.804016 7.0683594 13.791016 C 7.3698452 13.778016 7.6321071 13.768781 7.7929688 13.800781 C 7.9053073 13.821732 7.9551563 13.848954 8 13.896484 L 8 14.472656 C 8 15.334756 7.3336955 16.005859 6.4980469 16.005859 C 5.6624044 16.005859 4.9960937 15.334756 4.9960938 14.472656 L 4.9960938 13.90625 C 5.0042696 13.900868 5.0131386 13.895938 5.0214844 13.890625 C 5.1559513 13.804625 5.2838499 13.70335 5.40625 13.59375 C 5.484074 13.52375 5.5501552 13.449953 5.6191406 13.376953 z M 19.996094 14.998047 L 20.996094 14.998047 L 20.996094 21.986328 L 19.996094 21.986328 L 19.996094 14.998047 z M 23.996094 16 L 24.996094 16 L 24.996094 21.986328 L 23.996094 21.986328 L 23.996094 16 z M 5.4980469 16.792969 C 5.8050407 16.929824 6.1415687 17.007812 6.4980469 17.007812 C 6.854526 17.007993 7.1910529 16.929725 7.4980469 16.792969 L 7.4980469 17.279297 C 7.2873323 17.673135 7.0564327 18.064877 6.7480469 18.326172 L 6.7382812 18.335938 L 6.5019531 18.556641 L 6.3183594 18.382812 L 6.1425781 18.210938 C 5.8086454 17.855032 5.6382274 17.573242 5.4980469 17.183594 L 5.4980469 16.792969 z M 4.7441406 17.958984 C 4.9192554 18.293782 5.1380219 18.598685 5.4199219 18.898438 L 5.4257812 18.908203 L 5.625 19.103516 L 5.9980469 19.455078 L 5.9980469 22.001953 L 1.9980469 22.001953 L 1.9980469 20.294922 C 1.9980469 19.822422 2.2485867 19.38995 2.65625 19.15625 L 4.7441406 17.958984 z M 8.2636719 17.964844 L 10.382812 19.179688 C 10.764475 19.398487 11 19.805547 11 20.248047 L 11 22.001953 L 7.0039062 22.001953 L 7.0039062 19.457031 L 7.3945312 19.091797 C 7.7985304 18.749407 8.0517238 18.346991 8.2636719 17.964844 z M 15.996094 18 L 16.996094 18 L 16.996094 21.986328 L 15.996094 21.986328 L 15.996094 18 z M 16.447266 24.001953 A 0.50059574 0.50059574 0 0 0 16.496094 25.001953 L 27.492188 25.001953 A 0.50005 0.50005 0 1 0 27.492188 24.001953 L 16.496094 24.001953 A 0.50005 0.50005 0 0 0 16.447266 24.001953 z M 6.4882812 24.009766 C 6.2121015 24.009766 5.991724 24.241478 5.9960938 24.517578 L 5.9960938 29.501953 C 5.9961214 29.778053 6.2199628 30.001953 6.4960938 30.001953 L 10.683594 30.001953 L 15.994141 30.001953 L 25.496094 30.001953 C 25.772225 30.001953 25.996066 29.778053 25.996094 29.501953 L 25.996094 26.5 C 26.005694 25.8238 24.986531 25.8238 24.996094 26.5 L 24.996094 29.001953 L 15.994141 29.001953 L 10.683594 29.001953 L 6.9960938 29.001953 L 6.9960938 24.517578 C 7.0005638 24.235278 6.7705826 24.005366 6.4882812 24.009766 z " transform="translate(0,1020.3622)"/></g>
</svg>