<svg xmlns="http://www.w3.org/2000/svg" xmlns:xlink="http://www.w3.org/1999/xlink" version="1.1" x="0px" y="0px" viewBox="0 0 64 80" style="enable-background:new 0 0 64 64;" xml:space="preserve"><g><path d="M29.9,31.7c0.4,0.1,0.9,0.2,1.3,0.4h8.7c-2.1-1.1-4.3-2-6.4-3c-2.3-1-4.7-2-7-3.1c-0.5-0.2-0.9-0.3-1.4-0.4   c-0.6-1-1-1.7-1.2-1.9c-0.9-1.5-1.4-3.2-0.3-5.5c0.6-1.4,1-2.9,1-4.3c0-0.7,0.1-1.5,0-2.3c-0.3-2.8-1.7-4.8-3.9-5.9   c-1.1-0.6-2.3-0.6-3.7,0.1c-2.1,1-4,3.8-2.6,5.9c0.2,0.4,0.5,0.8,0.7,1.2c0.2,0.3,0.3,0.7,0.1,1.2c-0.1,0.2,0,0.4,0,0.6   c0.2,0.3,0.3,0.6,0.6,0.8c0.1,0.1,0.4,0.1,0.5,0.2c0.2,0.1,0.4,0.1,0.5,0.2c0.8,1.2,1.6,2.5,2.5,3.8c1.2,1.7,2.3,3.4,2,6   c-2.4,0.8-4.4,0.1-6.3-0.7c-1.4-0.6-2.8-1.1-4.2-1.6c-0.2-0.1-0.2-0.3-0.3-0.5c-0.1-0.2-0.2-0.4-0.3-0.5c-0.3-0.2-0.6-0.3-0.9-0.4   c-0.2,0-0.4,0-0.6,0.1c-0.5,0.3-0.8,0.3-1.2,0.2C7,22,6.6,21.8,6.2,21.7c-2.4-0.9-4.6,1.5-5.2,3.8c-0.4,1.5,0,2.7,0.7,3.6   c1.6,1.9,3.8,2.8,6.6,2.6c0.7-0.1,1.5-0.3,2.2-0.5c1.4-0.3,2.8-0.9,4-1.9c2.1-1.6,3.8-1.5,5.5-0.9c0.2,0.1,1.1,0.4,2.1,0.7   c0.2,0.4,0.4,0.8,0.7,1.2c0.4,0.6,0.9,1.2,1.3,1.8l0.8,1.1c0,0,0.1,0.1,0.1,0.1c0.1,0.1,0.1,0.1,0.2,0.2c0.2,0.3,0.5,0.7,0.7,1   c0.1,0.1,0.2,0.2,0.2,0.3l0.2,0.2v0c0.4,0.5,0.7,1,1.1,1.5c1.5,2.1,3.1,4.1,4.7,6.1c0.9,1.1,2.4,2.7,3.5,3.9c0.3,0.3,0.8,0,0.6-0.4   c-0.6-1.3-1.4-2.9-1.9-3.9c-1.5-2.9-3-5.8-4.5-8.6c-0.2-0.4-0.4-0.7-0.6-1.1l0,0c0,0-0.1-0.2-0.3-0.5c-0.1-0.2-0.3-0.5-0.5-0.9   C29.3,31.5,29.9,31.7,29.9,31.7L29.9,31.7z M11.8,28.1C11.5,29,10.9,29.6,10,30c-2.8,1.3-5.8,0.3-7.1-1.4c-0.4-0.6-0.8-1.2-0.7-2.1   c0.1-1.1,0.4-2.1,1.3-3c1-0.8,1.9-0.8,2.7-0.4c1.5,0.8,4.8,2.7,5.1,2.9C11.9,26.5,12.1,27.1,11.8,28.1z M21.8,15.7   c-0.9,0.5-1.5,0.4-2.1,0c-0.2-0.2-2.8-3-3.9-4.3c-0.6-0.7-0.8-1.5-0.2-2.7c0.6-1.1,1.6-1.6,2.6-1.9c0.8-0.3,1.5-0.1,2.2,0.2   c2,0.9,3.6,3.7,2.9,6.6C23,14.5,22.6,15.2,21.8,15.7z M22.8,28.9c-0.7-0.6-0.8-1.6-0.2-2.2c0.6-0.7,1.6-0.8,2.2-0.2   c0.7,0.6,0.8,1.6,0.2,2.2C24.5,29.3,23.5,29.4,22.8,28.9z"/><path d="M60.5,33.4H32.8c-0.5,0-1,0.4-1.1,0.9c-0.1,0.5,0.2,1,0.8,1.2c1.5,0.4,2.6,0.7,3.6,1c0.1,0,0.1,0,0.2,0H60v19.1H26V37.5   c0-0.2-0.1-0.3-0.2-0.5c-0.4-0.5-0.7-1-1.2-1.6c-0.2-0.2-0.4-0.3-0.7-0.3h0c-0.3,0-0.5,0.1-0.7,0.3c-0.3,0.4-0.5,1-0.5,1.5v19.3   c0,1.4,1.2,2.6,2.6,2.6h35c1.4,0,2.6-1.2,2.6-2.6V36C63.2,34.6,62,33.4,60.5,33.4z"/><g><path d="M50.2,40.3c0-0.2-0.1-0.5-0.3-0.7c-0.2-0.2-0.4-0.3-0.7-0.3s-0.5,0.1-0.7,0.3L36.1,52.1c-0.4,0.4-0.4,1,0,1.3    c0.2,0.2,0.4,0.3,0.7,0.3c0.2,0,0.5-0.1,0.7-0.3L50,40.9C50.1,40.7,50.2,40.5,50.2,40.3z"/><path d="M38.9,45.3c1.6,0,2.9-1.3,2.9-2.9c0-1.6-1.3-2.9-2.9-2.9c-1.6,0-2.9,1.3-2.9,2.9C36,44,37.3,45.3,38.9,45.3z M37.8,42.4    c0-0.6,0.5-1.1,1.1-1.1s1.1,0.5,1.1,1.1s-0.5,1.1-1.1,1.1S37.8,43,37.8,42.4z"/><path d="M47.2,47.7c-1.6,0-2.9,1.3-2.9,2.9s1.3,2.9,2.9,2.9s2.9-1.3,2.9-2.9S48.8,47.7,47.2,47.7z M48.2,50.7    c0,0.6-0.5,1.1-1.1,1.1s-1.1-0.5-1.1-1.1s0.5-1.1,1.1-1.1S48.2,50.1,48.2,50.7z"/></g></g>
</svg>
