<svg xmlns="http://www.w3.org/2000/svg" xmlns:xlink="http://www.w3.org/1999/xlink" version="1.1" x="0px" y="0px" viewBox="0 0 100 125" enable-background="new 0 0 100 100" xml:space="preserve"><g><path d="M39.723,22.424c-5.852,0-11.167,1.117-15.068,2.986c-3.789,1.814-6.361,4.41-6.503,7.48c0,0.028-0.028,0.028-0.028,0.056   v0.028c-0.028,0.056-0.028,0.14-0.028,0.223v8.625c0,0.056,0,0.084,0,0.14v9.183c0,0.028,0,0.084,0,0.111v8.457   c0,3.183,2.629,5.861,6.531,7.76c3.93,1.87,9.245,2.986,15.097,2.986c2.206,0,4.326-0.168,6.333-0.475   c3.676,4.633,9.358,7.592,15.72,7.592c11.111,0,20.13-9.043,20.13-20.151c0-11.137-9.019-20.18-20.13-20.18h-0.452v-4.048   c0-0.083-0.028-0.167-0.028-0.223c0-0.028,0-0.028,0-0.056c-0.028,0-0.028-0.028-0.028-0.056c-0.169-3.043-2.742-5.639-6.502-7.453   C50.834,23.541,45.575,22.424,39.723,22.424L39.723,22.424z M39.723,24.015c5.627,0,10.716,1.117,14.335,2.848   c3.534,1.702,5.569,3.936,5.654,6.196c0,0.027,0,0.056,0,0.083c0,0.028,0,0.028,0,0.056c0,1.619-1.018,3.266-2.912,4.689   c0,0.028-0.028,0-0.028,0c-2.432,0.642-4.665,1.702-6.644,3.098c-3.025,0.865-6.588,1.396-10.405,1.396   c-5.654,0-10.771-1.089-14.391-2.848c-3.393-1.618-5.399-3.74-5.626-5.889v-0.447c0-0.083-0.028-0.139-0.028-0.195   c0.113-2.232,2.121-4.438,5.654-6.14C28.951,25.132,34.068,24.015,39.723,24.015L39.723,24.015z M59.712,37.272v0.084h-0.085   C59.655,37.328,59.684,37.301,59.712,37.272L59.712,37.272z M19.706,37.301c1.131,1.423,2.855,2.68,4.948,3.684   c3.901,1.87,9.217,2.987,15.068,2.987c2.715,0,5.315-0.224,7.719-0.698c-2.12,2.177-3.76,4.801-4.722,7.731   c-0.989,0.084-2.007,0.14-3.024,0.14c-5.655,0-10.744-1.089-14.363-2.847c-3.618-1.73-5.626-4.02-5.626-6.336   c0-0.028,0-0.056,0-0.084V37.301L19.706,37.301z M61.775,38.836c10.264,0,18.547,8.317,18.547,18.589   c0,10.271-8.283,18.588-18.547,18.588c-10.234,0-18.519-8.317-18.519-18.588C43.257,47.153,51.541,38.836,61.775,38.836   L61.775,38.836z M53.718,44.864c-0.367,0.056-0.649,0.419-0.649,0.781v5.667c0,0.056,0,0.083,0,0.139v6.225   c0,0.028,0,0.056,0,0.084v7.201c0,0.418,0.396,0.809,0.819,0.809s0.792-0.391,0.792-0.809v-6.476h3.449l5.004,6.949   c0.227,0.363,0.792,0.503,1.131,0.252c0.367-0.252,0.452-0.838,0.17-1.145l-4.411-6.225c3.139-0.613,5.542-3.321,5.542-6.643   c0-3.74-3.11-6.811-6.898-6.811h-4.778c-0.028,0-0.057,0-0.085,0S53.746,44.864,53.718,44.864L53.718,44.864z M19.706,46.093   c1.131,1.423,2.855,2.651,4.92,3.656c3.901,1.87,9.217,2.959,15.069,2.959c0.876,0,1.696-0.028,2.544-0.084   c-0.367,1.535-0.565,3.153-0.565,4.801c0,1.005,0.057,2.01,0.198,2.958c-0.707,0.056-1.442,0.084-2.177,0.084   c-5.655,0-10.744-1.116-14.363-2.847c-3.618-1.73-5.626-4.047-5.626-6.364c0-0.027,0-0.056,0-0.056V46.093L19.706,46.093z    M54.68,46.428h3.986c2.94,0,5.315,2.344,5.315,5.247s-2.347,5.191-5.259,5.22c-0.028,0-0.028,0-0.057,0h-0.198H54.68v-5.443   c0-0.056,0-0.083,0-0.139V46.428L54.68,46.428z M19.706,55.387c1.131,1.424,2.855,2.652,4.92,3.656   c3.901,1.87,9.217,2.987,15.069,2.987c0.848,0,1.64,0,2.459-0.057c0.565,2.373,1.527,4.605,2.855,6.56   c-1.696,0.223-3.449,0.362-5.287,0.362c-5.654,0-10.771-1.088-14.391-2.847c-3.618-1.73-5.626-4.019-5.626-6.336V55.387   L19.706,55.387z M65.621,55.945c-0.368,0.056-0.65,0.419-0.65,0.781v3.964c0,0.056,0,0.111,0,0.14v4.382c0,0.027,0,0.056,0,0.083   v5.08c0,0.419,0.367,0.781,0.791,0.781c0.425,0,0.82-0.362,0.82-0.781v-4.382h2.488c2.771,0,5.004-2.232,5.004-4.996   c0-2.791-2.233-5.052-5.004-5.052h-3.309c-0.027,0-0.027,0-0.056,0S65.649,55.945,65.621,55.945L65.621,55.945z M66.582,57.508   h2.488c1.894,0,3.421,1.535,3.421,3.489c0,1.926-1.527,3.433-3.421,3.433h-2.488v-3.6c0-0.028,0-0.084,0-0.14V57.508L66.582,57.508   z"/></g></svg>