<svg width="41" height="41" viewBox="0 0 41 41" fill="none" xmlns="http://www.w3.org/2000/svg">
<path fill-rule="evenodd" clip-rule="evenodd" d="M39.1428 10.6675C40.7371 9.10205 41.3699 6.78625 40.7864 4.63977L40.4824 3.5343L36.8746 7.07666H35.42L33.8092 5.479V4.05066L37.417 0.508301L36.2911 0.209717C34.0969 -0.363159 31.7465 0.258179 30.1522 1.82361C28.8619 3.09045 28.1963 4.81726 28.3031 6.60059L20.6767 14.0889L8.24268 1.89624C7.45374 1.12158 6.17175 1.12158 5.38281 1.89624L1.57782 5.64038C0.788879 6.41504 0.788879 7.67383 1.57782 8.44849L14.3734 21.0123L6.72235 28.5249C4.90613 28.4199 3.14746 29.0736 1.85724 30.3405C0.262878 31.9059 -0.369873 34.2218 0.213562 36.3682L0.517639 37.4738L4.12543 33.9313H5.58002L7.18256 35.521V36.9492L3.57483 40.4916L4.70068 40.7902C5.2431 40.9354 5.7937 41 6.33606 41C8.00433 41 9.63977 40.3545 10.8396 39.1764C12.1299 37.9094 12.7955 36.1826 12.6887 34.3993L20.3397 26.8868L30.7686 37.1267L38.5428 38.2161L37.4334 30.5825L26.6512 19.9714L34.2776 12.4832C36.0939 12.5961 37.8525 11.9425 39.1428 10.6675ZM31.0972 35.5613L8.24268 13.1206L13.001 8.44849L35.8638 30.8892L31.0972 35.5613ZM5.85944 10.7805L7.28937 12.1846L12.0559 7.51245L10.6177 6.1084L5.85944 10.7805ZM2.53107 6.57642L6.33606 2.83215C6.59906 2.57397 7.02643 2.57397 7.28937 2.83215L9.67261 5.17236L4.91437 9.84448L2.53107 7.50439C2.26813 7.25415 2.26813 6.83459 2.53107 6.57642ZM11.3245 34.2137L11.2916 33.899L19.3947 25.9426L15.3185 21.9403L7.21545 29.8966L6.89496 29.8644C5.36639 29.703 3.87891 30.2113 2.79407 31.2684C1.84082 32.2045 1.32306 33.4874 1.3313 34.7866L3.55017 32.6079H6.1142L8.52209 34.9722V37.4979L6.30322 39.6766H6.33612C7.651 39.6766 8.94122 39.1682 9.88635 38.2402C10.9711 37.1752 11.4888 35.7146 11.3245 34.2137ZM32.5272 36.0293L36.3405 32.2852L36.9732 36.6506L32.5272 36.0293ZM25.6979 19.0435L33.7764 11.1113L34.1051 11.1516C35.6337 11.313 37.1293 10.7966 38.2059 9.7395C39.1592 8.80347 39.6769 7.52039 39.6688 6.22131L37.4498 8.40002H34.8776L32.4697 6.03564V3.51001L34.6885 1.3313C33.3654 1.35547 32.0588 1.83154 31.1055 2.76758C30.0207 3.83276 29.5029 5.30139 29.6673 6.79419L29.7002 7.10889L21.6218 15.041L25.6979 19.0435Z" fill="#636264"/>
<rect x="13.8683" y="15.7825" width="2" height="21" transform="rotate(-45 13.8683 15.7825)" fill="#636264"/>
</svg>
