<svg width="41" height="41" viewBox="0 0 41 41" fill="none" xmlns="http://www.w3.org/2000/svg">
<path fill-rule="evenodd" clip-rule="evenodd" d="M39.1428 10.6675C40.7371 9.10211 41.3699 6.78619 40.7864 4.63977L40.4823 3.5343L36.8746 7.07672H35.42L33.8092 5.47894V4.05072L37.417 0.508301L36.2911 0.209717C34.0969 -0.36322 31.7465 0.258118 30.1522 1.82361C28.8619 3.09045 28.1963 4.81726 28.3031 6.60059L20.6767 14.0889L8.24268 1.89618C7.45374 1.12158 6.17172 1.12158 5.38278 1.89618L1.57779 5.64038C0.788849 6.41504 0.788849 7.67383 1.57779 8.44849L14.3734 21.0124L6.72235 28.5249C4.90613 28.42 3.14746 29.0736 1.85721 30.3405C0.262909 31.9059 -0.369904 34.2218 0.213593 36.3682L0.51767 37.4737L4.12543 33.9313H5.58002L7.18256 35.5209V36.9492L3.5748 40.4916L4.70068 40.7902C5.24307 40.9354 5.7937 41 6.33609 41C8.00436 41 9.63977 40.3544 10.8396 39.1763C12.1299 37.9095 12.7955 36.1826 12.6887 34.3993L20.3398 26.8868L30.7685 37.1267L38.5428 38.2161L37.4334 30.5825L26.6512 19.9714L34.2776 12.4831C36.0939 12.5961 37.8525 11.9425 39.1428 10.6675ZM31.0972 35.5613L8.24268 13.1206L13.001 8.44849L35.8637 30.8892L31.0972 35.5613ZM5.85944 10.7805L7.2894 12.1846L12.0559 7.51245L10.6177 6.1084L5.85944 10.7805ZM2.5311 6.57642L6.33609 2.83228C6.59906 2.57404 7.0264 2.57404 7.2894 2.83228L9.67264 5.17236L4.91434 9.84448L2.5311 7.50439C2.26813 7.25427 2.26813 6.83466 2.5311 6.57642ZM11.3245 34.2137L11.2916 33.899L19.3947 25.9427L15.3185 21.9403L7.21542 29.8966L6.8949 29.8644C5.36633 29.7029 3.87885 30.2113 2.79407 31.2684C1.84076 32.2045 1.32303 33.4875 1.33124 34.7866L3.55014 32.6079H6.1142L8.52209 34.9722V37.4979L6.30319 39.6766H6.33606C7.65097 39.6766 8.94122 39.1683 9.88629 38.2403C10.9711 37.1751 11.4888 35.7146 11.3245 34.2137ZM32.5272 36.0293L36.3404 32.2852L36.9732 36.6506L32.5272 36.0293ZM25.6979 19.0435L33.7764 11.1113L34.1051 11.1517C35.6336 11.313 37.1293 10.7966 38.2059 9.73956C39.1592 8.80353 39.6769 7.52051 39.6687 6.22137L37.4499 8.40009H34.8776L32.4697 6.03577V3.51007L34.6886 1.33136C33.3654 1.35559 32.0588 1.83167 31.1055 2.7677C30.0207 3.83282 29.5029 5.30145 29.6673 6.79425L29.7002 7.10895L21.6218 15.0411L25.6979 19.0435Z" fill="#58CFEE"/>
<rect x="13.8683" y="15.7825" width="2" height="21" transform="rotate(-45 13.8683 15.7825)" fill="#58CFEE"/>
</svg>
