<?xml version="1.0" encoding="UTF-8"?>
<svg viewBox="0 0 85 55" version="1.1" xmlns="http://www.w3.org/2000/svg" xmlns:xlink="http://www.w3.org/1999/xlink">
  <g id="shake-hands" transform="translate(-1.000000, 0.000000)" fill="#206F8A" fill-rule="nonzero">
      <path d="M75.687,31.932 L85.995,24.082 L67.876,0.304 L57.571,8.155 L57.935,8.632 L37.668,8.632 C36.332,8.632 33.085,8.923 31.273,11.415 L28.058,9.938 L29.416,8.154 L19.111,0.303 L0.994,24.082 L11.302,31.932 L13.278,29.34 L15.623,31.131 L15.316,31.553 C14.503,32.657 14.168,34.01 14.374,35.362 C14.574,36.679 15.268,37.831 16.323,38.607 C17.171,39.233 18.183,39.563 19.246,39.563 C19.584,39.563 19.916,39.509 20.244,39.443 C19.836,41.328 20.503,43.346 22.127,44.544 C22.975,45.167 23.983,45.498 25.046,45.498 C25.53,45.498 26,45.407 26.457,45.273 C26.411,45.693 26.399,46.118 26.46,46.544 C26.65,47.884 27.345,49.058 28.42,49.849 C29.269,50.472 30.276,50.801 31.339,50.801 C32.552,50.801 33.72,50.361 34.635,49.587 C34.863,50.774 35.497,51.876 36.533,52.639 C37.385,53.266 38.396,53.597 39.459,53.597 C40.479,53.597 41.446,53.259 42.277,52.701 L43.155,53.332 C44.037,53.97 45.071,54.302 46.135,54.302 C46.41,54.302 46.689,54.28 46.966,54.235 C48.282,54.019 49.432,53.311 50.198,52.241 C50.883,51.293 51.153,50.179 51.089,49.083 L51.207,49.17 C52.116,49.819 53.165,50.132 54.199,50.132 C55.76,50.132 57.289,49.417 58.254,48.07 C59.021,46.99 59.278,45.703 59.101,44.474 C59.69,44.698 60.301,44.823 60.913,44.823 C62.474,44.823 64.005,44.109 64.972,42.761 C65.772,41.64 66.033,40.289 65.81,39.017 C66.275,39.149 66.75,39.224 67.224,39.224 C68.785,39.224 70.312,38.508 71.278,37.163 C72.056,36.078 72.356,34.747 72.123,33.414 C71.939,32.376 71.445,31.446 70.714,30.711 L73.275,28.766 L75.687,31.932 Z M67.538,2.804 L83.493,23.744 L76.024,29.434 L60.072,8.493 L67.538,2.804 Z M10.964,29.435 L3.495,23.745 L19.45,2.805 L26.916,8.494 L10.964,29.435 Z M17.379,37.172 C16.707,36.677 16.265,35.939 16.136,35.094 C16.002,34.212 16.221,33.331 16.756,32.605 L18.388,30.351 C19.017,29.497 20.019,28.989 21.069,28.989 C21.749,28.989 22.393,29.2 22.934,29.595 C23.607,30.089 24.049,30.829 24.178,31.676 C24.31,32.556 24.092,33.437 23.558,34.163 L23.418,34.356 L21.784,36.574 C20.708,37.837 18.703,38.146 17.379,37.172 Z M23.183,43.107 C21.758,42.057 21.476,40.008 22.551,38.542 L23.236,37.612 C23.276,37.561 23.33,37.523 23.368,37.47 L24.903,35.347 L27.209,32.213 C27.836,31.363 28.836,30.855 29.885,30.855 C30.564,30.855 31.208,31.064 31.75,31.463 C33.173,32.51 33.459,34.551 32.392,36.018 L31.207,37.627 L27.727,42.351 C26.689,43.756 24.554,44.116 23.183,43.107 Z M29.477,48.409 C28.792,47.908 28.348,47.155 28.224,46.293 C28.102,45.424 28.322,44.557 28.842,43.85 L32.907,38.323 L33.822,37.082 C33.823,37.08 33.823,37.078 33.827,37.075 L35.983,34.143 C36.61,33.292 37.61,32.786 38.662,32.786 C39.342,32.786 39.988,32.995 40.526,33.392 C41.211,33.896 41.654,34.646 41.776,35.506 C41.898,36.375 41.678,37.243 41.158,37.952 L38.657,41.349 C38.617,41.4 38.566,41.438 38.528,41.491 L35.525,45.588 C35.503,45.617 35.49,45.652 35.469,45.682 L34.016,47.658 C32.984,49.061 30.847,49.422 29.477,48.409 Z M37.59,51.203 C36.193,50.176 35.905,48.188 36.914,46.726 L40.08,42.422 C40.711,41.652 41.651,41.186 42.644,41.186 C43.321,41.186 43.964,41.395 44.502,41.79 C45.93,42.844 46.216,44.89 45.136,46.356 L42.133,50.452 C41.104,51.856 38.973,52.221 37.59,51.203 Z M48.751,51.198 C48.26,51.883 47.522,52.336 46.678,52.474 C45.792,52.61 44.923,52.409 44.197,51.885 L43.608,51.46 L46.574,47.412 C46.836,47.057 47.027,46.674 47.185,46.282 L48.56,47.267 C49.486,48.393 49.613,50.002 48.751,51.198 Z M69.827,36.121 C68.799,37.558 66.754,37.872 65.271,36.808 L59.449,32.656 L57.36,31.16 L57.357,31.165 L54.859,29.383 L53.825,30.836 L58.587,34.232 L62.706,37.186 C64.184,38.245 64.547,40.283 63.519,41.721 C62.486,43.16 60.443,43.466 58.962,42.409 L54.194,39.017 L50.122,36.092 L49.081,37.541 L55.985,42.5 C57.461,43.556 57.825,45.59 56.8,47.032 C55.771,48.47 53.727,48.777 52.243,47.717 L49.792,45.96 C49.549,45.689 49.278,45.438 48.972,45.214 L47.547,44.195 C47.493,42.719 46.824,41.286 45.558,40.35 C44.597,39.647 43.404,39.389 42.235,39.492 L42.592,39.006 C43.392,37.921 43.73,36.589 43.541,35.258 C43.352,33.917 42.656,32.744 41.581,31.954 C39.493,30.419 36.308,30.908 34.675,32.943 C34.423,31.809 33.803,30.758 32.805,30.025 C30.699,28.477 27.471,28.982 25.853,31.067 C25.592,29.894 24.952,28.865 23.988,28.156 C21.844,26.586 18.547,27.124 16.946,29.298 L16.668,29.685 L14.356,27.922 L26.949,11.392 L30.2,12.886 L28.364,15.447 C27.551,16.55 27.216,17.901 27.423,19.255 C27.625,20.572 28.317,21.725 29.369,22.495 C30.423,23.273 31.729,23.594 33.048,23.395 C34.402,23.191 35.594,22.473 36.411,21.366 L39.135,17.603 L43.68,17.587 C44.294,21.16 47.695,24.332 51.131,24.332 L58.839,24.332 L69.018,31.584 C69.734,32.099 70.211,32.856 70.363,33.718 C70.513,34.576 70.323,35.43 69.827,36.121 Z M69.263,29.57 L59.411,22.549 L51.132,22.549 C48.352,22.549 45.499,19.63 45.372,16.656 L45.333,15.8 L38.224,15.824 L34.972,20.314 C34.443,21.032 33.665,21.499 32.784,21.63 C31.935,21.761 31.102,21.557 30.427,21.057 C29.757,20.566 29.318,19.829 29.187,18.987 C29.053,18.105 29.271,17.224 29.807,16.496 L32.61,12.584 C33.968,10.572 36.826,10.416 37.669,10.416 L59.295,10.416 L72.193,27.344 L69.263,29.57 Z" id="Shape"></path>
  </g>
</svg>
