<?xml version="1.0" encoding="UTF-8"?>
<svg width="44px" height="28px" viewBox="0 0 44 28" version="1.1" xmlns="http://www.w3.org/2000/svg" xmlns:xlink="http://www.w3.org/1999/xlink">
    <!-- Generator: Sketch 51.2 (57519) - http://www.bohemiancoding.com/sketch -->
    <title>icon - shake hands</title>
    <desc>Created with Sketch.</desc>
    <defs></defs>
    <g id="Page-1" stroke="none" stroke-width="1" fill="none" fill-rule="evenodd">
        <g id="Campaign" transform="translate(-934.000000, -1008.000000)" fill="#206F8A" fill-rule="nonzero">
            <g id="OVERVIEW" transform="translate(-9.000000, 678.000000)">
                <g id="sidebar" transform="translate(696.000000, 97.000000)">
                    <g id="contract-type" transform="translate(2.000000, 225.000000)">
                        <g id="icon---shake-hands" transform="translate(245.000000, 8.000000)">
                            <path d="M38.6641569,16.4005259 L44,12.3300802 L34.6208633,0.000518528121 L29.2865731,4.07148281 L29.4749944,4.31882072 L18.9839649,4.31882072 C18.2923966,4.31882072 16.6116163,4.4697124 15.6736509,5.76188448 L14.0094352,4.99601844 L14.7123916,4.07096428 L9.37810143,0 L0,12.3300802 L5.33584311,16.4005259 L6.35870166,15.056501 L7.57256973,15.9851849 L7.41365396,16.2040038 C6.99281185,16.7764588 6.81940212,17.4780274 6.92603616,18.1790774 C7.02956436,18.8619789 7.38880719,19.4593233 7.93491841,19.8617011 C8.37387795,20.1862997 8.89773061,20.357414 9.44798296,20.357414 C9.62294561,20.357414 9.79480241,20.3294135 9.96458865,20.2951907 C9.75339114,21.2726162 10.0986577,22.3190059 10.9393066,22.9402026 C11.3782661,23.2632456 11.9000482,23.4348784 12.4503006,23.4348784 C12.7008388,23.4348784 12.9441301,23.3876924 13.180692,23.3182096 C13.1568805,23.5359914 13.1506688,23.7563659 13.1822449,23.9772588 C13.2805967,24.6720865 13.6403572,25.2808385 14.1968212,25.6909943 C14.6362984,26.0140373 15.1575629,26.184633 15.7078152,26.184633 C16.3357137,26.184633 16.9403183,25.9564807 17.4139598,25.5551399 C17.531982,26.1706328 17.8601664,26.7420508 18.3964424,27.1376877 C18.8374725,27.4628049 19.3608075,27.6344377 19.9110599,27.6344377 C20.4390537,27.6344377 20.9396125,27.4591752 21.3697721,27.1698365 L21.8242609,27.4970277 C22.2808202,27.8278487 22.816061,28 23.366831,28 C23.5091822,28 23.6536041,27.9885924 23.7969906,27.9652586 C24.4782061,27.8532565 25.0734933,27.4861386 25.4700062,26.9313135 C25.8245903,26.4397489 25.9643534,25.8621086 25.9312243,25.2938017 L25.992306,25.3389137 C26.4628416,25.6754384 27.005847,25.8377377 27.5410878,25.8377377 C28.3491253,25.8377377 29.1405983,25.4669901 29.6401219,24.7685328 C30.0371525,24.2085224 30.1701862,23.5411767 30.0785638,22.9039056 C30.3834543,23.0200559 30.6997329,23.0848719 31.0165292,23.0848719 C31.8245668,23.0848719 32.6170751,22.7146429 33.1176339,22.015667 C33.5317467,21.4343969 33.666851,20.7338654 33.551417,20.0742977 C33.7921201,20.1427434 34.0379996,20.181633 34.2833614,20.181633 C35.0913989,20.181633 35.8818367,19.8103669 36.3818779,19.1129465 C36.7846025,18.5503435 36.9398948,17.8601826 36.8192845,17.1689846 C36.7240385,16.6307524 36.4683239,16.1485213 36.0899284,15.7674031 L37.4156069,14.7588659 L38.6641569,16.4005259 Z M34.4459006,1.29683883 L42.7048623,12.1548177 L38.8386019,15.1052427 L30.5811932,4.24674531 L34.4459006,1.29683883 Z M5.16088046,15.1057612 L1.29462006,12.1553362 L9.55358172,1.29735736 L13.4182892,4.24726384 L5.16088046,15.1057612 Z M8.48154728,19.1176133 C8.13369254,18.8609419 7.90489524,18.4782681 7.83811955,18.0401119 C7.76875566,17.5827701 7.88211903,17.1259468 8.15905695,16.7494954 L9.00384701,15.580733 C9.32944318,15.13791 9.84811943,14.8744977 10.3916425,14.8744977 C10.7436383,14.8744977 11.0769991,14.9839071 11.3570429,15.1887257 C11.7054152,15.4448786 11.9342125,15.8285894 12.0009882,16.2677827 C12.0693168,16.7240875 11.9564711,17.1809108 11.6800508,17.5573622 L11.6075811,17.6574381 L10.7617557,18.8075335 C10.2047741,19.4624345 9.16690392,19.6226597 8.48154728,19.1176133 Z M11.4859355,22.1950777 C10.7482971,21.6506232 10.6023223,20.588159 11.1587864,19.8279968 L11.5133704,19.3457657 C11.5340761,19.3193207 11.5620287,19.2996167 11.581699,19.2721347 L12.3762779,18.1712995 L13.569958,16.5462323 C13.8945189,16.1054834 14.4121599,15.8420711 14.9551652,15.8420711 C15.3066435,15.8420711 15.6400042,15.9504435 15.9205656,16.1573362 C16.6571687,16.7002352 16.8052141,17.7585511 16.2528911,18.5192318 L15.6394866,19.3535436 L13.838096,21.8030704 C13.3007847,22.5316024 12.1956212,22.7182726 11.4859355,22.1950777 Z M14.7439677,24.9443138 C14.3893837,24.6845312 14.1595511,24.2940795 14.0953636,23.8471083 C14.0322114,23.3965073 14.1460924,22.9469435 14.4152657,22.5803441 L16.5194762,19.7144392 L16.9931177,19.0709458 C16.9936354,19.0699087 16.9936354,19.0688716 16.9957059,19.0673161 L18.1117399,17.5469916 C18.4363007,17.1057242 18.9539417,16.843349 19.4985,16.843349 C19.8504959,16.843349 20.1848919,16.9517213 20.4633828,17.157577 C20.8179668,17.4189152 21.0472818,17.8078113 21.110434,18.2537454 C21.1735862,18.7043464 21.0597052,19.1544288 20.7905319,19.5220652 L19.4959118,21.2835053 C19.4752062,21.3099502 19.4488065,21.3296543 19.4291361,21.3571362 L17.8746603,23.481546 C17.8632722,23.4965833 17.8565429,23.5147318 17.8456724,23.5302876 L17.0935401,24.5548992 C16.5593346,25.2823941 15.4531358,25.4695828 14.7439677,24.9443138 Z M18.9435889,26.3930814 C18.2204445,25.860553 18.0713639,24.8297191 18.5936636,24.071631 L20.2325149,21.8398859 C20.5591464,21.4406193 21.0457289,21.1989852 21.5597464,21.1989852 C21.9101893,21.1989852 22.2430324,21.3073575 22.5215233,21.5121762 C23.2607146,22.0587048 23.4087599,23.1196133 22.8497077,23.8797756 L21.2952318,26.0036667 C20.7625793,26.7316802 19.6594864,26.920943 18.9435889,26.3930814 Z M24.7209798,26.3904887 C24.466818,26.7456805 24.084799,26.9805737 23.64791,27.0521306 C23.1892801,27.1226504 22.7394501,27.0184263 22.3636428,26.7467175 L22.0587522,26.5263431 L23.5940754,24.4273412 C23.7296973,24.2432638 23.8285667,24.0446675 23.910354,23.8414045 L24.6221103,24.3521547 C25.1014459,24.9360173 25.1671863,25.7703291 24.7209798,26.3904887 Z M35.6307808,18.5726402 C35.0986459,19.3177651 34.0400701,19.480583 33.2724086,18.9288691 L30.2587028,16.7759403 L29.1773509,16.0002222 L29.1757979,16.0028149 L27.8827308,15.0787978 L27.34749,15.8322191 L29.8124963,17.5931406 L31.9446595,19.1248727 C32.7097328,19.673994 32.8976365,20.7307543 32.3655016,21.4763977 C31.8307785,22.2225597 30.773238,22.3812293 30.0066117,21.8331451 L27.5384995,20.0742977 L25.4306655,18.5576029 L24.8918013,19.3089502 L28.4655945,21.8803311 C29.2296326,22.4278968 29.4180539,23.482583 28.8874719,24.2303006 C28.3548194,24.975944 27.2967612,25.1351321 26.528582,24.5854923 L25.259844,23.6744384 C25.1340572,23.5339173 24.9937765,23.4037667 24.8353784,23.2876164 L24.09774,22.7592363 C24.0697874,21.9938888 23.7234856,21.250838 23.0681521,20.7654957 C22.5706992,20.4009704 21.9531535,20.2671901 21.3480312,20.3205985 L21.532829,20.0685939 C21.9469418,19.5059909 22.1219044,18.8153114 22.0240703,18.1251505 C21.9262362,17.4298043 21.565958,16.8215708 21.009494,16.4119336 C19.9286597,15.6159929 18.2799732,15.8695531 17.4346655,16.9247579 C17.30422,16.336747 16.9832825,15.7917739 16.4666769,15.4116928 C15.376525,14.6090113 13.7055799,14.870868 12.8680368,15.9519991 C12.7329326,15.3437656 12.4016423,14.8102002 11.9026364,14.4425638 C10.7928142,13.6284746 9.08615193,13.9074427 8.25740874,15.0347229 L8.11350455,15.2353932 L6.91671863,14.3212282 L13.4353713,5.74995833 L15.1182221,6.52463935 L14.1678333,7.85258986 C13.7469912,8.42452638 13.5735815,9.12505787 13.6807332,9.82714495 C13.7852966,10.5100465 14.1435042,11.1079094 14.6880625,11.5071761 C15.2336561,11.9105909 15.9096952,12.0770385 16.5924636,11.9738514 C17.2933495,11.8680716 17.9103775,11.4957684 18.3332902,10.9217578 L19.7433442,8.97053649 L22.0960224,8.96224004 C22.413854,10.814941 24.1743509,12.4597122 25.9529653,12.4597122 L29.9429418,12.4597122 L35.2120093,16.2200781 C35.5826402,16.4871201 35.8295549,16.8796459 35.9082364,17.3266172 C35.9858825,17.7715143 35.8875307,18.2143373 35.6307808,18.5726402 Z M35.3388313,15.1757625 L30.2390325,11.5351766 L25.9534829,11.5351766 C24.514441,11.5351766 23.0376113,10.021593 22.9718709,8.47949036 L22.9516829,8.03563029 L19.2717733,8.04807496 L17.5884048,10.3762662 C17.3145728,10.7485694 16.9118481,10.9907221 16.4558064,11.0586492 C16.0163292,11.1265764 15.5851343,11.0207967 15.2357266,10.7615326 C14.8889072,10.5069353 14.6616628,10.1247801 14.5938518,9.68817941 C14.5244879,9.23083761 14.6373337,8.77401433 14.9147892,8.39652586 L16.3657369,6.36804385 C17.0686933,5.32476527 18.5481112,5.24387489 18.9844825,5.24387489 L30.1789861,5.24387489 L36.8555193,14.0215189 L35.3388313,15.1757625 Z" id="Shape"></path>
                        </g>
                    </g>
                </g>
            </g>
        </g>
    </g>
</svg>