<svg width="82" height="82" viewBox="0 0 82 82" fill="none" xmlns="http://www.w3.org/2000/svg">
<g filter="url(#filter0_d)">
<path fill-rule="evenodd" clip-rule="evenodd" d="M41 73C58.6731 73 73 58.6731 73 41C73 37.5827 72.4643 34.2905 71.4724 31.2028C67.3343 18.322 55.2558 9 41 9C23.3269 9 9 23.3269 9 41C9 58.6731 23.3269 73 41 73Z" fill="#3EC300"/>
<path fill-rule="evenodd" clip-rule="evenodd" d="M41 73C58.6731 73 73 58.6731 73 41C73 37.5827 72.4643 34.2905 71.4724 31.2028C67.3343 18.322 55.2558 9 41 9C23.3269 9 9 23.3269 9 41C9 58.6731 23.3269 73 41 73Z" stroke="#3EC300"/>
</g>
<path fill-rule="evenodd" clip-rule="evenodd" d="M60.3977 26.9592C60.0466 26.4796 59.5642 26.1309 58.9502 26.0436C58.866 26.0156 58.7634 26.0056 58.6663 26.0021C58.6382 26.001 58.6104 26.0005 58.5835 26.0002L58.5115 26C55.8359 26 55.0024 30.2728 53.906 36.2461C53.8745 36.4497 53.8372 36.6647 53.7964 36.8827C53.7234 37.2716 53.6392 37.6705 53.5549 38.0338C52.897 41.3038 52.5461 43.7455 52.4585 45.6638C52.0198 45.8383 51.7129 46.2743 51.5813 46.8411C51.4934 47.3207 51.5813 47.8003 51.8445 48.149L50.1338 51.8987L52.0637 54.6892C52.0037 54.6493 51.9526 54.6095 51.9026 54.5697L51.8901 54.5598L51.8274 54.5104C51.7917 54.4828 51.7544 54.4552 51.7129 54.4276L51.4854 54.2522C50.616 53.5802 49.855 52.9922 49.1687 53.0323C48.9495 52.0731 48.4668 51.4191 47.7651 51.1575C46.5808 50.678 45.0894 51.3755 43.8613 52.204C44.563 50.2855 44.3877 49.675 43.8174 49.3263L43.8101 49.3223C43.5017 49.1466 42.9253 48.8186 41.0103 50.8087C41.3611 49.4572 41.1418 48.9775 40.7031 48.7159C40.3962 48.5415 39.782 48.2363 37.7644 50.5035C38.8591 47.1949 38.5549 46.842 38.2922 46.5374L38.2908 46.5359C38.1152 46.3179 37.8081 46.187 37.5012 46.2743C36.887 46.405 35.8345 47.7567 34.8254 49.3263C34.9133 48.9338 35.001 48.4979 35.0449 48.1055C35.9221 42.8734 35.0449 38.7313 32.5447 36.1154C31.4919 34.9817 30.5269 35.0253 29.9568 35.2433C28.2021 35.8538 26.9302 39.2109 26.053 43.0914C25.7241 42.9462 25.3723 42.8085 25.0042 42.672C24.7053 42.5612 24.3955 42.4513 24.0784 42.3389L24.0491 42.3282L24.0181 42.3173L23.9102 42.2791C23.7344 42.2167 23.5564 42.1534 23.3772 42.0886C22.5876 41.827 21.7544 41.5219 20.9209 41.2166C20.5701 41.0858 20.1753 41.2603 20.0437 41.609C19.9121 41.9578 20.0876 42.3502 20.4385 42.481C21.3157 42.8298 22.1492 43.0914 22.9387 43.3966C23.4543 43.5675 23.9487 43.7383 24.417 43.9091C24.905 44.087 25.3645 44.265 25.7898 44.443C24.8687 48.9338 24.3862 53.73 24.2546 55.2996C24.2107 55.6047 24.3862 55.8663 24.6931 55.9972C24.9563 56.0844 25.3071 55.9972 25.4827 55.7792C29.0356 51.1575 30.2637 48.3235 29.6057 46.2307C29.2549 45.1406 28.4653 44.3558 27.325 43.7455C28.1584 39.9957 29.2109 36.9873 30.4392 36.595L30.4451 36.5931C30.5811 36.5479 30.9316 36.4312 31.6235 37.1617C36.7966 42.599 32.2141 53.9034 31.8633 54.7683L31.8428 54.8199C31.8428 54.8635 31.7991 54.8635 31.7991 54.9072C31.7112 55.256 31.8867 55.6047 32.1938 55.7356C32.3132 55.78 32.4326 55.7892 32.5435 55.7699C32.7581 55.7325 32.9402 55.5881 33.0271 55.3867C33.0271 55.3685 33.0425 55.3352 33.0667 55.2866L33.082 55.2559C33.0964 55.2274 33.1128 55.1947 33.1304 55.1578C33.1533 55.1102 33.178 55.0558 33.2026 54.9944C33.729 53.8607 35.7029 50.5035 36.9749 48.7595C36.7117 49.7188 36.1853 51.3755 35.0886 54.1223C34.957 54.4276 35.0886 54.7764 35.3958 54.9508C35.7029 55.1251 36.0537 55.038 36.2729 54.7328C37.4573 53.1195 38.9048 51.3319 39.782 50.5035C39.6504 51.0703 39.2996 52.1167 38.554 53.9044C38.4224 54.2096 38.554 54.5583 38.8171 54.7328C39.124 54.9072 39.4751 54.8199 39.6943 54.5583C40.7471 53.2068 42.063 51.7679 42.8525 51.0703C42.7209 51.6371 42.3699 52.5963 41.6243 54.2532C41.4927 54.5583 41.5803 54.9072 41.8435 55.0815C42.1067 55.256 42.4578 55.256 42.677 54.9944C43.9929 53.73 46.23 52.1603 47.1948 52.5527C47.7651 52.7708 47.8528 53.8607 47.8967 54.4712C47.8967 54.5323 47.9048 54.5908 47.9202 54.646C47.9465 54.7413 47.9941 54.8264 48.0583 54.8978C48.1687 55.0205 48.3279 55.1024 48.5107 55.1251C48.8616 55.1688 49.1687 54.9508 49.2563 54.6455V54.6019C49.6006 54.6875 50.3245 55.2762 50.8074 55.6688L50.8088 55.6703L50.8354 55.692C51.4934 56.2152 52.1514 56.7384 52.7217 56.9564C52.7534 56.9723 52.7852 56.9823 52.8149 56.9888C52.8413 56.9945 52.8662 56.9973 52.8879 56.9987C52.9089 57 52.927 57 52.9409 57C53.2041 57 53.4673 56.8256 53.5549 56.564C53.6428 56.3896 53.5989 56.1716 53.5112 55.9972L57.2834 53.512L57.1519 49.4135C57.5027 49.1956 57.7659 48.8031 57.8975 48.2799C57.9851 47.931 57.9414 47.5387 57.7659 47.1898C57.7219 47.0591 57.6343 46.9282 57.5027 46.8411C58.1167 45.0535 58.7747 42.6554 59.3889 39.3418C59.4487 39.0635 59.4993 38.7852 59.5491 38.511L59.5498 38.5088L59.5505 38.5066L59.552 38.4985L59.5535 38.4919C59.5767 38.3649 59.5996 38.2388 59.6233 38.114C59.6594 37.9238 59.6973 37.7368 59.7397 37.5542C60.8362 32.3657 61.582 28.7032 60.3977 26.9592ZM28.29 46.4486C28.6848 47.7566 27.8953 49.8059 25.7898 52.8143C26.053 50.2855 26.4917 47.495 26.9741 44.9226C27.6321 45.3586 28.1145 45.8383 28.29 46.4486ZM54.6516 51.4192L54.2131 53.7736L56.0991 52.64L55.9675 49.2827L53.1165 48.7595L51.7129 51.7679L52.9412 53.5555L53.3796 51.2012C53.4675 50.8523 53.8184 50.5907 54.1252 50.6344C54.3608 50.6929 54.5571 50.8693 54.6338 51.0845C54.6714 51.1899 54.6804 51.3046 54.6516 51.4192ZM56.624 47.9614C56.6108 47.9841 56.5962 48.0037 56.5815 48.0183L54.7395 47.6694L52.8972 47.3207C52.8533 47.2771 52.8533 47.2334 52.8972 47.1027C52.8972 47.0155 52.9409 46.9282 52.9849 46.8846L56.6694 47.5823C56.6694 47.6 56.6768 47.6249 56.6824 47.6541C56.6904 47.6967 56.6953 47.7484 56.6694 47.8003C56.6694 47.8583 56.6499 47.9163 56.624 47.9614ZM58.3357 38.012C58.3906 37.7068 58.4456 37.4016 58.5115 37.1182C59.3887 32.9325 60.1782 28.9648 59.345 27.6567C59.2134 27.4824 59.0378 27.3516 58.7747 27.308H58.5554C56.9763 27.308 56.0989 31.7988 55.2217 36.5077C55.1504 36.8146 55.092 37.1343 55.0327 37.4598C54.9824 37.7355 54.9312 38.0154 54.8708 38.2953C54.2129 41.5217 53.9058 43.9198 53.8181 45.751L56.3184 46.187C56.9324 44.443 57.5464 42.1322 58.1606 38.9058C58.2263 38.6223 58.281 38.3171 58.3357 38.012Z" fill="white"/>
<defs>
<filter id="filter0_d" x="0.5" y="0.5" width="81" height="81" filterUnits="userSpaceOnUse" color-interpolation-filters="sRGB">
<feFlood flood-opacity="0" result="BackgroundImageFix"/>
<feColorMatrix in="SourceAlpha" type="matrix" values="0 0 0 0 0 0 0 0 0 0 0 0 0 0 0 0 0 0 127 0"/>
<feOffset/>
<feGaussianBlur stdDeviation="4"/>
<feColorMatrix type="matrix" values="0 0 0 0 0.243137 0 0 0 0 0.764706 0 0 0 0 0 0 0 0 0.5 0"/>
<feBlend mode="normal" in2="BackgroundImageFix" result="effect1_dropShadow"/>
<feBlend mode="normal" in="SourceGraphic" in2="effect1_dropShadow" result="shape"/>
</filter>
</defs>
</svg>
