<svg width="82" height="82" viewBox="0 0 82 82" fill="none" xmlns="http://www.w3.org/2000/svg">
<g filter="url(#filter0_d)">
<path fill-rule="evenodd" clip-rule="evenodd" d="M41 73C58.6731 73 73 58.6731 73 41C73 37.5827 72.4643 34.2905 71.4724 31.2028C67.3343 18.322 55.2558 9 41 9C23.3269 9 9 23.3269 9 41C9 58.6731 23.3269 73 41 73Z" fill="white"/>
<path fill-rule="evenodd" clip-rule="evenodd" d="M41 73C58.6731 73 73 58.6731 73 41C73 37.5827 72.4643 34.2905 71.4724 31.2028C67.3343 18.322 55.2558 9 41 9C23.3269 9 9 23.3269 9 41C9 58.6731 23.3269 73 41 73Z" stroke="#206F8A"/>
</g>
<path fill-rule="evenodd" clip-rule="evenodd" d="M60.3977 26.9592C60.0466 26.4796 59.5642 26.1308 58.9502 26.0436C58.8899 26.0237 58.8206 26.0128 58.7502 26.007C58.667 26 58.5828 26 58.5115 26C55.8359 26 55.0024 30.2729 53.906 36.2461C53.8181 36.8129 53.6865 37.4669 53.5549 38.0338C52.897 41.3038 52.5461 43.7454 52.4585 45.6638C52.0198 45.8383 51.7129 46.2743 51.5813 46.8411C51.4934 47.3207 51.5813 47.8003 51.8445 48.1491L50.1338 51.8987L52.0637 54.6892C51.9321 54.602 51.8445 54.5148 51.7129 54.4276L51.4854 54.252C50.616 53.5801 49.855 52.9922 49.1687 53.0323C48.9495 52.0732 48.4668 51.4191 47.7651 51.1575C46.5808 50.6779 45.0894 51.3755 43.8613 52.2039C44.563 50.2855 44.3877 49.6751 43.8174 49.3263L43.8101 49.3222C43.5017 49.1466 42.9253 48.8187 41.0103 50.8087C41.3611 49.4571 41.1418 48.9775 40.7031 48.7159C40.3962 48.5415 39.782 48.2363 37.7644 50.5035C38.8591 47.195 38.5549 46.8422 38.2922 46.5372L38.2908 46.5359C38.1152 46.3179 37.8081 46.1871 37.5012 46.2743C36.887 46.4051 35.8345 47.7567 34.8254 49.3263C34.9133 48.9339 35.001 48.4979 35.0449 48.1055C35.9221 42.8734 35.0449 38.7314 32.5447 36.1153C31.4919 34.9817 30.5269 35.0253 29.9568 35.2433C28.2021 35.8537 26.9302 39.211 26.053 43.0914C25.4543 42.8269 24.7798 42.5875 24.0681 42.3351L24.0593 42.3319L24.0542 42.3302L23.6721 42.1944L23.3772 42.0886C22.5918 41.8284 21.7632 41.525 20.9341 41.2214L20.929 41.2195L20.9209 41.2166C20.5701 41.0858 20.1753 41.2602 20.0437 41.609C19.9121 41.9578 20.0876 42.3502 20.4385 42.481C20.9194 42.6723 21.3875 42.8373 21.842 42.9977L22.2009 43.1248C22.4509 43.2138 22.6968 43.3032 22.9387 43.3966C23.9915 43.7454 24.9563 44.0942 25.7898 44.443C24.8687 48.9339 24.3862 53.7299 24.2546 55.2996C24.2107 55.6048 24.3862 55.8664 24.6931 55.9972C24.9563 56.0844 25.3071 55.9972 25.4827 55.7792C29.0356 51.1575 30.2637 48.3235 29.6057 46.2307C29.2549 45.1407 28.4653 44.3558 27.325 43.7454C28.1584 39.9958 29.2109 36.9873 30.4392 36.5949L30.4451 36.593C30.5808 36.5478 30.9316 36.431 31.6235 37.1617C36.7964 42.5987 32.2144 53.9026 31.8635 54.7683L31.8428 54.82C31.8428 54.8362 31.8367 54.8464 31.8291 54.855L31.8169 54.8674C31.8074 54.8772 31.7991 54.8879 31.7991 54.9072C31.7112 55.256 31.8867 55.6048 32.1938 55.7356C32.5447 55.8664 32.8955 55.692 33.0271 55.3868C33.0271 55.3649 33.0491 55.3212 33.082 55.2556C33.1006 55.2186 33.1228 55.1746 33.1465 55.1237L33.1729 55.0654C33.1826 55.0428 33.1926 55.0192 33.2026 54.9944C33.729 53.8607 35.7029 50.5035 36.9749 48.7595C36.7117 49.7187 36.1853 51.3755 35.0886 54.1224C34.957 54.4276 35.0886 54.7764 35.3958 54.9508C35.7029 55.1252 36.0537 55.038 36.2729 54.7328C37.4573 53.1195 38.9048 51.3319 39.782 50.5035C39.6504 51.0703 39.2996 52.1167 38.554 53.9044C38.4224 54.2096 38.554 54.5584 38.8171 54.7328C39.124 54.9072 39.4751 54.82 39.6943 54.5584C40.7471 53.2068 42.063 51.7679 42.8525 51.0703C42.7209 51.6371 42.3699 52.5963 41.6243 54.2532C41.4927 54.5584 41.5803 54.9072 41.8435 55.0816C42.1067 55.256 42.4578 55.256 42.677 54.9944C43.9929 53.7299 46.23 52.1603 47.1948 52.5527C47.7651 52.7708 47.8528 53.8607 47.8967 54.4712C47.8967 54.82 48.1599 55.0816 48.5107 55.1252C48.8616 55.1688 49.1687 54.9508 49.2563 54.6456V54.602C49.6008 54.6875 50.325 55.2766 50.8079 55.6694L50.8354 55.692C51.4934 56.2152 52.1514 56.7384 52.7217 56.9564C52.8093 57 52.897 57 52.9409 57C53.2041 57 53.4673 56.8256 53.5549 56.564C53.6428 56.3896 53.5989 56.1716 53.5112 55.9972L57.2834 53.512L57.1519 49.4135C57.5027 49.1955 57.7659 48.8031 57.8975 48.2799C57.9851 47.9311 57.9414 47.5387 57.7659 47.1899C57.7219 47.0591 57.6343 46.9283 57.5027 46.8411C58.1167 45.0534 58.7747 42.6554 59.3889 39.3418C59.4209 39.1937 59.4502 39.0456 59.4783 38.8982C59.5032 38.7669 59.5271 38.6362 59.5508 38.5064C59.6101 38.1808 59.6685 37.8611 59.7397 37.5541C60.8362 32.3657 61.582 28.7032 60.3977 26.9592ZM28.29 46.4487C28.6848 47.7567 27.8953 49.8059 25.7898 52.8143C26.053 50.2855 26.4917 47.4951 26.9741 44.9226C27.6321 45.3586 28.1145 45.8383 28.29 46.4487ZM54.6516 51.4191L54.2131 53.7736L56.0991 52.64L55.9675 49.2827L53.1165 48.7595L51.7129 51.7679L52.9412 53.5555L53.3796 51.2011C53.4675 50.8523 53.8184 50.5907 54.1252 50.6343C54.4763 50.7215 54.7395 51.0703 54.6516 51.4191ZM56.6694 47.8003C56.6694 47.8875 56.6255 47.9747 56.5815 48.0183L54.7395 47.6695L52.8972 47.3207C52.8533 47.2771 52.8533 47.2335 52.8972 47.1027C52.8972 47.0155 52.9409 46.9283 52.9849 46.8847L56.6694 47.5823C56.6694 47.5945 56.6729 47.6102 56.6768 47.6284C56.687 47.6748 56.7009 47.7375 56.6694 47.8003ZM58.3359 38.012C58.3909 37.7068 58.4458 37.4016 58.5115 37.1181C59.3887 32.9325 60.1782 28.9648 59.345 27.6568C59.2134 27.4824 59.0378 27.3516 58.7747 27.308H58.5554C56.9763 27.308 56.0989 31.7989 55.2217 36.5077C55.1504 36.8147 55.092 37.1344 55.0327 37.46C54.9824 37.7356 54.9312 38.0155 54.8708 38.2953C54.2129 41.5218 53.9058 43.9198 53.8181 45.751L56.3184 46.1871C56.9324 44.443 57.5464 42.1322 58.1606 38.9058C58.2266 38.6224 58.2812 38.3172 58.3359 38.012Z" fill="#206F8A"/>
<defs>
<filter id="filter0_d" x="0.5" y="0.5" width="81" height="81" filterUnits="userSpaceOnUse" color-interpolation-filters="sRGB">
<feFlood flood-opacity="0" result="BackgroundImageFix"/>
<feColorMatrix in="SourceAlpha" type="matrix" values="0 0 0 0 0 0 0 0 0 0 0 0 0 0 0 0 0 0 127 0"/>
<feOffset/>
<feGaussianBlur stdDeviation="4"/>
<feColorMatrix type="matrix" values="0 0 0 0 0.12549 0 0 0 0 0.435294 0 0 0 0 0.541176 0 0 0 0.5 0"/>
<feBlend mode="normal" in2="BackgroundImageFix" result="effect1_dropShadow"/>
<feBlend mode="normal" in="SourceGraphic" in2="effect1_dropShadow" result="shape"/>
</filter>
</defs>
</svg>
