<svg xmlns="http://www.w3.org/2000/svg" xmlns:xlink="http://www.w3.org/1999/xlink" version="1.1" x="0px" y="0px" viewBox="0 174.3 841.9 1052.375" enable-background="new 0 174.3 841.9 841.9" xml:space="preserve"><circle cx="403.7" cy="335" r="37.7"/><path d="M500.5,473c0,0.1,0,0.2,0,0.3c0,0.2,0,0.4,0,0.6V473z"/><path d="M832.7,339L725.9,232.1c-12.4-12.4-24.9-13.6-38.1-13.6l0,0c0,0-73.1,0.1-78.7,0.4c-10.9,0.7-17.8,4.8-24.5,10  c-2.7,2.1-162.1,162-162.1,162c-6.6,6.6-12.4,17.2-12.4,32.8L410,567l-61.1,61.1c-7.4,7.4-7.4,19.3,0,26.7c7.4,7.4,19.3,7.4,26.7,0  l58.6-58.6c14.2-14.2,14-27,13.7-37.1l1-43.4h67.2V591l0,0l0,0c0,10.4,8.5,18.9,18.9,18.9s18.9-8.5,18.9-18.9l0,0l0,0l-0.1-92.9  c0-0.2,0-0.4,0-0.6c-0.3-12.4-10.4-21.4-20.6-21.4h-54.7v-90.6l104.1-104.1h82.9l-49,51.6c-9.2,9.2-8.9,25-1,32  c7.8,6.8,14.5,6,22.6,6h98.4c10.2,0,19-7.1,19.4-17.3c0.4-10.7-8.2-18.6-18.9-18.6h-69.4l54.1-54.1l84.3,84.5  c7.4,7.4,19.3,7.4,26.7,0C840,358.3,840,346.4,832.7,339z"/><circle cx="520" cy="218.4" r="37.7"/><polygon points="576.3,389.6 576.3,631.3 576.3,655.2 576.3,1009.5 841.9,1009.5 841.9,655.2 841.9,631.3 841.9,389.6 "/><rect x="288.2" y="684.1" width="265.6" height="325.6"/><rect x="0.2" y="886.9" width="265.6" height="122.8"/></svg>