<svg xmlns="http://www.w3.org/2000/svg" xmlns:xlink="http://www.w3.org/1999/xlink" version="1.1" x="0px" y="0px" viewBox="0 0 100 125" enable-background="new 0 0 100 100" xml:space="preserve"><path d="M37.563,71.329L35,73.379V66.5c0-0.828-0.672-1.5-1.5-1.5S32,65.672,32,66.5v6.879l-2.563-2.051  c-0.647-0.518-1.592-0.412-2.109,0.234c-0.517,0.647-0.412,1.592,0.234,2.109v-0.001l5.938,4.75l5.938-4.75  c0.646-0.518,0.751-1.461,0.233-2.108C39.153,70.916,38.21,70.812,37.563,71.329z"/><path d="M86.5,13.5h-73c-2.2,0-4,1.8-4,4v54c0,2.2,1.8,4,4,4h5.556c1.753,6.34,7.547,11,14.444,11s12.691-4.66,14.444-11h4.111  c1.753,6.34,7.547,11,14.444,11s12.691-4.66,14.444-11H86.5c2.2,0,4-1.8,4-4v-54C90.5,15.3,88.7,13.5,86.5,13.5z M85.5,18.5v18.802  l-9.164-4.868C76.44,31.972,76.5,31.493,76.5,31c0-3.59-2.909-6.5-6.5-6.5s-6.5,2.91-6.5,6.5c0,1.117,0.282,2.168,0.778,3.086  l-8.57,9.579C54.656,42.933,53.379,42.5,52,42.5c-2.085,0-3.935,0.984-5.124,2.51l-10.43-5.214C36.479,39.535,36.5,39.27,36.5,39  c0-3.59-2.909-6.5-6.5-6.5s-6.5,2.91-6.5,6.5c0,1,0.232,1.942,0.635,2.789L14.5,49.708V18.5H85.5z M66.5,31c0-1.93,1.57-3.5,3.5-3.5  s3.5,1.57,3.5,3.5s-1.57,3.5-3.5,3.5S66.5,32.93,66.5,31z M55.5,49c0,1.93-1.57,3.5-3.5,3.5s-3.5-1.57-3.5-3.5s1.57-3.5,3.5-3.5  S55.5,47.07,55.5,49z M26.5,39c0-1.93,1.57-3.5,3.5-3.5s3.5,1.57,3.5,3.5s-1.57,3.5-3.5,3.5S26.5,40.93,26.5,39z M33.5,81.5  c-5.514,0-10-4.486-10-10s4.486-10,10-10s10,4.486,10,10S39.014,81.5,33.5,81.5z M66.5,81.5c-5.514,0-10-4.486-10-10s4.486-10,10-10  s10,4.486,10,10S72.014,81.5,66.5,81.5z M81.449,70.5c-0.517-7.816-7.002-14-14.949-14s-14.433,6.184-14.949,14h-3.102  c-0.517-7.816-7.002-14-14.949-14s-14.433,6.184-14.949,14H14.5V53.591l11.515-9.463C27.116,44.984,28.496,45.5,30,45.5  c2.248,0,4.229-1.141,5.396-2.875l10.229,5.115C45.544,48.147,45.5,48.568,45.5,49c0,3.59,2.909,6.5,6.5,6.5s6.5-2.91,6.5-6.5  c0-1.117-0.282-2.168-0.778-3.086l8.57-9.579C67.344,37.067,68.62,37.5,70,37.5c2.021,0,3.827-0.923,5.02-2.369l10.48,5.567v7.731  l-2.335-2.335c-0.293-0.293-0.768-0.293-1.061,0s-0.293,0.768,0,1.061L85.5,50.55v4.821l-5.999-5.998  c-0.293-0.293-0.768-0.293-1.061,0s-0.293,0.768,0,1.061l7.06,7.059v4.821l-7.712-7.713c-0.293-0.293-0.768-0.293-1.061,0  s-0.293,0.768,0,1.061l8.772,8.773V70.5H81.449z"/><path d="M72.438,69.329l-5.938-4.75l-5.938,4.749c-0.646,0.518-0.752,1.462-0.234,2.109c0.518,0.646,1.462,0.751,2.109,0.234v-0.001  L65,69.621V76.5c0,0.828,0.672,1.5,1.5,1.5s1.5-0.672,1.5-1.5v-6.879l2.563,2.05c0.647,0.518,1.591,0.413,2.108-0.233  C73.188,70.79,73.084,69.846,72.438,69.329z"/>
</svg>
