<svg width="82" height="82" viewBox="0 0 82 82" fill="none" xmlns="http://www.w3.org/2000/svg">
<g filter="url(#filter0_d)">
<path fill-rule="evenodd" clip-rule="evenodd" d="M41 73C58.6731 73 73 58.6731 73 41C73 37.5827 72.4643 34.2905 71.4724 31.2028C67.3343 18.322 55.2558 9 41 9C23.3269 9 9 23.3269 9 41C9 58.6731 23.3269 73 41 73Z" fill="white"/>
<path fill-rule="evenodd" clip-rule="evenodd" d="M41 73C58.6731 73 73 58.6731 73 41C73 37.5827 72.4643 34.2905 71.4724 31.2028C67.3343 18.322 55.2558 9 41 9C23.3269 9 9 23.3269 9 41C9 58.6731 23.3269 73 41 73Z" stroke="#206F8A"/>
</g>
<path fill-rule="evenodd" clip-rule="evenodd" d="M62.4478 41.9352V41.4988C62.4478 29.6428 52.8032 19.998 40.9478 19.998C34.3643 19.998 28.2329 22.9537 24.124 28.1077L23.6211 28.7382L24.8818 29.7433L25.3853 29.1123C29.1855 24.3447 34.8579 21.6105 40.9478 21.6105C51.9136 21.6105 60.8354 30.5323 60.8354 41.4988V41.8649L54.5063 36.5022L53.4644 37.7325L62.1489 45.0908L68.9072 35.7847L67.6025 34.8372L62.4478 41.9352ZM61.8652 42.7378L61.355 42.3051H62.1797L61.8652 42.7378ZM59.4375 52.5039L58.0845 51.6267L57.6455 52.303C53.9575 57.9912 47.7153 61.3871 40.9478 61.3871C29.981 61.3871 21.0586 52.4652 21.0586 41.4988C21.0586 40.6012 21.1226 39.7041 21.2417 38.8275L27.3159 44.6044L28.4268 43.4354L20.1802 35.5934L12.897 44.4954L14.145 45.516L19.6221 38.8231C19.5117 39.7041 19.4468 40.6012 19.4468 41.4994C19.4468 53.3553 29.0923 63.0001 40.9482 63.0001C48.2646 63.0001 55.0127 59.329 58.999 53.1807L59.4375 52.5039Z" fill="#206F8A"/>
<path d="M49.3713 40.0366L42.0253 29.2637C41.7883 28.9121 41.179 28.9121 40.942 29.2637L33.6299 39.9726L41.5514 45.1513L49.3713 40.0366Z" fill="#206F8A"/>
<path d="M41.6267 46.2217C41.5287 46.2847 41.3979 46.3161 41.2672 46.3161C41.1365 46.3161 41.0058 46.2847 40.9078 46.2217L33 40.9639C33 41.0898 33.0327 41.2157 33.098 41.3102L40.6464 52.6444C40.7771 52.8019 40.9731 52.9278 41.1692 52.9278C41.3653 52.9278 41.594 52.8333 41.692 52.6444L49.2731 41.3102C49.3384 41.2472 49.3384 41.1528 49.3711 41.0583L41.6267 46.2217Z" fill="#206F8A"/>
<defs>
<filter id="filter0_d" x="0.5" y="0.5" width="81" height="81" filterUnits="userSpaceOnUse" color-interpolation-filters="sRGB">
<feFlood flood-opacity="0" result="BackgroundImageFix"/>
<feColorMatrix in="SourceAlpha" type="matrix" values="0 0 0 0 0 0 0 0 0 0 0 0 0 0 0 0 0 0 127 0"/>
<feOffset/>
<feGaussianBlur stdDeviation="4"/>
<feColorMatrix type="matrix" values="0 0 0 0 0.12549 0 0 0 0 0.435294 0 0 0 0 0.541176 0 0 0 0.5 0"/>
<feBlend mode="normal" in2="BackgroundImageFix" result="effect1_dropShadow"/>
<feBlend mode="normal" in="SourceGraphic" in2="effect1_dropShadow" result="shape"/>
</filter>
</defs>
</svg>
