<svg xmlns="http://www.w3.org/2000/svg" xmlns:xlink="http://www.w3.org/1999/xlink" version="1.1" x="0px" y="0px" viewBox="0 0 100 125" style="enable-background:new 0 0 100 100;" xml:space="preserve">
<g>
	<path d="M54.7,36h-3.2v-4.5c0-0.8-0.7-1.5-1.5-1.5s-1.5,0.7-1.5,1.5V36h-3.2c-1.5,0-2.8,1.3-2.8,2.8v13.4c0,1.5,1.3,2.8,2.8,2.8   h3.2v2.5c0,0.8,0.7,1.5,1.5,1.5s1.5-0.7,1.5-1.5V55h3.2c1.5,0,2.8-1.3,2.8-2.8V38.8C57.5,37.3,56.2,36,54.7,36z M54.5,52h-9V39h9   V52z"/><path d="M74.9,22.6h-3.2v-4.1c0-0.8-0.7-1.5-1.5-1.5s-1.5,0.7-1.5,1.5v4.1h-3.2c-1.5,0-2.8,1.3-2.8,2.8v15.5c0,1.5,1.3,2.8,2.8,2.8   h3.2v9.8c0,0.8,0.7,1.5,1.5,1.5s1.5-0.7,1.5-1.5v-9.8h3.2c1.5,0,2.8-1.3,2.8-2.8V25.4C77.8,23.8,76.5,22.6,74.9,22.6z M74.8,40.7   h-9V25.6h9V40.7z"/><path d="M34.4,47.9h-3.2V43c0-0.8-0.7-1.5-1.5-1.5s-1.5,0.7-1.5,1.5v4.9h-3.2c-1.5,0-2.8,1.3-2.8,2.8v22.5c0,1.6,1.3,2.8,2.8,2.8   h3.2v5.5c0,0.8,0.7,1.5,1.5,1.5s1.5-0.7,1.5-1.5V76h3.2c1.5,0,2.8-1.3,2.8-2.8V50.7C37.2,49.2,36,47.9,34.4,47.9z M34.2,73h-9V50.9   h9V73z"/>
	<path class="st0" d="M70.2,22.3"/>
</g>
</svg>
