<svg width="32" height="38" viewBox="0 0 32 38" fill="none" xmlns="http://www.w3.org/2000/svg">
<path fill-rule="evenodd" clip-rule="evenodd" d="M16.4 11.5172H18.3199C19.22 11.5172 20 12.2793 20 13.1586V21.0138C20 21.8931 19.22 22.6552 18.3199 22.6552H16.4V24.1207C16.4 24.5897 15.98 25 15.5 25C15.02 25 14.6 24.5897 14.6 24.1207V22.6552H12.6801C11.78 22.6552 11 21.8931 11 21.0138V13.1586C11 12.2793 11.78 11.5172 12.6801 11.5172H14.6V8.87933C14.6 8.41034 15.02 8 15.5 8C15.98 8 16.4 8.41034 16.4 8.87933V11.5172ZM12.8 13.2759V20.8965H18.2001V13.2759H12.8Z" fill="#206F8A"/>
<path fill-rule="evenodd" clip-rule="evenodd" d="M28.3981 3.24213H30.3174C31.277 3.24213 32.0568 3.93683 31.9967 4.86316V13.8369C31.9967 14.7053 31.217 15.4579 30.3174 15.4579H28.3981V21.1316C28.3981 21.5947 27.9781 22 27.4984 22C27.0186 22 26.5988 21.5947 26.5988 21.1316V15.4579H24.6794C23.7797 15.4579 23 14.7053 23 13.8369V4.86316C23 3.99475 23.7797 3.24213 24.6794 3.24213H26.5988V0.868408C26.5988 0.405273 27.0186 0 27.4984 0C27.9781 0 28.3981 0.405273 28.3981 0.868408V3.24213ZM24.8594 13.7211H30.2574V4.97894H24.8594V13.7211Z" fill="#206F8A"/>
<path fill-rule="evenodd" clip-rule="evenodd" d="M5.40002 18.547H7.31995C8.28003 18.547 9 19.2675 9 20.0988V32.5687C9 33.4 8.21997 34.1205 7.31995 34.1205H5.40002V37.1687C5.40002 37.6121 4.97998 38 4.5 38C4.02002 38 3.59998 37.6121 3.59998 37.1687V34.1205H1.68005C0.780029 34.1205 0 33.4554 0 32.5687V20.0988C0 19.2675 0.780029 18.547 1.68005 18.547H3.59998V15.8313C3.59998 15.3879 4.02002 15 4.5 15C4.97998 15 5.40002 15.3879 5.40002 15.8313V18.547ZM1.80005 20.2097V32.4578H7.20007V20.2097H1.80005Z" fill="#206F8A"/>
</svg>
