<svg width="82" height="82" fill="none" xmlns="http://www.w3.org/2000/svg" style=""><rect id="backgroundrect" width="100%" height="100%" x="0" y="0" fill="none" stroke="none"/>
<defs>
<filter id="filter0_d" x="0.5" y="0.5" width="81" height="81" filterUnits="userSpaceOnUse" color-interpolation-filters="sRGB">
<feFlood flood-opacity="0" result="BackgroundImageFix"/>
<feColorMatrix in="SourceAlpha" type="matrix" values="0 0 0 0 0 0 0 0 0 0 0 0 0 0 0 0 0 0 127 0"/>
<feOffset/>
<feGaussianBlur stdDeviation="4"/>
<feColorMatrix type="matrix" values="0 0 0 0 0.12549 0 0 0 0 0.435294 0 0 0 0 0.541176 0 0 0 0.5 0"/>
<feBlend mode="normal" in2="BackgroundImageFix" result="effect1_dropShadow"/>
<feBlend mode="normal" in="SourceGraphic" in2="effect1_dropShadow" result="shape"/>
</filter>
</defs>
<g class="currentLayer" style=""><title>Layer 1</title><g filter="url(#filter0_d)" id="svg_1" class="">
<path fill-rule="evenodd" clip-rule="evenodd" d="M41 73C58.6731 73 73 58.6731 73 41C73 37.5827 72.4643 34.2905 71.4724 31.2028C67.3343 18.322 55.2558 9 41 9C23.3269 9 9 23.3269 9 41C9 58.6731 23.3269 73 41 73Z" fill="white" id="svg_2"/>
<path fill-rule="evenodd" clip-rule="evenodd" d="M41 73C58.6731 73 73 58.6731 73 41C73 37.5827 72.4643 34.2905 71.4724 31.2028C67.3343 18.322 55.2558 9 41 9C23.3269 9 9 23.3269 9 41C9 58.6731 23.3269 73 41 73Z" stroke="#206F8A" id="svg_3"/>
</g><g transform="translate(0, 256) scale(0.1, -0.1)" fill="#206F8A" stroke="none" id="svg_4" class="">
<path d="M393.36820697784424,2348.0017518997192 c-19.48069953918457,-3.254049062728882 -41.744361877441406,-15.619437217712402 -58.01395797729492,-32.32355880737305 c-50.949527740478516,-51.63092041015625 -42.81472396850586,-134.71766662597656 17.125890731811523,-175.50173950195312 c19.266626358032227,-12.799259185791016 37.676963806152344,-18.439613342285156 62.08134078979492,-18.439613342285156 c100.82868957519531,0 150.4937744140625,121.91838073730469 79.20724487304688,193.9413299560547 c-27.187353134155273,27.767885208129883 -61.6532096862793,38.83165740966797 -100.4005355834961,32.32355880737305 z" id="svg_5"/>
<path d="M306.45414447784424,2134.1023378372192 c-39.81769943237305,-26.466266632080078 -72.57096862792969,-72.67376708984375 -83.06058502197266,-117.79660034179688 c-6.636282920837402,-27.984825134277344 -6.850356578826904,-30.15419578552246 -1.2844418287277222,-36.01148223876953 l4.709620475769043,-5.206479072570801 l187.7425994873047,0 l187.7425994873047,0 l4.709620475769043,5.206479072570801 c5.565914154052734,5.8572893142700195 5.351840496063232,8.026655197143555 -1.2844418287277222,36.01148223876953 c-10.703680992126465,45.33975601196289 -43.6710205078125,91.76419067382812 -83.48872375488281,118.01353454589844 l-15.413302421569824,9.979084968566895 l-13.486637115478516,-10.412958145141602 c-22.69180679321289,-17.354928970336914 -53.732486724853516,-28.635637283325195 -78.77911376953125,-28.635637283325195 c-25.046615600585938,0 -56.08729934692383,11.280704498291016 -78.77911376953125,28.635637283325195 c-7.49257755279541,5.8572893142700195 -13.700713157653809,10.412958145141602 -13.914788246154785,10.412958145141602 c-0.21407364308834076,-0.2169366031885147 -7.064429759979248,-4.772606372833252 -15.413302421569824,-10.196022033691406 z" id="svg_6"/>
</g></g></svg>