<svg xmlns="http://www.w3.org/2000/svg" width="82" height="82" fill="none" style=""><rect id="backgroundrect" width="100%" height="100%" x="0" y="0" fill="none" stroke="none"/>
<defs>
<filter id="filter0_d" x="0.5" y="0.5" width="81" height="81" filterUnits="userSpaceOnUse" color-interpolation-filters="sRGB">
<feFlood flood-opacity="0" result="BackgroundImageFix"/>
<feColorMatrix in="SourceAlpha" type="matrix" values="0 0 0 0 0 0 0 0 0 0 0 0 0 0 0 0 0 0 127 0"/>
<feOffset/>
<feGaussianBlur stdDeviation="4"/>
<feColorMatrix type="matrix" values="0 0 0 0 0.12549 0 0 0 0 0.435294 0 0 0 0 0.541176 0 0 0 0.5 0"/>
<feBlend mode="normal" in2="BackgroundImageFix" result="effect1_dropShadow"/>
<feBlend mode="normal" in="SourceGraphic" in2="effect1_dropShadow" result="shape"/>
</filter>
</defs>
<g class="currentLayer" style=""><title>Layer 1</title><g filter="url(#filter0_d)" id="svg_1">
<path fill-rule="evenodd" clip-rule="evenodd" d="M41 73C58.6731 73 73 58.6731 73 41C73 37.5827 72.4643 34.2905 71.4724 31.2028C67.3343 18.322 55.2558 9 41 9C23.3269 9 9 23.3269 9 41C9 58.6731 23.3269 73 41 73Z" fill="white" id="svg_2"/>
<path fill-rule="evenodd" clip-rule="evenodd" d="M41 73C58.6731 73 73 58.6731 73 41C73 37.5827 72.4643 34.2905 71.4724 31.2028C67.3343 18.322 55.2558 9 41 9C23.3269 9 9 23.3269 9 41C9 58.6731 23.3269 73 41 73Z" stroke="#206F8A" id="svg_3"/>
</g><path fill-rule="evenodd" clip-rule="evenodd" d="M24.98140829653488,45.721590899999995 L24.98140829653488,49.420454500000005 C24.98140829653488,49.857954500000005 25.183476576534883,50.255681800000005 25.466372176534882,50.573863599999996 C25.74926776653488,50.8522727 26.153404326534883,51.011363599999996 26.55754088653488,51.011363599999996 C26.961677446534882,51.011363599999996 27.365814016534884,50.8522727 27.68912325653488,50.534090899999995 L32.457934686534884,45.840909100000005 L46.88560998653488,45.840909100000005 C49.22960198653488,45.840909100000005 51.088630186534886,43.971590899999995 51.088630186534886,41.7045455 L51.088630186534886,29.13636364 C51.088630186534886,26.82954545 49.18918838653488,25 46.88560998653488,25 L25.87050873653488,25 C23.526516676534882,25 21.66748849393588,26.86931818 21.66748849393588,29.13636364 L21.66748849393588,41.6647727 C21.62707483773488,43.653409100000005 23.081966456534882,45.323863599999996 24.98140829653488,45.721590899999995 zM33.18538048653488,33.75 L35.08482238653488,35.6193182 L39.61115178653488,31.20454545 L41.591420986534885,33.15340909 L37.02467778653488,37.5681818 L35.04440868653488,39.5170455 L33.064139486534884,37.5681818 L31.16469768653488,35.698863599999996 L33.18538048653488,33.75 zM60.66666668653488,38.1647727 L60.66666668653488,50.693181800000005 C60.66666668653488,52.681818199999995 59.21177508653488,54.3522727 57.31233318653488,54.75 L57.31233318653488,58.4488636 C57.31233318653488,59.3238636 56.58488738653488,60 55.736200586534885,60 C55.332064086534885,60 54.927927486534884,59.8409091 54.60461828653488,59.5625 L49.83580678653488,54.869318199999995 L35.40813158653488,54.869318199999995 C33.14496688653488,54.869318199999995 31.32635231653488,53.119318199999995 31.205111346534878,50.971590899999995 L33.629930686534884,48.5852273 L34.11489458653488,48.5852273 L34.11489458653488,50.732954500000005 C34.11489458653488,51.409090899999995 34.68068578653488,52.005681800000005 35.40813158653488,52.005681800000005 L51.04821648653488,52.005681800000005 L54.362136286534884,55.267045499999995 L54.362136286534884,52.005681800000005 L56.463646486534884,52.005681800000005 C57.15067858653488,52.005681800000005 57.75688348653488,51.448863599999996 57.75688348653488,50.732954500000005 L57.75688348653488,38.1647727 C57.75688348653488,37.488636400000004 57.19109228653488,36.8920455 56.463646486534884,36.8920455 L53.91758608653488,36.8920455 L53.91758608653488,33.98863636 L56.463646486534884,33.98863636 C58.76722488653488,34.02840909 60.66666668653488,35.8977273 60.66666668653488,38.1647727 z" id="Shape" fill="#206F8A" class=""/></g></svg>