<svg enable-background="new 0 0 100 100" version="1.1" viewBox="0 0 100 125" x="0px" xml:space="preserve" xmlns:xlink="http://www.w3.org/1999/xlink" xmlns="http://www.w3.org/2000/svg" y="0px">
  <g><rect height="4.842" width="4.842" x="16.382" y="57.924"/><path d="M27.04,62.766h19.129c-0.489-1.557-0.825-3.178-1.018-4.842H27.04V62.766z"/><rect height="4.843" width="4.842" x="16.382" y="46.796"/><path d="M46.232,46.796H27.04v4.843h18.138C45.382,49.972,45.731,48.352,46.232,46.796z"/><rect height="4.843" width="4.842" x="16.382" y="69.048"/><path d="M27.04,69.048v4.843H53.1c-1.508-1.448-2.84-3.074-3.972-4.843H27.04z"/><polygon points="82.281,49.04 78.45,46.077 69.996,57.006 64.137,52.246 61.083,56.005 70.791,63.893  "/><path
    d="M92.923,54.867c0-11.888-9.672-21.56-21.561-21.56c-0.974,0-1.925,0.088-2.864,0.214V17.146   c0-3.805-3.113-6.917-6.918-6.917H26.176l-0.091,0.053c-0.532,0.014-1.064,0.192-1.502,0.565L6.308,26.396   c-0.494,0.42-0.772,0.996-0.834,1.594l-0.031-0.004V83.59c0,3.805,3.113,6.918,6.917,6.918h49.22c3.805,0,6.918-3.113,6.918-6.918   v-7.375c0.939,0.125,1.891,0.213,2.864,0.213C83.251,76.428,92.923,66.757,92.923,54.867z M25.474,16.446v14.215H10.285v-1.291   L25.474,16.446z M63.655,83.59c0,1.126-0.95,2.075-2.075,2.075H12.36c-1.125,0-2.075-0.949-2.075-2.075V35.503h20.021l0.01-20.433   H61.58c1.125,0,2.075,0.95,2.075,2.075v17.61c-8.089,3.11-13.854,10.939-13.854,20.111c0,9.171,5.765,17.002,13.854,20.112V83.59z    M71.362,71.586c-9.219,0-16.719-7.499-16.719-16.719c0-9.218,7.5-16.717,16.719-16.717S88.08,45.649,88.08,54.867   C88.08,64.087,80.581,71.586,71.362,71.586z"/></g>
</svg>