<svg width="82" height="82" viewBox="0 0 82 82" fill="none" xmlns="http://www.w3.org/2000/svg">
<g filter="url(#filter0_d)">
<path fill-rule="evenodd" clip-rule="evenodd" d="M41 73C58.6731 73 73 58.6731 73 41C73 37.5827 72.4643 34.2905 71.4724 31.2028C67.3343 18.322 55.2558 9 41 9C23.3269 9 9 23.3269 9 41C9 58.6731 23.3269 73 41 73Z" fill="#3EC300"/>
<path fill-rule="evenodd" clip-rule="evenodd" d="M41 73C58.6731 73 73 58.6731 73 41C73 37.5827 72.4643 34.2905 71.4724 31.2028C67.3343 18.322 55.2558 9 41 9C23.3269 9 9 23.3269 9 41C9 58.6731 23.3269 73 41 73Z" stroke="#3EC300"/>
</g>
<path fill-rule="evenodd" clip-rule="evenodd" d="M39.1729 45.8876C38.6428 45.8876 38.144 45.6802 37.7698 45.3043C34.5928 42.1157 34.5928 36.9255 37.7698 33.7382L43.0962 28.3917C44.6328 26.8487 46.6785 26 48.8574 26C51.0359 26 53.0815 26.8487 54.6182 28.3917C57.7939 31.5803 57.7939 36.77 54.6174 39.9586L51.7124 42.8749C50.9622 43.6273 49.6575 43.6273 48.9067 42.8749C48.5322 42.499 48.3257 41.9985 48.3257 41.467C48.3257 40.9344 48.5322 40.4338 48.9067 40.0579L51.812 37.1415C52.5996 36.3502 53.033 35.2966 53.033 34.1745C53.033 33.053 52.6001 31.9995 51.812 31.2087C51.0237 30.4181 49.9746 29.983 48.8569 29.983C47.739 29.983 46.6895 30.4181 45.9019 31.2087L40.5754 36.5552C38.9473 38.1908 38.9473 40.8517 40.5754 42.4873C40.9497 42.8632 41.1562 43.3638 41.1562 43.8952C41.1562 44.4279 40.9497 44.9284 40.5754 45.3043C40.2014 45.6802 39.7029 45.8876 39.1729 45.8876ZM43.9658 29.2632L38.6392 34.6097C35.9419 37.3174 35.9419 41.7238 38.6392 44.4303C38.9246 44.7148 39.4207 44.7173 39.7061 44.4303C39.8481 44.2871 39.9268 44.0964 39.9268 43.894C39.9268 43.7957 39.9082 43.6998 39.8726 43.6108C39.8608 43.5814 39.8472 43.5527 39.8315 43.5249C39.7979 43.4648 39.7559 43.4089 39.7061 43.3588C37.5984 41.2424 37.5984 37.7982 39.7061 35.6812L45.0325 30.3348C46.0527 29.3114 47.4109 28.7473 48.8569 28.7473C50.3037 28.7473 51.6621 29.3114 52.6814 30.3348C53.7014 31.3582 54.2629 32.7216 54.2629 34.1733C54.2629 35.6262 53.7014 36.9897 52.6814 38.0131L49.7764 40.9294C49.6958 41.0107 49.6355 41.1069 49.5984 41.2122C49.5703 41.2924 49.5554 41.3777 49.5554 41.4658C49.5554 41.6682 49.6343 41.8577 49.7764 42.0009C50.061 42.2867 50.5583 42.2867 50.843 42.0009L53.7483 39.0845C56.4451 36.3768 56.4451 31.971 53.7488 29.2632C52.4448 27.9542 50.7078 27.2332 48.8577 27.2332C47.0068 27.2332 45.27 27.9542 43.9658 29.2632ZM44.9336 38.1118C44.1841 37.3594 42.8757 37.3594 42.1279 38.1118C41.3545 38.8882 41.3545 40.153 42.1279 40.9288C43.7568 42.5645 43.7568 45.2253 42.1279 46.861L36.8015 52.2073C36.0139 52.998 34.9648 53.4332 33.8464 53.4332C32.7292 53.4332 31.6797 52.998 30.8921 52.2073C30.1042 51.4167 29.6702 50.3643 29.6702 49.2416C29.6702 48.1188 30.1042 47.0659 30.8921 46.2746L33.7971 43.3582C34.1716 42.9823 34.3782 42.4818 34.3782 41.9503C34.3782 41.4177 34.1716 40.9171 33.7971 40.5412C33.0483 39.79 31.7417 39.7888 30.991 40.5412L28.0852 43.4588C24.9087 46.6474 24.9087 51.8358 28.0852 55.0244C29.6216 56.5662 31.668 57.4161 33.8464 57.4161C36.0249 57.4161 38.071 56.5662 39.6077 55.0244L44.9336 49.678C46.4702 48.1349 47.3169 46.082 47.3169 43.8952C47.3169 41.7077 46.4702 39.6548 44.9336 38.1118ZM38.738 54.1522L44.064 48.8058C45.3689 47.4967 46.0869 45.7524 46.0869 43.8964C46.0869 42.0386 45.3689 40.2943 44.064 38.9852C43.7788 38.6994 43.282 38.6982 42.9973 38.9852C42.7029 39.2802 42.7029 39.761 42.9973 40.0567C45.1057 42.1732 45.1057 45.6172 42.9973 47.7343L37.6707 53.0807C36.6514 54.1053 35.293 54.6682 33.8462 54.6682C32.3997 54.6682 31.042 54.1053 30.0225 53.0807C29.0024 52.0574 28.4404 50.6939 28.4404 49.2422C28.4404 47.7905 29.0024 46.4271 30.0225 45.4025L32.9277 42.4861C33.2222 42.191 33.2222 41.7102 32.9277 41.4146C32.7856 41.2726 32.5957 41.1942 32.394 41.1942C32.1924 41.1942 32.0024 41.2726 31.8604 41.4146L28.9546 44.3322C26.2576 47.04 26.2576 51.4445 28.9546 54.1522C30.2593 55.4614 31.9961 56.1823 33.8462 56.1823C35.6965 56.1823 37.4333 55.4614 38.738 54.1522ZM48.9297 49.8996C48.6892 49.6582 48.3005 49.6582 48.0603 49.8996C47.8198 50.1409 47.8198 50.531 48.0603 50.7723L52.1748 54.9034C52.2947 55.0237 52.4521 55.0842 52.6096 55.0842C52.7668 55.0842 52.9243 55.0237 53.0442 54.9034C53.2847 54.662 53.2847 54.272 53.0442 54.0306L48.9297 49.8996ZM45.8604 52.1864C46.1775 52.0697 46.5317 52.2321 46.6497 52.553L48.3442 57.1693C48.4612 57.4896 48.2988 57.8445 47.9797 57.9624C47.9089 57.9877 47.8376 58 47.7668 58C47.5166 58 47.2817 57.8457 47.1902 57.5964L45.4956 52.9795C45.3789 52.6592 45.5413 52.3043 45.8604 52.1864ZM55.7275 49.028L51.1277 47.3257C50.8098 47.2097 50.4563 47.3714 50.3381 47.6924C50.2214 48.0121 50.3838 48.3664 50.7029 48.4843L55.3025 50.1866C55.3726 50.2119 55.4441 50.2242 55.5154 50.2242C55.655 50.2242 55.7898 50.1762 55.8977 50.0905C55.9832 50.0225 56.0515 49.9308 56.092 49.8206C56.209 49.5002 56.0466 49.1459 55.7275 49.028ZM32.6357 35.0343C32.4783 35.0343 32.3208 34.9738 32.2009 34.8535L28.0852 30.7224C27.8447 30.4811 27.8447 30.091 28.0852 29.8497C28.3254 29.6083 28.7141 29.6083 28.9546 29.8497L33.0703 33.9807C33.3108 34.222 33.3108 34.6121 33.0703 34.8535C32.9504 34.9738 32.793 35.0343 32.6357 35.0343ZM30.2156 37.4643C30.4658 37.4643 30.7007 37.31 30.7925 37.0607C30.9092 36.7409 30.7468 36.3867 30.4277 36.2687L25.8274 34.5665C25.5088 34.4498 25.156 34.6121 25.0378 34.9331C24.9211 35.2528 25.0835 35.6071 25.4026 35.725L30.0029 37.4273C30.0735 37.4526 30.145 37.4643 30.2156 37.4643ZM35.0571 32.6037C34.8069 32.6037 34.572 32.4494 34.4802 32.2L32.7852 27.5814C32.6682 27.2622 32.8313 26.9073 33.1497 26.7894C33.4683 26.6716 33.821 26.8351 33.9392 27.1548L35.6343 31.7729C35.7512 32.0933 35.5889 32.4481 35.2698 32.566C35.199 32.5914 35.1277 32.6037 35.0571 32.6037Z" fill="white"/>
<defs>
<filter id="filter0_d" x="0.5" y="0.5" width="81" height="81" filterUnits="userSpaceOnUse" color-interpolation-filters="sRGB">
<feFlood flood-opacity="0" result="BackgroundImageFix"/>
<feColorMatrix in="SourceAlpha" type="matrix" values="0 0 0 0 0 0 0 0 0 0 0 0 0 0 0 0 0 0 127 0"/>
<feOffset/>
<feGaussianBlur stdDeviation="4"/>
<feColorMatrix type="matrix" values="0 0 0 0 0.243137 0 0 0 0 0.764706 0 0 0 0 0 0 0 0 0.5 0"/>
<feBlend mode="normal" in2="BackgroundImageFix" result="effect1_dropShadow"/>
<feBlend mode="normal" in="SourceGraphic" in2="effect1_dropShadow" result="shape"/>
</filter>
</defs>
</svg>
