<svg width="39" height="39" viewBox="0 0 39 39" fill="none" xmlns="http://www.w3.org/2000/svg">
<path fill-rule="evenodd" clip-rule="evenodd" d="M5.90851 39H33.592C36.5739 39 39 36.5739 39 33.592V5.48279C39 2.46021 36.5397 0 33.5173 0H5.90851C2.65039 0 0 2.65039 0 5.90845V33.0898C0 36.348 2.65039 39 5.90851 39ZM1.625 5.90845C1.625 3.54736 3.54736 1.625 5.90851 1.625H33.5173C35.6443 1.625 37.375 3.35559 37.375 5.48279V33.592C37.375 35.6785 35.6785 37.375 33.592 37.375H5.90851C3.54736 37.375 1.625 35.4526 1.625 33.0898V5.90845Z" fill="#636264"/>
<path d="M35.724 29H26.7273C23.5691 29 21 26.4318 21 23.2746C21 20.1175 23.5691 17.5492 26.7273 17.5492H35.724C36.6289 17.5492 37.3636 16.8131 37.3636 15.9101V13H39V15.9101C39 17.7161 37.5305 19.1851 35.724 19.1851H26.7273C24.4707 19.1851 22.6364 21.0188 22.6364 23.2746C22.6364 25.5304 24.4707 27.3642 26.7273 27.3642H35.724C36.6289 27.3642 37.3636 26.6297 37.3636 25.7251V23.1716H39V25.7251C39 27.531 37.5305 29 35.724 29Z" fill="#636264"/>
<path d="M39 15H37.375C37.375 13.0172 35.6785 11.4049 33.592 11.4049H5.6875C2.55125 11.4049 0 8.98044 0 6H1.625C1.625 8.128 3.44825 9.86067 5.6875 9.86067H33.592C36.5739 9.86067 39 12.1663 39 15Z" fill="#636264"/>
<path d="M35 11H33.4V8.42686C33.4 7.48229 32.6832 6.71429 31.8016 6.71429H6.1984C5.3168 6.71429 4.6 7.48229 4.6 8.42686V11H3V8.42686C3 6.53771 4.4336 5 6.1984 5H31.8016C33.5664 5 35 6.53771 35 8.42686V11Z" fill="#636264"/>
<path d="M26.5 25C27.3284 25 28 24.3284 28 23.5C28 22.6716 27.3284 22 26.5 22C25.6716 22 25 22.6716 25 23.5C25 24.3284 25.6716 25 26.5 25Z" fill="#636264"/>
</svg>
