<?xml version="1.0" encoding="utf-8"?><!DOCTYPE svg PUBLIC "-//W3C//DTD SVG 1.1//EN" "http://www.w3.org/Graphics/SVG/1.1/DTD/svg11.dtd"><svg version="1.1" xmlns="http://www.w3.org/2000/svg" xmlns:xlink="http://www.w3.org/1999/xlink" x="0px" y="0px" viewBox="0 0 100 71.6225" enable-background="new 0 0 100 57.298" xml:space="preserve"><path fill="#010101" d="M45.353,11.244c0.048-0.37,0.098-0.752,0.276-1.168c0.097-0.225,0.21-0.416,0.324-0.609
	c0.159-0.27,0.323-0.549,0.46-0.914c0.169-0.449,0.196-0.869,0.222-1.276c0.012-0.198,0.024-0.401,0.057-0.615
	c0.072-0.479,0.258-0.742,0.54-1.14l0.11-0.156c0.044-0.063,0.097-0.127,0.149-0.193c0.281-0.348,0.802-0.997,0.248-1.742
	c-0.27-0.363-0.744-0.476-1.201-0.584c-0.264-0.063-0.592-0.141-0.713-0.248c-0.213-0.189-0.331-0.364-0.456-0.548
	c-0.333-0.491-0.642-0.846-1.59-0.948c-0.605-0.065-1.205-0.016-1.782,0.034c-0.224,0.019-0.444,0.038-0.753,0.053
	c-0.759,0.036-1.476,0.073-1.941-0.313C38.436,0.156,38.132,0.001,36.892,0c-1.296,0.002-2.658,0.042-3.868,0.593
	c-1.191,0.541-1.799,0.999-1.991,2.096c-0.055-0.048-0.118-0.107-0.191-0.177c-0.327-0.314-1.009-0.967-1.907-0.199
	c-0.009,0.007-0.017,0.016-0.026,0.023l0.069-0.496l-0.854,0.414c-0.194,0.094-0.712,0.157-1.17,0.213
	c-1.062,0.13-2.161,0.265-2.618,0.92c-0.186,0.266-0.242,0.587-0.161,0.928c0.201,0.849,1.113,1.831,1.916,2.062
	c0.383,0.11,0.773,0.104,1.146,0.096c0.011,0,0.021,0,0.032,0c-0.122,0.025-0.271,0.048-0.458,0.074
	c-0.15,0.021-0.305,0.042-0.485,0.075c-0.919,0.167-1.195,0.125-1.277,0.087c-0.066-0.034-0.105-0.097-0.191-0.254
	c-0.078-0.144-0.175-0.321-0.342-0.485c-0.609-0.596-1.479-0.738-2.219-0.36c-0.747,0.383-1.145,1.188-1.013,2.051l0.039,0.259
	c-0.317-0.24-0.677-0.468-1.123-0.564C19.946,7.299,19.7,7.32,19.482,7.338c-0.202,0.016-0.393,0.032-0.485-0.023
	c-0.04-0.023-0.108-0.142-0.159-0.229c-0.107-0.184-0.24-0.414-0.485-0.582c-0.375-0.258-0.821-0.414-1.252-0.564
	C16.594,5.763,16.115,5.595,15.8,5.29c-0.075-0.072-0.131-0.158-0.188-0.239c-0.157-0.226-0.373-0.534-0.794-0.648
	c-0.455-0.123-0.917,0.14-1.288,0.352c-0.087,0.049-0.165,0.096-0.227,0.122c-0.277,0.12-0.549,0.21-0.814,0.299
	c-0.58,0.194-1.18,0.395-1.752,0.85l-0.118,0.092c-0.341,0.266-0.387,0.34-0.615,0.853c-0.07,0.158-0.108,0.279-0.148,0.441
	c-0.002,0.002-0.028,0.024-0.122,0.07C9.65,7.523,9.598,7.521,9.497,7.516C8.984,7.5,8.693,7.73,8.539,8.313
	C8.417,8.78,8.55,9.292,8.877,9.64c-0.479,0.048-1.104,0.169-1.39,0.798c-0.567,0.469-0.736,1.27-0.649,1.869
	c0.11,0.771,0.525,1.002,0.828,1.172c0.031,0.018,0.061,0.034,0.09,0.051c-0.765,0.702-2.036,1.355-2.938,1.614
	c-1.036,0.296-1.92,0.359-2.943,0.433L0,15.727l0.833,0.781c1.316,1.236,3.631,0.748,5.339,0.123
	c1.387-0.508,2.474-0.995,3.681-1.57c0.377-0.18,0.645-0.389,0.858-0.557c0.341-0.267,0.496-0.398,1.013-0.411
	c0.093,0.001,0.212-0.001,0.337-0.004c0.336-0.008,1.033-0.024,1.235,0.104c0.413,0.26,0.314,1.321,0.236,2.174
	c-0.059,0.639-0.115,1.242-0.007,1.711l0.075,0.328l0.332,0.058c0.375,0.065,0.641,0.221,0.79,0.462
	c0.177,0.287,0.196,0.708,0.052,1.183c-0.402,1.328-0.597,2.658-0.598,4.064c-0.001,1.163,0.42,1.761,0.827,2.339
	c0.207,0.294,0.403,0.571,0.556,0.941l0.058,0.141c0.486,1.172,1.036,2.501,2.136,3.28l0.633,0.449
	c0.079,0.191,0.185,0.383,0.341,0.568c0.215,0.258,0.924,1.057,1.34,1.354c0.528,0.377,1.104,0.363,1.607,0.35
	c0.292-0.006,0.569-0.015,0.801,0.056c0.417,0.125,0.659,0.385,0.966,0.713c0.082,0.088,0.165,0.176,0.251,0.262
	c0.577,0.575,1.086,0.723,1.626,0.879c0.221,0.063,0.462,0.133,0.736,0.244c0.1,0.041,0.192,0.066,0.276,0.082
	c0,0.003,0,0.007,0,0.01c-0.005,0.106-0.011,0.12-0.212,0.263c-0.178,0.125-0.421,0.299-0.595,0.621
	c-0.395,0.728-0.305,1.939-0.183,2.914c0.123,0.981,0.698,1.905,1.758,2.821c0.171,0.148,0.396,0.296,0.635,0.45
	c0.409,0.264,0.871,0.562,1.008,0.898c0.19,0.468,0.047,1.534-0.047,2.239c-0.035,0.257-0.066,0.489-0.083,0.68
	c-0.104,1.182-0.126,2.424-0.066,3.693c0.02,0.409,0,0.864-0.018,1.332c-0.04,0.999-0.082,2.034,0.193,2.911
	c0.171,0.547,0.339,0.711,0.68,0.953c0.082,0.057,0.18,0.127,0.305,0.229c0.123,0.101,0.241,0.272,0.366,0.456
	c0.2,0.292,0.426,0.621,0.779,0.795c0.265,0.132,0.668,0.201,1.092,0.201c0.573,0,1.184-0.126,1.543-0.392
	c0.295-0.219,0.433-0.534,0.376-0.866c-0.078-0.457-0.501-0.767-0.911-1.066c-0.182-0.132-0.407-0.297-0.48-0.4
	c-0.267-0.38-0.346-1.08-0.233-2.084c0.034-0.306,0.11-0.638,0.234-1.017l0.041-0.127c0.041-0.128,0.061-0.2,0.111-0.252
	c0.075-0.056,0.181-0.136,0.339-0.276c0.165-0.146,0.33-0.256,0.479-0.356c0.389-0.263,0.853-0.576,0.898-1.264
	c1.163-0.268,1.958-2,2.275-3.143c0.14-0.501,0.494-0.726,0.942-1.011c0.511-0.323,1.147-0.727,1.417-1.624
	c0.134-0.444,0.124-0.889,0.114-1.318c-0.013-0.547-0.023-1.019,0.271-1.365c0.115-0.136,0.306-0.271,0.49-0.404
	c0.392-0.279,0.836-0.598,0.873-1.135c0.024-0.362-0.151-0.716-0.537-1.078c-0.596-0.56-2.12-1.069-2.656-1.218
	c-0.3-0.084-0.632-0.113-0.952-0.143c-0.44-0.038-0.939-0.083-1.106-0.272c-0.044-0.051-0.083-0.224-0.11-0.351
	c-0.047-0.211-0.101-0.45-0.239-0.668c-0.306-0.479-1.162-1.216-1.647-1.479c-0.644-0.354-1.448-0.696-2.264-0.964
	c-1.392-0.457-2.444,0.016-3.373,0.431c-0.494,0.222-0.968,0.434-1.483,0.516c0.001-0.004,0.002-0.008,0.003-0.012
	c0.127-0.422,0.301-1-0.094-1.57c-0.31-0.447-0.708-0.561-1.069-0.582c0.042-0.086,0.079-0.18,0.106-0.283
	c0.114-0.451,0.068-0.635-0.038-0.975l-0.174-0.589l-0.396,0.017c-0.469,0.019-0.664,0.273-0.83,0.479
	c-0.749,0.441-1.429,0.399-1.632,0.201c-0.157-0.153-0.09-0.541,0.174-1.014c0.451-0.809,0.682-1.029,1.448-1.029
	c0.001,0,0.002,0,0.004,0c0.521,0.001,0.614,0.167,0.816,0.533c0.193,0.348,0.457,0.825,1.152,0.976
	c0.426,0.092,0.768,0.053,1.038-0.125c0.394-0.259,0.483-0.712,0.555-1.076c0.033-0.173,0.065-0.337,0.121-0.463
	c0.146-0.333,0.286-0.598,0.428-0.866c0.139-0.263,0.279-0.53,0.429-0.86c0.306-0.676,0.812-1.08,1.399-1.546
	c0.128-0.103,0.259-0.207,0.39-0.315c0.145-0.12,0.27-0.246,0.388-0.367c0.181-0.183,0.323-0.328,0.505-0.399
	c0.108-0.042,0.258-0.04,0.434-0.038c0.274,0.002,0.618,0.007,0.975-0.163c0.354-0.168,0.592-0.325,0.801-0.464
	c0.339-0.224,0.525-0.348,1.109-0.398c0.978-0.084,1.989-0.172,1.898-1.881c-0.046-0.904-0.49-1.425-0.92-1.928
	c-0.12-0.14-0.244-0.284-0.363-0.445c-0.335-0.449-0.55-1.043-0.573-1.587c-0.025-0.578,0.196-1.175,0.43-1.807
	c0.343-0.928,0.733-1.98,0.295-3.09c-0.121-0.307-0.318-0.651-0.508-0.984l-0.194-0.344c-0.111-0.204-0.276-0.324-0.396-0.411
	c-0.035-0.025-0.088-0.063-0.086-0.055c-0.017-0.043-0.021-0.179-0.024-0.269c-0.005-0.167-0.011-0.357-0.069-0.54
	c-0.107-0.347-0.415-1.193-0.997-1.771c0.3-0.163,0.563-0.391,0.864-0.778c0.098-0.126,0.207-0.302,0.325-0.495
	c0.123-0.201,0.232-0.369,0.329-0.503c-0.021,0.75,0.058,1.708,1.183,2.02c0.297,0.083,0.557,0.061,0.747,0.047
	c0.236-0.019,0.236-0.019,0.286,0.047c0.129,0.208,0.125,1.167,0.026,1.687c-0.075,0.386-0.162,0.759-0.248,1.128
	c-0.224,0.965-0.456,1.963-0.443,3.104c0.01,0.856,0.406,1.475,0.756,2.021c0.271,0.421,0.503,0.784,0.528,1.192l0.027,0.457
	l0.457,0.019c1.038,0.044,1.727-0.156,2.221-1.312c0.082-0.19,0.117-0.426,0.151-0.654c0.021-0.137,0.056-0.367,0.14-0.45
	c0.139-0.001,0.372-0.004,0.633-0.186c0.375-0.261,0.534-0.629,0.661-0.926c0.111-0.26,0.187-0.424,0.312-0.509
	c0.079-0.033,0.355-0.065,0.488-0.081c0.145-0.017,0.271-0.034,0.351-0.052c0.163-0.039,0.354-0.108,0.544-0.179
	c0.121-0.045,0.242-0.09,0.353-0.123C45.132,12.942,45.245,12.079,45.353,11.244z M26.416,37.206c0.06-0.109,0.145-0.173,0.29-0.276
	c0.242-0.172,0.609-0.432,0.639-1.038c0.015-0.302,0.041-0.831-0.466-0.995c0.503-0.126,0.956-0.328,1.376-0.517
	c0.872-0.39,1.625-0.727,2.643-0.394c0.758,0.249,1.501,0.564,2.093,0.89c0.352,0.192,1.073,0.812,1.279,1.138
	c0.042,0.065,0.074,0.206,0.104,0.342c0.055,0.246,0.123,0.553,0.338,0.799c0.436,0.495,1.149,0.559,1.778,0.614
	c0.287,0.025,0.558,0.05,0.769,0.108c0.69,0.192,1.884,0.652,2.234,0.98c0.186,0.175,0.215,0.264,0.22,0.264
	c-0.035,0.09-0.295,0.276-0.452,0.387c-0.224,0.161-0.477,0.342-0.672,0.572c-0.545,0.641-0.527,1.387-0.512,2.045
	c0.008,0.366,0.017,0.712-0.071,1.002c-0.162,0.537-0.528,0.769-0.991,1.062c-0.504,0.319-1.131,0.717-1.376,1.595
	c-0.312,1.123-1.086,2.599-1.72,2.418l-0.811-0.216l0.187,0.818c0.105,0.462,0.035,0.509-0.42,0.817
	c-0.182,0.123-0.381,0.258-0.583,0.438c-0.129,0.114-0.215,0.18-0.277,0.227c-0.286,0.216-0.329,0.324-0.465,0.751l-0.04,0.123
	c-0.145,0.443-0.236,0.842-0.277,1.217c-0.145,1.292-0.014,2.176,0.412,2.78c0.169,0.239,0.444,0.439,0.71,0.635
	c0.137,0.1,0.346,0.252,0.451,0.351c-0.315,0.149-1.177,0.209-1.503,0.047c-0.117-0.058-0.264-0.271-0.394-0.461
	c-0.153-0.223-0.326-0.475-0.562-0.668c-0.146-0.119-0.263-0.202-0.359-0.27c-0.212-0.15-0.212-0.15-0.299-0.43
	c-0.222-0.71-0.184-1.654-0.147-2.567c0.02-0.5,0.039-0.984,0.018-1.421c-0.058-1.224-0.037-2.421,0.063-3.557
	c0.016-0.178,0.045-0.395,0.077-0.634c0.123-0.908,0.275-2.038-0.018-2.757c-0.258-0.631-0.889-1.039-1.397-1.366
	c-0.195-0.127-0.381-0.243-0.521-0.365c-0.863-0.746-1.326-1.459-1.416-2.183C26.2,38.338,26.223,37.562,26.416,37.206z
	 M21.71,8.085c0.301,0.044,0.58,0.019,0.83-0.01c-0.015,0.069-0.029,0.139-0.042,0.209c-0.026,0.13-0.052,0.262-0.082,0.391
	c-0.287-0.118-0.541-0.32-0.82-0.544c-0.033-0.026-0.066-0.053-0.1-0.079L21.71,8.085z M44.349,11.114
	c-0.096,0.738-0.136,1.044-1.058,1.318c-0.131,0.039-0.273,0.091-0.416,0.144c-0.15,0.056-0.299,0.113-0.425,0.143
	c-0.052,0.012-0.138,0.021-0.235,0.032c-0.397,0.046-0.694,0.09-0.901,0.226c-0.414,0.271-0.58,0.659-0.713,0.971
	c-0.105,0.247-0.177,0.403-0.375,0.498c-0.185,0.002-0.529,0.007-0.856,0.435c-0.175,0.229-0.223,0.544-0.273,0.879
	c-0.021,0.141-0.05,0.334-0.081,0.404c-0.213,0.498-0.382,0.669-0.842,0.7c-0.124-0.451-0.368-0.832-0.606-1.203
	c-0.303-0.473-0.59-0.92-0.597-1.485c-0.011-1.018,0.197-1.915,0.417-2.863c0.088-0.381,0.178-0.766,0.255-1.165
	c0.003-0.018,0.306-1.792-0.205-2.479c-0.385-0.518-0.862-0.481-1.179-0.456c-0.146,0.011-0.273,0.021-0.398-0.014
	c-0.421-0.117-0.47-0.373-0.431-1.257c0.011-0.245,0.021-0.491,0.007-0.724l-0.024-0.395l-0.389-0.073
	c-0.869-0.161-1.412,0.73-1.809,1.38c-0.096,0.156-0.181,0.3-0.261,0.402c-0.405,0.521-0.606,0.579-1.5,0.834l-3.271,0.936
	l3.402,0.058c0.613,0.01,1.102,0.891,1.335,1.644c0.016,0.052,0.02,0.173,0.023,0.271c0.007,0.211,0.015,0.449,0.121,0.669
	c0.106,0.223,0.28,0.35,0.407,0.441c0.037,0.027,0.093,0.067,0.101,0.075l0.204,0.363c0.165,0.288,0.351,0.614,0.445,0.853
	c0.295,0.75,0.019,1.499-0.303,2.367c-0.099,0.269-0.195,0.542-0.279,0.82c-0.227-0.212-0.573-0.382-0.935-0.529
	c-0.515-0.35-1.18-0.534-1.752-0.54c-0.199-0.012-0.396-0.008-0.589-0.004l-0.332,0.003c-0.171-0.002-0.505-0.076-0.828-0.147
	c-1.055-0.235-2.649-0.59-3.129,0.583c-0.242,0.596-0.057,1.949-0.035,2.102c0.129,0.886,0.493,1.071,1.076,1.301l0.128,0.051
	c0.103,0.042,0.199,0.086,0.292,0.128c0.273,0.125,0.588,0.271,0.953,0.271c0.198,0,0.41-0.043,0.637-0.156
	c0.647-0.319,0.972-1.183,1.055-1.439c0.066-0.203,0.116-0.428,0.166-0.656c0.179-0.82,0.287-1.019,0.571-1.024
	c0.198,0.013,0.379,0.047,0.548,0.125c0.128,0.06,0.303,0.126,0.493,0.199c0.079,0.029,0.171,0.064,0.267,0.103
	c0.115,0.091,0.207,0.195,0.265,0.309l0.206-0.104c0.118,0.058,0.214,0.116,0.265,0.167l0.649-0.644
	c-0.119,0.414-0.202,0.838-0.183,1.284c0.032,0.739,0.321,1.542,0.773,2.149c0.133,0.179,0.271,0.341,0.404,0.497
	c0.377,0.442,0.65,0.761,0.679,1.323c0.039,0.731,0.02,0.733-0.974,0.819c-0.84,0.072-1.2,0.311-1.581,0.562
	c-0.177,0.117-0.378,0.251-0.678,0.394c-0.145,0.068-0.316,0.068-0.526,0.064c-0.247-0.002-0.523-0.006-0.815,0.108
	c-0.383,0.15-0.636,0.406-0.858,0.632c-0.096,0.097-0.195,0.2-0.313,0.297l-0.374,0.302c-0.631,0.503-1.284,1.022-1.69,1.921
	c-0.14,0.309-0.272,0.558-0.402,0.805c-0.153,0.29-0.303,0.575-0.46,0.934c-0.099,0.228-0.145,0.465-0.186,0.673
	c-0.028,0.142-0.074,0.378-0.114,0.423c0,0-0.069,0.027-0.27-0.017c-0.237-0.052-0.314-0.175-0.48-0.476
	c-0.232-0.419-0.583-1.052-1.701-1.055c-0.001,0-0.002,0-0.004,0c-1.363,0-1.845,0.672-2.334,1.549
	c-0.7,1.255-0.299,1.937,0.003,2.232c0.584,0.57,1.726,0.568,2.75,0.008c-0.025,0.046-0.055,0.096-0.089,0.148
	c-0.115,0.188-0.259,0.419-0.284,0.738l-0.04,0.518l0.519,0.027c0.162,0.007,0.316,0.004,0.461-0.002
	c0.424-0.014,0.493,0.002,0.593,0.146c0.106,0.154,0.07,0.324-0.043,0.701c-0.068,0.229-0.145,0.483-0.145,0.757
	c-0.301-0.102-0.549-0.228-0.837-0.515c-0.078-0.077-0.152-0.156-0.226-0.236c-0.346-0.369-0.738-0.787-1.415-0.99
	c-0.284-0.086-0.568-0.104-0.834-0.104c-0.097,0-0.191,0.002-0.283,0.005c-0.46,0.011-0.754,0.009-0.995-0.161
	c-0.261-0.186-0.847-0.815-1.153-1.181c-0.175-0.208-0.24-0.452-0.322-0.761c-0.079-0.294-0.168-0.626-0.375-0.958
	c-0.112-0.18-0.239-0.355-0.37-0.531c-0.024-0.101-0.051-0.197-0.082-0.288c-0.163-0.488-0.45-0.803-0.702-1.082
	c-0.116-0.128-0.221-0.243-0.31-0.368c-0.031-0.113-0.052-0.229-0.059-0.347l-0.072-0.389l-0.274-0.062l-1.374-1.77l0.321,1.318
	c-0.018-0.025-0.036-0.051-0.053-0.075c-0.36-0.511-0.644-0.914-0.643-1.755c0.001-1.307,0.183-2.541,0.554-3.772
	c0.229-0.757,0.172-1.471-0.16-2.008c-0.244-0.395-0.622-0.68-1.104-0.836c-0.011-0.309,0.026-0.708,0.062-1.099
	c0.11-1.188,0.234-2.533-0.705-3.125c-0.461-0.289-1.203-0.271-1.798-0.259l-0.307,0.005c-0.793-0.013-1.266,0.329-1.645,0.626
	c-0.203,0.158-0.394,0.308-0.671,0.44c-0.686,0.327-1.333,0.625-2.019,0.914c0.583-0.367,1.113-0.792,1.474-1.237l0.245-0.301
	L8.89,13.208c-0.248-0.344-0.526-0.5-0.73-0.613c-0.232-0.13-0.28-0.157-0.32-0.432c-0.054-0.378,0.076-0.781,0.311-0.959
	l-0.096-0.126l0.297,0.028c0.035-0.369,0.117-0.417,0.79-0.472c0.239-0.019,0.48-0.042,0.696-0.101
	c0.398-0.108,0.892-0.242,0.907-0.713c0.014-0.44-0.394-0.578-0.692-0.679C9.935,9.101,9.69,9.019,9.628,8.96
	c-0.1-0.095-0.145-0.255-0.11-0.389C9.522,8.556,9.526,8.543,9.53,8.53c0.149,0.006,0.383-0.008,0.654-0.141
	c0.46-0.228,0.559-0.452,0.649-0.743c0.021-0.069,0.047-0.154,0.119-0.315c0.128-0.29,0.128-0.29,0.289-0.415l0.126-0.099
	c0.432-0.344,0.9-0.5,1.442-0.682c0.292-0.097,0.59-0.198,0.896-0.33c0.089-0.039,0.202-0.101,0.325-0.172
	c0.142-0.081,0.438-0.249,0.522-0.253c0.059,0.016,0.117,0.092,0.228,0.249c0.094,0.134,0.192,0.27,0.314,0.388
	c0.475,0.459,1.11,0.681,1.671,0.877c0.385,0.135,0.75,0.262,1.013,0.443c0.057,0.039,0.12,0.148,0.182,0.255
	c0.112,0.193,0.251,0.434,0.518,0.593c0.373,0.221,0.77,0.188,1.087,0.161c0.161-0.014,0.313-0.026,0.422-0.002
	c0.345,0.074,0.637,0.308,0.975,0.579c0.461,0.369,0.985,0.787,1.758,0.863l0.396,0.039l0.132-0.375
	c0.113-0.319,0.178-0.65,0.242-0.969c0.054-0.272,0.105-0.542,0.191-0.785l0.217-0.62l-0.655-0.053
	c-0.272-0.021-0.525,0.009-0.749,0.036c-0.066,0.008-0.13,0.015-0.192,0.021c0.072-0.28,0.262-0.473,0.457-0.572
	c0.273-0.14,0.692-0.166,1.048,0.183c0.059,0.058,0.106,0.145,0.161,0.245c0.112,0.207,0.266,0.488,0.614,0.669
	c0.472,0.245,1.241,0.134,1.946,0.006c0.142-0.025,0.284-0.045,0.42-0.063c0.729-0.101,1.729-0.239,1.844-1.427l0.038-0.384
	L28.47,5.601c-0.405-0.154-0.834-0.147-1.251-0.14c-0.312,0.005-0.612,0.009-0.85-0.058c-0.458-0.131-1.091-0.822-1.208-1.32
	c-0.019-0.081-0.003-0.103,0.006-0.116c0.198-0.285,1.27-0.416,1.91-0.494c0.116-0.015,0.23-0.028,0.339-0.042
	c-0.067,0.103-0.128,0.205-0.176,0.303l-0.286,0.59l0.643,0.127c0.733,0.144,1.121,0,1.356-0.26
	c-0.063,0.389,0.053,0.636,0.174,0.772c0.114,0.129,0.319,0.273,0.67,0.273c0.041,0,0.084-0.002,0.129-0.006L29.79,4.294
	l-0.782-0.173c0.108-0.143,0.186-0.31,0.249-0.482c0.077-0.209,0.144-0.39,0.337-0.556c0.199-0.17,0.199-0.171,0.547,0.162
	c0.298,0.285,0.747,0.717,1.421,0.6l0.404-0.07l0.015-0.409c0.04-1.038,0.245-1.297,1.461-1.85c1.025-0.466,2.221-0.508,3.447-0.501
	c0.993,0.001,1.066,0.062,1.765,0.641c0.769,0.638,1.763,0.589,2.734,0.541c0.225-0.011,0.456-0.031,0.692-0.05
	c0.531-0.045,1.08-0.091,1.588-0.036c0.556,0.06,0.639,0.183,0.861,0.51c0.14,0.207,0.314,0.463,0.622,0.737
	c0.312,0.277,0.758,0.383,1.151,0.476c0.206,0.049,0.552,0.131,0.622,0.204c0.062,0.082,0.087,0.116-0.223,0.501
	c-0.068,0.084-0.134,0.167-0.191,0.249l-0.106,0.151c-0.313,0.441-0.608,0.857-0.716,1.575c-0.037,0.244-0.051,0.476-0.066,0.702
	c-0.023,0.362-0.043,0.675-0.158,0.982c-0.107,0.284-0.242,0.514-0.386,0.758c-0.135,0.229-0.268,0.458-0.382,0.724
	C44.464,10.222,44.4,10.716,44.349,11.114z M29.597,15.761c-0.117,0.287-0.184,0.595-0.24,0.854
	c-0.042,0.193-0.083,0.384-0.138,0.557c-0.129,0.393-0.361,0.757-0.542,0.846c-0.192,0.096-0.308,0.061-0.718-0.127
	c-0.106-0.049-0.218-0.1-0.337-0.148l-0.135-0.053c-0.394-0.156-0.394-0.156-0.444-0.504c-0.09-0.625-0.104-1.391-0.03-1.574
	c0.06-0.146,0.27-0.197,0.542-0.197c0.438,0,1.038,0.133,1.429,0.221C29.206,15.683,29.411,15.729,29.597,15.761z"/><path fill="#010101" d="M63.944,40.437l-0.049,0.553l-0.65-0.193c-0.033,0.103-0.24,0.454-0.409,0.738
	c-0.849,1.436-1.461,2.59-0.992,3.3c0.136,0.204,0.401,0.427,0.917,0.427c0.085,0,0.178-0.006,0.276-0.019
	c1.107-0.146,2.255-2.101,2.227-3.363C65.246,41.047,64.754,40.508,63.944,40.437z M62.904,44.236
	c-0.119,0.017-0.188,0.013-0.213,0.021c-0.05-0.405,0.721-1.708,1.018-2.208c0.139-0.235,0.246-0.419,0.328-0.569
	c0.136,0.052,0.209,0.163,0.215,0.42C64.271,42.824,63.342,44.18,62.904,44.236z"/><path fill="#010101" d="M93.067,42.906c-0.077-0.153-0.15-0.314-0.225-0.478c-0.361-0.792-0.771-1.688-1.705-2.113l-0.315-0.144
	l0.151-0.176c0.065-0.076,0.146-0.163,0.23-0.251c0.423,0.266,0.881,0.384,1.297,0.49c0.056,0.014,0.11,0.028,0.165,0.043
	c0.322,0.202,0.694,0.382,1.151,0.488l2.364,0.555l-1.946-1.453c-0.367-0.273-0.77-0.419-1.152-0.526
	c-0.163-0.111-0.321-0.235-0.488-0.365c-0.354-0.275-0.721-0.562-1.203-0.776c-0.604-0.271-1.199-0.329-1.773-0.387
	c-0.222-0.021-0.437-0.042-0.647-0.075l-0.002-0.512h-0.248c-0.255,0-0.512,0-0.763,0.007l-0.405,0.011l-0.077,0.398
	c-0.022,0.111-0.031,0.248-0.037,0.384c0.005-0.272,0.014-0.546,0-0.812l-0.025-0.502l-0.503,0.021
	c-0.022,0-0.081,0.001-0.064,0.008l-0.471-0.129l-0.146,0.466c-0.039,0.125-0.073,0.23-0.104,0.316
	c-0.062-0.008-0.126-0.011-0.197-0.006c-0.272,0.015-0.463,0.121-0.609,0.236l-0.037-2.727c0.489,0.72,0.788,1.105,1.233,0.932
	c0.528-0.194,0.642-0.578,0.662-0.789c0.082-0.833-1.022-1.712-1.192-1.815c-0.525-0.321-0.524-0.353-0.496-0.866
	c0.013-0.216,0.026-0.473,0.009-0.795l-0.048-0.426l-0.421-0.053c-0.114-0.014-0.246-0.029-0.425-0.002l-0.403,0.062l-0.025,0.407
	c-0.016,0.264-0.016,0.535-0.015,0.803v0.124c-0.005,0-0.01,0-0.014,0c-0.366,0-0.729,0.161-0.962,0.44l-0.701,0.842l1.095-0.012
	c0.311-0.006,0.556,0.033,0.751,0.125l0.879,3.84c-0.028,0.025-0.059,0.053-0.082,0.076c-0.004,0.004-0.008,0.008-0.011,0.012
	l-0.057-0.112l-0.646,0.264l0.243,0.163l-0.088-0.021l-0.185-0.047c-0.013,0.05-0.053,0.199-0.041,0.38l0.025,0.398l0.393,0.068
	c0.078,0.015,0.15,0.021,0.22,0.021c0.171,0,0.315-0.039,0.438-0.095c0.353-0.014,0.636-0.051,0.87-0.152
	c0.156,0.125,0.376,0.243,0.678,0.222l0.449-0.028l0.024-0.449c0.002-0.045-0.002-0.09,0-0.135c0.003,0.122,0.005,0.245,0.021,0.357
	l0.058,0.412l0.417,0.023c0.422,0.023,0.838,0.037,1.252,0.05c0.294,0.011,0.587,0.021,0.883,0.033c0,0.002,0,0.004,0,0.006
	c0.002,0.181,0.004,0.362,0.016,0.539l0.018,0.261l-0.443-0.021c-0.808-0.04-1.634,0.031-2.411,0.105l-0.433,0.043l-0.024,0.433
	c-0.014,0.217-0.005,0.4,0.004,0.56c0.005,0.098,0.012,0.233,0.023,0.235c-0.002,0.001-0.037,0.032-0.157,0.072
	c-0.057,0.012-0.199-0.023-0.295-0.044c-0.2-0.043-0.422-0.095-0.665-0.062c-0.64,0.078-0.79,0.185-1.155,0.61L84.47,41.98
	c-0.23,0.268-0.348,0.627-0.452,0.944c-0.057,0.173-0.151,0.461-0.219,0.523c-0.045,0.025-0.234,0.01-0.338,0.002
	c-0.223-0.017-0.475-0.037-0.733,0.049c-0.935,0.312-0.919,0.913-0.908,1.353c0.004,0.138,0.01,0.298-0.015,0.485
	c-0.177,1.363-0.33,2.705-0.248,4.146l0.025,0.451l0.451,0.026c0.715,0.039,1.264-0.13,1.79-0.295
	c0.214-0.067,0.435-0.138,0.681-0.195c0.165-0.038,0.314-0.063,0.457-0.087c0.366-0.062,0.745-0.125,1.204-0.378
	c0.108-0.06,0.19-0.129,0.257-0.201c0.393,0.509,0.924,0.831,1.403,1.122c0.35,0.213,0.68,0.414,0.938,0.666
	c0.344,0.334,0.419,0.898,0.497,1.495c0.055,0.417,0.111,0.848,0.262,1.255l0.088,0.236l0.241,0.072
	c0.133,0.04,0.253,0.057,0.36,0.057c0.214,0,0.377-0.064,0.489-0.131c0.439-0.264,0.548-0.801,0.644-1.274
	c0.031-0.153,0.08-0.396,0.096-0.482c0.922-0.317,1.148-1.234,1.354-2.067l0.04-0.158c0.137-0.549,0.45-0.95,0.781-1.374
	c0.436-0.559,0.93-1.189,0.992-2.179c0.062-0.963-0.474-1.653-0.945-2.262C93.434,43.484,93.218,43.205,93.067,42.906z
	 M90.167,40.939l0.257-0.301l-0.003,0.124c-0.012,0.454-0.147,0.894-0.27,1.095c-0.002-0.166-0.001-0.332,0-0.498
	c0.002-0.271-0.001-0.54-0.01-0.809L90.167,40.939z M92.818,47.597c-0.364,0.466-0.777,0.993-0.967,1.751l-0.04,0.161
	c-0.209,0.848-0.331,1.249-0.746,1.373l-0.012-0.027c-0.037,0.016-0.072,0.034-0.106,0.054c-0.152,0.026-0.339,0.021-0.572-0.003
	l-0.107,1.007c0.041,0.005,0.081,0.008,0.121,0.011c-0.013,0.061-0.025,0.12-0.037,0.179c-0.011,0.053-0.024,0.12-0.04,0.189
	c-0.017-0.108-0.031-0.222-0.047-0.335c-0.093-0.709-0.198-1.512-0.794-2.091c-0.341-0.332-0.736-0.572-1.119-0.805
	c-0.539-0.327-1.048-0.637-1.305-1.156l-0.12-0.244l-0.269-0.034c-0.06-0.008-0.115-0.011-0.167-0.011
	c-0.485,0-0.684,0.307-0.815,0.503c-0.307,0.17-0.548,0.21-0.883,0.266c-0.163,0.026-0.334,0.057-0.521,0.1
	c-0.27,0.063-0.515,0.141-0.752,0.215c-0.335,0.104-0.637,0.2-0.97,0.237c-0.022-1.177,0.109-2.313,0.26-3.468
	c0.032-0.249,0.028-0.46,0.023-0.644c-0.003-0.101-0.006-0.237,0-0.263c0,0,0.041-0.044,0.215-0.102
	c0.062-0.022,0.206-0.011,0.333,0c0.315,0.026,0.746,0.06,1.099-0.262c0.267-0.24,0.385-0.605,0.501-0.958
	c0.074-0.228,0.159-0.484,0.256-0.597l0.078-0.091c0.194-0.227,0.194-0.227,0.509-0.265c0.076-0.011,0.209,0.021,0.328,0.047
	c0.249,0.054,0.53,0.112,0.821,0.018c0.884-0.296,0.854-0.889,0.833-1.322c-0.001-0.006-0.001-0.012-0.001-0.019
	c0.442-0.038,0.894-0.068,1.334-0.07c0.001,0.137,0,0.274-0.001,0.411c-0.002,0.349-0.004,0.697,0.019,1.04l0.017,0.271l0.235,0.137
	c0.528,0.304,0.937,0.162,1.134,0.052c0.412-0.231,0.634-0.706,0.754-1.144c0.248,0.313,0.433,0.72,0.625,1.14
	c0.08,0.177,0.159,0.35,0.241,0.512c0.194,0.388,0.451,0.719,0.699,1.04c0.416,0.535,0.772,0.997,0.736,1.576
	C93.555,46.653,93.214,47.09,92.818,47.597z"/><path fill="#010101" d="M99.916,51.828c-0.021-0.075-0.045-0.161-0.071-0.275c-0.033-0.128-0.104-0.217-0.178-0.281
	c0.061-0.109,0.107-0.236,0.108-0.384c0.006-0.635-0.147-1.09-0.456-1.354c-0.163-0.139-0.441-0.291-0.878-0.22L98.16,49.36
	l-0.106,0.266c-0.177,0.445-0.238,0.991-0.299,1.519c-0.076,0.675-0.156,1.373-0.456,1.692c-0.156,0.167-0.476,0.334-0.784,0.496
	c-0.789,0.412-2.112,1.103-1.404,2.661l0.138,0.306l0.336-0.008c0.648-0.018,1.156-0.473,1.233-1.108l-0.88-0.107
	c0.06-0.283,0.384-0.5,1.046-0.846c0.032-0.018,0.064-0.034,0.097-0.05c-0.131,0.099-0.257,0.19-0.375,0.271l0.571,0.837
	c0.705-0.482,1.619-1.282,2.175-1.904C100.039,52.725,100.082,52.431,99.916,51.828z M98.695,52.711
	c-0.101,0.111-0.215,0.231-0.34,0.354c0.189-0.38,0.28-0.827,0.344-1.286c0.063,0.072,0.136,0.132,0.203,0.184
	c0.013,0.048,0.025,0.093,0.037,0.135c0.022,0.085,0.053,0.19,0.051,0.218C98.986,52.336,98.952,52.423,98.695,52.711z"/><path fill="#010101" d="M29.599,31.258c-0.228,0.07-0.443,0.136-0.6,0.148c-0.418,0.033-0.824-0.037-1.073-0.182
	c-0.133-0.076-0.255-0.207-0.384-0.344c-0.296-0.314-0.699-0.746-1.438-0.657l0.123,1.007c0.209-0.025,0.298,0.047,0.577,0.344
	c0.165,0.176,0.353,0.377,0.616,0.528c0.469,0.271,1.019,0.323,1.384,0.323c0.111,0,0.205-0.004,0.274-0.01
	c0.268-0.021,0.547-0.106,0.816-0.188c0.674-0.206,0.941-0.239,1.092-0.026l0.827-0.584C31.213,30.766,30.242,31.062,29.599,31.258z
	"/><path fill="#010101" d="M4.186,29.677c-0.289-0.086-0.584-0.043-0.834,0.119l0.538,0.85c0.108,0.011,0.394,0.295,0.542,0.626
	l0.924-0.414C5.196,30.5,4.769,29.849,4.186,29.677z"/><path fill="#010101" d="M43.928,14.099c-0.156,0.302-0.09,0.679,0.177,1.01c0.239,0.295,0.645,0.548,1.088,0.547
	c0.099,0,0.2-0.012,0.302-0.04c0.873-0.238,1.103-0.783,1.026-1.215c-0.106-0.604-0.812-1.046-1.573-0.978l0.085,1.009
	c0.023-0.002,0.046-0.002,0.069-0.002c0.242,0,0.4,0.106,0.436,0.066c-0.016,0.021-0.102,0.087-0.309,0.144
	c-0.141,0.037-0.348-0.146-0.375-0.229c0.007,0.022,0.009,0.09-0.03,0.162c-0.009,0.017-0.019,0.031-0.03,0.044l0.061-0.941
	C44.256,13.631,44.019,13.924,43.928,14.099z"/><path fill="#010101" d="M95.141,16.565l0.497-0.881c-0.003-0.003-0.012-0.017-0.021-0.044l-0.969,0.292
	C94.733,16.215,94.903,16.434,95.141,16.565z"/><path fill="#010101" d="M97.415,16.872c0.087,0.009,0.16,0.025,0.195,0.042l0.447-0.909c-0.287-0.141-0.681-0.163-1-0.133
	c-0.098-0.06-0.204-0.113-0.298-0.174l-0.552,0.849c0.331,0.215,0.688,0.426,1.057,0.616L97.415,16.872z"/><path fill="#010101" d="M93.615,14.587l-0.511,0.875c0.06,0.035,0.092,0.073,0.11,0.135l0.968-0.299
	C94.089,14.995,93.894,14.749,93.615,14.587z"/><path fill="#010101" d="M79.79,37.822c-0.122-0.078-0.239-0.151-0.331-0.226c-0.24-0.197-0.401-0.478-0.558-0.749
	c-0.071-0.124-0.141-0.245-0.217-0.357c0.062,0.026,0.126,0.056,0.188,0.081c0.26,0.109,0.584,0.245,0.677,0.359l1.106,1.37
	l-0.211-1.749c-0.052-0.438-0.315-0.719-0.508-0.924c-0.118-0.125-0.219-0.233-0.256-0.347c-0.024-0.073-0.036-0.172-0.04-0.282
	c0.304,0.276,0.659,0.521,1.099,0.423c0.529-0.115,0.789-0.659,0.938-1.058c0.321-0.863,0.029-1.421-0.254-1.959l-0.103-0.199
	c-0.03-0.06-0.057-0.114-0.079-0.167c0.088,0.025,0.194,0.037,0.303,0.039c0.61,0,0.771-0.453,0.826-0.667
	c0.195-0.118,0.396-0.208,0.593-0.297c0.472-0.214,1.006-0.455,1.429-1.017c0.795-1.054,0.624-2.121,0.393-3.084l0.319,0.062
	c0.458,0.087,0.747-0.08,0.911-0.237c0.013-0.011,0.02-0.026,0.031-0.038c-0.054,0.244-0.067,0.528-0.034,0.891l0.076,0.828
	l0.702-0.448c0.354-0.227,0.575-0.553,0.771-0.84c0.162-0.239,0.302-0.445,0.476-0.542c0.093-0.053,0.279-0.069,0.458-0.085
	c0.443-0.04,1.186-0.106,1.467-0.95c0.197-0.592-0.041-1.195-0.253-1.727c-0.148-0.375-0.302-0.761-0.243-1.009
	c0.03-0.127,0.144-0.235,0.324-0.4c0.186-0.168,0.416-0.377,0.565-0.686l-0.718-0.35l-0.106-0.45
	c-0.157,0.035-0.345-0.027-0.49-0.11l0.461-0.012l-0.036-0.528c-0.045-0.632-0.385-1.345-0.686-1.975
	c-0.074-0.156-0.146-0.306-0.209-0.446c-0.045-0.1-0.076-0.22-0.111-0.342c-0.094-0.33-0.2-0.705-0.48-0.96
	c-0.259-0.239-0.613-0.285-0.926-0.326c-0.158-0.021-0.321-0.042-0.431-0.084c-0.222-0.086-0.841-0.409-0.916-0.463
	c-0.045-0.076-0.058-0.121-0.066-0.126c0.075-0.086,0.392-0.196,0.546-0.25c0.153-0.053,0.293-0.104,0.4-0.157
	c0.366-0.183,0.667-0.407,0.933-0.604c0.499-0.371,0.913-0.659,1.595-0.645l0.096,0.002c-0.114,0.898-0.23,1.826,0.149,2.478
	c0.176,0.301,0.427,0.472,0.627,0.609c0.211,0.144,0.315,0.22,0.363,0.368c0.081,0.252,0.048,0.685,0.018,1.067
	c-0.023,0.303-0.044,0.597-0.027,0.848l0.167,2.525l1.001-2.925c0.217-0.619,0.421-1.203,0.594-1.866
	c0.055-0.21,0.16-0.442,0.267-0.68c0.186-0.418,0.378-0.851,0.408-1.282c0.041-0.588-0.226-1.018-0.439-1.363
	c-0.112-0.182-0.219-0.353-0.267-0.522c-0.019-0.063-0.011-0.128-0.017-0.192c0.069,0.027,0.141,0.044,0.206,0.046
	c0.004,0,0.008,0.001,0.012,0.001c0.646-0.001,0.966-1.058,1.072-1.514c0.031-0.13,0.045-0.296,0.056-0.468
	c0.008-0.129,0.022-0.343,0.051-0.403c0.021-0.034,0.022-0.037,0.139-0.072c0.135-0.041,0.34-0.103,0.503-0.3
	c0.203-0.244,0.43-0.572,0.389-0.945c-0.04-0.363-0.301-0.565-0.49-0.713c-0.114-0.088-0.221-0.171-0.294-0.282
	c-0.149-0.228-0.183-0.45-0.178-0.796c0.357,0.01,0.78-0.044,1.026-0.415c0.3-0.45,0.074-1.097-0.184-1.496
	c0.082-0.321,0.053-0.606-0.088-0.85c-0.273-0.471-0.86-0.588-1.278-0.636c-0.369-0.041-0.736-0.071-1.098-0.1
	c-0.455-0.037-0.902-0.074-1.335-0.132c-1.328-0.181-2.662,0.18-3.545,0.516c-0.089,0.034-0.197,0.081-0.317,0.134
	c-0.211,0.095-0.774,0.347-0.924,0.293L85.559,4.5L85.115,4.7c-0.661,0.296-1.047,0.278-1.61,0.128
	c-0.49-0.13-0.88-0.23-1.503-0.202c-0.109,0.005-0.247,0.02-0.403,0.036c-0.281,0.031-0.943,0.101-1.104,0.011
	c-0.016-0.018-0.037-0.114-0.048-0.165c-0.042-0.198-0.139-0.645-0.64-0.782c0.055-0.098,0.172-0.125,0.393-0.178
	c0.364-0.086,0.973-0.229,1.146-0.974l0.157-0.676l-0.691,0.056c-0.371,0.03-0.647,0.264-0.85,0.434
	c-0.064,0.055-0.161,0.136-0.133,0.145c-0.035-0.01-0.128-0.078-0.189-0.123c-0.163-0.119-0.388-0.283-0.683-0.307
	c-0.565-0.047-2.013,0.373-2.537,0.902c-0.248,0.25-0.282,0.494-0.269,0.656l0.021,0.248l0.312,0.202
	c0.069,0.046,0.137,0.09,0.174,0.111l0.104,0.061l0.121,0.007c0.218,0.013,0.435,0.021,0.65,0.028
	c0.312,0.011,0.611,0.021,0.902,0.047c0.026,0.234,0.066,0.451,0.104,0.663c0.047,0.255,0.092,0.5,0.111,0.765
	c-0.381-0.048-0.737-0.205-1.204-0.428c-0.828-0.395-1.421-0.405-2.242-0.376L74.62,5.011l0.105,0.576
	c0.006,0.032-0.002,0.115-0.011,0.184c-0.602-0.042-1.168-0.522-1.807-1.063c-0.971-0.824-2.181-1.849-3.747-1.001l-0.197,0.106
	l-0.026,0.105L68.687,3.26l0.73-0.366C69.04,2.143,68.364,2.19,67.959,2.22c-0.177,0.011-0.342,0.023-0.471-0.011
	c-0.229-0.06-0.419-0.206-0.639-0.374c-0.407-0.312-0.916-0.699-1.763-0.55l-0.396,0.07l-0.023,0.401
	c-0.033,0.585-0.103,1.804,0.939,2.308c0.321,0.156,0.861,0.22,1.43,0.22c0.707,0,1.446-0.101,1.872-0.247
	c-0.046,0.185-0.074,0.374-0.102,0.563c-0.252-0.026-0.479,0.004-0.667,0.137c-0.309,0.218-0.327,0.569-0.343,0.824
	c-0.01,0.188-0.021,0.382-0.107,0.567c-0.084,0.148-0.548,0.625-0.854,0.893c0-0.07,0-0.134,0.001-0.175l0.02-1.46l-0.92,1.135
	c-0.297,0.366-0.358,0.982-0.266,1.401c0.028,0.129,0.073,0.246,0.13,0.349c-0.033,0-0.067,0-0.101,0h-0.027V8.205
	c-0.075,0-0.155-0.005-0.239-0.01C65,8.171,64.271,8.131,63.911,8.779c-0.16,0.289-0.166,0.657-0.172,1.013
	c-0.003,0.207-0.007,0.463-0.051,0.582l-0.044,0.119c-0.009,0.025-0.018,0.048-0.024,0.068c-0.069,0.023-0.158,0.055-0.275,0.102
	c-0.104,0.042-0.197,0.086-0.284,0.128c-0.111,0.053-0.191,0.091-0.269,0.113c-0.148-0.595,0.021-1.558,0.14-2.228l0.077-0.456
	c0.045-0.296,0.221-0.6,0.405-0.921c0.293-0.508,0.625-1.084,0.537-1.803l-0.046-0.376l-0.374-0.062
	c-1.234-0.208-1.774,0.84-2.127,1.534c-0.094,0.184-0.184,0.364-0.284,0.517l-0.141,0.211c-0.365,0.546-0.778,1.165-0.871,1.843
	c-0.123,0.891,0.198,1.736,0.917,2.45c-0.005,0.002-0.01,0.004-0.014,0.007c-0.245,0.125-0.421,0.269-0.577,0.396
	c-0.198,0.161-0.342,0.277-0.597,0.34c-0.332,0.082-0.454,0.082-0.722,0.006c-0.251-0.071-0.376-0.202-0.568-0.399
	c-0.164-0.17-0.35-0.362-0.632-0.523c-0.369-0.212-1.045-0.447-1.408-0.553c-1.027-0.301-2.246-0.083-3.336,0.6
	c-1.066,0.666-1.803,1.664-1.975,2.669c-0.02,0.118-0.031,0.239-0.043,0.36c-0.021,0.239-0.041,0.447-0.141,0.579
	c-0.1,0.134-0.226,0.205-0.386,0.293c-0.29,0.163-0.688,0.386-0.863,1.014c-0.183,0.657-0.029,1.292,0.401,1.655
	c0.205,0.173,0.449,0.268,0.717,0.283c-0.063,0.409-0.072,0.799-0.081,1.179c-0.001,0.04-0.001,0.08-0.002,0.12
	c-0.368,0.083-0.778,0.182-1.112,0.467c-0.096,0.082-0.167,0.171-0.229,0.261c0.151-0.395,0.222-0.806,0.166-1.181l-0.06-0.401
	l-0.405-0.029c-0.145-0.01-0.293-0.015-0.442-0.017c0.015-0.125,0.039-0.262,0.066-0.417l-0.382-0.036
	c0.037-0.188,0.112-0.277,0.27-0.353l-0.438-0.913c-0.79,0.38-0.864,1.088-0.877,1.656c-0.312,0.077-0.599,0.253-0.785,0.499
	c-0.252,0.333-0.289,0.749-0.1,1.14c0.176,0.364,0.442,0.432,0.585,0.439c0.328,0.011,0.542-0.21,0.711-0.461
	c0.264,0.323,0.665,0.521,1.153,0.545l0.245,0.012c-0.019,0.029-0.038,0.072-0.058,0.093c-0.063,0.062-0.333,0.151-0.494,0.204
	c-0.417,0.137-0.891,0.292-1.069,0.725c-0.069,0.167-0.115,0.439,0.061,0.783c0.198,0.386,0.562,0.504,0.778,0.574
	c0.048,0.016,0.119,0.037,0.132,0.028c-0.012,0.019-0.052,0.058-0.121,0.094c-0.197,0.103-0.715,0.115-1.093,0.124
	c-0.358,0.008-0.698,0.017-0.975,0.078l-0.376,0.083l-0.042,0.699c-0.068,0.825-0.161,1.957,0.506,2.413
	c0.139,0.095,0.338,0.15,0.559,0.185c-0.118,0.291-0.251,0.543-0.39,0.701c-0.12,0.135-0.837,0.777-0.985,0.867
	c-0.076,0.042-0.107,0.041-0.215,0.035c-0.279-0.014-0.605,0.009-0.95,0.431c-0.367,0.449-0.4,1.178-0.426,1.764
	c-0.006,0.141-0.012,0.271-0.023,0.379l-0.041,0.383c-0.074,0.664-0.157,1.418-0.041,2.088c0.178,1.025,0.831,1.587,1.428,2.033
	c0.952,0.713,1.927,0.892,3.097,0.942c0.26,0.01,0.537-0.006,0.824-0.023c0.602-0.037,1.226-0.075,1.566,0.198
	c0.182,0.145,0.196,0.273,0.213,0.578c0.014,0.248,0.031,0.557,0.213,0.862c0.236,0.397,0.587,0.512,0.818,0.588
	c0.133,0.042,0.21,0.068,0.26,0.118c0.287,0.281,0.358,1.004,0.192,1.932c-0.201,1.112-0.343,2.052-0.192,3.164l0.024,0.178
	c0.042,0.34,0.087,0.689,0.278,1.077c0.167,0.336,0.356,0.504,0.525,0.651c0.083,0.073,0.175,0.151,0.271,0.273
	c0.291,0.369,0.283,0.817,0.271,1.386l-0.004,0.33h0.506l-0.002,0.59c0.224,0.001,0.511,0.038,0.817,0.077
	c0.4,0.05,0.83,0.104,1.233,0.104c0.339,0,0.661-0.038,0.93-0.15c0.53-0.218,0.955-0.815,1.328-1.341
	c0.111-0.156,0.212-0.3,0.302-0.407c0.461-0.551,1.04-1.546,1.204-2.303c0.052-0.233,0.033-0.453,0.016-0.646
	c-0.013-0.146-0.027-0.313,0.011-0.367c0.032-0.033,0.195-0.062,0.283-0.079c0.193-0.036,0.412-0.076,0.601-0.22
	c0.904-0.685,0.763-1.801,0.649-2.698c-0.083-0.657-0.162-1.278,0.12-1.617c0.18-0.215,0.403-0.283,0.686-0.372
	c0.431-0.133,1.021-0.316,1.328-1.11c0.166-0.429,0.2-0.871,0.233-1.297c0.024-0.31,0.046-0.603,0.118-0.859l-0.373-0.105
	l0.224-0.385c-0.105-0.062-0.223-0.14-0.337-0.214c0.617-0.021,1.258-0.198,1.895-0.544c0.881-0.478,1.268-1.262,1.482-1.811
	c0.275-0.703,0.274-1.158,0.112-1.479c0.096,0.007,0.153,0.011,0.304,0.011l0.367-0.005c0.661-0.012,0.667-0.013,0.961,0.522
	l0.125,0.223c0.163,0.291,0.327,0.584,0.454,0.889c0.294,0.705,0.373,0.799,0.93,1.348c0.22,0.217,0.407,0.448,0.596,0.68
	c0.232,0.284,0.473,0.579,0.769,0.854c0.155,0.146,0.279,0.305,0.393,0.448c0.258,0.325,0.525,0.662,0.971,0.687
	c0.281,0.02,0.585-0.117,0.879-0.414c0.901-0.907,0.441-1.844,0.166-2.404c-0.113-0.231-0.254-0.519-0.209-0.629
	c0.012-0.031,0.104-0.195,0.662-0.395l0.3-0.107l0.034-0.317c0.03-0.29,0.148-0.349,0.187-0.366
	c0.202-0.101,0.597-0.023,0.939,0.186c0.229,0.14,0.28,0.281,0.374,0.588c0.086,0.285,0.194,0.64,0.536,0.953
	c0.222,0.202,0.4,0.285,0.559,0.349c0.001,0.002,0.031,0.046,0.077,0.212c0.026,0.095-0.005,0.317-0.031,0.495
	c-0.052,0.376-0.112,0.801,0.098,1.167c0.185,0.325,0.489,0.537,0.814,0.706l-0.452,0.49l-0.514,0.142
	c0.371,1.353,1.404,2.026,2.315,2.621l0.996,0.67l0.186-0.686C81.081,38.648,80.272,38.132,79.79,37.822z M66.05,3.152
	c-0.271-0.13-0.365-0.424-0.38-0.855c0.177,0.053,0.339,0.17,0.564,0.343c0.268,0.204,0.571,0.437,0.996,0.548
	c0.153,0.041,0.303,0.055,0.444,0.056C67.026,3.299,66.301,3.274,66.05,3.152z M84.653,26.476c-0.024-0.095-0.06-0.22-0.102-0.362
	c-0.141-0.486-0.217-0.829-0.254-1.073c0.099,0.12,0.19,0.236,0.226,0.315c0.091,0.214,0.117,0.572,0.141,0.889
	c0.01,0.137,0.019,0.268,0.032,0.389l0.005,0.038L84.653,26.476z M87.921,23.734c-0.121,0.229-0.259,0.487-0.347,0.793
	c-0.054,0.186-0.09,0.333-0.12,0.454c-0.081,0.332-0.081,0.332-0.462,0.604c-0.267,0.191-0.475,0.366-0.633,0.559
	c0.111-0.551,0.03-1.287-0.092-2.143c-0.042-0.291-0.1-0.688-0.086-0.794c0.038-0.25,0.063-0.262,0.312-0.377
	c0.212-0.099,0.503-0.234,0.777-0.556c0.2-0.236,0.453-0.728,0.635-1.244l0.215-0.028C88.141,21,88.163,21,88.183,20.997
	l-0.034,0.205c-0.063,0.394-0.01,0.747,0.039,1.057c0.038,0.245,0.071,0.456,0.048,0.659C88.198,23.213,88.069,23.455,87.921,23.734
	z M89,25.333c-0.059,0.176-0.117,0.218-0.597,0.261c-0.025,0.002-0.05,0.004-0.075,0.006c0.04-0.106,0.074-0.229,0.11-0.378
	c0.027-0.11,0.061-0.245,0.109-0.415c0.049-0.173,0.13-0.337,0.219-0.506C88.921,24.69,89.081,25.091,89,25.333z M77.937,3.321
	c0.368-0.128,0.741-0.231,0.927-0.209c0.02,0.006,0.056,0.03,0.096,0.057c-0.041,0.066-0.075,0.14-0.105,0.223
	C78.549,3.353,78.241,3.334,77.937,3.321z M61.111,9.298c0.062-0.447,0.392-0.94,0.71-1.418l0.146-0.218
	c0.12-0.181,0.229-0.394,0.34-0.612c0.213-0.418,0.372-0.689,0.536-0.843c-0.077,0.187-0.188,0.379-0.307,0.586
	c-0.213,0.37-0.455,0.789-0.529,1.272l-0.073,0.435c-0.128,0.726-0.29,1.65-0.168,2.426C61.251,10.432,61.03,9.887,61.111,9.298z
	 M52.421,26.252l0.001-0.253c-0.313-0.001-0.611-0.021-0.908-0.041c-0.324-0.022-0.64-0.03-0.98-0.043
	c-0.092,0-0.192,0.013-0.287,0.017c0.053-0.06,0.112-0.117,0.164-0.176l0.148-0.168c0.198-0.221,0.295-0.447,0.374-0.629
	c0.021-0.047,0.039-0.09,0.061-0.132c0.001,0.002,0.003,0.004,0.004,0.007c0.175,0.257,0.412,0.61,0.819,0.701l0.588,0.132
	l0.02-0.401c0.196,0.21,0.407,0.391,0.619,0.505c0.389,0.21,0.775,0.263,1.117,0.31c0.214,0.029,0.417,0.057,0.589,0.12
	c0.194,0.072,0.387,0.21,0.591,0.356c0.134,0.096,0.27,0.194,0.418,0.282c-0.319-0.053-0.643-0.084-0.985-0.071l-0.268,0.011
	l-0.143,0.228c-0.062,0.101-0.111,0.205-0.148,0.313c-0.59-0.109-0.98-0.271-1.056-0.373c-0.046-0.062-0.035-0.295-0.028-0.45
	c0.003-0.084,0.007-0.166,0.007-0.246H52.421z M47.671,26.967l0.007,0.016l-0.041-0.014C47.648,26.968,47.66,26.967,47.671,26.967z
	 M77.733,32.799c-0.086-0.039-0.154-0.07-0.26-0.168c-0.131-0.119-0.179-0.261-0.252-0.5c-0.104-0.344-0.247-0.812-0.816-1.158
	c-0.658-0.4-1.393-0.488-1.915-0.229c-0.336,0.166-0.572,0.463-0.685,0.852c-0.526,0.228-0.844,0.506-0.988,0.861
	c-0.216,0.53,0.026,1.021,0.239,1.456c0.309,0.629,0.385,0.882,0.025,1.243c-0.047,0.047-0.082,0.076-0.099,0.096
	c-0.064-0.062-0.164-0.188-0.24-0.282c-0.142-0.179-0.301-0.378-0.495-0.56c-0.245-0.229-0.454-0.484-0.674-0.754
	c-0.212-0.259-0.425-0.518-0.702-0.793c-0.446-0.439-0.446-0.439-0.674-0.984c-0.142-0.34-0.322-0.667-0.505-0.992l-0.12-0.218
	c-0.565-1.027-0.974-1.06-1.869-1.045l-0.35,0.004c-0.004,0-0.007,0-0.011,0c-0.646,0-1.008-0.195-1.553-0.49
	c-0.196-0.106-0.404-0.218-0.642-0.33c-0.083-0.039-0.162-0.08-0.237-0.124c-0.124-0.119-0.26-0.238-0.391-0.353
	c-0.158-0.14-0.309-0.268-0.399-0.374l-0.803,0.613c0.247,0.368,0.566,0.672,0.969,0.921c0.018,0.018,0.034,0.035,0.05,0.053
	c0.044,0.046,0.068,0.1,0.113,0.201c0.081,0.184,0.191,0.435,0.496,0.653c0.295,0.213,0.577,0.346,0.804,0.452
	c0.501,0.237,0.501,0.237,0.246,0.889c-0.256,0.654-0.562,1.039-1.023,1.289c-1.325,0.723-2.569,0.535-3.498-0.522
	c-0.143-0.163-0.259-0.384-0.381-0.617c-0.127-0.241-0.257-0.483-0.422-0.704c-0.106-0.143-0.232-0.291-0.364-0.444
	c-0.391-0.458-0.796-0.932-0.721-1.364l-0.999-0.172c-0.154,0.901,0.458,1.618,0.95,2.194c0.116,0.136,0.229,0.267,0.322,0.392
	c0.133,0.178,0.233,0.375,0.336,0.568c0.145,0.277,0.295,0.562,0.517,0.816c0.349,0.396,0.744,0.693,1.166,0.908l-0.154,0.503
	c0.331,0.102,0.752,0.379,1.122,0.622c0.051,0.033,0.097,0.061,0.146,0.094c-0.033,0.217-0.056,0.434-0.073,0.646
	c-0.028,0.37-0.055,0.719-0.167,1.009c-0.126,0.325-0.291,0.388-0.685,0.511c-0.352,0.108-0.791,0.245-1.162,0.689
	c-0.565,0.677-0.45,1.589-0.349,2.394c0.114,0.891,0.152,1.454-0.235,1.75c-0.029,0.014-0.128,0.031-0.192,0.044
	c-0.271,0.05-0.68,0.126-0.937,0.503c-0.242,0.354-0.208,0.743-0.184,1.027c0.012,0.133,0.022,0.259,0.005,0.343
	c-0.11,0.51-0.556,1.348-0.991,1.869c-0.104,0.123-0.223,0.289-0.351,0.47c-0.251,0.353-0.629,0.884-0.89,0.992
	c-0.341,0.143-1.066,0.051-1.65-0.023c-0.149-0.02-0.291-0.036-0.43-0.051c0.011-0.626,0.006-1.325-0.49-1.955
	c-0.143-0.18-0.272-0.298-0.396-0.406c-0.135-0.118-0.209-0.183-0.286-0.341c-0.116-0.234-0.146-0.464-0.183-0.754l-0.024-0.189
	c-0.131-0.965-0.005-1.787,0.186-2.846c0.164-0.917,0.215-2.153-0.479-2.834c-0.223-0.219-0.473-0.3-0.656-0.359
	c-0.19-0.062-0.226-0.081-0.262-0.143c-0.052-0.087-0.061-0.209-0.071-0.4c-0.02-0.352-0.05-0.882-0.594-1.314
	c-0.645-0.513-1.501-0.464-2.258-0.416c-0.251,0.015-0.497,0.034-0.72,0.021c-1.037-0.043-1.784-0.179-2.534-0.739
	c-0.592-0.442-0.932-0.797-1.037-1.396c-0.091-0.527-0.016-1.205,0.05-1.802l0.042-0.395c0.012-0.124,0.019-0.273,0.026-0.434
	c0.017-0.366,0.044-0.979,0.199-1.168l-0.393-0.32l0.513,0.26c0.155,0.006,0.417,0.019,0.741-0.155
	c0.283-0.152,1.117-0.922,1.264-1.087c0.241-0.273,0.403-0.602,0.53-0.904l0.034,0.073c0.689-0.32,1.768-0.543,2.628-0.543
	c0.276,0,0.611,0.02,0.912,0.041c0.225,0.015,0.454,0.023,0.684,0.031c0.027,0.188,0.088,0.379,0.219,0.554
	c0.424,0.57,1.591,0.774,2.247,0.844l0.607,0.065l-0.048-0.608c-0.002-0.024-0.002-0.048-0.002-0.069
	c0.393,0.027,0.792,0.118,1.208,0.214c0.834,0.192,1.698,0.39,2.589,0.056c0.593-0.222,0.862-0.538,0.801-0.937
	c-0.138-0.883-2.072-0.989-2.156-0.993c-0.146-0.007-0.293-0.003-0.438,0.001c-0.284,0.005-0.524,0.014-0.716-0.07
	c-0.165-0.073-0.332-0.193-0.51-0.321c-0.237-0.171-0.507-0.364-0.83-0.484c-0.277-0.102-0.544-0.139-0.803-0.174
	c-0.293-0.041-0.547-0.075-0.773-0.198c-0.346-0.187-0.868-0.896-1.119-1.415l-0.825-1.697l-0.137,1.881
	c-0.004,0.049-0.006,0.098-0.008,0.148c-0.117-0.086-0.254-0.145-0.423-0.151c-0.286-0.02-0.513,0.125-0.727,0.399
	c-0.139,0.177-0.215,0.355-0.283,0.511c-0.062,0.143-0.111,0.256-0.198,0.354l-0.158,0.18c-0.234,0.269-0.437,0.5-0.688,0.634
	c-0.333,0.178-1.692,0.327-1.969,0.187c-0.167-0.165-0.11-1.028-0.08-1.414c0.13-0.007,0.273-0.01,0.414-0.014
	c0.557-0.013,1.132-0.026,1.54-0.239c0.595-0.312,0.818-0.892,0.556-1.442c-0.173-0.362-0.505-0.47-0.725-0.541
	c-0.03-0.01-0.067-0.021-0.102-0.037c0.104-0.043,0.24-0.087,0.336-0.119c0.328-0.107,0.667-0.218,0.901-0.457
	c0.164-0.167,0.262-0.355,0.341-0.506c0.061-0.117,0.114-0.218,0.175-0.27c0.155-0.132,0.441-0.196,0.716-0.258
	c0.128-0.028,0.253-0.057,0.372-0.091l0.349-0.101l0.017-0.362c0.009-0.178,0.014-0.352,0.018-0.523
	c0.007-0.331,0.014-0.648,0.056-0.963c0.105-0.018,0.202-0.04,0.291-0.061c0.03-0.007,0.058-0.013,0.085-0.02
	c0.056,0.189,0.135,0.356,0.206,0.505c0.054,0.115,0.11,0.229,0.147,0.35l0.078,0.251l0.251,0.081
	c0.771,0.249,1.289-0.359,1.597-0.721c0.093-0.109,0.18-0.216,0.271-0.293l0.191-0.154c0.465-0.364,0.585-0.573,0.554-1.342
	c-0.016-0.367-0.01-0.725-0.005-1.083c0.006-0.372,0.011-0.743-0.004-1.121l-0.021-0.519l-0.518,0.034
	c-0.807,0.053-1.109,0.931-1.377,1.707c-0.112,0.326-0.322,0.934-0.465,1.003c-0.022-0.003-0.095-0.064-0.142-0.105
	c-0.135-0.115-0.339-0.289-0.644-0.328c-0.58-0.075-0.842,0.151-1.031,0.408c-0.049,0.067-0.055,0.071-0.074,0.08
	c-0.092,0.043-0.323,0.135-0.442,0.034c-0.098-0.082-0.165-0.308-0.081-0.61c0.062-0.223,0.149-0.271,0.383-0.402
	c0.211-0.118,0.473-0.265,0.701-0.569c0.271-0.361,0.309-0.767,0.34-1.092c0.008-0.096,0.017-0.191,0.033-0.285
	c0.122-0.724,0.688-1.464,1.512-1.979c0.835-0.521,1.775-0.703,2.515-0.487c0.38,0.111,0.941,0.318,1.189,0.461
	c0.157,0.089,0.273,0.209,0.407,0.348c0.226,0.233,0.506,0.523,1.019,0.669c0.492,0.141,0.804,0.111,1.24,0.004
	c0.477-0.117,0.752-0.341,0.994-0.539c0.135-0.109,0.251-0.203,0.4-0.28c0.075-0.039,0.184-0.046,0.32-0.056
	c0.168-0.012,0.378-0.026,0.591-0.116l0.91-0.379l-0.173-0.106c0.138-0.045,0.258-0.102,0.373-0.156
	c0.071-0.034,0.146-0.07,0.231-0.105c0.105-0.042,0.183-0.068,0.241-0.088c0.398-0.133,0.489-0.291,0.628-0.673l0.041-0.112
	c0.105-0.28,0.11-0.604,0.115-0.918c0.004-0.173,0.009-0.462,0.046-0.54c0.051-0.092,0.357-0.073,0.582-0.062
	c0.016,0.001,0.03,0.001,0.047,0.001l0.001,0.077L65.7,9.284c0.265-0.003,0.535-0.001,0.789-0.035L66.863,9.2l0.06-0.372
	c0.02-0.121,0.056-0.407,0.008-0.664c0.431-0.121,1.519-1.274,1.671-1.593c0.174-0.369,0.195-0.714,0.208-0.945
	c0.066,0.013,0.155,0.035,0.271,0.069l0.524,0.152l0.113-0.534c0.035-0.168,0.059-0.339,0.084-0.511
	c0.014-0.1,0.027-0.2,0.044-0.299c0.811-0.317,1.459,0.175,2.407,0.978c0.853,0.722,1.817,1.542,3.062,1.247l0.457-0.108
	l-0.073-0.463c-0.005-0.03,0.002-0.099,0.009-0.162c0.49,0.003,0.835,0.063,1.303,0.287c0.608,0.291,1.293,0.619,2.204,0.526
	l0.431-0.044l0.023-0.432c0.025-0.466-0.021-0.849-0.082-1.208c0.06,0.119,0.147,0.241,0.282,0.347
	c0.44,0.348,1.214,0.266,1.837,0.2c0.133-0.014,0.252-0.027,0.345-0.032c0.471-0.023,0.728,0.046,1.194,0.169
	c0.629,0.168,1.193,0.218,1.933-0.042c0.568,0.414,1.463,0.013,1.936-0.197c0.099-0.044,0.188-0.084,0.261-0.112
	c0.774-0.293,1.926-0.613,3.052-0.459c0.449,0.061,0.914,0.099,1.388,0.137c0.353,0.029,0.71,0.058,1.067,0.098
	c0.492,0.055,0.512,0.126,0.511,0.127c0.001,0.007,0.009,0.078-0.064,0.244L93.203,5.94l0.253,0.245
	c0.07,0.067,0.172,0.278,0.207,0.421c-0.093,0.006-0.221,0.001-0.308-0.002c-0.127-0.006-0.25-0.011-0.354-0.002l-0.453,0.027
	l-0.027,0.56c-0.032,0.615-0.062,1.195,0.329,1.788c0.165,0.25,0.368,0.409,0.517,0.524c0.019,0.014,0.04,0.031,0.061,0.047
	c-0.027,0.035-0.068,0.082-0.133,0.143c-0.169,0.051-0.484,0.146-0.709,0.512c-0.16,0.262-0.181,0.584-0.198,0.869
	c-0.007,0.11-0.01,0.215-0.029,0.299c-0.023,0.095-0.072,0.245-0.128,0.392l-0.159-0.01c0.043,0.003,0.095,0.023,0.142,0.055
	c-0.002,0.006-0.005,0.013-0.008,0.02l-0.249,0.114l-0.785-0.099c-0.016,0.128-0.04,0.251-0.063,0.373
	c-0.074,0.386-0.157,0.823-0.012,1.33c0.087,0.303,0.242,0.553,0.379,0.774c0.19,0.309,0.308,0.511,0.29,0.76
	c-0.018,0.253-0.173,0.603-0.323,0.941c-0.113,0.254-0.229,0.517-0.304,0.771c-0.173-0.255-0.4-0.411-0.58-0.534
	c-0.147-0.101-0.264-0.18-0.324-0.283c-0.209-0.358-0.107-1.155-0.018-1.856c0.079-0.604,0.159-1.228,0.086-1.759l-0.022-0.16
	l-0.109-0.118c-0.226-0.24-0.541-0.448-0.846-0.556l-0.635-0.226l-0.04,0.672c-0.016,0.261-0.016,0.526-0.016,0.792
	c0,0.085,0,0.17,0,0.255c-0.759,0.104-1.265,0.479-1.72,0.818c-0.254,0.189-0.494,0.368-0.78,0.511
	c-0.075,0.038-0.175,0.07-0.282,0.108c-0.411,0.143-0.977,0.34-1.165,0.858c-0.111,0.306-0.061,0.641,0.148,0.991
	c0.236,0.401,1.409,0.886,1.422,0.891c0.221,0.086,0.457,0.117,0.663,0.144c0.131,0.018,0.329,0.043,0.374,0.069
	c0.069,0.063,0.143,0.319,0.191,0.49c0.048,0.172,0.098,0.34,0.161,0.479c0.065,0.147,0.141,0.305,0.219,0.469
	c0.128,0.27,0.266,0.557,0.376,0.833c-0.107-0.119-0.238-0.217-0.39-0.289l-0.778-0.368l0.057,0.859
	c0.025,0.391-0.38,1.445-0.63,1.74c-0.131,0.153-0.264,0.215-0.433,0.293c-0.323,0.15-0.766,0.355-0.888,1.141
	c-0.035,0.231,0.008,0.55,0.085,1.093c0.021,0.146,0.052,0.365,0.08,0.606c-0.097-0.153-0.217-0.297-0.335-0.438
	c-0.151-0.179-0.307-0.365-0.375-0.53l-0.186-0.446l-0.455,0.165c-1.137,0.413-0.667,2.027-0.415,2.895
	c0.037,0.125,0.068,0.233,0.089,0.317l0.063,0.261c0.243,0.973,0.434,1.741-0.149,2.512c-0.268,0.355-0.606,0.509-1.037,0.704
	c-0.232,0.105-0.468,0.213-0.698,0.354c-0.065,0.039-0.12,0.082-0.167,0.129l0.039-0.222l-0.637,0.034
	c-0.511,0.027-0.759,0.276-0.877,0.48c-0.232,0.4-0.163,0.956,0.211,1.696l0.109,0.212c0.252,0.479,0.365,0.696,0.202,1.135
	c-0.1,0.27-0.181,0.378-0.185,0.411c-0.107-0.052-0.309-0.254-0.434-0.378c-0.218-0.218-0.443-0.443-0.708-0.561l-0.667-0.297
	l-0.067,1.009c-0.032,0.375-0.069,0.791-0.008,1.159c-0.132-0.078-0.236-0.161-0.288-0.253c-0.037-0.076,0.002-0.356,0.025-0.523
	c0.043-0.3,0.087-0.608,0.005-0.907C78.251,33.125,78.058,32.949,77.733,32.799z M57.172,27.139c0.004,0,0.008,0,0.012,0
	c0.121-0.003,0.241-0.007,0.361-0.001c0.176,0.009,0.378,0.038,0.568,0.076C57.818,27.242,57.504,27.203,57.172,27.139z
	 M53.219,18.205c0.731-0.031,1.055-0.817,1.302-1.524c0,0.176,0.003,0.353,0.01,0.532c0.013,0.274,0,0.354,0.001,0.363
	c-0.019,0.023-0.101,0.088-0.167,0.14l-0.216,0.174c-0.132,0.111-0.262,0.26-0.394,0.415c-0.147,0.173-0.254,0.292-0.34,0.357
	c-0.015-0.032-0.031-0.064-0.046-0.096C53.306,18.432,53.251,18.315,53.219,18.205z"/><path fill="#010101" d="M82.376,40.746c0.184-0.061,0.429-0.113,0.707-0.157c0.567,0.166,1.161,0.305,1.674,0.305
	c0.611,0,1.107-0.198,1.309-0.785l0.215-0.63l-0.665-0.038c-0.584-0.035-1.582-0.005-2.45,0.112
	c-0.157-0.047-0.326-0.099-0.51-0.157c-0.479-0.152-0.856-0.273-1.136-0.308l-0.124,1.005c0.168,0.021,0.489,0.121,0.842,0.232
	L82.376,40.746z"/><path fill="#010101" d="M82.318,38.584l0.337-0.008c0.694-0.006,1.414-0.011,1.585-1.272c0.057-0.416,0.171-1.279-0.87-1.577
	l-0.121,0.42l-0.39-0.361c-0.112,0.12-0.389,0.198-0.656,0.273c-0.534,0.15-1.341,0.378-1.422,1.291
	c-0.035,0.389,0.053,0.697,0.261,0.917c0.264,0.277,0.624,0.325,0.979,0.325C82.121,38.592,82.222,38.588,82.318,38.584z
	 M81.79,37.439c0.016-0.179,0.139-0.251,0.688-0.405c0.245-0.07,0.514-0.146,0.754-0.278c0.014,0.009,0.019,0.015,0.019,0.015
	c0.021,0.04,0.016,0.174-0.014,0.397c-0.04,0.291-0.091,0.359-0.089,0.359c-0.061,0.033-0.305,0.035-0.599,0.037l-0.271,0.008
	c-0.167,0.007-0.446,0.018-0.483,0.022C81.794,37.594,81.78,37.554,81.79,37.439z"/><path fill="#010101" d="M95.32,38.315c-0.428-0.271-0.979-0.329-1.368-0.33l-0.001,0.43c-0.003,0.001-0.005,0.001-0.008,0.002
	l0.008,0.045l-0.001,0.537c0.034,0,0.068,0.001,0.102,0.002l0.076,0.411c0.231-0.039,0.735,0.133,1.192,0.359
	c0.207,0.218,0.468,0.413,0.812,0.413c0.021,0,0.044-0.001,0.065-0.002l1.409-0.1l-1.151-0.818
	c-0.086-0.062-0.263-0.173-0.493-0.297c-0.031-0.036-0.061-0.074-0.086-0.104C95.724,38.673,95.548,38.458,95.32,38.315z"/><path fill="#010101" d="M97.852,42.928l0.668-0.194l-0.028-0.779c-0.228,0.009-0.42,0.105-0.544,0.272
	C97.853,42.354,97.758,42.581,97.852,42.928z"/><path fill="#010101" d="M97.232,43.651l0.171,0.866l0.785-0.454C97.998,43.732,97.634,43.575,97.232,43.651z"/><path fill="#010101" d="M60.82,23.301l-0.407,0.01c-0.479,0.019-0.91-0.086-1.377-0.189c-0.267-0.059-0.53-0.117-0.798-0.156
	l0.039-0.161c-0.617-0.147-0.956,0.019-1.129,0.186c-0.119,0.114-0.306,0.372-0.219,0.812l0.079,0.402l0.41,0.006
	c0.347,0.005,0.801,0.203,1.24,0.394c0.516,0.225,1.047,0.457,1.562,0.457c0.101,0,0.202-0.009,0.302-0.029l0.307-0.061l0.083-0.301
	c0.08-0.289,0.064-0.731,0.004-0.976L60.82,23.301z"/><path fill="#010101" d="M63.952,23.625c-0.035-0.022-0.083-0.056-0.093-0.034c-0.005-0.087,0.008-0.263,0.014-0.353
	c0.009-0.115,0.015-0.216,0.013-0.281l-0.012-0.423l-0.42-0.063c-0.145-0.021-0.291-0.025-0.439-0.015l0.018,0.216l-0.724-0.044
	c-0.14,0.104-0.403,0.299-0.435,0.718c-0.037,0.499,0.305,0.866,0.53,1.109l0.098,0.106c0.111,0.13,0.219,0.237,0.317,0.335
	c0.28,0.278,0.355,0.353,0.338,0.741l-0.057,1.208l0.9-0.808c0.619-0.557,0.738-1.235,0.354-2.018
	C64.26,23.824,64.089,23.713,63.952,23.625z"/><path fill="#010101" d="M33.913,54.031l-0.02,0.067l-0.354-0.31c-0.124,0.128-0.38,0.397-0.25,0.865l0.077,0.276l0.275,0.076
	c0.224,0.062,0.477,0.125,0.74,0.125c0.071,0,0.143-0.005,0.215-0.015l-0.146-1.003C34.294,54.138,34.046,54.067,33.913,54.031z"/><path fill="#010101" d="M29.406,12.73c-0.124,0.335,0.078,0.677,0.343,0.953c-0.006,0.008-0.012,0.015-0.017,0.021l0.211,0.163
	c0.118,0.103,0.235,0.19,0.334,0.258l0.256,0.198c0.18-0.209,1.415-1,1.717-1.098l1.458-0.473l-1.452-0.489
	c-0.196-0.066-0.428-0.108-0.662-0.121c-0.031-0.069-0.065-0.137-0.098-0.205c-0.072-0.146-0.141-0.285-0.16-0.385l-0.235-1.262
	l-0.69,1.083c-0.193,0.303-0.323,0.628-0.42,0.937C29.691,12.35,29.495,12.49,29.406,12.73z"/><path fill="#010101" d="M29.786,10.587c-0.193-0.206-0.299-1.27-0.154-1.535l-0.853-0.547c-0.4,0.624-0.262,2.352,0.359,2.86
	L29.786,10.587z"/><path fill="#010101" d="M27.096,8.347c0-0.059,0-0.118,0-0.177l-0.001-0.363c0-0.001,0-0.002,0-0.004V7.797l-1.013,0.006
	c0,0.124-0.011,0.267-0.021,0.418c-0.043,0.621-0.091,1.324,0.324,1.761c0.076,0.08,0.186,0.168,0.335,0.23l-0.072,0.326
	c0.152,0.034,0.288,0.048,0.409,0.048c0.465,0,0.718-0.212,0.837-0.361c0.236-0.294,0.268-0.705,0.085-1.099
	C27.808,8.76,27.483,8.481,27.096,8.347z"/><path fill="#010101" d="M36.479,3.611c-0.351,0.221-0.605,0.381-1.092,0.445l0.13,1.004c0.708-0.092,1.111-0.346,1.501-0.591
	c0.155-0.098,0.319-0.202,0.52-0.303L37.08,3.262C36.849,3.379,36.658,3.499,36.479,3.611z"/><path fill="#010101" d="M32.913,22.093c0.012,0.04,0.025,0.079,0.04,0.118l0.126-0.047c0.125,0.038,0.263,0.05,0.41,0.033
	l-0.023-0.179l0.435-0.164c-0.074-0.194-0.078-0.428-0.012-0.712l0.13-0.562l-0.573-0.057c-0.354-0.036-0.678,0.11-0.849,0.39
	c-0.167,0.272-0.161,0.625,0.016,0.899C32.69,21.931,32.793,22.026,32.913,22.093z"/></svg>